<svg width="1848" height="683" viewBox="0 0 1848 683" fill="none" xmlns="http://www.w3.org/2000/svg">
<rect width="1848" height="683" fill="#0075C9"/>
<path d="M1648.53 333.152C1640.53 333.152 1633.86 339.83 1633.86 347.845C1633.86 355.859 1640.53 362.537 1648.53 362.537C1656.53 362.537 1663.2 355.859 1663.2 347.845C1663.2 339.83 1656.53 333.152 1648.53 333.152ZM1648.53 359.866C1641.86 359.866 1636.53 354.523 1636.53 347.845C1636.53 341.166 1641.86 335.823 1648.53 335.823C1655.2 335.823 1660.53 341.166 1660.53 347.845C1660.53 354.523 1655.2 359.866 1648.53 359.866ZM1656.53 345.173C1656.53 343.837 1655.86 341.834 1654.53 341.166C1653.2 340.498 1651.86 340.498 1650.53 340.498H1643.19V355.858H1646.53V349.18H1649.86L1653.2 355.858H1656.53L1652.53 349.18C1654.53 349.18 1656.53 347.844 1656.53 345.173ZM1650.53 347.177H1645.86V342.502H1649.86C1651.2 342.502 1653.86 342.502 1653.86 344.505C1653.2 346.509 1651.86 347.177 1650.53 347.177ZM670.265 184.224C651.593 184.224 637.589 184.892 626.92 184.892C616.917 184.892 606.914 184.892 597.578 184.224V190.903C608.915 190.903 620.918 189.567 620.918 212.273V333.82C620.251 351.184 612.916 351.184 597.578 353.187V359.866C608.915 359.866 619.584 359.198 630.921 359.198C642.924 359.198 654.26 359.866 667.597 359.866C756.288 359.866 770.959 297.089 770.959 272.379C770.959 227.634 735.616 184.224 670.265 184.224ZM670.932 351.184C658.928 351.184 644.925 349.18 644.925 329.813V192.906C649.592 192.906 654.26 191.57 664.263 191.57C712.943 191.57 742.951 225.63 742.951 272.379C742.951 310.445 725.613 351.184 670.932 351.184ZM833.642 244.33C800.3 244.33 776.293 271.711 776.293 303.767C776.293 339.163 803.634 362.537 836.976 362.537C868.985 362.537 894.325 335.156 894.325 303.099C894.992 267.704 868.985 244.33 833.642 244.33ZM836.976 356.526C810.969 356.526 799.633 322.467 799.633 301.764C799.633 280.393 809.636 251.008 834.309 251.008C860.983 251.008 871.653 285.068 871.653 305.771C871.653 327.141 861.65 356.526 836.976 356.526ZM997.687 344.505V279.725C997.687 260.358 990.351 244.33 969.012 244.33C952.341 244.33 939.671 253.011 925.667 263.029V247.001C925.667 244.997 925 244.33 924.333 244.33C912.33 249.672 902.328 253.011 890.991 256.351V261.026C902.994 265.7 905.662 268.372 905.662 277.722V344.505C905.662 352.519 900.327 352.519 893.658 352.519H888.991V359.198C898.326 359.198 906.995 358.53 916.331 358.53C925.667 358.53 934.336 359.198 943.005 359.198V352.519H938.337C931.002 352.519 925.667 352.519 925.667 344.505V270.375C933.669 265.033 947.006 258.354 955.009 258.354C969.012 258.354 978.348 265.7 978.348 279.725V344.505C978.348 352.519 973.013 352.519 966.345 352.519H961.677V359.198C971.013 359.198 979.682 358.53 989.018 358.53C998.354 358.53 1007.02 359.198 1015.69 359.198V352.519H1011.02C1003.02 352.519 997.687 352.519 997.687 344.505ZM1111.05 349.848C1105.72 349.848 1101.71 345.841 1101.71 335.823V266.368C1101.71 252.344 1082.38 244.997 1071.04 244.997C1061.7 244.997 1057.04 248.337 1048.37 253.011C1031.03 262.361 1019.69 268.372 1019.69 281.728C1019.69 283.732 1020.36 287.071 1024.36 287.071C1030.36 287.071 1038.36 283.732 1038.36 276.386C1039.03 265.033 1046.37 259.022 1057.7 259.022C1073.71 259.022 1081.71 266.368 1081.71 280.393V297.089C1027.69 315.788 1017.03 319.127 1016.36 339.83C1016.36 353.187 1027.69 363.873 1043.7 363.873C1059.04 363.873 1070.37 355.858 1082.38 345.173C1083.04 354.523 1087.71 363.873 1097.71 363.873C1107.72 363.873 1115.72 356.526 1122.39 350.516L1120.39 346.509C1118.39 347.844 1114.38 349.848 1111.05 349.848ZM1082.38 336.491C1074.37 343.837 1066.37 351.184 1055.04 351.184C1045.03 351.184 1037.03 343.17 1037.03 333.152C1037.03 314.453 1069.71 308.442 1082.38 303.767V336.491ZM1160.4 344.505V170.867C1160.4 168.864 1159.73 167.528 1158.4 167.528C1157.73 167.528 1155.73 168.864 1153.06 170.2C1147.73 173.539 1137.06 177.546 1127.06 180.885V184.892C1136.39 187.563 1140.39 188.231 1140.39 204.259V343.837C1140.39 351.852 1135.06 351.851 1128.39 351.851H1123.72V358.53C1133.06 358.53 1141.73 357.862 1151.06 357.862C1160.4 357.862 1169.07 358.53 1177.07 358.53V351.851H1173.07C1165.73 352.519 1160.4 352.519 1160.4 344.505ZM1282.43 337.827V170.867C1282.43 168.864 1281.76 167.528 1280.43 167.528C1279.76 167.528 1277.76 168.864 1275.1 170.2C1269.76 173.539 1259.09 177.546 1249.09 180.885V184.892C1258.42 187.563 1262.42 188.231 1262.42 204.259V249.004C1255.09 245.665 1247.09 244.33 1239.09 244.33C1204.41 244.33 1177.07 274.382 1177.07 308.442C1177.07 336.491 1193.74 363.205 1223.75 363.205C1239.09 363.205 1253.09 353.855 1262.42 345.173H1263.09V356.526C1263.09 359.866 1263.09 363.205 1265.76 363.205C1267.09 363.205 1273.76 360.533 1281.76 357.862C1289.1 355.859 1295.77 353.855 1299.77 352.519V347.177H1295.77C1285.1 347.844 1282.43 347.845 1282.43 337.827ZM1262.42 333.152C1262.42 342.502 1245.75 347.845 1238.42 347.845C1215.75 347.845 1199.07 327.141 1199.07 299.76C1199.07 265.7 1218.41 252.344 1236.42 252.344C1247.75 252.344 1263.09 257.018 1263.09 275.718C1262.42 275.718 1262.42 333.152 1262.42 333.152ZM1324.44 269.04C1324.44 258.354 1333.78 252.344 1343.78 252.344C1359.78 252.344 1368.45 261.693 1371.12 277.054H1377.12L1375.12 251.676C1365.12 246.333 1354.45 244.33 1346.45 244.33C1319.11 244.33 1307.77 262.361 1307.77 276.386C1307.77 317.124 1362.45 307.106 1362.45 337.159C1362.45 345.841 1357.12 355.191 1342.45 355.191C1324.44 355.191 1314.44 341.166 1311.1 324.47L1306.44 325.806L1309.1 354.523C1317.77 359.866 1329.78 363.205 1339.78 363.205C1369.79 363.205 1383.12 345.841 1383.12 329.145C1383.12 289.743 1324.44 298.424 1324.44 269.04ZM1447.14 244.33C1413.8 244.33 1389.79 271.711 1389.79 303.767C1389.79 339.163 1417.13 362.537 1450.48 362.537C1482.48 362.537 1507.82 335.156 1507.82 303.099C1507.82 267.704 1481.82 244.33 1447.14 244.33ZM1449.81 356.526C1423.8 356.526 1412.47 322.467 1412.47 301.764C1412.47 280.393 1422.47 251.008 1447.14 251.008C1473.82 251.008 1484.49 285.068 1484.49 305.771C1485.15 327.141 1475.15 356.526 1449.81 356.526ZM1609.85 344.505V279.725C1609.85 260.358 1602.52 244.33 1581.18 244.33C1564.51 244.33 1551.84 253.011 1537.83 263.029V247.001C1537.83 244.997 1537.17 244.33 1536.5 244.33C1524.5 249.672 1514.49 253.011 1503.16 256.351V261.026C1515.16 265.7 1517.83 268.372 1517.83 277.722V344.505C1517.83 352.519 1512.49 352.519 1505.82 352.519H1501.16V359.198C1510.49 359.198 1519.16 358.53 1528.5 358.53C1537.83 358.53 1546.5 359.198 1555.17 359.198V352.519H1550.5C1543.17 352.519 1537.83 352.519 1537.83 344.505V270.375C1545.83 265.033 1559.17 258.354 1567.17 258.354C1581.18 258.354 1590.51 265.7 1590.51 279.725V344.505C1590.51 352.519 1585.18 352.519 1578.51 352.519H1573.84V359.198C1583.18 359.198 1591.85 358.53 1601.18 358.53C1610.52 358.53 1619.19 359.198 1627.86 359.198V352.519H1623.19C1615.19 352.519 1609.85 352.519 1609.85 344.505ZM262.821 381.236C262.821 411.957 287.495 436.667 318.169 436.667C348.844 436.667 373.518 411.957 373.518 381.236C373.518 350.516 348.844 325.806 318.169 325.806C287.495 325.138 262.821 350.516 262.821 381.236ZM318.169 302.431C337.508 302.431 354.846 309.11 368.85 321.131C352.179 292.414 321.504 272.379 286.161 271.043C247.484 270.375 214.141 291.746 196.803 323.134C192.135 332.484 188.801 342.502 186.801 353.187C186.134 355.191 186.134 357.194 186.134 359.198H242.816C252.151 326.474 282.16 302.431 318.169 302.431ZM394.857 270.375C372.851 255.683 346.844 246.333 318.169 246.333C294.83 246.333 273.491 252.344 254.152 262.361C264.155 259.69 274.824 258.354 286.161 258.354C342.843 259.69 388.188 303.099 393.523 357.862L394.19 359.198H451.539V184.224H394.857V270.375ZM318.169 460.041C298.831 460.041 281.493 453.363 267.489 441.342C284.16 470.059 314.835 490.094 350.178 491.43C388.855 492.098 422.198 470.727 439.536 439.338C444.203 429.988 447.538 419.971 449.538 409.285C450.205 407.282 450.205 405.279 450.205 403.275H393.523C384.187 435.331 354.179 460.041 318.169 460.041ZM242.816 403.943L242.149 402.607H184.8C194.803 466.72 250.818 515.472 317.503 515.472C340.842 515.472 362.181 509.461 381.52 499.444C371.517 502.115 360.848 503.451 349.511 503.451C294.163 502.115 248.817 458.706 242.816 403.943Z" fill="white"/>
<path d="M664.461 405.008H670.685V448.64H664.461V405.008Z" fill="white"/>
<path d="M696.661 404.6H702.663V443.334H723.335V448.677H696.661V404.6Z" fill="white"/>
<path d="M750.197 448.539V409.805H735.527V404.462H770.869V409.805H756.199V448.539H750.197Z" fill="white"/>
<path d="M791.984 404.778H807.544C809.766 404.778 814.212 404.778 817.769 407.004C820.881 409.23 822.659 412.347 822.659 415.909C822.659 419.025 821.325 421.697 819.547 423.478C817.769 425.259 815.546 426.149 814.212 426.149C818.213 427.04 820.436 429.266 820.881 434.609C821.325 439.951 821.77 443.513 823.548 448.411H816.879C815.99 445.294 815.101 439.951 815.101 436.835C814.212 430.601 812.878 428.821 805.321 428.821H797.763V448.856H791.539V404.778H791.984ZM797.763 423.923H807.544C807.988 423.923 811.545 423.923 813.323 423.033C814.212 422.587 816.435 420.807 816.435 417.245C816.435 410.121 810.211 410.121 807.544 410.121H797.763V423.923Z" fill="white"/>
<path d="M861.301 404.6H867.969L885.974 448.677H879.306L874.638 437.324H853.965L849.298 448.677H843.296L861.301 404.6ZM855.966 432.649H872.637L864.635 411.278C864.635 410.61 855.966 432.649 855.966 432.649Z" fill="white"/>
<path d="M912.763 448.539V409.805H898.092V404.462H933.435V409.805H918.765V448.539H912.763Z" fill="white"/>
<path d="M954.313 405.008H960.537V448.64H954.313V405.008Z" fill="white"/>
<path d="M990.665 409.627C995.11 404.73 1001.33 403.839 1005.34 403.839C1017.34 403.839 1025.34 411.853 1025.34 426.546C1025.34 438.122 1020.45 450.143 1004.89 450.143C989.775 450.143 984.885 439.457 984.885 427.436C984.885 422.094 985.774 414.97 990.665 409.627ZM995.11 440.793C997.778 443.91 1001.33 444.8 1004.89 444.8C1008.45 444.8 1012 443.91 1014.67 440.793C1018.23 436.341 1018.67 429.662 1018.67 426.546C1018.67 416.751 1015.56 409.182 1005.34 409.182C994.221 409.182 991.554 418.086 991.554 426.991C991.109 431.443 991.998 436.786 995.11 440.793Z" fill="white"/>
<path d="M1049.44 404.6H1058.11L1079.45 440.663V404.6H1084.78V448.677H1076.78L1054.77 411.278V448.677H1049.44V404.6Z" fill="white"/>
<path d="M1148.14 436.132C1148.14 439.249 1148.59 445.037 1158.81 445.037C1168.15 445.037 1169.04 439.249 1169.04 437.023C1169.04 432.125 1165.04 431.234 1158.81 429.454C1152.14 427.673 1149.03 427.228 1146.81 425.447C1143.25 423.221 1142.36 419.659 1142.36 416.987C1142.36 408.083 1150.81 404.076 1159.26 404.076C1162.37 404.076 1168.15 404.521 1171.7 408.528C1174.37 411.199 1174.37 414.316 1174.37 416.097H1168.15C1167.7 410.754 1163.26 409.418 1158.81 409.418C1152.59 409.418 1149.03 412.09 1149.03 416.542C1149.03 420.549 1151.7 421.885 1157.03 423.221C1167.26 425.892 1168.59 426.337 1171.26 427.673C1175.26 430.344 1175.71 434.796 1175.71 436.577C1175.71 444.146 1169.48 450.379 1158.37 450.379C1154.81 450.379 1148.14 449.934 1144.59 445.482C1141.92 442.365 1141.92 438.804 1141.92 436.577H1148.14V436.132Z" fill="white"/>
<path d="M1203.2 409.626C1207.64 404.729 1213.87 403.838 1217.87 403.838C1229.87 403.838 1237.87 411.852 1237.87 426.545C1237.87 438.121 1232.98 450.142 1217.42 450.142C1202.31 450.142 1197.42 439.456 1197.42 427.435C1197.42 422.092 1198.31 414.969 1203.2 409.626ZM1208.09 440.792C1210.75 443.909 1214.31 444.799 1217.87 444.799C1221.42 444.799 1224.98 443.909 1227.65 440.792C1231.2 436.34 1231.65 429.661 1231.65 426.545C1231.65 416.75 1228.54 409.181 1218.31 409.181C1207.2 409.181 1204.53 418.085 1204.53 426.99C1204.09 431.442 1204.98 436.785 1208.09 440.792Z" fill="white"/>
<path d="M1262.08 404.6H1268.08V443.334H1288.75V448.677H1262.08V404.6Z" fill="white"/>
<path d="M1317.39 404.778V431.937C1317.39 436.39 1318.28 438.616 1319.17 439.951C1321.84 443.513 1326.29 444.404 1329.4 444.404C1341.4 444.404 1341.4 435.054 1341.4 431.937V404.778H1347.18V431.937C1347.18 434.163 1347.18 439.061 1343.62 443.513C1339.18 448.856 1332.51 449.746 1329.4 449.746C1325.4 449.746 1317.84 448.41 1313.84 442.623C1312.5 440.842 1311.17 438.17 1311.17 431.492V404.778H1317.39Z" fill="white"/>
<path d="M1383.88 448.539V409.805H1369.21V404.462H1404.56V409.805H1389.89V448.539H1383.88Z" fill="white"/>
<path d="M1425.56 405.008H1431.78V448.64H1425.56V405.008Z" fill="white"/>
<path d="M1461.68 409.627C1466.12 404.73 1472.35 403.839 1476.35 403.839C1488.35 403.839 1496.35 411.853 1496.35 426.546C1496.35 438.122 1491.46 450.143 1475.9 450.143C1460.79 450.143 1455.9 439.457 1455.9 427.436C1455.9 422.094 1456.79 414.97 1461.68 409.627ZM1466.12 440.793C1468.79 443.91 1472.35 444.8 1475.9 444.8C1479.46 444.8 1483.02 443.91 1485.69 440.793C1489.24 436.341 1489.69 429.662 1489.69 426.546C1489.69 416.751 1486.57 409.182 1476.35 409.182C1465.24 409.182 1462.57 418.086 1462.57 426.991C1462.12 431.443 1463.01 436.786 1466.12 440.793Z" fill="white"/>
<path d="M1520.54 404.6H1529.21L1550.55 440.663V404.6H1555.89V448.677H1547.89L1525.88 411.278V448.677H1520.54V404.6Z" fill="white"/>
<path d="M1587.09 436.133C1587.09 439.249 1587.54 445.037 1597.76 445.037C1607.1 445.037 1607.99 439.249 1607.99 437.023C1607.99 432.126 1603.98 431.235 1597.76 429.454C1591.09 427.673 1587.98 427.228 1585.76 425.447C1582.2 423.221 1581.31 419.659 1581.31 416.988C1581.31 408.083 1589.76 404.076 1598.2 404.076C1601.32 404.076 1607.1 404.522 1610.65 408.529C1612.88 411.2 1613.32 414.317 1613.32 416.097H1607.1C1606.65 410.755 1602.21 409.419 1597.76 409.419C1591.54 409.419 1587.98 412.091 1587.98 416.543C1587.98 420.55 1590.65 421.886 1595.98 423.221C1606.65 425.893 1607.54 426.338 1610.21 427.674C1614.21 430.345 1614.65 434.797 1614.65 436.578C1614.65 444.147 1608.43 450.38 1597.32 450.38C1593.76 450.38 1587.09 449.935 1583.53 445.483C1580.87 442.366 1580.87 438.804 1580.87 436.578H1587.09V436.133Z" fill="white"/>
<path fill-rule="evenodd" clip-rule="evenodd" d="M641.785 409.905V404.563H622.224C620.446 404.563 617.334 404.563 615.556 404.563V448.64H621.335V428.605H640.007V423.707H621.335V409.905H641.785Z" fill="white"/>
</svg>
