<?xml version="1.0" encoding="UTF-8"?>
<svg id="Layer_1" data-name="Layer 1" xmlns="http://www.w3.org/2000/svg" viewBox="0 0 121.97 21.11">
  <defs>
    <style>
      .cls-1 {
        fill: #ed1c29;
      }

      .cls-2 {
        fill: #41535d;
      }
    </style>
  </defs>
  <g>
    <path class="cls-2" d="M57,5.05c3.21,0,4.82,2.59,4.35,5.68-.51,3.33-2.99,5.61-6.06,5.61s-4.87-2.29-4.36-5.61c.46-3.09,2.86-5.68,6.07-5.68Zm.76-5.05c-5.94,0-11.44,4.19-12.42,10.61-.99,6.56,3.26,10.5,9.22,10.5s11.4-3.93,12.39-10.5c.98-6.42-3.26-10.61-9.19-10.61Z"/>
    <path class="cls-2" d="M21.61,.34H11.41C4.91,.34,1.24,3.81,.19,10.94c-.55,3.67,.12,6.39,1.97,8.07,1.84,1.69,3.82,1.82,6.22,1.82h10.71l1.86-12.57H8.85l-.66,4.9h6.49c-.1,.7-.42,2.12-.53,2.82h-5.11c-2.94,0-3.86-1.25-3.27-5.23,.63-4.28,2.08-5.39,4.98-5.39h10.71l.65-5.02h-.51Z"/>
    <path class="cls-2" d="M34.48,4.51c2.68,0,3.99,1.11,3.83,2.76-.13,1.33-.75,2.74-3.57,2.91,0,0-4.07-.08-4.9-.08,.11-.72,.61-4.86,.72-5.59h3.92ZM26.96,.34h-1.14l-3.04,20.49h5.73s.86-5.79,.99-6.68h4.56c.2,.49,2.73,6.68,2.73,6.68h6.32s-3.47-6.45-3.9-7.42c2.47-.78,4-3.21,4.07-6.22,.08-3.9-2.07-6.8-6.26-6.84h-10.07Z"/>
    <path class="cls-2" d="M113.28,.31h-17.52l-3.2,20.61h18.05l.8-4.72h-12.34c.11-.73,.38-2.63,.49-3.36h11.6l.69-4.77h-11.6c.11-.7,.44-2.32,.55-3.03h12.34l.68-4.72h-.54Z"/>
    <path class="cls-2" d="M91.6,.34h-5.66s-6,10.44-7.14,12.41c-.54-1.96-3.4-12.41-3.4-12.41h-6.46l6.17,20.49h5.14L92.41,.34h-.8Z"/>
    <polygon class="cls-1" points="76.16 .34 85.19 .34 79.04 11.14 76.16 .34"/>
  </g>
  <path class="cls-2" d="M118.91,6.1c-1.37,0-3.11-.72-3.11-2.88,0-1.88,1.37-2.94,3.1-2.94,1.47,0,3.07,.79,3.07,2.94,0,1.85-1.36,2.88-3.06,2.88Zm0-5.23c-1.29,0-2.44,.67-2.44,2.3,0,2.01,1.69,2.34,2.51,2.34,1.32,0,2.33-.81,2.33-2.29,0-1.64-1.19-2.35-2.39-2.35Zm1.52,3.91c-.4-.01-.69-.08-.99-.33-.26-.23-.4-.55-.59-.91h-.4v1.16h-.79V1.48h1.27c.72-.01,1.23,.33,1.23,1.04,0,.37-.18,.69-.55,.88,.09,.13,.28,.45,.42,.58,.13,.13,.26,.18,.49,.29l-.09,.51Zm-1.54-2.79h-.45v1.09h.4c.43,0,.56-.23,.56-.56s-.09-.52-.51-.52Z"/>
</svg>