<svg width="862px" height="338px" xmlns="http://www.w3.org/2000/svg" viewBox="0 0 862 338" fill-rule="evenodd" clip-rule="evenodd" stroke-linejoin="round" stroke-miterlimit="2"><g fill="#002632" fill-rule="nonzero"><path d="M142.149 3.459c30.32-6.36 62.15-3.61 91.62 5.46 19.71 6.17 38.47 15.56 54.86 28.16-14.36 12.85-28.72 25.72-43.11 38.54-24.18-14.41-52.87-21.15-80.93-18.9-27.95 2.25-55 14.69-74.7 34.68-21.23 21.04-33.85 50.67-33.59 80.64 0 26.93 10.67 53.57 28.97 73.29 20.6 22.57 50.71 36.01 81.26 36.34 45.88.04 91.76.01 137.64.01.04 18.75 0 37.49.02 56.24-45.55.03-91.1 0-136.65.02-31.79-.04-63.51-9.37-90.23-26.6-29.98-19.25-53.93-48.02-66.6-81.39-11.31-29.41-13.59-62.09-7.18-92.9 6.42-31.01 22.33-59.93 44.93-82.09 25.79-25.18 58.29-43.99 93.69-51.5z"/><path d="M258.169 94.809c15.19-13.63 30.41-27.21 45.63-40.81.02 61.97.01 123.95.01 185.93-15.21.01-30.41 0-45.62 0-.02-48.37.02-96.75-.02-145.12zm382.13.04c15.17-13.66 30.41-27.22 45.62-40.83.04 24.37-.01 48.75.03 73.12 5.47-5.74 10.95-11.48 16.43-17.21 21.02.01 42.05-.02 63.07.02-17.72 18.68-35.6 37.21-53.32 55.89 21.43 24.71 42.92 49.38 64.35 74.09-21.63.02-43.27-.01-64.91.01-8.57-9.79-17.06-19.66-25.63-29.45-.01 9.81 0 19.63-.01 29.44-15.21 0-30.41.01-45.61 0-.03-48.36 0-96.72-.02-145.08zm-261.87 8.15c18.78-2.78 38.1 2.27 54.26 11.89 12.26 8.01 22.46 19.47 27.9 33.16 7.3 17.84 6.6 38.77-1.97 56.04-6.95 14.28-19.02 25.97-33.5 32.5-18.85 8.66-41.54 7.97-59.94-1.54 0 34.17.02 68.34-.01 102.52-16.41-.01-32.81-.01-49.22 0-.04-53.18.01-106.36-.02-159.53-.03-19.52 5.36-40.74 20.61-54 11.58-10.78 26.1-18.79 41.89-21.04m7.62 43.7c-14.47 2.67-24.89 18.1-21.77 32.54 2.37 14.24 17.09 24.88 31.38 22.48 14.5-1.71 25.62-16.2 24.17-30.59-1.21-7.93-5.54-15.54-12.26-20.07-6.17-4.33-14.15-5.93-21.52-4.36zm131.12-35.97c15.25-7.27 32.76-10.48 49.47-7.22 17.01 3.18 32.2 12.98 43.89 25.5 10.67 12.33 14.85 29.01 15.6 44.98.12 21.98.02 43.96.06 65.93-16.42.02-32.84.02-49.26 0 0-1.63 0-3.25.01-4.87-11.48 5.79-24.53 8.53-37.36 7.39-16.45-1.3-32.31-8.83-43.71-20.75-11.6-11.84-18.62-28.03-19.31-44.59-.82-16.06 4.27-32.33 14.11-45.05 7.08-8.96 16.07-16.58 26.5-21.32m27.84 35.9c-12.85 2.27-22.71 14.5-22.94 27.41.41 9.02 4.94 17.97 12.51 23.07 7.68 5.36 18.1 6.4 26.69 2.66 12.73-5.13 20.12-20.47 15.88-33.6-3.67-13.47-18.46-22.54-32.14-19.54z"/><path d="M376.309 281.069c144.41-.31 288.83-.03 433.24-.16 1.38.17 3.25-.48 4.24.88 16.1 18.45 32.22 36.89 48.28 55.38-109.83.07-219.67-.04-329.5.05-52.09.21-104.17.04-156.25.08-.02-18.74-.01-37.49-.01-56.23z"/></g><path d="M144.109 106.439c14.86-4.98 31.3-5.76 46.34-1.04 13.52 4.17 25.5 12.43 35.29 22.53 11 11.84 15.43 28.32 16.51 44.1.14 22.63.02 45.27.06 67.9-16.42.01-32.83 0-49.25.01 0-1.64 0-3.28.01-4.91-12.38 6.39-26.72 8.92-40.53 7.06-16.73-2.11-32.5-10.74-43.39-23.6-9.85-11.46-15.71-26.25-16.38-41.34-.99-18.62 6.09-37.44 19.04-50.84 8.8-9.34 20.11-15.98 32.3-19.87m19.6 39.81c-13.91 1.16-25.25 14.01-25.42 27.82.4 8.9 4.84 17.72 12.23 22.84 10.44 7.64 26.12 6.49 35.3-2.65 9.71-8.84 11.52-24.73 4.09-35.54-5.55-8.57-16.03-13.62-26.2-12.47z" fill="#c4153a" fill-rule="nonzero"/></svg>