<svg width="40" height="40" viewBox="0 0 40 40" fill="none" xmlns="http://www.w3.org/2000/svg">
<path d="M18.3593 16.9671C18.3221 16.4322 18.2301 15.9838 18.2301 15.4101C18.2301 15.0994 18.2549 14.0914 18.3965 13.906C18.9682 14.6651 19.2267 15.9785 19.4639 16.7941C19.54 16.5629 19.5825 16.2504 19.6479 15.9997C19.7825 15.4913 20.2781 14.1496 20.5401 13.906C20.664 14.139 20.6941 15.1276 20.6941 15.4489C20.6941 16.0121 20.5932 16.4834 20.556 16.9936C20.6958 16.7747 20.8481 16.5364 20.9932 16.3298C21.3136 15.8708 22.165 14.8399 22.5757 14.6333C22.4783 15.7896 21.8765 16.7235 21.526 17.5462C21.8252 17.3908 22.8678 16.3916 24.2325 16.0103C23.7581 17.1154 22.3686 18.2399 22.2571 18.3988C22.4819 18.3529 22.7208 18.2505 22.9669 18.1817C23.5386 18.0193 24.7989 17.7986 25.3123 17.8851L24.7317 18.3494C23.8484 18.9937 23.4466 19.0555 22.6182 19.4439C22.8359 19.488 23.613 19.4845 24.2874 19.6098C24.6131 19.6699 25.4379 19.8587 25.6716 20.0035C25.4893 20.1642 24.5936 20.3495 24.2644 20.4113C23.6625 20.5225 23.1899 20.4907 22.6146 20.5631C23.1297 20.7732 23.59 20.9727 24.0573 21.2375C24.3741 21.4175 25.1795 21.9295 25.307 22.1449C23.5793 22.1431 23.4572 21.8642 22.2765 21.6241L22.8447 22.1749C23.3298 22.6497 23.9245 23.3824 24.2343 23.9985C23.5705 23.8837 22.3916 23.1158 21.7986 22.6727C21.7066 22.6038 21.6198 22.5156 21.5243 22.4644C21.5986 22.6603 21.7544 22.904 21.8553 23.1176C22.1756 23.7937 22.4801 24.6216 22.5739 25.3772C22.2146 25.1954 21.7083 24.604 21.4375 24.2756C21.2853 24.0903 21.1154 23.882 20.9667 23.656C20.8658 23.5024 20.6303 23.1705 20.5542 23.0134C20.5578 23.2252 20.6233 23.5112 20.6463 23.7407C20.6976 24.2721 20.7189 25.755 20.5348 26.1028C20.3489 25.9333 20.002 25.0771 19.8887 24.7735C19.7471 24.3939 19.4939 23.3329 19.4338 23.2535C19.3152 24.1362 18.8231 25.4672 18.3894 26.1028L18.3292 25.9421C18.0796 24.6728 18.3522 23.2623 18.3257 23.1193L18.3027 23.0593C18.0531 23.6966 16.9238 24.98 16.3379 25.3949C16.3786 24.5581 17.0424 23.0575 17.3928 22.4679C17.1928 22.5827 17.0158 22.7592 16.7875 22.9198C16.2494 23.2994 15.3041 23.8431 14.681 24.0055C15.2528 22.7698 16.5113 21.82 16.6636 21.61C15.8121 21.8253 14.6368 22.2525 13.6013 22.1325C13.8898 21.8306 14.4244 21.4935 14.8368 21.2463C15.4156 20.9003 15.9661 20.7379 16.2794 20.5578C15.6528 20.5225 13.6933 20.3813 13.2437 20.0017C13.9429 19.5957 15.5183 19.5163 16.2865 19.4545C16.2387 19.4227 15.3023 19.0308 14.8315 18.7642C14.4633 18.5559 13.8261 18.1358 13.6031 17.878C14.0863 17.841 14.7961 17.9328 15.2599 18.0228C15.8086 18.1287 16.4671 18.3653 16.66 18.3988C16.46 18.194 16.2777 18.0599 16.0812 17.8674C15.7166 17.5091 14.8191 16.4358 14.6881 16.0085C16.2281 16.517 17.1273 17.4138 17.3681 17.525C17.3008 17.3361 17.1326 17.0483 17.03 16.8453C16.7963 16.3775 16.3184 15.0305 16.3449 14.6192L16.9131 15.1329C17.7805 15.9662 18.1664 16.7712 18.3593 16.9671ZM24.2803 13.4788C24.2714 13.4823 24.2644 13.4876 24.2555 13.4912C24.2644 13.4876 24.2714 13.4841 24.2803 13.4788ZM24.252 13.4929C24.2449 13.4965 24.2378 13.5 24.229 13.5053C24.2378 13.5018 24.2449 13.4965 24.252 13.4929ZM24.1989 13.5212C24.167 13.5388 24.1334 13.5547 24.1015 13.5724C24.1334 13.5547 24.1652 13.5388 24.1989 13.5212ZM23.9334 13.6659C23.9263 13.6695 23.9192 13.673 23.9121 13.6783C23.9192 13.6748 23.9263 13.6712 23.9334 13.6659ZM23.9086 13.6818C23.9015 13.6854 23.8962 13.6889 23.8891 13.6924C23.8944 13.6889 23.9015 13.6854 23.9086 13.6818ZM23.774 13.7613C23.7687 13.7648 23.7617 13.7683 23.7563 13.7719C23.7617 13.7683 23.767 13.7648 23.774 13.7613ZM23.4908 13.9413C23.4855 13.9449 23.4784 13.9484 23.4731 13.9537C23.4784 13.9484 23.4838 13.9449 23.4908 13.9413ZM22.6341 14.425C22.6359 14.4074 22.6359 14.3897 22.6376 14.3721C22.6359 14.3897 22.6341 14.4074 22.6341 14.425ZM22.6447 14.2061C22.6465 14.1885 22.6465 14.1691 22.6483 14.1514C22.6483 14.1691 22.6465 14.1867 22.6447 14.2061ZM22.65 14.1355C22.6518 14.1196 22.6518 14.1037 22.6536 14.0879C22.6518 14.1037 22.65 14.1196 22.65 14.1355ZM22.6536 14.072C22.6553 14.0543 22.6553 14.0367 22.6571 14.0208C22.6553 14.0384 22.6553 14.0543 22.6536 14.072ZM22.6695 13.8425C22.7102 13.2617 22.7403 13.1116 22.7208 12.7197C22.7385 13.1116 22.7102 13.2617 22.6695 13.8425ZM24.7635 14.9705C24.7742 14.944 24.7865 14.9176 24.7972 14.8893C24.7848 14.9176 24.7742 14.944 24.7635 14.9705ZM24.8007 14.8805C24.8078 14.8646 24.8131 14.8487 24.8202 14.8346C24.8131 14.8487 24.806 14.8646 24.8007 14.8805ZM24.8574 14.7393C24.8644 14.7216 24.8715 14.7022 24.8786 14.6845C24.8715 14.7022 24.8644 14.7198 24.8574 14.7393ZM24.8821 14.6757C24.8892 14.6581 24.8945 14.6422 24.9016 14.6245C24.8963 14.6422 24.8892 14.6581 24.8821 14.6757ZM24.9405 14.5239C24.9476 14.5062 24.9529 14.4903 24.96 14.4727C24.9529 14.4903 24.9459 14.5062 24.9405 14.5239ZM26.4487 17.9363C26.4398 17.9345 26.4292 17.9345 26.4204 17.9328C26.4292 17.9328 26.4381 17.9345 26.4487 17.9363ZM26.3708 17.9257C26.3619 17.9239 26.3513 17.9239 26.3425 17.9222L26.3708 17.9257ZM25.4096 17.8604C25.4096 17.8604 25.4114 17.8586 25.4114 17.8569C25.4114 17.8586 25.4114 17.8604 25.4096 17.8604ZM25.4185 17.8516C25.4202 17.8498 25.422 17.848 25.4238 17.8445C25.422 17.8463 25.4202 17.8498 25.4185 17.8516ZM25.445 17.8215C25.576 17.6856 26.0522 17.2249 26.5071 16.7023C26.0522 17.2249 25.5778 17.6874 25.445 17.8215ZM27.1532 20.669C26.8788 20.5137 26.3549 20.2718 26.0433 20.1183C26.3531 20.2718 26.8788 20.5155 27.1532 20.669ZM26.0168 20.1059C26.0115 20.1024 26.0061 20.1006 26.0008 20.0971C26.0061 20.0988 26.0115 20.1024 26.0168 20.1059ZM25.9973 20.0953C25.992 20.0918 25.9867 20.09 25.9814 20.0865C25.9867 20.09 25.992 20.0935 25.9973 20.0953ZM25.8628 20.0247C25.861 20.0229 25.8575 20.0229 25.8557 20.0212C25.8592 20.0212 25.861 20.0229 25.8628 20.0247ZM25.8398 20.0106C25.838 20.0088 25.8362 20.0088 25.8344 20.007C25.8362 20.0088 25.838 20.0106 25.8398 20.0106ZM25.8291 20.0053C25.8274 20.0035 25.8256 20.0035 25.8238 20.0017C25.8274 20.0035 25.8291 20.0035 25.8291 20.0053ZM25.8132 19.9947C25.8114 19.9929 25.8097 19.9929 25.8097 19.9911C25.8114 19.9929 25.8114 19.9929 25.8132 19.9947ZM25.8079 19.9894C25.8061 19.9876 25.8061 19.9876 25.8044 19.9859C25.8044 19.9876 25.8061 19.9894 25.8079 19.9894ZM26.1247 24.4857C25.8398 25.0312 25.5034 25.5378 25.1211 25.9986L26.1247 24.4857ZM25.0981 25.9245C25.0963 25.9174 25.0928 25.9103 25.091 25.9015C25.0945 25.9103 25.0963 25.9174 25.0981 25.9245ZM25.0025 25.6491C24.999 25.642 24.9972 25.6332 24.9936 25.6261C24.9972 25.6349 25.0007 25.642 25.0025 25.6491ZM24.9405 25.4884C24.9352 25.4761 24.9299 25.4619 24.9246 25.4496C24.9317 25.4619 24.937 25.4761 24.9405 25.4884ZM24.8697 25.3154C24.8662 25.3083 24.8627 25.2995 24.8591 25.2925C24.8644 25.2995 24.8662 25.3066 24.8697 25.3154ZM24.8202 25.1954C24.8131 25.1795 24.806 25.1618 24.7989 25.1459C24.8042 25.1636 24.8113 25.1795 24.8202 25.1954ZM24.7812 25.1106C24.7688 25.0842 24.7582 25.0577 24.7458 25.033C24.7582 25.0577 24.7706 25.0842 24.7812 25.1106ZM24.7441 25.0241C24.7405 25.0153 24.737 25.0065 24.7317 24.9976C24.7352 25.0065 24.7388 25.0153 24.7441 25.0241ZM24.6502 24.8229C24.5901 24.6922 24.5281 24.5581 24.4644 24.4204C24.5281 24.5581 24.5901 24.6905 24.6502 24.8229ZM24.4431 24.3727C24.4378 24.3586 24.4308 24.3462 24.4254 24.3321L24.4431 24.3727ZM24.4201 24.3233C24.4148 24.3109 24.4095 24.3003 24.4042 24.288C24.4095 24.2986 24.4148 24.3109 24.4201 24.3233ZM24.3794 24.2333C24.3741 24.2209 24.3688 24.2085 24.3635 24.1962C24.3688 24.2103 24.3741 24.2227 24.3794 24.2333ZM24.36 24.1891C24.3546 24.175 24.3476 24.1626 24.3423 24.1485C24.3476 24.1626 24.3529 24.175 24.36 24.1891ZM24.2998 24.0532C24.3139 24.0567 24.3281 24.0585 24.3423 24.062C24.3281 24.0585 24.3139 24.055 24.2998 24.0532ZM24.3971 24.0726C24.4095 24.0761 24.4219 24.0779 24.4361 24.0814C24.4237 24.0779 24.4095 24.0761 24.3971 24.0726ZM22.7138 27.7163C22.7155 27.7039 22.7155 27.6898 22.7173 27.6774C22.7155 27.6898 22.7138 27.7021 22.7138 27.7163ZM22.7173 27.6686C22.7208 27.6104 22.7244 27.5521 22.7279 27.4974C22.7244 27.5539 22.7208 27.6104 22.7173 27.6686ZM22.7315 27.1249C22.7244 26.793 22.689 26.5176 22.6624 26.2069C22.689 26.5158 22.7244 26.793 22.7315 27.1249ZM22.6624 26.2069C22.6607 26.1945 22.6607 26.1804 22.6589 26.1681C22.6589 26.1804 22.6607 26.1945 22.6624 26.2069ZM22.6518 26.0798C22.65 26.0516 22.6483 26.0233 22.6465 25.9951C22.6465 26.0251 22.65 26.0533 22.6518 26.0798ZM22.6447 25.988C22.6447 25.9774 22.643 25.9668 22.643 25.9562C22.643 25.9651 22.6447 25.9774 22.6447 25.988ZM22.6412 25.9421C22.6412 25.9315 22.6394 25.9227 22.6394 25.9121C22.6412 25.9227 22.6412 25.9315 22.6412 25.9421ZM22.6341 25.8097C22.6341 25.7956 22.6323 25.7797 22.6323 25.7656L22.6341 25.8097ZM22.6288 25.6102C22.6288 25.5996 22.6288 25.589 22.6288 25.5802V25.6102ZM22.6288 25.5114C22.6288 25.4955 22.6288 25.4778 22.6288 25.4619C22.627 25.4796 22.627 25.4955 22.6288 25.5114ZM19.678 28.7649C19.6798 28.7596 19.6833 28.7561 19.6851 28.7508C19.6833 28.7543 19.6798 28.7596 19.678 28.7649ZM19.6869 28.7455C19.694 28.7296 19.7028 28.7137 19.7099 28.6996C19.7028 28.7155 19.694 28.7296 19.6869 28.7455ZM19.7099 28.6978C19.7258 28.6643 19.7418 28.6307 19.7577 28.5954C19.7418 28.6307 19.7258 28.666 19.7099 28.6978ZM19.7842 28.5407C19.8391 28.4224 19.8922 28.2971 19.94 28.1823C19.8922 28.2971 19.8373 28.4206 19.7842 28.5407ZM16.8884 28.0905C16.9627 28.0146 17.0388 27.9352 17.1149 27.8522C17.0388 27.9352 16.9645 28.0146 16.8884 28.0905ZM17.1149 27.8522C17.1627 27.801 17.2105 27.748 17.2565 27.6951C17.2105 27.748 17.1627 27.7992 17.1149 27.8522ZM17.4778 27.4373L17.492 27.4197C17.4884 27.425 17.4831 27.4303 17.4778 27.4373ZM19.1771 28.606C19.1842 28.6219 19.1913 28.636 19.1983 28.6501C19.1913 28.636 19.1842 28.6201 19.1771 28.606ZM19.2001 28.6554C19.2072 28.6696 19.2143 28.6854 19.2213 28.6996C19.2143 28.6854 19.2072 28.6713 19.2001 28.6554ZM14.3872 26.673L14.4403 26.6465C14.4244 26.6553 14.4067 26.6641 14.3872 26.673ZM14.8828 26.4064C14.9094 26.3905 14.9342 26.3764 14.9607 26.3605C14.9342 26.3764 14.9076 26.3923 14.8828 26.4064ZM15.0793 26.2881C15.1041 26.2722 15.1306 26.2563 15.1554 26.2404C15.1289 26.2581 15.1041 26.274 15.0793 26.2881ZM15.3519 26.1151C15.359 26.1098 15.3678 26.1045 15.3749 26.0992C15.3678 26.1045 15.3608 26.1098 15.3519 26.1151ZM15.3767 26.0975C15.3926 26.0869 15.4086 26.0763 15.4245 26.0657C15.4086 26.078 15.3926 26.0869 15.3767 26.0975ZM15.5696 25.9686C15.582 25.9598 15.5944 25.9509 15.6068 25.9421C15.5944 25.9527 15.582 25.9615 15.5696 25.9686ZM16.2989 25.5679C16.2971 25.5855 16.2971 25.6032 16.2954 25.6208L16.2989 25.5679ZM16.2741 25.9086C16.2724 25.9298 16.2706 25.9492 16.2688 25.9686L16.2741 25.9086ZM16.2688 25.9704C16.2671 25.9898 16.2653 26.0092 16.2635 26.0286L16.2688 25.9704ZM16.2086 26.7612C16.2086 26.7701 16.2069 26.7771 16.2069 26.7859C16.2086 26.7771 16.2086 26.7683 16.2086 26.7612ZM16.2069 26.7912C16.2069 26.7983 16.2069 26.8071 16.2051 26.8142C16.2069 26.8071 16.2069 26.8001 16.2069 26.7912ZM16.2051 26.8212C16.2051 26.8283 16.2051 26.8371 16.2033 26.8442C16.2051 26.8371 16.2051 26.8301 16.2051 26.8212ZM16.2051 26.8495C16.2033 26.8848 16.2033 26.9201 16.2016 26.9536C16.2016 26.9183 16.2033 26.8848 16.2051 26.8495ZM16.1998 26.9872V27.0084C16.1998 27.0013 16.1998 26.9942 16.1998 26.9872ZM16.1998 27.0172V27.0366C16.1998 27.0313 16.1998 27.0243 16.1998 27.0172ZM16.1998 27.0472V27.0684C16.1998 27.0613 16.1998 27.0543 16.1998 27.0472ZM16.2016 27.1531V27.1761C16.2016 27.169 16.2016 27.162 16.2016 27.1531ZM16.2016 27.1849V27.2061C16.2033 27.199 16.2016 27.192 16.2016 27.1849ZM16.2051 27.2485V27.2696C16.2051 27.2626 16.2051 27.2555 16.2051 27.2485ZM16.2051 27.282C16.2051 27.2891 16.2051 27.2961 16.2069 27.3032C16.2069 27.2961 16.2069 27.2891 16.2051 27.282ZM16.2069 27.3138C16.2069 27.3208 16.2069 27.3297 16.2086 27.3367C16.2086 27.3297 16.2069 27.3208 16.2069 27.3138ZM16.2086 27.342C16.2104 27.3703 16.2122 27.4003 16.2139 27.4303C16.2122 27.3985 16.2104 27.3703 16.2086 27.342ZM16.2157 27.4426C16.2157 27.4515 16.2175 27.4585 16.2175 27.4674C16.2157 27.4585 16.2157 27.4497 16.2157 27.4426ZM16.2263 27.6015C16.2263 27.6104 16.2281 27.6192 16.2281 27.628C16.2281 27.6209 16.2281 27.6121 16.2263 27.6015ZM16.2299 27.6386C16.2334 27.6739 16.2352 27.7092 16.2387 27.7463C16.2352 27.7092 16.2334 27.6721 16.2299 27.6386ZM16.26 27.9634L16.2653 28.0111C16.2617 27.9934 16.26 27.9775 16.26 27.9634ZM13.8013 26.0445C13.4048 25.5732 13.0561 25.0524 12.764 24.4928L13.8013 26.0445ZM12.8525 24.4769L12.9375 24.461C12.9092 24.4663 12.8808 24.4716 12.8525 24.4769ZM13.026 24.4451C13.4632 24.3604 13.8739 24.2421 14.327 24.1256C13.8739 24.2421 13.4632 24.3586 13.026 24.4451ZM14.3341 24.1238C14.3624 24.1167 14.3925 24.1097 14.4226 24.1009C14.3925 24.1079 14.3642 24.1167 14.3341 24.1238ZM14.5784 24.062C14.5925 24.0585 14.6085 24.055 14.6226 24.0514C14.6085 24.055 14.5943 24.0585 14.5784 24.062ZM13.9748 25.5361C13.9712 25.5484 13.9659 25.5608 13.9624 25.5732C13.9659 25.5608 13.9695 25.5484 13.9748 25.5361ZM13.9004 25.7426C13.8969 25.755 13.8916 25.7673 13.888 25.7797C13.8916 25.7691 13.8969 25.7567 13.9004 25.7426ZM11.9763 21.9877C11.994 21.9895 12.01 21.993 12.0277 21.9948C12.0117 21.993 11.994 21.9913 11.9763 21.9877ZM12.1463 22.0125C12.1622 22.0142 12.1781 22.0178 12.194 22.0195C12.1781 22.0178 12.1622 22.016 12.1463 22.0125ZM12.3144 22.0354C12.3303 22.0372 12.3463 22.0389 12.3622 22.0407C12.3463 22.0407 12.3303 22.0372 12.3144 22.0354ZM12.7322 22.0848C12.7446 22.0866 12.7569 22.0866 12.7693 22.0884C12.7569 22.0884 12.7446 22.0866 12.7322 22.0848ZM12.2843 20.4042L12.2631 20.4148C12.2702 20.4113 12.2772 20.4078 12.2843 20.4042ZM12.0878 20.5084L12.0684 20.519C12.0755 20.5155 12.0825 20.5119 12.0878 20.5084ZM11.8152 20.6584C11.8046 20.6637 11.7958 20.669 11.7852 20.6761L11.8152 20.6584ZM13.488 17.811C13.4915 17.8145 13.4951 17.8198 13.4986 17.8233C13.4951 17.818 13.4915 17.8145 13.488 17.811ZM13.5181 17.848C13.5199 17.8516 13.5234 17.8533 13.5252 17.8569C13.5234 17.8533 13.5216 17.8498 13.5181 17.848ZM13.3216 17.8692C13.3074 17.871 13.2915 17.871 13.2774 17.8727L13.3216 17.8692ZM12.5976 17.9328C12.5888 17.9345 12.5782 17.9345 12.5693 17.9363C12.5782 17.9345 12.587 17.9328 12.5976 17.9328ZM12.5445 17.9381C12.5357 17.9398 12.5286 17.9398 12.5197 17.9416C12.5286 17.9398 12.5374 17.9398 12.5445 17.9381ZM12.502 17.9434C12.4914 17.9451 12.4808 17.9451 12.4702 17.9469C12.4808 17.9469 12.4914 17.9451 12.502 17.9434ZM12.2029 17.9822C12.1622 17.9875 12.1232 17.9945 12.0843 17.9998C12.1232 17.9945 12.1622 17.9893 12.2029 17.9822ZM16.2299 12.4602C16.2281 12.4902 16.2263 12.5202 16.2263 12.5502C16.2263 12.522 16.2281 12.492 16.2299 12.4602ZM16.2246 12.5591C16.2246 12.5679 16.2246 12.5785 16.2228 12.5873C16.2246 12.5785 16.2246 12.5697 16.2246 12.5591ZM16.2246 12.5908C16.2228 12.6226 16.2228 12.6526 16.221 12.6826C16.221 12.6526 16.2228 12.6226 16.2246 12.5908ZM16.2175 12.785V12.8133C16.2175 12.8044 16.2175 12.7939 16.2175 12.785ZM16.2175 12.8186V12.8751C16.2175 12.8556 16.2175 12.838 16.2175 12.8186ZM16.2157 12.8786V12.9068C16.2157 12.898 16.2157 12.8892 16.2157 12.8786ZM16.2157 12.9157V13.0022C16.2157 12.9722 16.2157 12.9439 16.2157 12.9157ZM16.2157 13.0428V13.0975C16.2157 13.0798 16.2157 13.0604 16.2157 13.0428ZM16.2175 13.1046V13.131C16.2175 13.1222 16.2175 13.1134 16.2175 13.1046ZM16.2193 13.2705C16.2193 13.2864 16.221 13.304 16.221 13.3199C16.221 13.304 16.221 13.2864 16.2193 13.2705ZM16.2263 13.4647C16.2263 13.4717 16.2263 13.4806 16.2281 13.4876C16.2281 13.4806 16.2263 13.4717 16.2263 13.4647ZM16.2281 13.5071C16.2281 13.5194 16.2299 13.53 16.2299 13.5424C16.2299 13.5318 16.2299 13.5194 16.2281 13.5071ZM16.2316 13.5618C16.2316 13.5688 16.2316 13.5777 16.2334 13.5847C16.2316 13.5759 16.2316 13.5688 16.2316 13.5618ZM16.2423 13.7471L16.244 13.7736C16.2423 13.7648 16.2423 13.756 16.2423 13.7471ZM17.5221 12.6332L17.5061 12.6138C17.5114 12.6209 17.5167 12.6262 17.5221 12.6332ZM17.3804 12.4673C17.3734 12.4602 17.3663 12.4514 17.361 12.4443C17.3681 12.4514 17.3751 12.4584 17.3804 12.4673ZM17.3185 12.3949L17.3043 12.379C17.3096 12.3825 17.3132 12.3878 17.3185 12.3949ZM17.0547 12.0983C17.0459 12.0895 17.037 12.0789 17.0282 12.0701C17.037 12.0789 17.0459 12.0877 17.0547 12.0983Z" fill="#E2E8F0"/>
<path d="M11.5405 24.5776C11.737 24.1593 12.1706 23.6208 12.445 23.2819C12.6096 23.0771 12.7866 22.8812 12.9548 22.7011C13.0858 22.5616 13.4575 22.2774 13.5177 22.1538C12.7282 22.1009 11.1599 21.9455 10.4766 21.596C10.5156 21.5148 10.4643 21.5907 10.5262 21.5271C10.9351 21.1017 12.5778 20.1996 13.1477 20.0178L11.721 19.3046C11.4714 19.1651 10.551 18.5949 10.482 18.4043C11.4219 18.0547 12.4503 17.9153 13.5248 17.8552C13.3867 17.6558 12.1565 16.6513 11.5458 15.4473C11.9511 15.3996 12.7707 15.5215 13.1814 15.5921C13.7159 15.6839 14.1461 15.8463 14.6205 15.9504C14.5585 15.7633 14.3868 15.4897 14.3001 15.292C14.0169 14.6476 13.6717 13.7137 13.5832 13.0147C13.9885 13.1294 14.686 13.4825 15.0187 13.682L16.3091 14.5329C16.1888 13.3377 16.1764 12.6175 16.3233 11.4329C16.6384 11.56 17.6385 12.7393 17.9128 13.1277C18.0173 13.2742 18.2527 13.6661 18.3589 13.7738L18.8209 12.2485C19.0404 11.6518 19.3201 11.1964 19.4387 10.8857C19.5838 10.9951 19.729 11.357 19.8015 11.5177C19.9131 11.7595 20.0033 11.9872 20.1025 12.2291C20.3149 12.7481 20.4087 13.2318 20.5591 13.8002C20.8371 13.4472 21.0247 13.0782 21.4814 12.5274C21.6814 12.2874 22.3646 11.5406 22.6089 11.4347C22.8019 13.4048 22.7151 12.7269 22.6266 14.517C22.7452 14.4693 22.6903 14.4976 22.7966 14.4216C23.455 13.9485 23.8321 13.6767 24.6091 13.313C24.8428 13.2036 25.1331 13.1029 25.342 12.99C25.6181 12.1161 25.611 10.4302 25.5845 9.44163C25.08 9.60933 23.7489 10.4902 23.2798 10.8592C23.1506 10.9598 22.6957 11.3676 22.5912 11.3676C22.1328 9.51224 22.3257 9.91121 21.6053 8.00464C21.1238 8.23413 19.4599 10.8239 19.4546 10.8274C19.3537 10.7074 18.8298 9.79999 18.4899 9.35865C18.2863 9.09385 17.5641 8.13704 17.3429 8.0117C16.957 8.47951 16.4702 10.7197 16.3321 11.3906C16.21 11.3323 16.1038 11.2211 16.0047 11.1381C15.879 11.034 15.7799 10.9563 15.6524 10.8663C15.2347 10.5732 13.7 9.48223 13.3424 9.46104C13.3212 10.0948 13.3194 10.6509 13.3548 11.2811C13.3885 11.8919 13.5106 12.418 13.5655 12.9882C13.1052 12.8699 12.6556 12.6616 11.9529 12.4957C11.3776 12.3597 10.7121 12.2114 10.1032 12.1602C10.2041 12.6669 10.528 13.4154 10.728 13.8744C10.8466 14.148 10.974 14.4216 11.1068 14.6635C11.1882 14.8136 11.4803 15.3167 11.5015 15.4332C10.7634 15.4579 8.59149 15.5426 7.99497 15.8339C8.0463 15.9628 8.41979 16.4218 8.52777 16.5365C9.03933 17.0873 9.49424 17.6257 10.0713 18.1077C10.1934 18.2083 10.2961 18.2789 10.4112 18.4007C10.3227 18.4749 9.72967 18.6849 9.57744 18.7467C8.79859 19.0663 7.91354 19.5482 7.24268 19.986C7.45863 20.2543 9.04641 21.0311 9.54204 21.2394C9.78985 21.3435 10.1899 21.4512 10.4094 21.5907C10.4041 21.5995 10.3935 21.6013 10.3917 21.6136L9.75799 22.1944C9.51549 22.3992 9.33847 22.5793 9.12252 22.8052C8.88179 23.0577 8.13127 23.8768 7.98612 24.1593C8.46405 24.4682 10.8838 24.5529 11.5405 24.5776Z" fill="#64748B"/>
<path d="M25.3437 12.9953C25.2747 13.855 24.6551 15.299 24.3047 15.9434C24.4675 15.9328 24.8038 15.8057 24.9915 15.7598C25.2357 15.698 25.4747 15.6433 25.7278 15.5974C26.2642 15.4985 26.8164 15.4491 27.3846 15.4385C27.0412 16.3123 25.4393 17.8093 25.411 17.8623C26.4058 17.8676 27.5917 18.0953 28.4538 18.406C28.4131 18.542 28.475 18.436 28.3564 18.5314C27.6661 19.0839 26.627 19.6841 25.7986 19.9842C25.8712 20.0584 26.8642 20.4962 27.2112 20.7063C27.3705 20.8016 28.3511 21.4071 28.4556 21.5978C27.9493 21.8273 26.8784 22.0267 26.2783 22.0956C26.011 22.1256 25.6446 22.1185 25.4057 22.1662L25.9385 22.6764C26.1155 22.8582 26.2889 23.0559 26.4571 23.2501C26.6819 23.5096 27.243 24.2228 27.3793 24.5724C25.9863 24.6059 25.3225 24.2634 24.3011 24.0551C24.7419 25.0631 25.1579 25.7269 25.3526 27.0121C25.8447 27.1339 26.4146 27.3775 26.9811 27.5134C27.5794 27.6564 28.19 27.7694 28.8326 27.8506C28.7281 27.2751 28.1299 25.8964 27.8165 25.3191C27.7404 25.1779 27.4289 24.6818 27.4448 24.5777C28.4166 24.5688 29.7831 24.47 30.7549 24.2316L30.9425 24.1663C30.7071 23.7674 30.1336 23.1601 29.7902 22.807L28.5281 21.5995L30.1725 20.8899L31.6736 20.0037C31.201 19.5253 28.5299 18.4131 28.5246 18.4078L29.1866 17.8058C29.6822 17.3733 30.6399 16.3512 30.9479 15.8427C30.2487 15.5109 28.1192 15.5056 27.4307 15.435C27.4395 15.3184 27.7298 14.8559 27.8201 14.69C28.1316 14.1162 28.7087 12.7675 28.8273 12.1726C28.3423 12.1814 27.4625 12.3792 26.9881 12.4974C26.4005 12.6422 25.6482 12.9229 25.3437 12.9953ZM11.521 24.5724C11.4343 24.7913 11.2272 25.109 11.0962 25.3615C10.9616 25.6227 10.8377 25.884 10.7174 26.1523C10.466 26.7155 10.2802 27.2769 10.0854 27.8612C10.6891 27.7253 11.3157 27.6617 11.9281 27.5152C12.5282 27.3704 13.0185 27.1709 13.5584 27.0138C13.5566 27.2504 13.4734 27.6017 13.4398 27.8577C13.3177 28.7915 13.3123 29.5965 13.3389 30.5463C13.5655 30.5392 14.7143 29.7978 14.9284 29.6548L16.0082 28.8639C16.1339 28.7686 16.1958 28.6874 16.3268 28.6132C16.5853 29.6901 16.6224 30.1314 17.0172 31.2189C17.0685 31.3601 17.1145 31.4784 17.1659 31.6161L17.3429 31.9974C17.5677 31.8597 18.2545 30.9417 18.4793 30.6681C18.9129 30.142 19.1377 29.6159 19.4493 29.1817L20.4512 30.6751C20.699 31 21.3079 31.7732 21.5858 32.0133C21.9664 31.3318 22.4708 29.5224 22.5859 28.6026L22.0301 28.0483C21.938 27.9548 21.8389 27.8806 21.7522 27.7817C21.3698 27.3563 20.8583 26.7243 20.5875 26.2159C20.506 26.3306 20.4034 26.8532 20.3609 27.0103C20.2901 27.2698 20.1998 27.5275 20.1078 27.7676C20.0139 28.0112 19.6086 29.0193 19.4634 29.1005C19.2988 28.9557 18.936 28.043 18.8297 27.7782C18.7342 27.5417 18.6457 27.2645 18.5766 27.0227C18.5058 26.7808 18.4598 26.4065 18.3607 26.2265C18.2279 26.373 18.0385 26.6961 17.9181 26.8691C17.5818 27.351 16.7623 28.3131 16.3215 28.5726C16.141 26.7808 16.187 27.1904 16.3074 25.4727C16.2153 25.5168 16.2312 25.5115 16.1463 25.5698C15.3674 26.11 14.5673 26.6872 13.6009 26.9873C13.5725 26.5513 14.0717 25.2291 14.2965 24.7348C14.3886 24.5318 14.5673 24.2387 14.6258 24.0498C13.5584 24.3076 12.7813 24.6041 11.521 24.5724Z" fill="#64748B"/>
<path d="M22.5947 28.608C22.7434 28.7051 22.8001 28.7633 22.9487 28.8834C23.5311 29.353 24.9879 30.3804 25.5915 30.5605C25.5667 29.15 25.6588 28.4844 25.3508 27.0104C24.841 26.7791 24.3631 26.5884 23.8887 26.3131C23.3205 25.9829 22.9045 25.6281 22.6284 25.4622C22.623 26.6114 22.885 26.9609 22.5947 28.608Z" fill="#64748B"/>
<path d="M25.3439 12.9952C25.6483 12.9228 26.4006 12.6421 26.9865 12.4956C27.4609 12.3773 28.3407 12.1796 28.8257 12.1708C28.7089 12.764 28.13 14.1144 27.8185 14.6882C27.7282 14.8541 27.4379 15.3166 27.4291 15.4332C28.1176 15.5038 30.2453 15.5091 30.9463 15.8409C30.6383 16.3494 29.6806 17.3697 29.185 17.804L28.523 18.406C28.5265 18.4113 31.1976 19.5234 31.672 20.0019L30.171 20.8881L28.5265 21.5977L29.7886 22.8052C30.132 23.1583 30.7055 23.7673 30.941 24.1645L30.7533 24.2298C29.7798 24.4699 28.415 24.567 27.4432 24.5759C27.4255 24.68 27.7371 25.1743 27.815 25.3173C28.1283 25.8946 28.7283 27.2733 28.831 27.8488C28.1884 27.7676 27.5778 27.6546 26.9795 27.5116C26.413 27.3774 25.8431 27.1321 25.351 27.0103C25.659 28.4843 25.5669 29.1498 25.5917 30.5604C24.9881 30.3803 23.5295 29.3546 22.9489 28.8833C22.8003 28.7632 22.7454 28.7067 22.5949 28.6079L22.5878 28.5991C22.471 29.517 21.9665 31.3283 21.5877 32.0097C21.3116 31.7696 20.7009 30.9964 20.4531 30.6716L19.4512 29.1781C19.1415 29.6124 18.9149 30.1384 18.4812 30.6645C18.2546 30.9399 17.5696 31.8561 17.3448 31.9938L17.1678 31.6125C17.1165 31.4766 17.0704 31.3583 17.0191 31.2153C16.6244 30.1278 16.5854 29.6865 16.3288 28.6097C16.1978 28.6838 16.1376 28.765 16.0101 28.8603L14.9304 29.6512C14.7144 29.7924 13.5656 30.5356 13.3408 30.5427C13.3143 29.5929 13.3178 28.7897 13.4417 27.8541C13.4754 27.5999 13.5586 27.2468 13.5603 27.0103C13.0204 27.1674 12.5301 27.3669 11.9301 27.5116C11.3176 27.6599 10.6928 27.7217 10.0874 27.8576C10.2839 27.2733 10.468 26.7137 10.7193 26.1488C10.8379 25.8822 10.9618 25.6192 11.0981 25.3579C11.2273 25.1055 11.4344 24.7877 11.5229 24.5688L11.5424 24.5741C10.8875 24.5494 8.46597 24.4646 7.98805 24.1592C8.13319 23.8768 8.88372 23.0577 9.12445 22.8052C9.3404 22.5775 9.51741 22.3992 9.75992 22.1944L10.3936 21.6136C10.3972 21.6013 10.406 21.5995 10.4113 21.5907C10.1918 21.4512 9.79178 21.3435 9.54397 21.2394C9.04834 21.031 7.45879 20.2543 7.2446 19.986C7.9137 19.5482 8.80052 19.068 9.57937 18.7467C9.7316 18.6849 10.3246 18.4748 10.4131 18.4007C10.2963 18.2771 10.1936 18.2083 10.0732 18.1076C9.49617 17.6257 9.03949 17.0873 8.5297 16.5365C8.42172 16.42 8.04823 15.9628 7.9969 15.8339C8.59342 15.5444 10.7653 15.4596 11.5035 15.4332C11.4822 15.3184 11.1902 14.8135 11.1087 14.6635C10.9777 14.4216 10.8485 14.148 10.7299 13.8744C10.5317 13.4154 10.206 12.6669 10.1051 12.1602C10.7122 12.2114 11.3796 12.3579 11.9548 12.4956C12.6576 12.6633 13.1072 12.8716 13.5674 12.9882C13.5125 12.4197 13.3904 11.8936 13.3568 11.2811C13.3214 10.6526 13.3231 10.0948 13.3444 9.461C13.7037 9.48219 15.2384 10.5732 15.6544 10.8662C15.7818 10.9562 15.8809 11.0339 16.0066 11.1381C16.1057 11.221 16.2137 11.3323 16.3341 11.3905C16.4739 10.7215 16.9589 8.47948 17.3448 8.01166C17.5678 8.137 18.2883 9.09381 18.4918 9.35861C18.8317 9.79818 19.3539 10.7056 19.4565 10.8274C19.4618 10.8238 21.1257 8.23586 21.6072 8.0046C22.3276 9.91117 22.1347 9.51396 22.5932 11.3676C22.6976 11.3676 23.1525 10.9615 23.2817 10.8592C23.7508 10.4902 25.0819 9.60753 25.5864 9.44159C25.6129 10.4372 25.62 12.1231 25.3439 12.9952ZM10.0856 27.8612C9.89799 28.2531 9.66433 29.4076 9.56698 29.9107C9.42537 30.6398 9.32801 31.3724 9.24659 32.128C9.52272 32.135 11.0362 31.5895 11.3636 31.4624C11.7106 31.3283 12.0469 31.1994 12.3602 31.0564C12.6346 30.9311 13.0859 30.6822 13.3426 30.6098C13.3833 31.6231 13.6949 33.9816 14.0276 34.8925C14.3657 34.7424 15.5924 33.6974 15.9447 33.3867L17.3466 32.0609C17.6404 32.8271 18.9007 35.1767 19.453 35.8334C19.522 35.7928 19.4707 35.837 19.5362 35.761C19.8991 35.3374 20.8691 33.5544 21.1222 33.0618C21.2337 32.8429 21.4868 32.2198 21.6001 32.0733L21.9772 32.4246C22.1258 32.564 22.2037 32.6611 22.356 32.8253C22.6622 33.1536 24.5527 34.7301 24.9138 34.8996C25.22 33.4449 25.5156 32.2074 25.5917 30.6221C25.7776 30.6557 26.3387 30.9558 26.5564 31.0511C26.8839 31.1941 27.2078 31.33 27.5494 31.4607C28.146 31.6902 29.054 32.0274 29.6859 32.1492C29.6116 31.1412 29.3762 29.856 29.1319 28.8692C29.0523 28.5514 28.9177 28.1683 28.8682 27.8753C29.5532 27.8894 30.2736 28.0024 31.0011 28.0094C31.764 28.0183 32.4756 27.9812 33.2297 27.9424C33.0208 27.2892 32.0614 25.7463 31.6277 25.0984L31.01 24.2051C31.0861 24.1539 32.8367 23.6685 33.1306 23.5643C33.6244 23.3895 34.713 23.0153 35.0989 22.7646L34.9431 22.5704C34.09 21.7884 33.6067 21.3753 32.6562 20.6497C32.4986 20.5297 31.8242 20.0972 31.7552 20.0019C31.872 19.8959 32.042 19.8024 32.1853 19.7C32.3482 19.5835 32.4898 19.4899 32.642 19.3769C32.9589 19.1439 33.2155 18.9444 33.497 18.7132L34.7272 17.6451C34.8617 17.5268 35.0016 17.4068 35.1166 17.2303L33.1553 16.457C32.5535 16.247 31.6525 15.9398 31.0011 15.8356C31.0772 15.6838 31.2029 15.5355 31.3038 15.3978C31.7747 14.757 33.0987 12.6068 33.2279 12.0702C32.4845 12.0296 31.7534 11.9907 31.0029 12.0066C30.6524 12.0137 30.2931 12.026 29.9444 12.0508C29.5957 12.0737 29.2045 12.1373 28.8682 12.1408C29.1655 10.7832 29.6328 9.39569 29.6842 7.86514C28.9266 8.02578 27.3246 8.61894 26.5635 8.96141C26.3582 9.05321 25.7404 9.37627 25.5917 9.39216C25.5545 8.2182 25.2554 6.15099 24.9049 5.11827C24.6305 5.26479 23.4481 6.21454 23.1844 6.44933C22.8994 6.70354 22.6551 6.92598 22.3861 7.16959C22.1931 7.34436 21.7524 7.85101 21.6019 7.94105C21.4762 7.77157 21.239 7.16783 21.1257 6.9401C20.9576 6.60115 20.7947 6.29398 20.6106 5.97622C20.492 5.77144 19.6707 4.3168 19.4459 4.16675C19.3078 4.43155 19.0583 4.75637 18.8848 5.03883C18.4653 5.72378 17.5484 7.27375 17.359 7.95517C17.2191 7.88985 16.4102 7.01071 16.1748 6.82005C15.4172 6.20219 14.9516 5.7432 14.0418 5.1218C13.8329 5.52959 13.5108 7.60034 13.4382 8.25175C13.3975 8.61011 13.3904 9.07439 13.3284 9.40981C12.9638 9.27917 12.077 8.82019 11.3831 8.56245C10.7335 8.32236 9.93162 8.00636 9.25721 7.87043C9.25721 8.47771 9.45015 9.49808 9.56698 10.0948C9.69265 10.7391 10.013 11.8354 10.0661 12.1496C9.34217 12.0896 8.68724 12.0278 7.94556 12.0102C7.18619 11.9925 6.46576 12.0402 5.71524 12.0755C5.7825 12.4003 6.54718 13.7084 6.73304 14.0173C7.12601 14.6758 7.52251 15.2354 7.93671 15.8056C7.89246 15.8374 6.07811 16.3564 5.82144 16.4465C5.16297 16.6689 4.41775 16.9513 3.81592 17.2426C4.03364 17.5639 5.89225 19.0874 6.25512 19.3487C6.54187 19.5552 6.92953 19.783 7.17734 19.9983L7.13486 20.0407C6.89058 20.249 5.95774 20.851 5.42671 21.3011C5.03552 21.633 4.09559 22.4168 3.81946 22.7576C4.47794 23.1194 6.00022 23.6438 6.81447 23.8874C7.1384 23.9845 7.65704 24.048 7.91724 24.1998C7.77917 24.4505 7.06051 25.4444 6.73481 25.9917C6.53656 26.3253 5.78958 27.6246 5.70462 27.9406C7.25168 27.9953 8.54563 28.0483 10.0856 27.8612Z" fill="#475569"/>
<path d="M18.3593 16.9671C18.3221 16.4322 18.2301 15.9838 18.2301 15.4101C18.2301 15.0994 18.2549 14.0914 18.3965 13.906C18.9682 14.6651 19.2267 15.9785 19.4639 16.7941C19.54 16.5629 19.5825 16.2504 19.6479 15.9997C19.7825 15.4913 20.2781 14.1496 20.5401 13.906C20.664 14.139 20.6941 15.1276 20.6941 15.4489C20.6941 16.0121 20.5932 16.4834 20.556 16.9936C20.6958 16.7747 20.8481 16.5364 20.9932 16.3298C21.3136 15.8708 22.165 14.8399 22.5757 14.6333C22.4783 15.7896 21.8765 16.7235 21.526 17.5461C21.8252 17.3908 22.8678 16.3916 24.2325 16.0103C23.7581 17.1154 22.3686 18.2399 22.2571 18.3988C22.4819 18.3529 22.7208 18.2505 22.9669 18.1817C23.5386 18.0193 24.7989 17.7986 25.3123 17.8851L24.7317 18.3494C23.8484 18.9937 23.4466 19.0555 22.6182 19.4439C22.8359 19.488 23.613 19.4845 24.2874 19.6098C24.6131 19.6698 25.4379 19.8587 25.6716 20.0035C25.4893 20.1641 24.5936 20.3495 24.2644 20.4113C23.6625 20.5225 23.1899 20.4907 22.6146 20.5631C23.1297 20.7732 23.59 20.9727 24.0573 21.2375C24.3741 21.4175 25.1795 21.9295 25.307 22.1449C23.5793 22.1431 23.4572 21.8642 22.2765 21.6241L22.8448 22.1749C23.3298 22.6497 23.9245 23.3824 24.2343 23.9985C23.5705 23.8837 22.3916 23.1158 21.7986 22.6727C21.7066 22.6038 21.6198 22.5156 21.5243 22.4644C21.5986 22.6603 21.7544 22.904 21.8553 23.1176C22.1757 23.7937 22.4801 24.6216 22.5739 25.3772C22.2146 25.1954 21.7083 24.604 21.4375 24.2756C21.2853 24.0903 21.1154 23.882 20.9667 23.656C20.8658 23.5024 20.6304 23.1705 20.5542 23.0134C20.5578 23.2252 20.6233 23.5112 20.6463 23.7407C20.6976 24.2721 20.7189 25.755 20.5348 26.1027C20.3489 25.9333 20.002 25.0771 19.8887 24.7734C19.7471 24.3939 19.4939 23.3329 19.4338 23.2535C19.3152 24.1362 18.8231 25.4672 18.3894 26.1027L18.3292 25.9421C18.0796 24.6728 18.3522 23.2623 18.3257 23.1193L18.3027 23.0593C18.0531 23.6966 16.9238 24.98 16.3379 25.3948C16.3786 24.5581 17.0424 23.0575 17.3928 22.4679C17.1928 22.5827 17.0158 22.7592 16.7875 22.9198C16.2494 23.2994 15.3041 23.8431 14.681 24.0055C15.2528 22.7698 16.5113 21.82 16.6636 21.61C15.8121 21.8253 14.6368 22.2525 13.6013 22.1325C13.8898 21.8306 14.4244 21.4934 14.8368 21.2463C15.4156 20.9003 15.9661 20.7379 16.2794 20.5578C15.6528 20.5225 13.6933 20.3813 13.2437 20.0017C13.9429 19.5957 15.5183 19.5163 16.2865 19.4545C16.2387 19.4227 15.3023 19.0308 14.8315 18.7642C14.4633 18.5559 13.8261 18.1358 13.6031 17.878C14.0863 17.841 14.7961 17.9328 15.2599 18.0228C15.8086 18.1287 16.4671 18.3653 16.66 18.3988C16.46 18.194 16.2777 18.0599 16.0812 17.8674C15.7166 17.5091 14.8191 16.4357 14.6881 16.0085C16.2281 16.517 17.1273 17.4137 17.3681 17.525C17.3008 17.3361 17.1326 17.0483 17.03 16.8453C16.7963 16.3775 16.3184 15.0305 16.3449 14.6192L16.9131 15.1329C17.7805 15.9662 18.1664 16.7712 18.3593 16.9671ZM11.5409 24.5775L11.5214 24.5722C12.7817 24.6057 13.5588 24.3092 14.6244 24.0532C14.566 24.2421 14.3872 24.5369 14.2952 24.7381C14.0721 25.2324 13.5712 26.5547 13.5995 26.9907C14.566 26.6906 15.3661 26.1133 16.1449 25.5731C16.2299 25.5131 16.2139 25.5202 16.306 25.4761C16.1856 27.1937 16.1396 26.7842 16.3202 28.576C16.7609 28.3165 17.5805 27.3526 17.9168 26.8724C18.0372 26.6994 18.2266 26.3764 18.3593 26.2299C18.4584 26.4099 18.5045 26.7842 18.5753 27.026C18.6461 27.2679 18.7346 27.545 18.8284 27.7816C18.9364 28.0482 19.2975 28.9608 19.4621 29.1038C19.6055 29.0226 20.0126 28.0128 20.1064 27.771C20.1984 27.5309 20.287 27.2714 20.3595 27.0137C20.402 26.8565 20.5047 26.334 20.5861 26.2193C20.8587 26.7277 21.3685 27.3597 21.7508 27.7851C21.8393 27.8822 21.9385 27.9581 22.0287 28.0517L22.5881 28.6025L22.5952 28.6113C22.8855 26.9642 22.6235 26.6147 22.6288 25.4655C22.9032 25.6296 23.3209 25.9845 23.8891 26.3164C24.3653 26.5935 24.8432 26.7824 25.3512 27.0137C25.1565 25.7285 24.7388 25.0647 24.2998 24.0567C25.3211 24.265 25.9849 24.6057 27.378 24.574C27.2417 24.2244 26.6806 23.5112 26.4558 23.2517C26.2894 23.0575 26.1141 22.8598 25.9371 22.678L25.4043 22.1678C25.6433 22.1201 26.0097 22.1272 26.277 22.0972C26.877 22.0283 27.9462 21.8289 28.4542 21.5994C28.348 21.4087 27.3691 20.805 27.2098 20.7079C26.8611 20.4978 25.8699 20.06 25.7973 19.9858C26.6257 19.6857 27.6647 19.0855 28.3551 18.533C28.4737 18.4376 28.41 18.5436 28.4524 18.4076C27.5922 18.0969 26.4044 17.8692 25.4096 17.8639C25.4397 17.8127 27.0399 16.3139 27.3833 15.4401C26.8151 15.4507 26.2628 15.5019 25.7265 15.599C25.4734 15.6449 25.2344 15.6996 24.9901 15.7614C24.8043 15.8091 24.4662 15.9362 24.3033 15.945C24.6538 15.3024 25.2733 13.8583 25.3424 12.9969C25.1335 13.1098 24.8432 13.2105 24.6095 13.3199C23.8325 13.6818 23.4554 13.9554 22.797 14.4286C22.6908 14.5045 22.7456 14.4762 22.627 14.5239C22.7138 12.7338 22.8023 13.41 22.6093 11.4416C22.3651 11.5475 21.6818 12.2943 21.4818 12.5343C21.0233 13.0834 20.8375 13.4541 20.5595 13.8072C20.4073 13.2387 20.3153 12.755 20.1029 12.236C20.0037 11.9941 19.9135 11.7664 19.8019 11.5246C19.7276 11.3639 19.5842 11.002 19.4391 10.8926C19.3205 11.2033 19.0426 11.6587 18.8213 12.2554L18.3593 13.7807C18.2531 13.673 18.0177 13.2811 17.9132 13.1346C17.6389 12.7462 16.637 11.5669 16.3237 11.4398C16.1768 12.6244 16.1892 13.3446 16.3095 14.5398L15.0191 13.6889C14.6864 13.4912 13.9889 13.1363 13.5836 13.0216C13.6721 13.7189 14.0173 14.6528 14.3005 15.2989C14.3872 15.4966 14.5589 15.7702 14.6209 15.9573C14.1465 15.8532 13.7146 15.6908 13.1818 15.599C12.7711 15.5284 11.9515 15.4066 11.5462 15.4542C12.1569 16.6582 13.3871 17.6627 13.5252 17.8621C12.4507 17.9222 11.4223 18.0616 10.4824 18.4112C10.5514 18.6001 11.4736 19.1703 11.7214 19.3115L13.1481 20.0247C12.5782 20.2047 10.9337 21.1086 10.5266 21.534C10.4647 21.5976 10.516 21.5217 10.4771 21.6029C11.1603 21.9524 12.7286 22.1078 13.5181 22.1607C13.4561 22.2843 13.0844 22.5685 12.9552 22.708C12.787 22.8881 12.61 23.084 12.4454 23.2888C12.171 23.6207 11.7356 24.1591 11.5409 24.5775Z" fill="#94A3B8"/>
</svg>
