<svg width="25" height="24" viewBox="0 0 25 24" fill="none" xmlns="http://www.w3.org/2000/svg">
<path d="M11.342 10.1802C11.3197 9.85924 11.2644 9.5902 11.2644 9.24596C11.2644 9.05954 11.2793 8.45473 11.3643 8.34352C11.7073 8.79897 11.8624 9.58702 12.0047 10.0764C12.0503 9.93762 12.0758 9.75014 12.1151 9.59973C12.1959 9.29468 12.4932 8.48969 12.6504 8.34352C12.7248 8.48333 12.7428 9.07648 12.7428 9.26926C12.7428 9.60715 12.6823 9.88995 12.66 10.1961C12.7439 10.0647 12.8352 9.92173 12.9223 9.7978C13.1145 9.52241 13.6254 8.90383 13.8718 8.77991C13.8134 9.47369 13.4523 10.034 13.242 10.5276C13.4215 10.4344 14.047 9.83487 14.8659 9.60609C14.5812 10.2691 13.7475 10.9439 13.6806 11.0392C13.8155 11.0116 13.9589 10.9502 14.1065 10.9089C14.4495 10.8115 15.2057 10.6791 15.5137 10.731L15.1654 11.0095C14.6354 11.3961 14.3943 11.4332 13.8973 11.6662C14.0279 11.6927 14.4941 11.6906 14.8988 11.7658C15.0942 11.8018 15.5891 11.9152 15.7293 12.002C15.6199 12.0984 15.0825 12.2096 14.885 12.2467C14.5239 12.3134 14.2403 12.2943 13.8951 12.3378C14.2042 12.4638 14.4803 12.5835 14.7607 12.7424C14.9508 12.8504 15.4341 13.1576 15.5105 13.2868C14.474 13.2858 14.4007 13.1184 13.6923 12.9744L14.0332 13.3048C14.3242 13.5898 14.6811 14.0293 14.8669 14.399C14.4687 14.3301 13.7613 13.8694 13.4055 13.6035C13.3503 13.5622 13.2983 13.5093 13.2409 13.4785C13.2855 13.5961 13.379 13.7423 13.4395 13.8704C13.6318 14.2761 13.8144 14.7729 13.8707 15.2262C13.6551 15.1171 13.3514 14.7623 13.1889 14.5653C13.0975 14.4541 12.9956 14.3291 12.9064 14.1935C12.8458 14.1013 12.7046 13.9022 12.6589 13.8079C12.661 13.9351 12.7003 14.1066 12.7141 14.2443C12.7449 14.5632 12.7577 15.4529 12.6472 15.6616C12.5357 15.5599 12.3275 15.0462 12.2596 14.864C12.1746 14.6362 12.0227 13.9997 11.9866 13.952C11.9155 14.4816 11.6202 15.2802 11.36 15.6616L11.3239 15.5652C11.1741 14.8036 11.3377 13.9573 11.3218 13.8715L11.308 13.8355C11.1582 14.2179 10.4806 14.9879 10.1291 15.2368C10.1535 14.7348 10.5518 13.8344 10.7621 13.4807C10.6421 13.5495 10.5358 13.6554 10.3988 13.7518C10.076 13.9795 9.50884 14.3058 9.13499 14.4032C9.47804 13.6618 10.2332 13.0919 10.3245 12.9659C9.81365 13.0951 9.10844 13.3514 8.48713 13.2794C8.66025 13.0983 8.98099 12.896 9.22845 12.7477C9.57575 12.5401 9.90605 12.4426 10.094 12.3346C9.71806 12.3134 8.54236 12.2287 8.2726 12.0009C8.69211 11.7573 9.63735 11.7097 10.0983 11.6726C10.0696 11.6535 9.50777 11.4184 9.22527 11.2584C9.00436 11.1335 8.62202 10.8814 8.4882 10.7267C8.77814 10.7045 9.20403 10.7596 9.48229 10.8136C9.81152 10.8771 10.2066 11.0191 10.3224 11.0392C10.2024 10.9163 10.093 10.8358 9.97508 10.7204C9.7563 10.5054 9.21783 9.86135 9.13924 9.60503C10.0632 9.91008 10.6028 10.4482 10.7472 10.5149C10.7068 10.4015 10.6059 10.2289 10.5443 10.1071C10.4042 9.8264 10.1174 9.01823 10.1333 8.77143L10.4743 9.07966C10.9947 9.57961 11.2262 10.0626 11.342 10.1802ZM14.8945 8.08719C14.8892 8.08931 14.885 8.09248 14.8797 8.0946C14.885 8.09248 14.8892 8.09037 14.8945 8.08719ZM14.8776 8.09566C14.8733 8.09778 14.8691 8.0999 14.8637 8.10308C14.8691 8.10096 14.8733 8.09778 14.8776 8.09566ZM14.8457 8.11261C14.8266 8.1232 14.8064 8.13273 14.7873 8.14333C14.8064 8.13273 14.8255 8.1232 14.8457 8.11261ZM14.6864 8.19946C14.6821 8.20158 14.6779 8.2037 14.6736 8.20688C14.6779 8.20476 14.6821 8.20264 14.6864 8.19946ZM14.6715 8.209C14.6673 8.21112 14.6641 8.21323 14.6598 8.21535C14.663 8.21323 14.6673 8.21112 14.6715 8.209ZM14.5908 8.25666C14.5876 8.25878 14.5834 8.2609 14.5802 8.26302C14.5834 8.2609 14.5865 8.25878 14.5908 8.25666ZM14.4209 8.3647C14.4177 8.36682 14.4134 8.36894 14.4102 8.37211C14.4134 8.36894 14.4166 8.36682 14.4209 8.3647ZM13.9068 8.65492C13.9079 8.64433 13.9079 8.63374 13.909 8.62315C13.9079 8.63374 13.9068 8.64433 13.9068 8.65492ZM13.9132 8.52358C13.9143 8.51299 13.9143 8.50134 13.9153 8.49074C13.9153 8.50134 13.9143 8.51193 13.9132 8.52358ZM13.9164 8.48121C13.9175 8.47168 13.9174 8.46215 13.9185 8.45261C13.9174 8.46215 13.9164 8.47168 13.9164 8.48121ZM13.9185 8.44308C13.9196 8.43249 13.9196 8.4219 13.9206 8.41236C13.9196 8.42296 13.9196 8.43249 13.9185 8.44308ZM13.9281 8.30538C13.9525 7.95691 13.9706 7.86687 13.9589 7.63173C13.9695 7.86687 13.9525 7.95691 13.9281 8.30538ZM15.1845 8.98222C15.1909 8.96633 15.1983 8.95044 15.2047 8.93349C15.1972 8.95044 15.1909 8.96633 15.1845 8.98222ZM15.2068 8.9282C15.211 8.91866 15.2142 8.90913 15.2185 8.90066C15.2142 8.90913 15.21 8.91866 15.2068 8.9282ZM15.2408 8.84346C15.245 8.83287 15.2493 8.82122 15.2535 8.81062C15.2493 8.82122 15.245 8.83181 15.2408 8.84346ZM15.2556 8.80533C15.2599 8.79474 15.2631 8.7852 15.2673 8.77461C15.2641 8.7852 15.2599 8.79474 15.2556 8.80533ZM15.2907 8.71424C15.2949 8.70364 15.2981 8.69411 15.3024 8.68352C15.2981 8.69411 15.2939 8.70364 15.2907 8.71424ZM16.1956 10.7617C16.1903 10.7606 16.1839 10.7606 16.1786 10.7596C16.1839 10.7596 16.1892 10.7606 16.1956 10.7617ZM16.1488 10.7553C16.1435 10.7543 16.1372 10.7543 16.1318 10.7532L16.1488 10.7553ZM15.5721 10.7161C15.5721 10.7161 15.5732 10.7151 15.5732 10.714C15.5732 10.7151 15.5732 10.7161 15.5721 10.7161ZM15.5775 10.7108C15.5785 10.7098 15.5796 10.7087 15.5806 10.7066C15.5796 10.7077 15.5785 10.7098 15.5775 10.7108ZM15.5934 10.6928C15.672 10.6113 15.9577 10.3348 16.2306 10.0213C15.9577 10.3348 15.673 10.6123 15.5934 10.6928ZM16.6183 12.4013C16.4537 12.3081 16.1393 12.163 15.9524 12.0709C16.1382 12.163 16.4537 12.3092 16.6183 12.4013ZM15.9364 12.0634C15.9332 12.0613 15.9301 12.0603 15.9269 12.0581C15.9301 12.0592 15.9332 12.0613 15.9364 12.0634ZM15.9247 12.0571C15.9216 12.055 15.9184 12.0539 15.9152 12.0518C15.9184 12.0539 15.9216 12.056 15.9247 12.0571ZM15.844 12.0147C15.843 12.0137 15.8408 12.0137 15.8398 12.0126C15.8419 12.0126 15.843 12.0137 15.844 12.0147ZM15.8302 12.0062C15.8292 12.0052 15.8281 12.0052 15.827 12.0041C15.8281 12.0052 15.8292 12.0062 15.8302 12.0062ZM15.8238 12.0031C15.8228 12.002 15.8217 12.002 15.8207 12.0009C15.8228 12.002 15.8238 12.002 15.8238 12.0031ZM15.8143 11.9967C15.8132 11.9956 15.8122 11.9956 15.8122 11.9946C15.8132 11.9956 15.8132 11.9956 15.8143 11.9967ZM15.8111 11.9935C15.81 11.9925 15.81 11.9925 15.809 11.9914C15.809 11.9925 15.81 11.9935 15.8111 11.9935ZM16.0012 14.6913C15.8302 15.0186 15.6284 15.3226 15.399 15.5991L16.0012 14.6913ZM15.3852 15.5546C15.3842 15.5503 15.382 15.5461 15.381 15.5408C15.3831 15.5461 15.3842 15.5503 15.3852 15.5546ZM15.3279 15.3893C15.3257 15.3851 15.3247 15.3798 15.3226 15.3756C15.3247 15.3809 15.3268 15.3851 15.3279 15.3893ZM15.2907 15.293C15.2875 15.2855 15.2843 15.2771 15.2811 15.2696C15.2854 15.2771 15.2886 15.2855 15.2907 15.293ZM15.2482 15.1891C15.2461 15.1849 15.244 15.1796 15.2418 15.1754C15.245 15.1796 15.2461 15.1839 15.2482 15.1891ZM15.2185 15.1171C15.2142 15.1076 15.21 15.097 15.2057 15.0875C15.2089 15.0981 15.2132 15.1076 15.2185 15.1171ZM15.1951 15.0663C15.1877 15.0504 15.1813 15.0345 15.1739 15.0197C15.1813 15.0345 15.1887 15.0504 15.1951 15.0663ZM15.1728 15.0144C15.1707 15.0091 15.1686 15.0038 15.1654 14.9985C15.1675 15.0038 15.1696 15.0091 15.1728 15.0144ZM15.1165 14.8936C15.0804 14.8153 15.0432 14.7348 15.005 14.6521C15.0432 14.7348 15.0804 14.8142 15.1165 14.8936ZM14.9923 14.6235C14.9891 14.6151 14.9848 14.6076 14.9816 14.5992L14.9923 14.6235ZM14.9784 14.5939C14.9753 14.5865 14.9721 14.5801 14.9689 14.5727C14.9721 14.579 14.9753 14.5865 14.9784 14.5939ZM14.954 14.5399C14.9508 14.5324 14.9476 14.525 14.9445 14.5176C14.9476 14.5261 14.9508 14.5335 14.954 14.5399ZM14.9423 14.5134C14.9392 14.5049 14.9349 14.4975 14.9317 14.489C14.9349 14.4975 14.9381 14.5049 14.9423 14.5134ZM14.9062 14.4318C14.9147 14.4339 14.9232 14.435 14.9317 14.4371C14.9232 14.435 14.9147 14.4329 14.9062 14.4318ZM14.9646 14.4435C14.9721 14.4456 14.9795 14.4466 14.988 14.4488C14.9806 14.4466 14.9721 14.4456 14.9646 14.4435ZM13.9546 16.6297C13.9557 16.6223 13.9557 16.6138 13.9567 16.6064C13.9557 16.6138 13.9546 16.6212 13.9546 16.6297ZM13.9567 16.6011C13.9589 16.5661 13.961 16.5312 13.9631 16.4983C13.961 16.5322 13.9589 16.5661 13.9567 16.6011ZM13.9652 16.2748C13.961 16.0757 13.9398 15.9105 13.9238 15.724C13.9398 15.9094 13.961 16.0757 13.9652 16.2748ZM13.9238 15.724C13.9228 15.7166 13.9228 15.7082 13.9217 15.7007C13.9217 15.7082 13.9228 15.7166 13.9238 15.724ZM13.9175 15.6478C13.9164 15.6308 13.9153 15.6139 13.9143 15.5969C13.9143 15.6149 13.9164 15.6319 13.9175 15.6478ZM13.9132 15.5927C13.9132 15.5864 13.9121 15.58 13.9121 15.5736C13.9121 15.5789 13.9132 15.5864 13.9132 15.5927ZM13.9111 15.5652C13.9111 15.5588 13.91 15.5535 13.91 15.5472C13.9111 15.5535 13.9111 15.5588 13.9111 15.5652ZM13.9068 15.4857C13.9068 15.4773 13.9058 15.4677 13.9058 15.4592L13.9068 15.4857ZM13.9036 15.366C13.9036 15.3597 13.9036 15.3533 13.9036 15.348V15.366ZM13.9036 15.3067C13.9036 15.2972 13.9036 15.2866 13.9036 15.2771C13.9026 15.2877 13.9026 15.2972 13.9036 15.3067ZM12.1332 17.2588C12.1343 17.2557 12.1364 17.2535 12.1374 17.2504C12.1364 17.2525 12.1343 17.2557 12.1332 17.2588ZM12.1385 17.2472C12.1427 17.2376 12.1481 17.2281 12.1523 17.2196C12.1481 17.2292 12.1427 17.2376 12.1385 17.2472ZM12.1523 17.2186C12.1619 17.1985 12.1714 17.1783 12.181 17.1571C12.1714 17.1783 12.1619 17.1995 12.1523 17.2186ZM12.1969 17.1243C12.2298 17.0533 12.2617 16.9781 12.2904 16.9093C12.2617 16.9781 12.2288 17.0523 12.1969 17.1243ZM10.4594 16.8542C10.504 16.8087 10.5497 16.761 10.5953 16.7112C10.5497 16.761 10.505 16.8087 10.4594 16.8542ZM10.5953 16.7112C10.624 16.6805 10.6527 16.6487 10.6803 16.617C10.6527 16.6487 10.624 16.6794 10.5953 16.7112ZM10.813 16.4623L10.8215 16.4517C10.8194 16.4549 10.8162 16.4581 10.813 16.4623ZM11.8326 17.1635C11.8369 17.173 11.8411 17.1815 11.8454 17.19C11.8411 17.1815 11.8369 17.172 11.8326 17.1635ZM11.8464 17.1932C11.8507 17.2016 11.8549 17.2112 11.8592 17.2196C11.8549 17.2112 11.8507 17.2027 11.8464 17.1932ZM8.95869 16.0037L8.99055 15.9878C8.98099 15.9931 8.97037 15.9984 8.95869 16.0037ZM9.25607 15.8437C9.272 15.8342 9.28687 15.8257 9.3028 15.8162C9.28687 15.8257 9.27094 15.8353 9.25607 15.8437ZM9.37396 15.7728C9.38882 15.7632 9.40475 15.7537 9.41962 15.7442C9.40369 15.7548 9.38882 15.7643 9.37396 15.7728ZM9.53751 15.669C9.54176 15.6658 9.54707 15.6626 9.55132 15.6594C9.54707 15.6626 9.54282 15.6658 9.53751 15.669ZM9.55238 15.6584C9.56194 15.652 9.5715 15.6457 9.58106 15.6393C9.5715 15.6467 9.56194 15.652 9.55238 15.6584ZM9.66815 15.5811C9.67558 15.5758 9.68301 15.5705 9.69045 15.5652C9.68301 15.5715 9.67558 15.5768 9.66815 15.5811ZM10.1057 15.3406C10.1047 15.3512 10.1047 15.3618 10.1036 15.3724L10.1057 15.3406ZM10.0908 15.545C10.0898 15.5578 10.0887 15.5694 10.0877 15.5811L10.0908 15.545ZM10.0877 15.5821C10.0866 15.5938 10.0855 15.6054 10.0845 15.6171L10.0877 15.5821ZM10.0515 16.0566C10.0515 16.0619 10.0505 16.0662 10.0505 16.0715C10.0516 16.0662 10.0515 16.0609 10.0515 16.0566ZM10.0505 16.0746C10.0505 16.0789 10.0505 16.0842 10.0494 16.0884C10.0505 16.0842 10.0505 16.0799 10.0505 16.0746ZM10.0494 16.0926C10.0494 16.0969 10.0494 16.1022 10.0484 16.1064C10.0494 16.1022 10.0494 16.0979 10.0494 16.0926ZM10.0494 16.1096C10.0484 16.1308 10.0484 16.152 10.0473 16.1721C10.0473 16.1509 10.0484 16.1308 10.0494 16.1096ZM10.0462 16.1922V16.2049C10.0462 16.2007 10.0462 16.1965 10.0462 16.1922ZM10.0462 16.2102V16.2219C10.0462 16.2187 10.0462 16.2145 10.0462 16.2102ZM10.0462 16.2282V16.2409C10.0462 16.2367 10.0462 16.2325 10.0462 16.2282ZM10.0473 16.2918V16.3055C10.0473 16.3013 10.0473 16.2971 10.0473 16.2918ZM10.0473 16.3108V16.3236C10.0484 16.3193 10.0473 16.3151 10.0473 16.3108ZM10.0494 16.349V16.3617C10.0494 16.3575 10.0494 16.3532 10.0494 16.349ZM10.0494 16.3691C10.0494 16.3733 10.0494 16.3776 10.0505 16.3818C10.0505 16.3776 10.0505 16.3733 10.0494 16.3691ZM10.0505 16.3882C10.0505 16.3924 10.0505 16.3977 10.0515 16.4019C10.0515 16.3977 10.0505 16.3924 10.0505 16.3882ZM10.0515 16.4051C10.0526 16.4221 10.0537 16.4401 10.0547 16.4581C10.0537 16.439 10.0526 16.4221 10.0515 16.4051ZM10.0558 16.4655C10.0558 16.4708 10.0569 16.475 10.0569 16.4803C10.0558 16.475 10.0558 16.4697 10.0558 16.4655ZM10.0622 16.5608C10.0622 16.5661 10.0632 16.5714 10.0632 16.5767C10.0632 16.5725 10.0632 16.5672 10.0622 16.5608ZM10.0643 16.5831C10.0664 16.6042 10.0675 16.6254 10.0696 16.6477C10.0675 16.6254 10.0664 16.6032 10.0643 16.5831ZM10.0823 16.778L10.0855 16.8066C10.0834 16.796 10.0823 16.7864 10.0823 16.778ZM8.60715 15.6266C8.36925 15.3438 8.16002 15.0313 7.98478 14.6956L8.60715 15.6266ZM8.03788 14.686L8.08886 14.6765C8.07187 14.6797 8.05488 14.6828 8.03788 14.686ZM8.14197 14.667C8.40429 14.6161 8.65069 14.5452 8.92258 14.4752C8.65069 14.5452 8.40429 14.6151 8.14197 14.667ZM8.92683 14.4742C8.94382 14.4699 8.96188 14.4657 8.97993 14.4604C8.96188 14.4647 8.94488 14.4699 8.92683 14.4742ZM9.07339 14.4371C9.08189 14.435 9.09145 14.4329 9.09994 14.4308C9.09145 14.4329 9.08295 14.435 9.07339 14.4371ZM8.71123 15.3215C8.70911 15.329 8.70592 15.3364 8.7038 15.3438C8.70592 15.3364 8.70804 15.329 8.71123 15.3215ZM8.66662 15.4455C8.6645 15.4529 8.66131 15.4603 8.65919 15.4677C8.66131 15.4614 8.6645 15.454 8.66662 15.4455ZM7.51216 13.1926C7.52278 13.1936 7.53234 13.1957 7.54296 13.1968C7.5334 13.1957 7.52278 13.1947 7.51216 13.1926ZM7.61412 13.2074C7.62368 13.2084 7.63324 13.2106 7.6428 13.2116C7.63324 13.2106 7.62368 13.2095 7.61412 13.2074ZM7.71502 13.2211C7.72458 13.2222 7.73413 13.2233 7.74369 13.2243C7.73413 13.2243 7.72458 13.2222 7.71502 13.2211ZM7.96566 13.2508C7.9731 13.2519 7.98053 13.2519 7.98797 13.2529C7.98053 13.2529 7.9731 13.2519 7.96566 13.2508ZM7.69696 12.2424L7.68422 12.2488C7.68847 12.2467 7.69271 12.2446 7.69696 12.2424ZM7.57907 12.3049L7.56739 12.3113C7.57164 12.3092 7.57589 12.3071 7.57907 12.3049ZM7.41552 12.395C7.40914 12.3981 7.40383 12.4013 7.39746 12.4056L7.41552 12.395ZM8.41916 10.6865C8.42129 10.6886 8.42341 10.6918 8.42554 10.6939C8.42341 10.6907 8.42129 10.6886 8.41916 10.6865ZM8.43722 10.7087C8.43828 10.7108 8.4404 10.7119 8.44147 10.714C8.4404 10.7119 8.43934 10.7098 8.43722 10.7087ZM8.31933 10.7214C8.31083 10.7225 8.30127 10.7225 8.29278 10.7235L8.31933 10.7214ZM7.88495 10.7596C7.87964 10.7606 7.87326 10.7606 7.86795 10.7617C7.87326 10.7606 7.87857 10.7596 7.88495 10.7596ZM7.85308 10.7627C7.84777 10.7638 7.84353 10.7638 7.83822 10.7649C7.84353 10.7638 7.84884 10.7638 7.85308 10.7627ZM7.8276 10.7659C7.82122 10.767 7.81485 10.767 7.80848 10.768C7.81485 10.768 7.82122 10.767 7.8276 10.7659ZM7.64811 10.7892C7.62368 10.7924 7.60031 10.7966 7.57695 10.7998C7.60031 10.7966 7.62368 10.7935 7.64811 10.7892ZM10.0643 7.47603C10.0632 7.49403 10.0622 7.51204 10.0622 7.53005C10.0622 7.5131 10.0632 7.49509 10.0643 7.47603ZM10.0611 7.53534C10.0611 7.54064 10.0611 7.54699 10.06 7.55229C10.0611 7.54699 10.0611 7.5417 10.0611 7.53534ZM10.0611 7.55441C10.06 7.57347 10.06 7.59148 10.059 7.60949C10.059 7.59148 10.06 7.57347 10.0611 7.55441ZM10.0569 7.67092V7.68787C10.0569 7.68257 10.0569 7.67622 10.0569 7.67092ZM10.0569 7.69105V7.72494C10.0569 7.71329 10.0569 7.7027 10.0569 7.69105ZM10.0558 7.72706V7.74401C10.0558 7.73871 10.0558 7.73341 10.0558 7.72706ZM10.0558 7.7493V7.8012C10.0558 7.7832 10.0558 7.76625 10.0558 7.7493ZM10.0558 7.82556V7.8584C10.0558 7.84781 10.0558 7.83616 10.0558 7.82556ZM10.0569 7.86264V7.87852C10.0569 7.87323 10.0569 7.86793 10.0569 7.86264ZM10.0579 7.9622C10.0579 7.97174 10.059 7.98233 10.059 7.99186C10.059 7.98233 10.059 7.97174 10.0579 7.9622ZM10.0622 8.07871C10.0622 8.08295 10.0622 8.08825 10.0632 8.09248C10.0632 8.08825 10.0622 8.08295 10.0622 8.07871ZM10.0632 8.10414C10.0632 8.11155 10.0643 8.1179 10.0643 8.12532C10.0643 8.11896 10.0643 8.11155 10.0632 8.10414ZM10.0654 8.13697C10.0654 8.14121 10.0654 8.1465 10.0664 8.15074C10.0654 8.14544 10.0654 8.14121 10.0654 8.13697ZM10.0717 8.24819L10.0728 8.26408C10.0717 8.25878 10.0717 8.25348 10.0717 8.24819ZM10.8396 7.57983L10.83 7.56818C10.8332 7.57242 10.8364 7.57559 10.8396 7.57983ZM10.7546 7.48026C10.7504 7.47603 10.7461 7.47073 10.743 7.46649C10.7472 7.47073 10.7514 7.47497 10.7546 7.48026ZM10.7175 7.43684L10.709 7.4273C10.7122 7.42942 10.7143 7.4326 10.7175 7.43684ZM10.5592 7.25889C10.5539 7.25359 10.5486 7.24724 10.5433 7.24194C10.5486 7.24724 10.5539 7.25254 10.5592 7.25889Z" fill="#E2E8F0"/>
<path d="M7.25105 14.7465C7.36893 14.4955 7.62914 14.1725 7.79376 13.9691C7.89253 13.8462 7.99874 13.7286 8.09963 13.6206C8.17822 13.5369 8.40126 13.3664 8.43737 13.2923C7.96369 13.2605 7.0227 13.1673 6.61275 12.9575C6.63611 12.9088 6.60531 12.9544 6.64249 12.9162C6.88782 12.661 7.87341 12.1197 8.2154 12.0106L7.35938 11.5827C7.20963 11.499 6.65735 11.1569 6.61593 11.0425C7.17989 10.8328 7.79695 10.7491 8.44162 10.7131C8.35878 10.5934 7.62064 9.99071 7.25423 9.26834C7.49744 9.23974 7.98918 9.31282 8.23558 9.35519C8.55632 9.41027 8.8144 9.50772 9.09903 9.57021C9.06186 9.45794 8.95884 9.29376 8.9068 9.17513C8.73687 8.78852 8.52977 8.2282 8.47666 7.80875C8.71988 7.8776 9.13833 8.08944 9.338 8.20913L10.1122 8.71967C10.04 8.00259 10.0326 7.57043 10.1207 6.85971C10.3098 6.93597 10.9098 7.64352 11.0745 7.87654C11.1371 7.96446 11.2784 8.1996 11.3421 8.26421L11.6193 7.34906C11.751 6.99105 11.9188 6.71777 11.99 6.53135C12.077 6.59703 12.1641 6.81416 12.2077 6.91055C12.2746 7.05566 12.3288 7.1923 12.3882 7.33741C12.5157 7.64881 12.572 7.93904 12.6622 8.2801C12.829 8.06826 12.9416 7.84689 13.2156 7.51641C13.3356 7.37236 13.7455 6.92432 13.8921 6.86077C14.0079 8.04284 13.9558 7.6361 13.9027 8.71014C13.9739 8.68154 13.941 8.69849 14.0047 8.65294C14.3998 8.36907 14.626 8.20596 15.0922 7.98776C15.2324 7.92209 15.4066 7.86171 15.5319 7.79393C15.6976 7.26962 15.6934 6.25808 15.6774 5.66493C15.3747 5.76555 14.5761 6.29409 14.2946 6.51547C14.2171 6.57584 13.9442 6.82052 13.8815 6.82052C13.6064 5.70729 13.7222 5.94667 13.2899 4.80273C13.001 4.94043 12.0027 6.49428 11.9995 6.4964C11.939 6.42438 11.6246 5.87994 11.4207 5.61514C11.2986 5.45626 10.8652 4.88217 10.7325 4.80697C10.501 5.08766 10.2089 6.43179 10.126 6.83429C10.0528 6.79933 9.98904 6.7326 9.92956 6.68282C9.85416 6.62033 9.79468 6.57372 9.71821 6.5197C9.46757 6.34388 8.54676 5.68929 8.33222 5.67658C8.31948 6.05683 8.31842 6.39048 8.33966 6.76862C8.35984 7.1351 8.43312 7.45074 8.46604 7.79287C8.18991 7.7219 7.92014 7.59691 7.49851 7.49735C7.15334 7.41579 6.754 7.32682 6.38865 7.2961C6.44919 7.60009 6.64355 8.04919 6.76356 8.32459C6.83472 8.48876 6.91119 8.65294 6.99084 8.79805C7.0397 8.88808 7.21494 9.18996 7.22768 9.25986C6.7848 9.27469 5.48165 9.32553 5.12374 9.5003C5.15454 9.57762 5.37863 9.85302 5.44342 9.92187C5.75035 10.2523 6.0233 10.5754 6.36954 10.8646C6.44282 10.9249 6.50442 10.9673 6.57345 11.0404C6.52035 11.0849 6.16456 11.2109 6.07322 11.248C5.60591 11.4397 5.07488 11.7289 4.67236 11.9915C4.80193 12.1525 5.7546 12.6186 6.05198 12.7436C6.20067 12.8061 6.44069 12.8707 6.57239 12.9544C6.5692 12.9597 6.56283 12.9607 6.56177 12.9681L6.18155 13.3166C6.03605 13.4395 5.92984 13.5475 5.80027 13.6831C5.65583 13.8346 5.20552 14.326 5.11843 14.4955C5.40519 14.6809 6.85702 14.7317 7.25105 14.7465Z" fill="#64748B"/>
<path d="M15.5329 7.79706C15.4915 8.31289 15.1197 9.17932 14.9095 9.56593C15.0072 9.55957 15.209 9.48331 15.3215 9.45577C15.4681 9.4187 15.6115 9.38586 15.7634 9.35832C16.0852 9.29901 16.4165 9.26935 16.7574 9.26299C16.5514 9.7873 15.5902 10.6855 15.5732 10.7173C16.1701 10.7205 16.8817 10.8571 17.3989 11.0435C17.3745 11.1251 17.4117 11.0615 17.3405 11.1187C16.9263 11.4503 16.3029 11.8104 15.8058 11.9904C15.8494 12.0349 16.4452 12.2976 16.6534 12.4237C16.7489 12.4809 17.3373 12.8442 17.4 12.9586C17.0962 13.0963 16.4537 13.2159 16.0937 13.2573C15.9333 13.2753 15.7134 13.271 15.5701 13.2996L15.8897 13.6057C15.9959 13.7148 16.1 13.8335 16.2009 13.95C16.3358 14.1057 16.6725 14.5336 16.7543 14.7433C15.9184 14.7634 15.5201 14.558 14.9073 14.433C15.1718 15.0378 15.4214 15.436 15.5382 16.2071C15.8335 16.2802 16.1754 16.4264 16.5153 16.508C16.8743 16.5937 17.2407 16.6615 17.6262 16.7103C17.5636 16.365 17.2046 15.5377 17.0166 15.1914C16.9709 15.1066 16.784 14.809 16.7936 14.7465C17.3766 14.7412 18.1965 14.6819 18.7796 14.5389L18.8922 14.4997C18.7509 14.2603 18.4068 13.896 18.2008 13.6841L17.4435 12.9596L18.4302 12.5338L19.3308 12.0021C19.0472 11.7151 17.4446 11.0478 17.4414 11.0446L17.8386 10.6834C18.136 10.4239 18.7106 9.8106 18.8954 9.50555C18.4759 9.30642 17.1982 9.30324 16.7851 9.26088C16.7904 9.19097 16.9645 8.91346 17.0187 8.81389C17.2056 8.46965 17.5519 7.66042 17.623 7.30347C17.332 7.30876 16.8042 7.42739 16.5195 7.49836C16.1669 7.58522 15.7156 7.75363 15.5329 7.79706ZM7.23926 14.7433C7.18722 14.8747 7.06296 15.0653 6.98437 15.2168C6.90365 15.3735 6.82931 15.5303 6.75709 15.6913C6.60627 16.0292 6.49476 16.366 6.37793 16.7166C6.74009 16.6351 7.11606 16.5969 7.48353 16.509C7.84357 16.4222 8.13776 16.3025 8.46169 16.2082C8.46063 16.3501 8.41071 16.5609 8.39053 16.7145C8.31725 17.2748 8.31407 17.7578 8.33 18.3277C8.46594 18.3234 9.15522 17.8786 9.28373 17.7928L9.93158 17.3182C10.007 17.261 10.0442 17.2123 10.1228 17.1678C10.2778 17.814 10.3001 18.0788 10.537 18.7312C10.5678 18.816 10.5954 18.8869 10.6262 18.9695L10.7324 19.1983C10.8673 19.1157 11.2793 18.5649 11.4142 18.4008C11.6744 18.0851 11.8093 17.7695 11.9962 17.5089L12.5974 18.405C12.746 18.5999 13.1114 19.0638 13.2781 19.2079C13.5065 18.799 13.8092 17.7133 13.8782 17.1615L13.5447 16.8289C13.4895 16.7728 13.43 16.7283 13.378 16.669C13.1486 16.4137 12.8416 16.0345 12.6791 15.7294C12.6303 15.7983 12.5687 16.1118 12.5432 16.2061C12.5007 16.3618 12.4465 16.5164 12.3913 16.6605C12.335 16.8066 12.0918 17.4115 12.0047 17.4602C11.906 17.3733 11.6882 16.8257 11.6245 16.6668C11.5672 16.5249 11.5141 16.3586 11.4726 16.2135C11.4302 16.0684 11.4025 15.8438 11.3431 15.7358C11.2634 15.8237 11.1498 16.0175 11.0775 16.1213C10.8758 16.4105 10.384 16.9878 10.1196 17.1435C10.0112 16.0684 10.0389 16.3141 10.1111 15.2835C10.0558 15.31 10.0654 15.3068 10.0144 15.3418C9.54712 15.6659 9.06707 16.0122 8.48718 16.1923C8.47019 15.9307 8.76969 15.1373 8.90457 14.8408C8.9598 14.719 9.06707 14.5431 9.10211 14.4298C8.46169 14.5844 7.99545 14.7624 7.23926 14.7433Z" fill="#64748B"/>
<path d="M13.8838 17.1646C13.973 17.2229 14.007 17.2578 14.0962 17.3298C14.4456 17.6116 15.3197 18.228 15.6819 18.3361C15.667 17.4898 15.7222 17.0905 15.5374 16.206C15.2315 16.0673 14.9448 15.9529 14.6602 15.7876C14.3192 15.5896 14.0696 15.3767 13.904 15.2771C13.9008 15.9666 14.058 16.1764 13.8838 17.1646Z" fill="#64748B"/>
<path d="M15.533 7.79708C15.7157 7.75365 16.167 7.58524 16.5186 7.49733C16.8032 7.42636 17.3311 7.30773 17.6221 7.30243C17.552 7.65833 17.2047 8.46862 17.0178 8.81286C16.9636 8.91242 16.7894 9.18993 16.7841 9.25984C17.1972 9.30221 18.4738 9.30539 18.8944 9.50452C18.7096 9.80957 18.135 10.4218 17.8377 10.6824L17.4405 11.0435C17.4426 11.0467 19.0452 11.714 19.3299 12.0011L18.4292 12.5328L17.4426 12.9586L18.1998 13.6831C18.4059 13.8949 18.75 14.2603 18.8912 14.4987L18.7787 14.5379C18.1945 14.6819 17.3757 14.7402 16.7926 14.7455C16.782 14.808 16.9689 15.1045 17.0156 15.1903C17.2036 15.5367 17.5637 16.3639 17.6253 16.7092C17.2397 16.6605 16.8733 16.5927 16.5143 16.5069C16.1745 16.4264 15.8325 16.2792 15.5372 16.2061C15.722 17.0905 15.6668 17.4899 15.6817 18.3362C15.3195 18.2281 14.4444 17.6127 14.096 17.3299C14.0068 17.2579 13.9739 17.224 13.8836 17.1647L13.8794 17.1594C13.8093 17.7102 13.5066 18.7969 13.2793 19.2058C13.1136 19.0617 12.7472 18.5978 12.5985 18.4029L11.9974 17.5068C11.8115 17.7674 11.6756 18.083 11.4154 18.3987C11.2794 18.5639 10.8684 19.1136 10.7335 19.1962L10.6273 18.9675C10.5965 18.8859 10.5689 18.8149 10.5381 18.7291C10.3013 18.0767 10.2779 17.8119 10.1239 17.1657C10.0453 17.2102 10.0092 17.259 9.93275 17.3162L9.28489 17.7907C9.15532 17.8754 8.46604 18.3213 8.33116 18.3256C8.31523 17.7557 8.31735 17.2738 8.3917 16.7124C8.41188 16.5599 8.46179 16.348 8.46286 16.2061C8.13893 16.3004 7.84474 16.4201 7.4847 16.5069C7.11722 16.5959 6.74232 16.633 6.37909 16.7145C6.49698 16.3639 6.60744 16.0282 6.75825 15.6892C6.82941 15.5293 6.90375 15.3715 6.98553 15.2147C7.06306 15.0632 7.18732 14.8726 7.24042 14.7412L7.25211 14.7444C6.85914 14.7296 5.40624 14.6787 5.11949 14.4955C5.20658 14.326 5.65689 13.8345 5.80133 13.6831C5.9309 13.5464 6.03711 13.4395 6.18261 13.3166L6.56283 12.9681C6.56495 12.9607 6.57026 12.9596 6.57345 12.9543C6.44175 12.8707 6.20173 12.8061 6.05304 12.7436C5.75566 12.6186 4.80193 12.1525 4.67342 11.9915C5.07488 11.7288 5.60697 11.4407 6.07428 11.248C6.16562 11.2109 6.52141 11.0849 6.57451 11.0404C6.50442 10.9662 6.44282 10.9249 6.3706 10.8645C6.02436 10.5754 5.75035 10.2523 5.44448 9.92184C5.37969 9.85194 5.1556 9.5776 5.1248 9.50028C5.48271 9.32657 6.78586 9.27573 7.22874 9.25984C7.216 9.19099 7.04076 8.88806 6.9919 8.79803C6.91331 8.65292 6.83578 8.48874 6.76462 8.32456C6.64567 8.04917 6.45025 7.60007 6.38971 7.29608C6.754 7.32679 7.1544 7.41471 7.49957 7.49733C7.9212 7.59795 8.19097 7.72294 8.4671 7.79284C8.43418 7.45178 8.3609 7.13614 8.34072 6.76859C8.31948 6.39152 8.32054 6.05681 8.33328 5.67655C8.54888 5.68926 9.46969 6.34385 9.71927 6.51968C9.79574 6.5737 9.85522 6.6203 9.93062 6.6828C9.9901 6.73258 10.0549 6.79931 10.1271 6.83426C10.211 6.43283 10.502 5.08764 10.7335 4.80695C10.8674 4.88215 11.2996 5.45624 11.4218 5.61512C11.6257 5.87886 11.939 6.42329 12.0006 6.49638C12.0038 6.49426 13.0021 4.94147 13.291 4.80271C13.7232 5.94665 13.6075 5.70833 13.8826 6.82049C13.9452 6.82049 14.2182 6.57688 14.2957 6.51544C14.5771 6.29407 15.3758 5.76447 15.6785 5.6649C15.6944 6.26229 15.6987 7.27383 15.533 7.79708ZM6.37803 16.7166C6.26545 16.9518 6.12526 17.6445 6.06685 17.9464C5.98188 18.3838 5.92347 18.8234 5.87461 19.2767C6.04029 19.281 6.94836 18.9537 7.14484 18.8774C7.353 18.7969 7.55479 18.7196 7.74278 18.6338C7.9074 18.5586 8.17822 18.4092 8.33222 18.3658C8.35665 18.9738 8.54357 20.3889 8.74324 20.9355C8.94609 20.8454 9.6821 20.2184 9.89345 20.032L10.7346 19.2365C10.9109 19.6962 11.6671 21.106 11.9985 21.5C12.0399 21.4756 12.0091 21.5021 12.0484 21.4566C12.2661 21.2024 12.8481 20.1326 13 19.8371C13.0669 19.7057 13.2188 19.3318 13.2867 19.2439L13.513 19.4547C13.6022 19.5384 13.6489 19.5966 13.7402 19.6951C13.924 19.8921 15.0583 20.838 15.2749 20.9397C15.4587 20.0669 15.636 19.3244 15.6817 18.3732C15.7932 18.3934 16.1299 18.5734 16.2605 18.6306C16.457 18.7164 16.6513 18.798 16.8563 18.8764C17.2142 19.0141 17.7591 19.2164 18.1382 19.2894C18.0936 18.6846 17.9524 17.9135 17.8058 17.3214C17.758 17.1308 17.6773 16.9009 17.6476 16.7251C18.0586 16.7336 18.4908 16.8014 18.9273 16.8056C19.3851 16.8109 19.812 16.7887 20.2645 16.7654C20.1392 16.3735 19.5635 15.4477 19.3033 15.059L18.9327 14.523C18.9783 14.4923 20.0287 14.201 20.205 14.1385C20.5013 14.0337 21.1545 13.8091 21.386 13.6587L21.2926 13.5422C20.7806 13.073 20.4907 12.8251 19.9204 12.3898C19.8258 12.3178 19.4212 12.0583 19.3798 12.0011C19.4499 11.9375 19.5518 11.8814 19.6379 11.8199C19.7356 11.75 19.8205 11.6939 19.9119 11.6261C20.102 11.4863 20.256 11.3666 20.4248 11.2278L21.163 10.587C21.2437 10.5161 21.3276 10.444 21.3966 10.3381L20.2199 9.87418C19.8588 9.74814 19.3182 9.56383 18.9273 9.50134C18.973 9.41025 19.0484 9.32128 19.109 9.23866C19.3915 8.85417 20.1859 7.56406 20.2634 7.24206C19.8173 7.2177 19.3787 7.19439 18.9284 7.20393C18.7181 7.20816 18.5025 7.21558 18.2933 7.23041C18.0841 7.24418 17.8493 7.28231 17.6476 7.28443C17.826 6.4699 18.1064 5.63736 18.1372 4.71903C17.6826 4.81542 16.7214 5.17131 16.2648 5.3768C16.1416 5.43188 15.7709 5.62571 15.6817 5.63524C15.6594 4.93087 15.4799 3.69055 15.2696 3.07091C15.105 3.15883 14.3955 3.72868 14.2373 3.86955C14.0663 4.02208 13.9197 4.15554 13.7583 4.30171C13.6425 4.40657 13.3781 4.71056 13.2878 4.76458C13.2124 4.6629 13.0701 4.30065 13.0021 4.16401C12.9012 3.96064 12.8035 3.77634 12.693 3.58568C12.6219 3.46282 12.1291 2.59003 11.9942 2.5C11.9114 2.65888 11.7616 2.85377 11.6575 3.02325C11.4058 3.43422 10.8557 4.3642 10.742 4.77305C10.6581 4.73386 10.1728 4.20638 10.0315 4.09198C9.57696 3.72126 9.29764 3.44587 8.75174 3.07303C8.62641 3.31771 8.43312 4.56015 8.38957 4.951C8.36515 5.16602 8.3609 5.44459 8.32373 5.64584C8.10494 5.56746 7.57285 5.29206 7.15652 5.13742C6.76674 4.99337 6.28563 4.80377 5.88099 4.72221C5.88099 5.08658 5.99675 5.6988 6.06685 6.05681C6.14225 6.44342 6.33449 7.10118 6.36635 7.28972C5.93196 7.25371 5.539 7.21664 5.094 7.20604C4.63837 7.19545 4.20612 7.22405 3.7558 7.24524C3.79616 7.44013 4.25497 8.225 4.36649 8.41036C4.60226 8.80544 4.84017 9.14121 5.08869 9.48333C5.06214 9.5024 3.97352 9.81381 3.81953 9.86783C3.42444 10.0013 2.97731 10.1708 2.61621 10.3455C2.74684 10.5383 3.86201 11.4524 4.07973 11.6092C4.25178 11.7331 4.48438 11.8697 4.63306 11.9989L4.60757 12.0244C4.46101 12.1494 3.9013 12.5105 3.58269 12.7806C3.34797 12.9798 2.78402 13.4501 2.61834 13.6545C3.01342 13.8716 3.92679 14.1862 4.41534 14.3324C4.6097 14.3906 4.92088 14.4288 5.07701 14.5199C4.99417 14.6703 4.56297 15.2666 4.36755 15.5949C4.2486 15.7951 3.80041 16.5747 3.74943 16.7643C4.67767 16.7971 5.45404 16.8289 6.37803 16.7166Z" fill="#475569"/>
<path d="M11.3421 10.1804C11.3198 9.85943 11.2646 9.59039 11.2646 9.24615C11.2646 9.05973 11.2795 8.45492 11.3645 8.34371C11.7075 8.79916 11.8626 9.58721 12.0049 10.0766C12.0505 9.93781 12.076 9.75033 12.1153 9.59992C12.196 9.29487 12.4934 8.48988 12.6506 8.34371C12.725 8.48352 12.743 9.07667 12.743 9.26945C12.743 9.60734 12.6825 9.89014 12.6602 10.1963C12.7441 10.0649 12.8354 9.92192 12.9225 9.79799C13.1147 9.5226 13.6256 8.90402 13.872 8.7801C13.8136 9.47388 13.4525 10.0342 13.2422 10.5278C13.4217 10.4346 14.0472 9.83506 14.8661 9.60628C14.5814 10.2693 13.7477 10.9441 13.6808 11.0394C13.8157 11.0118 13.9591 10.9504 14.1067 10.9091C14.4497 10.8117 15.2059 10.6793 15.5139 10.7312L15.1656 11.0097C14.6356 11.3963 14.3945 11.4334 13.8975 11.6664C14.0281 11.6929 14.4943 11.6908 14.899 11.766C15.0944 11.802 15.5893 11.9153 15.7295 12.0022C15.6201 12.0986 15.0827 12.2098 14.8852 12.2469C14.5241 12.3136 14.2405 12.2945 13.8953 12.338C14.2044 12.464 14.4805 12.5837 14.7609 12.7426C14.951 12.8506 15.4343 13.1578 15.5107 13.287C14.4742 13.286 14.4009 13.1186 13.6925 12.9745L14.0334 13.305C14.3244 13.5899 14.6813 14.0295 14.8671 14.3992C14.4689 14.3303 13.7615 13.8696 13.4057 13.6037C13.3505 13.5624 13.2985 13.5094 13.2411 13.4787C13.2857 13.5963 13.3792 13.7425 13.4397 13.8706C13.632 14.2763 13.8146 14.7731 13.8709 15.2264C13.6553 15.1173 13.3516 14.7625 13.1891 14.5655C13.0977 14.4543 12.9958 14.3293 12.9066 14.1937C12.846 14.1015 12.7048 13.9024 12.6591 13.8081C12.6612 13.9352 12.7005 14.1068 12.7143 14.2445C12.7451 14.5634 12.7579 15.4531 12.6474 15.6617C12.5359 15.5601 12.3277 15.0463 12.2598 14.8642C12.1748 14.6364 12.0229 13.9999 11.9868 13.9522C11.9157 14.4818 11.6204 15.2804 11.3602 15.6617L11.3241 15.5654C11.1743 14.8038 11.3379 13.9575 11.322 13.8717L11.3082 13.8357C11.1584 14.2181 10.4808 14.9881 10.1293 15.237C10.1537 14.7349 10.552 13.8346 10.7623 13.4808C10.6423 13.5497 10.536 13.6556 10.399 13.752C10.0762 13.9797 9.50903 14.306 9.13519 14.4034C9.47823 13.662 10.2334 13.0921 10.3247 12.9661C9.81384 13.0953 9.10864 13.3516 8.48733 13.2796C8.66045 13.0985 8.98119 12.8962 9.22865 12.7479C9.57594 12.5403 9.90624 12.4428 10.0942 12.3348C9.71826 12.3136 8.54256 12.2289 8.27279 12.0011C8.69231 11.7575 9.63754 11.7099 10.0985 11.6728C10.0698 11.6537 9.50797 11.4186 9.22546 11.2586C9.00455 11.1336 8.62221 10.8816 8.48839 10.7269C8.77834 10.7047 9.20422 10.7597 9.48248 10.8138C9.81172 10.8773 10.2068 11.0193 10.3226 11.0394C10.2026 10.9165 10.0932 10.836 9.97528 10.7206C9.75649 10.5055 9.21803 9.86155 9.13944 9.60522C10.0634 9.91027 10.603 10.4483 10.7474 10.5151C10.707 10.4017 10.6061 10.2291 10.5445 10.1073C10.4044 9.82659 10.1176 9.01842 10.1335 8.77162L10.4744 9.07985C10.9949 9.5798 11.2264 10.0628 11.3421 10.1804ZM7.25109 14.7466L7.23941 14.7434C7.9956 14.7635 8.46184 14.5856 9.1012 14.432C9.06615 14.5453 8.95889 14.7222 8.90366 14.843C8.76984 15.1396 8.46928 15.9329 8.48627 16.1945C9.06615 16.0145 9.54621 15.6681 10.0135 15.344C10.0645 15.308 10.0549 15.3122 10.1102 15.2857C10.0379 16.3163 10.0103 16.0706 10.1187 17.1457C10.3831 16.99 10.8748 16.4117 11.0766 16.1236C11.1489 16.0198 11.2625 15.8259 11.3421 15.738C11.4016 15.846 11.4292 16.0706 11.4717 16.2157C11.5142 16.3608 11.5673 16.5271 11.6236 16.669C11.6884 16.829 11.905 17.3766 12.0038 17.4624C12.0898 17.4137 12.3341 16.8078 12.3904 16.6627C12.4456 16.5186 12.4987 16.3629 12.5423 16.2083C12.5678 16.114 12.6294 15.8005 12.6782 15.7317C12.8418 16.0367 13.1477 16.4159 13.3771 16.6712C13.4302 16.7294 13.4896 16.775 13.5438 16.8311L13.8794 17.1616L13.8837 17.1669C14.0578 16.1786 13.9007 15.9689 13.9038 15.2794C14.0685 15.3779 14.3191 15.5908 14.66 15.7899C14.9457 15.9562 15.2325 16.0695 15.5373 16.2083C15.4205 15.4372 15.1698 15.0389 14.9064 14.4341C15.5192 14.5591 15.9175 14.7635 16.7534 14.7445C16.6716 14.5348 16.3349 14.1068 16.2 13.9511C16.1002 13.8346 15.995 13.716 15.8888 13.6069L15.5692 13.3008C15.7125 13.2722 15.9324 13.2764 16.0927 13.2584C16.4528 13.2171 17.0943 13.0974 17.3991 12.9597C17.3354 12.8453 16.748 12.4831 16.6525 12.4248C16.4432 12.2988 15.8485 12.0361 15.8049 11.9916C16.302 11.8115 16.9254 11.4514 17.3396 11.1199C17.4108 11.0627 17.3725 11.1262 17.398 11.0447C16.8819 10.8583 16.1692 10.7216 15.5723 10.7184C15.5904 10.6877 16.5505 9.78846 16.7565 9.26415C16.4156 9.27051 16.0843 9.30123 15.7624 9.35948C15.6106 9.38702 15.4672 9.41986 15.3206 9.45693C15.2091 9.48553 15.0063 9.56179 14.9086 9.56709C15.1188 9.18154 15.4906 8.31511 15.532 7.79822C15.4067 7.866 15.2325 7.92638 15.0923 7.99205C14.626 8.20919 14.3998 8.37336 14.0047 8.65723C13.941 8.70278 13.9739 8.68583 13.9028 8.71443C13.9548 7.64039 14.0079 8.04607 13.8922 6.86506C13.7456 6.92861 13.3356 7.37665 13.2156 7.5207C12.9406 7.85012 12.829 8.07255 12.6623 8.28439C12.571 7.94333 12.5157 7.6531 12.3883 7.3417C12.3288 7.19659 12.2746 7.05995 12.2077 6.91484C12.1631 6.81845 12.0771 6.60132 11.99 6.53564C11.9188 6.72206 11.7521 6.99534 11.6193 7.35335L11.3421 8.2685C11.2784 8.20389 11.1372 7.96875 11.0745 7.88083C10.9099 7.64781 10.3088 6.94026 10.1208 6.864C10.0326 7.57472 10.0401 8.00688 10.1123 8.72396L9.33804 8.21342C9.13837 8.09479 8.71992 7.88189 8.47671 7.81304C8.52981 8.23143 8.73691 8.79175 8.90684 9.17942C8.95889 9.29805 9.06191 9.46222 9.09908 9.5745C8.81445 9.51201 8.5553 9.41456 8.23562 9.35948C7.98922 9.31711 7.49749 9.24403 7.25428 9.27263C7.62069 9.995 8.35882 10.5977 8.44166 10.7174C7.79699 10.7534 7.17993 10.8371 6.61598 11.0468C6.6574 11.1601 7.21073 11.5023 7.35942 11.587L8.21544 12.0149C7.87346 12.1229 6.8868 12.6653 6.64253 12.9205C6.60536 12.9587 6.63616 12.9131 6.61279 12.9618C7.02275 13.1716 7.96373 13.2648 8.43741 13.2965C8.40024 13.3707 8.17721 13.5412 8.09968 13.6249C7.99878 13.7329 7.89258 13.8505 7.7938 13.9734C7.62919 14.1725 7.36792 14.4956 7.25109 14.7466Z" fill="#94A3B8"/>
</svg>
