<svg width="40" height="40" viewBox="0 0 40 40" fill="none" xmlns="http://www.w3.org/2000/svg">
<path fill-rule="evenodd" clip-rule="evenodd" d="M7.16309 11.1792V20.1527L20.196 24.9068L33.1757 20.1527V11.1792L20.196 15.933L7.16309 11.1792Z" fill="#475569"/>
<path fill-rule="evenodd" clip-rule="evenodd" d="M7.1631 22.1062V31.0797L20.1961 35.8334L33.1757 31.0797V22.1062L20.1961 26.8602L7.1631 22.1062ZM18.4602 5.50216H19.6484L20.4898 8.81377L21.3443 5.50216H22.5195L21.3044 10.2559H19.6885L18.4602 5.50216ZM25.1903 5.50216H22.9336V10.2561H24.1486V7.42508C24.1486 6.79733 24.5491 6.78411 25.1903 6.78411V5.50216ZM31.4397 6.78411C31.8401 6.78411 31.9737 6.91767 31.9737 7.37162V10.2559H33.1757V6.78411C33.1757 6.27669 32.9086 5.4487 31.9202 5.50216H29.6635V10.2561H30.8656V6.78411H31.4397ZM27.2466 5.50216C25.2881 5.50216 25.4839 6.6906 25.4839 7.81235C25.4839 9.06748 25.3239 10.2561 27.2734 10.2561C29.2228 10.2561 29.0091 9.06766 29.0091 7.78571C29.0093 6.5304 29.2498 5.50216 27.2466 5.50216ZM27.2466 9.02743C26.6991 9.02743 26.6725 8.61333 26.6725 7.83899C26.6725 7.09128 26.739 6.71723 27.2466 6.71723C27.7542 6.71723 27.7952 7.06464 27.8077 7.81216C27.8207 8.62693 27.8077 9.02743 27.2466 9.02743ZM16.1366 8.34659H18.2791C18.2772 8.20092 18.273 8.09698 18.273 7.95932C18.273 6.70401 18.46 5.50234 16.6171 5.50234C14.6585 5.50234 14.8544 6.83757 14.8544 7.95932C14.8544 8.97415 14.8278 10.2561 16.7773 10.2561H18.2728V9.08107H16.6971C16.4037 9.08256 16.1634 8.80054 16.1366 8.34659ZM16.1366 7.05123C16.1366 6.49035 16.9912 6.51699 16.9912 6.97113V7.30493H16.1366V7.05123ZM10.7551 4.16675V10.2559H11.9569V7.29152C11.9837 6.62391 13.1187 6.62391 13.1187 7.26489V10.2561H14.3206V6.90426C14.3206 6.12972 13.8131 5.56903 12.905 5.56903C12.3708 5.56903 12.037 5.63572 11.9569 5.74264V4.16693L10.7551 4.16675ZM10.181 4.16675H8.81891C7.08282 4.16675 6.78906 5.60908 6.78906 7.23806C6.78906 8.86704 7.08282 10.2559 8.55179 10.2559H10.181V8.97397H9.00574C8.15111 8.97397 8.20457 7.79894 8.20457 7.21124C8.20457 6.62372 8.04437 5.52861 9.2194 5.50216H10.181V4.16675Z" fill="#475569"/>
</svg>
