<svg width="25" height="24" viewBox="0 0 25 24" fill="none" xmlns="http://www.w3.org/2000/svg">
<path fill-rule="evenodd" clip-rule="evenodd" d="M5.05615 6.70752V12.0916L12.8759 14.9441L20.6637 12.0916V6.70752L12.8759 9.55977L5.05615 6.70752Z" fill="#475569"/>
<path fill-rule="evenodd" clip-rule="evenodd" d="M5.05597 13.2637V18.6478L12.8757 21.5L20.6636 18.6478V13.2637L12.8757 16.116L5.05597 13.2637ZM11.8342 3.30125H12.5472L13.052 5.28821L13.5647 3.30125H14.2698L13.5407 6.1535H12.5712L11.8342 3.30125ZM15.8723 3.30125H14.5182V6.15361H15.2473V4.455C15.2473 4.07835 15.4876 4.07042 15.8723 4.07042V3.30125ZM19.6219 4.07042C19.8622 4.07042 19.9423 4.15055 19.9423 4.42292V6.1535H20.6636V4.07042C20.6636 3.76597 20.5033 3.26917 19.9103 3.30125H18.5562V6.15361H19.2774V4.07042H19.6219ZM17.1061 3.30125C15.931 3.30125 16.0484 4.01431 16.0484 4.68736C16.0484 5.44044 15.9524 6.15361 17.1222 6.15361C18.2918 6.15361 18.1636 5.44055 18.1636 4.67138C18.1637 3.91819 18.308 3.30125 17.1061 3.30125ZM17.1061 5.41641C16.7776 5.41641 16.7616 5.16795 16.7616 4.70334C16.7616 4.25472 16.8015 4.03029 17.1061 4.03029C17.4106 4.03029 17.4352 4.23873 17.4427 4.68725C17.4505 5.17611 17.4427 5.41641 17.1061 5.41641ZM10.44 5.0079H11.7256C11.7244 4.9205 11.7219 4.85814 11.7219 4.77554C11.7219 4.02236 11.8341 3.30136 10.7284 3.30136C9.55318 3.30136 9.67076 4.10249 9.67076 4.77554C9.67076 5.38444 9.65478 6.15361 10.8245 6.15361H11.7218V5.44859H10.7763C10.6003 5.44949 10.4561 5.28028 10.44 5.0079ZM10.44 4.23069C10.44 3.89416 10.9528 3.91014 10.9528 4.18263V4.38291H10.44V4.23069ZM7.21114 2.5V6.1535H7.93225V4.37486C7.94834 3.9743 8.62933 3.9743 8.62933 4.35888V6.15361H9.35044V4.1425C9.35044 3.67778 9.04599 3.34137 8.50113 3.34137C8.18059 3.34137 7.98031 3.38138 7.93225 3.44554V2.50011L7.21114 2.5ZM6.86668 2.5H6.04945C5.0078 2.5 4.83154 3.3654 4.83154 4.34279C4.83154 5.32018 5.0078 6.1535 5.88918 6.1535H6.86668V5.38433H6.16155C5.64877 5.38433 5.68085 4.67931 5.68085 4.32669C5.68085 3.97419 5.58473 3.31712 6.28975 3.30125H6.86668V2.5Z" fill="#475569"/>
</svg>
