<svg width="49" height="48" viewBox="0 0 49 48" fill="none" xmlns="http://www.w3.org/2000/svg">
<path fill-rule="evenodd" clip-rule="evenodd" d="M9.354 13.415V24.1832L24.9936 29.8881L40.5692 24.1832V13.415L24.9936 19.1195L9.354 13.415Z" fill="#475569"/>
<path fill-rule="evenodd" clip-rule="evenodd" d="M9.35412 26.5274V37.2955L24.9937 43L40.5693 37.2955V26.5274L24.9937 32.2321L9.35412 26.5274ZM22.9106 6.60249H24.3365L25.3462 10.5764L26.3715 6.60249H27.7818L26.3237 12.307H24.3846L22.9106 6.60249ZM30.9868 6.60249H28.2787V12.3072H29.7368V8.91C29.7368 8.1567 30.2174 8.14083 30.9868 8.14083V6.60249ZM38.486 8.14083C38.9666 8.14083 39.1268 8.3011 39.1268 8.84585V12.307H40.5693V8.14083C40.5693 7.53193 40.2487 6.53834 39.0627 6.60249H36.3546V12.3072H37.7971V8.14083H38.486ZM33.4543 6.60249C31.1041 6.60249 31.339 8.02862 31.339 9.37472C31.339 10.8809 31.147 12.3072 33.4865 12.3072C35.8257 12.3072 35.5694 10.8811 35.5694 9.34276C35.5696 7.83638 35.8582 6.60249 33.4543 6.60249ZM33.4543 10.8328C32.7974 10.8328 32.7654 10.3359 32.7654 9.40669C32.7654 8.50943 32.8452 8.06058 33.4543 8.06058C34.0634 8.06058 34.1126 8.47747 34.1276 9.3745C34.1432 10.3522 34.1276 10.8328 33.4543 10.8328ZM20.1223 10.0158H22.6933C22.6911 9.84101 22.6859 9.71628 22.6859 9.55109C22.6859 8.04471 22.9104 6.60272 20.699 6.60272C18.3485 6.60272 18.5837 8.20499 18.5837 9.55109C18.5837 10.7689 18.5517 12.3072 20.8912 12.3072H22.6857V10.8972H20.7949C20.4428 10.899 20.1545 10.5606 20.1223 10.0158ZM20.1223 8.46138C20.1223 7.78832 21.1478 7.82029 21.1478 8.36526V8.76582H20.1223V8.46138ZM13.6645 5V12.307H15.1067V8.74973C15.1389 7.9486 16.5008 7.9486 16.5008 8.71776V12.3072H17.9431V8.28501C17.9431 7.35557 17.3342 6.68274 16.2445 6.68274C15.6034 6.68274 15.2028 6.76276 15.1067 6.89107V5.00022L13.6645 5ZM12.9755 5H11.3411C9.25778 5 8.90527 6.7308 8.90527 8.68558C8.90527 10.6404 9.25778 12.307 11.0205 12.307H12.9755V10.7687H11.5653C10.5397 10.7687 10.6039 9.35863 10.6039 8.65339C10.6039 7.94837 10.4116 6.63423 11.8217 6.60249H12.9755V5Z" fill="#475569"/>
</svg>
