<svg width="113" height="24" viewBox="0 0 113 24" fill="none" xmlns="http://www.w3.org/2000/svg">
<path d="M38.2586 8.80151V14.6256C38.2586 16.3124 37.4618 17.0444 35.8044 17.0444C34.0833 17.0444 33.669 15.9941 33.669 14.7211V14.371H35.167V14.6256C35.167 15.4849 35.3263 15.8987 35.9 15.8987C36.5056 15.8987 36.6331 15.4849 36.6331 14.6256V8.80151H38.2586ZM40.7446 8.80151V14.4028C40.7446 15.1985 40.9358 15.835 41.7008 15.835C42.4657 15.835 42.6251 15.2621 42.6251 14.4028V8.80151H44.2187V14.4028C44.2187 16.4715 42.9438 17.0126 41.637 17.0126C40.3303 17.0126 39.0554 16.567 39.0554 14.4028V8.80151H40.7446ZM45.2067 16.9171V8.80151H46.8322V15.5486H49.2863V16.8534L45.2067 16.9171ZM50.2106 16.9171V8.80151H51.8042V16.9171H50.2106ZM54.354 8.80151V14.4028C54.354 15.1985 54.5453 15.835 55.2783 15.835C56.0751 15.835 56.2345 15.2621 56.2345 14.4028V8.80151H57.8281V14.4028C57.8281 16.4715 56.5532 17.0126 55.2464 17.0126C53.9078 17.0126 52.6648 16.567 52.6648 14.4028V8.80151H54.354ZM60.1866 14.371V14.6256C60.1866 15.3894 60.3779 15.8987 61.2703 15.8987C61.7484 15.8987 62.2583 15.5486 62.2583 14.9121C62.2583 14.1801 61.844 13.8936 60.7922 13.5436C59.2942 13.0343 58.6568 12.4615 58.6568 11.093C58.6568 9.5335 59.6448 8.70603 61.1747 8.70603C62.6408 8.70603 63.6607 9.34255 63.6607 10.902V11.1566H62.099C62.099 10.361 61.844 9.91541 61.2065 9.91541C60.4735 9.91541 60.2823 10.361 60.2823 10.8384C60.2823 11.3476 60.4416 11.634 61.1109 11.9204L62.3858 12.4615C63.6288 13.0025 63.9476 13.639 63.9476 14.6256C63.9476 16.3124 62.9276 17.108 61.1109 17.108C59.2623 17.108 58.5293 16.2169 58.5293 14.7529V14.4028H60.1866V14.371ZM66.0192 8.80151H68.7603C70.067 8.80151 71.0551 9.27889 71.0551 10.8384C71.0551 11.7295 70.6088 12.4296 69.8439 12.6206C70.7045 12.7479 71.31 13.3844 71.31 14.4665C71.31 15.7395 70.6726 16.8216 68.7603 16.8216H66.0192V8.80151ZM67.6766 12.1114H68.1547C69.0471 12.1114 69.4933 11.825 69.4933 11.0611C69.4933 10.2655 69.1108 9.97906 68.314 9.97906H67.7403L67.6766 12.1114ZM67.6766 15.6759H68.314C69.1108 15.6759 69.6208 15.3894 69.6208 14.4665C69.6208 13.5436 69.1108 13.2571 68.4097 13.2571H67.7403L67.6766 15.6759ZM76.6327 8.80151V10.1064H73.7642V12.0159H76.2502V13.3526H73.7642V15.5486H76.7283V16.8534H72.075V8.80151H76.6327ZM77.5251 8.80151H80.553C81.8597 8.80151 82.7203 9.46985 82.7203 10.902C82.7203 11.9841 82.2741 12.7161 81.3498 12.907C82.4653 13.0343 82.5928 13.6709 82.6565 15.3894C82.6565 16.2169 82.7521 16.9171 82.7521 16.9171H81.0948L81.031 16.0896L80.9992 14.5302C80.9992 13.8936 80.7123 13.4799 80.0111 13.4799H79.1187V16.9171H77.5251V8.80151ZM79.1825 12.366H79.8518C80.6486 12.366 81.0948 12.0159 81.0948 11.1566C81.0948 10.4246 80.7123 10.0109 79.9793 10.0109H79.1825V12.366ZM95.1504 8.80151H98.1783C99.485 8.80151 100.314 9.46985 100.314 10.902C100.314 11.9841 99.8994 12.7161 98.9432 12.907C100.091 13.0343 100.218 13.6709 100.282 15.3894C100.282 16.2169 100.377 16.9171 100.377 16.9171H98.7201L98.6564 16.0896L98.6245 14.5302C98.6245 13.8936 98.3058 13.4799 97.6365 13.4799H96.744V16.9171H95.1504V8.80151ZM96.8078 12.366H97.4771C98.2739 12.366 98.7201 12.0159 98.7201 11.1566C98.7201 10.4246 98.3058 10.0109 97.5727 10.0109H96.8078V12.366ZM87.1505 11.2521C87.1505 10.6474 86.8637 9.88358 86.2262 9.88358C85.4613 9.88358 85.1107 10.7111 85.1107 12.7161C85.1107 14.6575 85.3019 15.8987 86.2262 15.8987C86.6087 15.8987 87.2461 15.4531 87.2461 14.6256V13.7345H86.1943V12.5251H88.8397V16.8534H87.5967V16.1851C87.4248 16.4841 87.1724 16.729 86.8682 16.8921C86.5641 17.0553 86.2202 17.13 85.8756 17.108C83.8677 17.108 83.4852 15.5804 83.4852 12.8116C83.4852 10.0745 84.1226 8.70603 86.2262 8.70603C88.0429 8.70603 88.7122 9.62898 88.7122 11.2521H87.1505ZM94.258 8.80151V10.1064H91.3576V12.0159H93.8755V13.3526H91.3576V15.5486H94.3536V16.8534H89.7003V8.80151H94.258ZM29.0475 2.5H13.1433C12.2827 2.5 11.5815 3.16834 11.5815 4.05946V19.9405C11.5815 20.768 12.2827 21.5 13.1433 21.5H29.0475C29.8762 21.5 30.6092 20.8317 30.6092 19.9405V4.05946C30.5774 3.16834 29.8762 2.5 29.0475 2.5ZM29.7487 19.9405C29.7487 20.3224 29.4618 20.6089 29.0475 20.6089H13.1433C12.7608 20.6089 12.474 20.3224 12.474 19.9405V4.05946C12.474 3.67755 12.7608 3.39112 13.1433 3.39112H29.0475C29.4618 3.39112 29.7487 3.67755 29.7487 4.05946V19.9405Z" fill="#475569"/>
<path d="M21.7169 10.9656C22.0675 10.902 22.3543 10.8065 22.5455 10.6155C22.7368 10.4246 22.8324 10.17 22.8324 9.81989C22.8324 9.53346 22.7368 9.24702 22.6093 9.05607C22.3862 8.86511 22.1631 8.73781 21.8125 8.70599C21.6212 8.70599 21.0157 8.64233 20.0595 8.64233H18.9121V10.9974H20.2507L21.7169 10.9656ZM22.3543 12.8115C22.0675 12.716 21.4619 12.6524 20.5376 12.6524H18.9121V15.3576H20.7926C21.5256 15.3576 21.9718 15.3576 22.1949 15.2939C22.4818 15.2621 22.7368 15.103 22.928 14.912C23.1192 14.7211 23.2467 14.4028 23.2467 14.0209C23.2467 13.7345 23.183 13.4799 23.0236 13.2571C22.8324 13.0343 22.6412 12.907 22.3543 12.8115Z" fill="#475569"/>
<path d="M27.9959 4.50513H14.2271C13.8446 4.50513 13.5259 4.79156 13.5259 5.17347V18.9222C13.5259 19.3041 13.8446 19.5906 14.2271 19.5906H27.9959C28.3783 19.5906 28.6652 19.2405 28.6652 18.9222V5.17347C28.6652 4.79156 28.3783 4.50513 27.9959 4.50513ZM24.9999 15.4532C24.8086 15.8988 24.4899 16.217 24.1074 16.4716C23.725 16.7262 23.2788 16.9172 22.7369 16.949C22.3863 17.0127 21.5577 17.0127 20.2828 17.0127H16.8725V6.98754H20.8884C21.6533 6.98754 22.2589 7.05119 22.6413 7.08302C23.0238 7.14667 23.3744 7.27397 23.6612 7.49675C23.9991 7.70989 24.2763 8.00633 24.4661 8.35751C24.6559 8.7087 24.7519 9.10278 24.7449 9.50178C24.7449 9.97916 24.6174 10.3611 24.3624 10.8066C24.1074 11.1885 23.7569 11.475 23.3425 11.6978C23.98 11.8887 24.3943 12.1751 24.7449 12.6207C25.0955 13.0344 25.223 13.5437 25.223 14.1165C25.2867 14.5621 25.1911 15.0395 24.9999 15.4532Z" fill="#475569"/>
</svg>
