<svg width="225" height="48" viewBox="0 0 225 48" fill="none" xmlns="http://www.w3.org/2000/svg">
<path d="M76.5171 17.603V29.2513C76.5171 32.6248 74.9235 34.0888 71.6088 34.0888C68.1666 34.0888 67.3379 31.9883 67.3379 29.4422V28.742H70.3339V29.2513C70.3339 30.9698 70.6526 31.7973 71.8 31.7973C73.0112 31.7973 73.2662 30.9698 73.2662 29.2513V17.603H76.5171ZM81.4892 17.603V28.8057C81.4892 30.397 81.8717 31.67 83.4015 31.67C84.9314 31.67 85.2501 30.5243 85.2501 28.8057V17.603H88.4373V28.8057C88.4373 32.943 85.8876 34.0251 83.274 34.0251C80.6605 34.0251 78.1107 33.134 78.1107 28.8057V17.603H81.4892ZM90.4134 33.8342V17.603H93.6644V31.0972H98.5727V33.7069L90.4134 33.8342ZM100.421 33.8342V17.603H103.608V33.8342H100.421ZM108.708 17.603V28.8057C108.708 30.397 109.091 31.67 110.557 31.67C112.15 31.67 112.469 30.5243 112.469 28.8057V17.603H115.656V28.8057C115.656 32.943 113.106 34.0251 110.493 34.0251C107.816 34.0251 105.33 33.134 105.33 28.8057V17.603H108.708ZM120.373 28.742V29.2513C120.373 30.7789 120.756 31.7973 122.541 31.7973C123.497 31.7973 124.517 31.0972 124.517 29.8241C124.517 28.3601 123.688 27.7873 121.584 27.0871C118.588 26.0687 117.314 24.9229 117.314 22.1859C117.314 19.067 119.29 17.4121 122.349 17.4121C125.282 17.4121 127.321 18.6851 127.321 21.804V22.3132H124.198C124.198 20.7219 123.688 19.8308 122.413 19.8308C120.947 19.8308 120.565 20.7219 120.565 21.6767C120.565 22.6951 120.883 23.268 122.222 23.8409L124.772 24.9229C127.258 26.005 127.895 27.2781 127.895 29.2513C127.895 32.6248 125.855 34.2161 122.222 34.2161C118.525 34.2161 117.059 32.4338 117.059 29.5059V28.8057H120.373V28.742ZM132.038 17.603H137.521C140.134 17.603 142.11 18.5578 142.11 21.6767C142.11 23.459 141.218 24.8593 139.688 25.2412C141.409 25.4958 142.62 26.7688 142.62 28.933C142.62 31.4791 141.345 33.6432 137.521 33.6432H132.038V17.603ZM135.353 24.2228H136.309C138.094 24.2228 138.987 23.6499 138.987 22.1223C138.987 20.531 138.222 19.9581 136.628 19.9581H135.481L135.353 24.2228ZM135.353 31.3518H136.628C138.222 31.3518 139.242 30.7789 139.242 28.933C139.242 27.0871 138.222 26.5142 136.819 26.5142H135.481L135.353 31.3518ZM153.265 17.603V20.2127H147.528V24.0318H152.5V26.7052H147.528V31.0972H153.457V33.7069H144.15V17.603H153.265ZM155.05 17.603H161.106C163.719 17.603 165.441 18.9397 165.441 21.804C165.441 23.9682 164.548 25.4322 162.7 25.8141C164.931 26.0687 165.186 27.3417 165.313 30.7789C165.313 32.4338 165.504 33.8342 165.504 33.8342H162.19L162.062 32.1792L161.998 29.0603C161.998 27.7873 161.425 26.9598 160.022 26.9598H158.237V33.8342H155.05V17.603ZM158.365 24.732H159.704C161.297 24.732 162.19 24.0318 162.19 22.3132C162.19 20.8492 161.425 20.0218 159.959 20.0218H158.365V24.732ZM190.301 17.603H196.357C198.97 17.603 200.627 18.9397 200.627 21.804C200.627 23.9682 199.799 25.4322 197.886 25.8141C200.181 26.0687 200.436 27.3417 200.564 30.7789C200.564 32.4338 200.755 33.8342 200.755 33.8342H197.44L197.313 32.1792L197.249 29.0603C197.249 27.7873 196.612 26.9598 195.273 26.9598H193.488V33.8342H190.301V17.603ZM193.616 24.732H194.954C196.548 24.732 197.44 24.0318 197.44 22.3132C197.44 20.8492 196.612 20.0218 195.145 20.0218H193.616V24.732ZM174.301 22.5042C174.301 21.2948 173.727 19.7672 172.452 19.7672C170.923 19.7672 170.221 21.4221 170.221 25.4322C170.221 29.3149 170.604 31.7973 172.452 31.7973C173.217 31.7973 174.492 30.9062 174.492 29.2513V27.469H172.389V25.0503H177.679V33.7069H175.193V32.3702C174.85 32.9682 174.345 33.458 173.736 33.7843C173.128 34.1105 172.44 34.2601 171.751 34.2161C167.735 34.2161 166.97 31.1608 166.97 25.6231C166.97 20.1491 168.245 17.4121 172.452 17.4121C176.086 17.4121 177.424 19.258 177.424 22.5042H174.301ZM188.516 17.603V20.2127H182.715V24.0318H187.751V26.7052H182.715V31.0972H188.707V33.7069H179.401V17.603H188.516ZM58.095 5H26.2866C24.5655 5 23.1631 6.33668 23.1631 8.11893V39.8811C23.1631 41.536 24.5655 43 26.2866 43H58.095C59.7524 43 61.2185 41.6633 61.2185 39.8811V8.11893C61.1547 6.33668 59.7524 5 58.095 5ZM59.4974 39.8811C59.4974 40.6449 58.9237 41.2178 58.095 41.2178H26.2866C25.5216 41.2178 24.9479 40.6449 24.9479 39.8811V8.11893C24.9479 7.35511 25.5216 6.78224 26.2866 6.78224H58.095C58.9237 6.78224 59.4974 7.35511 59.4974 8.11893V39.8811Z" fill="#475569"/>
<path d="M43.4337 21.9312C44.1349 21.8039 44.7086 21.613 45.0911 21.2311C45.4735 20.8492 45.6648 20.3399 45.6648 19.6398C45.6648 19.0669 45.4735 18.494 45.2186 18.1121C44.7724 17.7302 44.3261 17.4756 43.625 17.412C43.2425 17.412 42.0313 17.2847 40.119 17.2847H37.8242V21.9949H40.5015L43.4337 21.9312ZM44.7086 25.623C44.1349 25.4321 42.9238 25.3048 41.0752 25.3048H37.8242V30.7152H41.5851C43.0513 30.7152 43.9437 30.7152 44.3899 30.5879C44.9636 30.5242 45.4735 30.2059 45.856 29.824C46.2385 29.4421 46.4935 28.8056 46.4935 28.0418C46.4935 27.4689 46.366 26.9597 46.0472 26.5141C45.6648 26.0686 45.2823 25.814 44.7086 25.623Z" fill="#475569"/>
<path d="M55.9912 9.01001H28.4536C27.6887 9.01001 27.0513 9.58287 27.0513 10.3467V37.8442C27.0513 38.608 27.6887 39.1809 28.4536 39.1809H55.9912C56.7562 39.1809 57.3299 38.4807 57.3299 37.8442V10.3467C57.3299 9.58287 56.7562 9.01001 55.9912 9.01001ZM49.9992 30.9062C49.6168 31.7973 48.9793 32.4338 48.2144 32.943C47.4495 33.4522 46.5571 33.8341 45.4734 33.8978C44.7722 34.0251 43.1149 34.0251 40.5651 34.0251H33.7444V13.9748H41.7762C43.3061 13.9748 44.5172 14.1021 45.2822 14.1658C46.0471 14.2931 46.7483 14.5477 47.322 14.9933C47.9977 15.4195 48.5521 16.0124 48.9317 16.7148C49.3113 17.4171 49.5033 18.2053 49.4893 19.0033C49.4893 19.9581 49.2343 20.7219 48.7244 21.613C48.2144 22.3768 47.5132 22.9497 46.6845 23.3953C47.9594 23.7772 48.7881 24.35 49.4893 25.2412C50.1905 26.0686 50.4455 27.0871 50.4455 28.2328C50.5729 29.1239 50.3817 30.0787 49.9992 30.9062Z" fill="#475569"/>
</svg>
