<svg width="155" height="40" viewBox="0 0 155 40" fill="none" xmlns="http://www.w3.org/2000/svg">
<path d="M47.7644 14.6693V24.3761C47.7644 27.1874 46.4364 28.4074 43.6742 28.4074C40.8057 28.4074 40.1151 26.657 40.1151 24.5353V23.9518H42.6118V24.3761C42.6118 25.8083 42.8774 26.4978 43.8335 26.4978C44.8428 26.4978 45.0553 25.8083 45.0553 24.3761V14.6693H47.7644ZM51.9078 14.6693V24.0048C51.9078 25.3309 52.2265 26.3918 53.5014 26.3918C54.7763 26.3918 55.0419 25.437 55.0419 24.0048V14.6693H57.6979V24.0048C57.6979 27.4526 55.5731 28.3544 53.3952 28.3544C51.2173 28.3544 49.0924 27.6118 49.0924 24.0048V14.6693H51.9078ZM59.3447 28.1952V14.6693H62.0538V25.9144H66.1441V28.0891L59.3447 28.1952ZM67.6846 28.1952V14.6693H70.3406V28.1952H67.6846ZM74.5902 14.6693V24.0048C74.5902 25.3309 74.9089 26.3918 76.1307 26.3918C77.4587 26.3918 77.7243 25.437 77.7243 24.0048V14.6693H80.3803V24.0048C80.3803 27.4526 78.2555 28.3544 76.0776 28.3544C73.8465 28.3544 71.7748 27.6118 71.7748 24.0048V14.6693H74.5902ZM84.3112 23.9518V24.3761C84.3112 25.6492 84.6299 26.4978 86.1173 26.4978C86.9141 26.4978 87.764 25.9144 87.764 24.8535C87.764 23.6335 87.0735 23.1561 85.3205 22.5727C82.8238 21.724 81.7614 20.7692 81.7614 18.4884C81.7614 15.8892 83.4082 14.5101 85.9579 14.5101C88.4015 14.5101 90.1013 15.571 90.1013 18.1701V18.5944H87.4984C87.4984 17.2684 87.0735 16.5258 86.0111 16.5258C84.7893 16.5258 84.4706 17.2684 84.4706 18.064C84.4706 18.9127 84.7362 19.3901 85.8517 19.8675L87.9765 20.7692C90.0482 21.6709 90.5794 22.7318 90.5794 24.3761C90.5794 27.1874 88.8796 28.5135 85.8517 28.5135C82.7707 28.5135 81.549 27.0283 81.549 24.5883V24.0048H84.3112V23.9518ZM94.0322 14.6693H98.6006C100.779 14.6693 102.425 15.4649 102.425 18.064C102.425 19.5492 101.682 20.7162 100.407 21.0344C101.841 21.2466 102.85 22.3075 102.85 24.1109C102.85 26.2326 101.788 28.0361 98.6006 28.0361H94.0322V14.6693ZM96.7945 20.1857H97.5913C99.0787 20.1857 99.8223 19.7083 99.8223 18.4353C99.8223 17.1092 99.1849 16.6319 97.8569 16.6319H96.9007L96.7945 20.1857ZM96.7945 26.1265H97.8569C99.1849 26.1265 100.035 25.6492 100.035 24.1109C100.035 22.5727 99.1849 22.0953 98.0163 22.0953H96.9007L96.7945 26.1265ZM111.721 14.6693V16.844H106.94V20.0266H111.084V22.2544H106.94V25.9144H111.881V28.0891H104.125V14.6693H111.721ZM113.209 14.6693H118.255C120.433 14.6693 121.867 15.7832 121.867 18.1701C121.867 19.9736 121.124 21.1935 119.583 21.5118C121.442 21.724 121.655 22.7848 121.761 25.6492C121.761 27.0283 121.92 28.1952 121.92 28.1952H119.158L119.052 26.8161L118.999 24.217C118.999 23.1561 118.521 22.4666 117.352 22.4666H115.865V28.1952H113.209V14.6693ZM115.971 20.6101H117.086C118.414 20.6101 119.158 20.0266 119.158 18.5944C119.158 17.3745 118.521 16.6849 117.299 16.6849H115.971V20.6101ZM142.584 14.6693H147.631C149.809 14.6693 151.19 15.7832 151.19 18.1701C151.19 19.9736 150.499 21.1935 148.906 21.5118C150.818 21.724 151.03 22.7848 151.137 25.6492C151.137 27.0283 151.296 28.1952 151.296 28.1952H148.534L148.427 26.8161L148.374 24.217C148.374 23.1561 147.843 22.4666 146.728 22.4666H145.24V28.1952H142.584V14.6693ZM145.346 20.6101H146.462C147.79 20.6101 148.534 20.0266 148.534 18.5944C148.534 17.3745 147.843 16.6849 146.621 16.6849H145.346V20.6101ZM129.251 18.7536C129.251 17.7458 128.773 16.4727 127.711 16.4727C126.436 16.4727 125.851 17.8518 125.851 21.1935C125.851 24.4292 126.17 26.4978 127.711 26.4978C128.348 26.4978 129.41 25.7552 129.41 24.3761V22.8909H127.657V20.8753H132.066V28.0891H129.995V26.9752C129.708 27.4735 129.288 27.8818 128.781 28.1536C128.274 28.4255 127.7 28.5502 127.126 28.5135C123.78 28.5135 123.142 25.9674 123.142 21.3527C123.142 16.791 124.205 14.5101 127.711 14.5101C130.738 14.5101 131.854 16.0484 131.854 18.7536H129.251ZM141.097 14.6693V16.844H136.263V20.0266H140.459V22.2544H136.263V25.9144H141.256V28.0891H133.501V14.6693H141.097ZM32.4127 4.16675H5.90563C4.47138 4.16675 3.30273 5.28065 3.30273 6.76585V33.2343C3.30273 34.6134 4.47138 35.8334 5.90563 35.8334H32.4127C33.7938 35.8334 35.0156 34.7195 35.0156 33.2343V6.76585C34.9624 5.28065 33.7938 4.16675 32.4127 4.16675ZM33.5813 33.2343C33.5813 33.8708 33.1032 34.3482 32.4127 34.3482H5.90563C5.26819 34.3482 4.7901 33.8708 4.7901 33.2343V6.76585C4.7901 6.12934 5.26819 5.65195 5.90563 5.65195H32.4127C33.1032 5.65195 33.5813 6.12934 33.5813 6.76585V33.2343Z" fill="#475569"/>
<path d="M20.1951 18.2762C20.7794 18.1701 21.2575 18.011 21.5762 17.6927C21.8949 17.3745 22.0543 16.9501 22.0543 16.3666C22.0543 15.8893 21.8949 15.4119 21.6825 15.0936C21.3106 14.7754 20.9388 14.5632 20.3545 14.5101C20.0357 14.5101 19.0264 14.4041 17.4328 14.4041H15.5205V18.3292H17.7516L20.1951 18.2762ZM21.2575 21.3527C20.7794 21.1936 19.7701 21.0875 18.2296 21.0875H15.5205V25.5961H18.6546C19.8764 25.5961 20.6201 25.5961 20.9919 25.49C21.47 25.437 21.8949 25.1718 22.2137 24.8535C22.5324 24.5353 22.7449 24.0048 22.7449 23.3683C22.7449 22.8909 22.6386 22.4666 22.373 22.0953C22.0543 21.724 21.7356 21.5118 21.2575 21.3527Z" fill="#475569"/>
<path d="M30.6596 7.50854H7.71162C7.07417 7.50854 6.54297 7.98593 6.54297 8.62245V31.537C6.54297 32.1735 7.07417 32.6509 7.71162 32.6509H30.6596C31.297 32.6509 31.7751 32.0675 31.7751 31.537V8.62245C31.7751 7.98593 31.297 7.50854 30.6596 7.50854ZM25.6663 25.7553C25.3476 26.4979 24.8164 27.0284 24.1789 27.4527C23.5415 27.8771 22.7978 28.1953 21.8947 28.2484C21.3104 28.3544 19.9293 28.3544 17.8045 28.3544H12.1206V11.6459H18.8138C20.0886 11.6459 21.0979 11.752 21.7354 11.805C22.3728 11.9111 22.9571 12.1233 23.4352 12.4946C23.9983 12.8498 24.4603 13.3439 24.7767 13.9292C25.093 14.5145 25.253 15.1713 25.2413 15.8363C25.2413 16.6319 25.0288 17.2685 24.6039 18.0111C24.1789 18.6476 23.5946 19.125 22.904 19.4963C23.9664 19.8145 24.657 20.2919 25.2413 21.0345C25.8256 21.7241 26.0381 22.5728 26.0381 23.5275C26.1444 24.2701 25.985 25.0658 25.6663 25.7553Z" fill="#475569"/>
</svg>
