<svg width="101" height="40" viewBox="0 0 101 40" fill="none" xmlns="http://www.w3.org/2000/svg">
<path d="M82.8956 15.6132C79.627 15.6132 76.8231 17.0376 76.8231 19.879C76.8231 22.8989 79.5233 24.379 82.8956 24.379C84.4968 24.379 85.7619 24.2582 87.0926 23.9295V19.4482H82.915V20.9553H83.7546V22.1876C83.516 22.2596 83.1905 22.2658 82.915 22.2658C81.3619 22.2658 80.8065 21.254 80.8065 20.0944C80.8065 18.5491 82.0747 17.7264 84.0082 17.7264C85.0928 17.7264 86.1455 17.9424 86.7021 18.216V15.9256C85.7263 15.7346 84.791 15.6125 82.895 15.6125L82.8956 15.6132ZM21.124 15.7697V24.2425H29.3443V21.8739H25.0293V15.7691L21.124 15.7697ZM33.2677 15.7697L29.7142 24.2425H33.5607L34.1854 22.403H37.5234L38.1875 24.2425H42.2483L38.6367 15.7691L33.2677 15.7697ZM43.2441 15.7697V24.2425H47.1487V21.1895H51.7562V19.1752H47.1487V17.7664H51.9511V15.7691L43.2441 15.7697ZM55.3284 15.7697L51.7755 24.2425H55.6414L56.2661 22.403H59.6041L60.2682 24.2425H64.3096L60.6974 15.7691L55.3284 15.7697ZM65.3442 15.7697V24.2425H69.112V21.3661H70.1078C70.5851 21.3661 70.98 21.4037 71.2205 21.7962C71.5366 22.3028 71.5741 23.6389 71.7478 24.2425H75.8086C75.4006 23.4185 75.4487 22.1074 74.8521 21.2096C74.4898 20.7594 73.9787 20.4131 73.1341 20.2898V20.2704C74.581 19.9842 75.5543 19.3193 75.5543 18.02C75.5543 16.3946 74.0524 15.7697 71.6309 15.7697H65.3442ZM89.0842 15.7697V24.2425H97.9868V22.2264H92.8914V20.9353H97.655V18.9592H92.8914V17.7458H97.8893V15.7697H89.0842ZM35.8641 17.2968H35.9034L37.1136 20.6423H34.6346L35.8641 17.2968ZM57.9448 17.2968H57.9642L59.1749 20.6423H56.6953L57.9448 17.2968ZM69.112 17.6099H70.2247C71.0031 17.6099 71.7478 17.7195 71.7478 18.5291C71.7478 19.4432 70.9569 19.5271 70.1666 19.5271H69.112V17.6099Z" fill="#475569"/>
<path d="M20.1195 26.0269V14.7515H25.0562L29.6905 4.16675H17.312L3.43652 35.8334H24.4396L26.5168 31.1193H17.8898L20.1195 26.0269Z" fill="#475569"/>
</svg>
