<svg width="72" height="24" viewBox="0 0 72 24" fill="none" xmlns="http://www.w3.org/2000/svg">
<path d="M55.1743 9.36781C53.2131 9.36781 51.5308 10.2225 51.5308 11.9273C51.5308 13.7392 53.1509 14.6273 55.1743 14.6273C56.135 14.6273 56.8941 14.5548 57.6925 14.3576V11.6688H55.1859V12.5731H55.6897V13.3124C55.5465 13.3556 55.3512 13.3594 55.1859 13.3594C54.254 13.3594 53.9208 12.7523 53.9208 12.0565C53.9208 11.1294 54.6817 10.6357 55.8419 10.6357C56.4926 10.6357 57.1242 10.7653 57.4582 10.9295V9.55527C56.8727 9.44069 56.3115 9.36743 55.1739 9.36743L55.1743 9.36781ZM18.1113 9.46173V14.5454H23.0435V13.1242H20.4545V9.46135L18.1113 9.46173ZM25.3975 9.46173L23.2654 14.5454H25.5733L25.9482 13.4417H27.9509L28.3494 14.5454H30.7859L28.6189 9.46135L25.3975 9.46173ZM31.3834 9.46173V14.5454H33.7261V12.7136H36.4906V11.505H33.7261V10.6598H36.6076V9.46135L31.3834 9.46173ZM38.634 9.46173L36.5022 14.5454H38.8218L39.1966 13.4417H41.1994L41.5978 14.5454H44.0227L41.8554 9.46135L38.634 9.46173ZM44.6434 9.46173V14.5454H46.9041V12.8196H47.5016C47.788 12.8196 48.0249 12.8421 48.1692 13.0776C48.3589 13.3816 48.3814 14.1833 48.4856 14.5454H50.9221C50.6773 14.051 50.7061 13.2644 50.3482 12.7256C50.1308 12.4555 49.8241 12.2478 49.3174 12.1738V12.1621C50.1855 11.9904 50.7695 11.5915 50.7695 10.8119C50.7695 9.83666 49.8684 9.46173 48.4155 9.46173H44.6434ZM58.8875 9.46173V14.5454H64.229V13.3357H61.1718V12.5611H64.0299V11.3754H61.1718V10.6474H64.1705V9.46173H58.8875ZM26.9554 10.378H26.979L27.705 12.3853H26.2177L26.9554 10.378ZM40.2038 10.378H40.2154L40.9419 12.3853H39.4541L40.2038 10.378ZM46.9041 10.5658H47.5717C48.0388 10.5658 48.4856 10.6316 48.4856 11.1173C48.4856 11.6658 48.011 11.7162 47.5369 11.7162H46.9041V10.5658Z" fill="#475569"/>
<path d="M17.5083 15.6161V8.85087H20.4703L23.2509 2.5H15.8238L7.49854 21.5H20.1004L21.3467 18.6715H16.1705L17.5083 15.6161Z" fill="#475569"/>
</svg>
