<svg width="114" height="40" viewBox="0 0 114 40" fill="none" xmlns="http://www.w3.org/2000/svg">
<path d="M38.9517 23.8163C38.9517 17.1807 44.3317 11.7949 50.9655 11.7949C57.5993 11.7949 62.9794 17.1807 62.9794 23.8163C62.9794 30.4561 57.5993 35.8335 50.9655 35.8335C44.3317 35.8294 38.9517 30.4561 38.9517 23.8163ZM50.9572 29.3308C54.0001 29.3308 56.4619 26.8642 56.4619 23.8204C56.4619 20.7767 54.0001 18.3101 50.9572 18.3101C47.9102 18.3101 45.4526 20.7808 45.4526 23.8204C45.4485 26.8642 47.9102 29.3308 50.9572 29.3308Z" fill="#64748B"/>
<path d="M5.21387 4.16675H15.26L20.939 23.2016H21.022L26.7882 4.16675H36.5562V35.169H30.0968V13.244H30.0096L23.8117 35.169H17.8754L11.7605 13.244H11.6733V35.169H5.21387L5.21387 4.16675ZM92.4951 10.2792H98.9545V4.16675H92.4951V10.2792ZM92.4951 35.169H98.9545V12.4551H92.4951V35.169ZM102.537 35.169H108.997V4.16675H102.537V35.169ZM65.6901 35.169H72.1454V33.1551C73.8059 34.9904 75.9023 35.6922 78.3474 35.6922C84.8525 35.6922 89.7884 30.2359 89.7884 23.8577C89.7884 17.4878 84.894 11.9401 78.3474 11.9401C75.9895 11.9401 73.9429 12.6793 72.1454 14.2115V4.16675H65.6901V35.169ZM72.2243 23.8203C72.2243 20.7766 74.686 18.31 77.7289 18.31C80.7718 18.31 83.2377 20.7807 83.2377 23.8203C83.2377 26.8641 80.7759 29.3306 77.7289 29.3306C74.686 29.3306 72.2243 26.8641 72.2243 23.8203Z" fill="#475569"/>
</svg>
