<svg width="80" height="24" viewBox="0 0 80 24" fill="none" xmlns="http://www.w3.org/2000/svg">
<path d="M29.0742 14.2897C29.0742 10.3083 32.3023 7.0769 36.2825 7.0769C40.2628 7.0769 43.4909 10.3083 43.4909 14.2897C43.4909 18.2736 40.2628 21.5001 36.2825 21.5001C32.3023 21.4976 29.0742 18.2736 29.0742 14.2897ZM36.2776 17.5984C38.1033 17.5984 39.5803 16.1185 39.5803 14.2922C39.5803 12.466 38.1033 10.986 36.2776 10.986C34.4493 10.986 32.9748 12.4685 32.9748 14.2922C32.9723 16.1185 34.4493 17.5984 36.2776 17.5984Z" fill="#64748B"/>
<path d="M8.83154 2.5H14.8592L18.2666 13.9209H18.3164L21.7761 2.5H27.637V21.1013H23.7613V7.94636H23.709L19.9903 21.1013H16.4284L12.7595 7.94636H12.7072V21.1013H8.83154L8.83154 2.5ZM61.2003 6.16745H65.0759V2.5H61.2003V6.16745ZM61.2003 21.1013H65.0759V7.47298H61.2003V21.1013ZM67.2255 21.1013H71.1011V2.5H67.2255V21.1013ZM45.1173 21.1013H48.9904V19.893C49.9868 20.9942 51.2446 21.4153 52.7117 21.4153C56.6147 21.4153 59.5763 18.1415 59.5763 14.3146C59.5763 10.4927 56.6396 7.16404 52.7117 7.16404C51.2969 7.16404 50.069 7.60752 48.9904 8.52688V2.5H45.1173V21.1013ZM49.0378 14.2921C49.0378 12.4659 50.5148 10.986 52.3406 10.986C54.1663 10.986 55.6458 12.4684 55.6458 14.2921C55.6458 16.1184 54.1688 17.5983 52.3406 17.5983C50.5148 17.5983 49.0378 16.1184 49.0378 14.2921Z" fill="#475569"/>
</svg>
