<svg width="25" height="24" viewBox="0 0 25 24" fill="none" xmlns="http://www.w3.org/2000/svg">
<path fill-rule="evenodd" clip-rule="evenodd" d="M7.22729 17.238L6.85453 14.2188C5.8676 13.5171 5.10727 12.9395 4.19348 12.2743C3.76204 9.09407 4.55895 7.36879 5.72861 5.73124C7.18343 3.88168 9.52275 2.5 12.3227 2.5C15.1227 2.52916 17.4693 3.94012 18.8511 5.78968C20.145 7.54424 20.8396 9.75198 20.335 12.362L17.8129 14.2188L17.4399 17.238H13.4413C13.1927 17.4355 12.8565 17.6181 12.3227 17.6328C11.7963 17.6181 11.4673 17.4355 11.1969 17.238H7.22729Z" fill="#475569"/>
<path fill-rule="evenodd" clip-rule="evenodd" d="M12.323 13.0491C12.111 10.2345 12.0525 6.76195 11.8771 3.97672C11.5773 3.90358 11.1533 3.92557 10.8024 3.98401C10.4515 4.09372 10.1957 4.18873 9.89592 4.35689C10.4442 7.03252 11.0803 10.4392 11.6213 13.093C10.883 10.5123 9.89592 7.2811 9.16498 4.70777C8.81409 4.78091 8.4705 4.97823 8.22203 5.18295C7.95886 5.38768 7.80529 5.54125 7.564 5.90672C8.62395 8.17302 9.89592 11.0607 10.9634 13.3123C9.72776 11.2653 8.22909 8.56777 6.98628 6.53547C6.74511 6.74748 6.56226 6.90105 6.32096 7.31038C6.11624 7.6394 6.01394 8.02685 5.97008 8.39973C7.32988 10.0593 8.95273 12.0477 10.3198 13.6997C8.89441 12.3253 7.13974 10.5562 5.7289 9.18182C5.59003 9.45957 5.5023 9.69357 5.45844 10.1541C5.40729 10.6 5.49501 11.1336 5.59003 11.4553L8.34609 13.5023L8.63853 15.7759L11.6725 15.7978C11.8918 16.0536 11.9648 16.1852 12.3231 16.2071C12.6666 16.1852 12.8641 15.9732 12.9518 15.7978H15.9782L16.2851 13.5169L19.0194 11.4845C19.1216 11.1483 19.1874 10.6291 19.151 10.1832C19.1072 9.70074 19.0194 9.45945 18.9024 9.20358C17.4843 10.5707 15.7224 12.3399 14.3115 13.7142C15.6858 12.0766 17.2942 10.0808 18.6684 8.40679C18.5954 8.03403 18.5077 7.65375 18.2883 7.32485C18.0324 6.9154 17.8861 6.76195 17.6522 6.54264C16.4023 8.56765 14.8816 11.2873 13.6461 13.3194C14.7428 11.0605 15.9855 8.1729 17.0603 5.93599C16.8264 5.5777 16.6581 5.39497 16.4242 5.20494C16.1465 4.99293 15.8029 4.79561 15.4666 4.71518C14.699 7.2811 13.756 10.5416 13.0103 13.1003C13.5292 10.4465 14.1799 7.06909 14.699 4.40086C14.4359 4.21072 14.1801 4.11571 13.8362 4.0134C13.4416 3.94026 13.0541 3.92568 12.747 3.97683C12.5424 6.78393 12.5349 10.2492 12.323 13.0491Z" fill="#94A3B8"/>
<path fill-rule="evenodd" clip-rule="evenodd" d="M3.94482 20.4545H5.36307C5.3412 20.769 5.49477 20.842 5.56791 20.8933C5.64822 20.9224 6.24052 20.9516 6.53285 20.9004C6.64985 20.8786 6.75944 20.8347 6.75944 20.4764C6.75944 20.3229 6.72288 20.1548 6.54743 20.1181C5.92597 20.0671 5.31921 20.1328 4.69787 20.0742C4.07641 19.9355 3.98151 19.7745 3.94482 19.2848C3.98869 18.6049 4.22998 18.4075 4.92446 18.3855C5.64806 18.3637 6.37215 18.3637 7.09575 18.3855C7.8341 18.3855 8.06069 18.6708 8.06069 19.2922H6.75944C6.75944 18.985 6.701 18.8681 6.54743 18.8534C6.23102 18.8316 5.91348 18.8316 5.59707 18.8534C5.48007 18.8534 5.32662 18.912 5.32662 19.1897C5.32662 19.4528 5.39235 19.5186 5.56791 19.5407C6.10153 19.5625 6.64256 19.5699 7.16889 19.6062C8.04611 19.6575 8.07539 20.045 8.10455 20.4543C8.11913 21.0393 7.90712 21.2438 7.75366 21.339C7.6075 21.4048 6.89832 21.4853 6.75944 21.4853H5.3559C5.04146 21.4853 4.64671 21.4488 4.30312 21.3463C3.98139 21.2587 3.94482 20.8274 3.94482 20.4545ZM17.2721 21.4999H18.5147V18.4004H17.2721V21.4999ZM19.3481 21.4999H20.5763V18.4004H19.3481V21.4999ZM16.5483 19.8769C16.5257 19.78 16.4963 19.6847 16.4603 19.5919C16.2483 19.2483 15.5174 19.2483 14.8083 19.2336C14.2747 19.2336 13.4779 19.2483 13.2439 19.4748C13.1488 19.5772 13.0976 19.7234 13.0685 19.8769C13.0319 20.0598 13.0391 20.2497 13.0391 20.3375C13.0391 20.4983 13.0538 21.1196 13.3535 21.2805C13.6313 21.4633 14.4719 21.4853 14.7935 21.4853C15.1371 21.4853 16.0876 21.4488 16.2266 21.2878C16.4749 21.2001 16.5335 20.8931 16.5846 20.652H15.3638C15.3638 20.8931 15.1737 21.0394 14.7935 21.0172C14.4499 21.0393 14.2526 20.9589 14.2526 20.5277L16.5845 20.5348C16.5846 20.3229 16.5922 20.0962 16.5483 19.8769ZM15.3638 20.0889H14.2526C14.2526 20.0012 14.2673 19.928 14.2892 19.8769C14.3694 19.6796 14.5742 19.6723 14.7934 19.6576C15.1297 19.6576 15.276 19.7381 15.3345 19.8769C15.3638 19.9355 15.3711 20.0085 15.3638 20.0889ZM8.83561 21.4999H10.0491V20.184C10.0784 20.0013 10.1223 19.8551 10.5682 19.8551C10.9921 19.8479 11.1091 19.9647 11.1091 20.184V21.4999H12.3226V20.184C12.3226 19.7526 12.3154 19.5188 12.0376 19.3947C11.789 19.2337 11.4307 19.2557 11.0945 19.2557C10.7436 19.2557 10.3489 19.2996 10.0491 19.4458V18.4005H8.83561V21.4999Z" fill="#475569"/>
</svg>
