<svg width="40" height="40" viewBox="0 0 40 40" fill="none" xmlns="http://www.w3.org/2000/svg">
<path fill-rule="evenodd" clip-rule="evenodd" d="M11.2382 28.73L10.6169 23.6982C8.97204 22.5285 7.70482 21.5659 6.18184 20.4572C5.46278 15.1569 6.79095 12.2814 8.74039 9.55215C11.1651 6.46954 15.064 4.16675 19.7305 4.16675C24.3972 4.21535 28.3083 6.56695 30.6112 9.64956C32.7676 12.5738 33.9253 16.2534 33.0844 20.6034L28.8809 23.6982L28.2593 28.73H21.5949C21.1806 29.0593 20.6203 29.3636 19.7305 29.3881C18.8533 29.3636 18.3049 29.0593 17.8542 28.73H11.2382Z" fill="#475569"/>
<path fill-rule="evenodd" clip-rule="evenodd" d="M19.7307 21.7486C19.3773 17.0575 19.2799 11.27 18.9875 6.62795C18.4879 6.50605 17.7812 6.54269 17.1964 6.6401C16.6116 6.82295 16.1851 6.9813 15.6856 7.26156C16.5994 11.7209 17.6595 17.3988 18.5612 21.8217C17.3307 17.5207 15.6856 12.1353 14.4673 7.84637C13.8825 7.96827 13.3099 8.29713 12.8958 8.63834C12.4572 8.97954 12.2012 9.23549 11.799 9.84461C13.5656 13.6218 15.6856 18.4345 17.4647 22.1872C15.4053 18.7755 12.9075 14.2797 10.8362 10.8925C10.4342 11.2459 10.1295 11.5018 9.72732 12.184C9.38612 12.7324 9.21561 13.3782 9.14251 13.9996C11.4089 16.7655 14.1136 20.0796 16.3921 22.833C14.0164 20.5423 11.0919 17.5938 8.74055 15.3031C8.50909 15.766 8.36289 16.156 8.28979 16.9235C8.20454 17.6667 8.35074 18.556 8.50909 19.0922L13.1025 22.5039L13.5899 26.2932L18.6465 26.3297C19.012 26.7561 19.1337 26.9754 19.7309 27.0119C20.3033 26.9754 20.6326 26.6221 20.7788 26.3297H25.8228L26.3343 22.5282L30.8915 19.1408C31.0618 18.5805 31.1713 17.7153 31.1108 16.9721C31.0377 16.168 30.8915 15.7658 30.6965 15.3394C28.3329 17.6179 25.3963 20.5666 23.0449 22.8571C25.3354 20.1278 28.016 16.8014 30.3065 14.0114C30.1848 13.3901 30.0385 12.7563 29.6728 12.2082C29.2464 11.5257 29.0026 11.27 28.6128 10.9045C26.5295 14.2795 23.995 18.8122 21.9359 22.1992C23.7638 18.4343 25.8349 13.6216 27.6262 9.89341C27.2364 9.29625 26.9559 8.99169 26.5661 8.67498C26.1032 8.32163 25.5306 7.99277 24.97 7.85871C23.6907 12.1353 22.1191 17.5695 20.8762 21.8338C21.741 17.4109 22.8256 11.7819 23.6907 7.33485C23.2523 7.01795 22.8258 6.8596 22.2528 6.68909C21.595 6.56719 20.9493 6.54289 20.4374 6.62814C20.0964 11.3066 20.0838 17.082 19.7307 21.7486Z" fill="#94A3B8"/>
<path fill-rule="evenodd" clip-rule="evenodd" d="M5.76758 34.0911H8.13132C8.09487 34.6152 8.35082 34.7369 8.47272 34.8223C8.60658 34.8709 9.59374 34.9196 10.081 34.8343C10.276 34.7978 10.4586 34.7247 10.4586 34.1276C10.4586 33.8718 10.3977 33.5916 10.1053 33.5304C9.06949 33.4454 8.05822 33.5549 7.02265 33.4573C5.98688 33.2261 5.82872 32.9578 5.76758 32.1415C5.84068 31.0083 6.24283 30.6795 7.40031 30.6428C8.6063 30.6064 9.81313 30.6064 11.0191 30.6428C12.2497 30.6428 12.6274 31.1183 12.6274 32.1538H10.4586C10.4586 31.6419 10.3612 31.4471 10.1053 31.4226C9.57791 31.3862 9.04867 31.3862 8.52133 31.4226C8.32632 31.4226 8.07057 31.5202 8.07057 31.9831C8.07057 32.4216 8.18012 32.5313 8.47272 32.5681C9.36209 32.6044 10.2638 32.6168 11.141 32.6773C12.6031 32.7628 12.6519 33.4085 12.7005 34.0907C12.7248 35.0658 12.3714 35.4066 12.1156 35.5653C11.872 35.6749 10.6901 35.8091 10.4586 35.8091H8.11936C7.59531 35.8091 6.9374 35.7482 6.36473 35.5775C5.82853 35.4315 5.76758 34.7126 5.76758 34.0911ZM27.9796 35.8334H30.0508V30.6675H27.9796V35.8334ZM31.4397 35.8334H33.4867V30.6675H31.4397V35.8334ZM26.7734 33.1285C26.7357 32.9669 26.6867 32.8081 26.6268 32.6534C26.2734 32.0807 25.0552 32.0807 23.8734 32.0562C22.984 32.0562 21.6561 32.0807 21.2661 32.4582C21.1075 32.6289 21.0223 32.8725 20.9737 33.1285C20.9127 33.4332 20.9247 33.7497 20.9247 33.8961C20.9247 34.164 20.9492 35.1996 21.4487 35.4677C21.9116 35.7725 23.3127 35.8091 23.8487 35.8091C24.4214 35.8091 26.0055 35.7482 26.2372 35.4799C26.6511 35.3337 26.7487 34.8221 26.8339 34.4202H24.7992C24.7992 34.8221 24.4823 35.0659 23.8487 35.0289C23.2761 35.0658 22.9472 34.9317 22.9472 34.213L26.8337 34.225C26.8339 33.8718 26.8465 33.494 26.7734 33.1285ZM24.7992 33.4818H22.9472C22.9472 33.3356 22.9717 33.2135 23.0082 33.1285C23.1418 32.7996 23.4832 32.7875 23.8485 32.763C24.409 32.763 24.6528 32.897 24.7504 33.1285C24.7992 33.2261 24.8114 33.3478 24.7992 33.4818ZM13.9189 35.8334H15.9414V33.6402C15.9902 33.3358 16.0633 33.092 16.8065 33.092C17.513 33.0801 17.708 33.2747 17.708 33.6402V35.8334H19.7305V33.6402C19.7305 32.9213 19.7186 32.5315 19.2555 32.3247C18.8412 32.0564 18.244 32.0931 17.6837 32.0931C17.0989 32.0931 16.441 32.1662 15.9414 32.41V30.6677H13.9189V35.8334Z" fill="#475569"/>
</svg>
