<svg width="91" height="24" viewBox="0 0 91 24" fill="none" xmlns="http://www.w3.org/2000/svg">
<path d="M16.0791 7.21094C15.2787 7.85316 14.5113 8.70337 14.0658 9.63366C13.1503 11.5457 13.6577 13.3031 14.0502 14.4436C14.5846 15.9967 15.6668 16.7809 16.9566 17.3535C18.7955 18.1701 21.1072 18.225 23.2062 17.6792C23.9461 17.4869 25.0949 17.0868 25.3456 16.7136C25.617 16.3095 25.6597 15.5281 25.0765 15.1848C24.5078 14.8501 24.4526 15.1057 22.7585 15.4845C21.5794 15.7481 20.292 15.7939 18.7457 15.1217C17.7704 14.6979 17.1105 14.0474 16.8851 13.1583C16.2384 10.6081 17.6355 9.66222 17.908 9.48927L16.0791 7.21094Z" fill="#475569"/>
<path d="M18.0063 10.2137C17.2782 10.1166 15.1425 9.88867 12.9081 9.4895C9.45036 8.87176 5.38531 8.01506 4.08741 7.9236C1.58971 7.74764 1.17323 11.0149 3.16714 11.5737C4.29639 11.8902 7.40383 11.5578 8.1592 13.0594C8.38927 13.5167 8.9979 15.2413 9.68735 17.3768C9.95761 18.2141 12.1558 18.0824 11.7471 16.2987C11.5137 15.28 10.9823 12.5286 10.9823 12.5286C10.9823 12.5286 17.2874 13.2018 17.8005 13.2465L18.0063 10.2137Z" fill="#475569"/>
<path d="M21.3265 8.53335C22.1272 8.55477 23.5204 8.76182 24.1478 9.18448L27.6467 9.87874C27.6799 7.92341 26.6148 6.87122 25.4214 6.26464C24.5156 5.80427 23.2448 5.42935 21.3376 5.51131C19.514 5.58967 17.5966 5.99191 16.0674 7.21894L17.8952 9.50117C18.7575 8.95406 19.8413 8.49364 21.3265 8.53335Z" fill="#475569"/>
<path d="M24.0921 9.14844C24.0921 9.14844 24.2763 9.26728 24.3564 9.34091C24.7374 9.69141 24.8636 10.1102 23.7075 10.3028L24.622 13.1499C26.7025 12.5885 27.6206 11.3524 27.6462 9.84323L24.0921 9.14844Z" fill="#475569"/>
<path d="M23.7418 10.298C22.7169 10.4687 20.73 10.5791 17.9904 10.2136L17.7847 13.2465C22.2334 13.634 23.7979 13.3697 24.6562 13.1381L23.7418 10.298Z" fill="#475569"/>
<path d="M30.1475 8.83567C30.1475 8.95789 30.243 9.05191 30.3576 9.05191H32.2676V14.1882L33.5265 14.1927V9.05178H35.4367C35.5512 9.05178 35.6467 8.95776 35.6467 8.83567V8.04228C35.6467 7.92019 35.5512 7.82617 35.4366 7.82617H30.3576C30.2428 7.82617 30.1475 7.92019 30.1475 8.04242V8.83567Z" fill="#475569"/>
<path d="M34.627 11.8452C34.627 13.1983 35.7538 14.2506 37.1482 14.2506C38.5521 14.2506 39.679 13.1983 39.679 11.8452C39.679 10.4829 38.5521 9.41174 37.1482 9.41174C35.7538 9.41174 34.627 10.4829 34.627 11.8452ZM36.0213 11.8358C36.0213 11.1969 36.5083 10.6708 37.1482 10.6708C37.7977 10.6708 38.2847 11.1969 38.2847 11.8358C38.2847 12.4747 37.7977 12.9916 37.1482 12.9916C36.5083 12.9916 36.0213 12.4747 36.0213 11.8358ZM40.5025 12.8277C40.5025 13.8707 41.2951 14.2935 42.0973 14.2935C42.6417 14.2935 43.199 14.2176 43.5545 13.9445C44.1342 13.4991 43.6484 12.5943 42.8574 13.0425C42.6227 13.1755 42.2368 13.1078 42.1661 13.0787C42.0069 13.0137 41.7299 12.9589 41.7459 12.5082V10.538H42.9132C43.8084 10.538 43.7971 9.40113 42.9132 9.40113H41.7461V7.84485L40.5025 7.84042V9.401H39.8913V10.5378H40.5025V12.8277ZM44.026 11.8264C44.026 13.3016 45.1434 14.2506 46.3468 14.2506C46.9676 14.2506 47.6149 13.9874 47.8345 13.6305V14.2568L48.9884 14.2524V10.0073C48.9884 9.17643 47.8582 9.21699 47.8582 9.96162C47.6385 9.60435 46.977 9.41174 46.3562 9.41174C45.153 9.41174 44.026 10.3419 44.026 11.8264ZM45.4203 11.8358C45.4203 11.1969 45.9075 10.6708 46.5568 10.6708C47.2063 10.6708 47.6933 11.1969 47.6933 11.8358C47.6933 12.4747 47.2063 13.001 46.5568 13.001C45.9075 13.001 45.4203 12.4747 45.4203 11.8358ZM51.3776 14.1929V8.38828C51.3776 7.65224 50.0731 7.67602 50.0731 8.38828V14.1925L51.3776 14.1929ZM52.507 7.75513C52.383 7.75513 52.297 7.84915 52.297 7.96197V13.9739C52.297 14.0962 52.3829 14.1902 52.507 14.1902H56.7305L56.735 12.8935H53.7295V11.6639H56.086C56.21 11.6639 56.296 11.5605 56.296 11.4477V10.621C56.296 10.4987 56.21 10.4047 56.086 10.4047H53.7295V9.05178H56.4448C56.5688 9.05178 56.6643 8.95777 56.6643 8.83568V7.97124C56.6643 7.84901 56.5688 7.75513 56.4448 7.75513H52.507ZM60.9885 14.0021C60.9885 14.115 61.0936 14.1902 61.1986 14.1902H62.022C62.1271 14.1902 62.2321 14.115 62.2321 14.0021V11.4654C62.2321 10.3472 61.5917 9.33679 60.3597 9.33679C59.6339 9.33679 58.9336 9.55143 58.6567 9.88036C58.6567 9.20651 57.5638 9.17723 57.5638 9.82099V14.1958L58.7977 14.2004V11.6185C58.7977 10.026 60.9885 10.2801 60.9885 11.6185V14.0021ZM71.0734 9.29717C70.3938 9.29717 69.8378 9.70293 69.58 10.1071V9.80219C69.58 9.23499 68.5445 9.17495 68.5445 9.82233V14.1768L69.7614 14.1926V11.9727C69.7614 11.3043 70.2069 10.567 70.6858 10.4885L71.1792 10.4079C71.9652 10.4079 71.839 9.29717 71.0734 9.29717ZM74.3302 15.0792C73.6999 15.0792 73.0979 15.0436 72.7749 14.863C72.0012 14.4303 71.5438 15.3806 72.0261 15.661C72.6778 16.0398 73.0028 16.2264 74.2252 16.2264C75.7914 16.2264 76.641 15.354 76.641 14.076V9.82099C76.641 9.25997 75.5575 9.19509 75.5575 9.74994V10.0413C75.3284 9.68426 74.6716 9.48279 74.0412 9.48279C72.838 9.48279 71.7491 10.4036 71.7491 11.86C71.7491 13.3164 72.8282 14.2183 74.0985 14.2183C74.7097 14.2183 75.2063 13.9553 75.4164 13.6357V14.0293C75.4164 14.6399 75.0656 15.0792 74.3302 15.0792ZM73.1434 11.86C73.1434 11.2211 73.6306 10.723 74.2705 10.723C74.9198 10.723 75.4069 11.2211 75.4069 11.86C75.4069 12.5082 74.9198 12.9968 74.2705 12.9968C73.6306 12.9968 73.1434 12.5082 73.1434 11.86Z" fill="#475569"/>
<path d="M78.293 8.84056C78.6999 8.84056 79.0374 8.49095 79.0374 8.08035C79.0374 7.66089 78.6999 7.31128 78.293 7.31128C77.8777 7.31128 77.54 7.66089 77.54 8.08035C77.54 8.49095 77.8775 8.84056 78.293 8.84056ZM78.7259 14.19C78.8297 14.19 78.9076 14.1027 78.9076 13.9979V10.0558C78.9076 9.22376 77.6613 9.22403 77.6613 10.0558V13.9979C77.6613 14.1027 77.7479 14.19 77.8516 14.19H78.7259Z" fill="#475569"/>
<path d="M82.1478 9.33105C80.687 9.33105 79.6353 10.4593 79.6353 11.86C79.6353 13.2606 80.6676 14.3404 82.1673 14.3404C83.2092 14.3404 83.826 14.0305 84.2157 13.5247C84.4531 13.1103 83.8947 12.6043 83.3965 12.894C82.9552 13.1948 82.6542 13.1537 82.1965 13.1537C81.6415 13.1537 81.1545 12.7743 81.0863 12.181H84.1978C84.3925 12.181 84.4412 12.074 84.4412 11.9573V11.6947C84.4412 10.4788 83.6475 9.33105 82.1478 9.33105ZM83.1995 11.3055H81.1155C81.2518 10.7803 81.6804 10.4593 82.1576 10.4593C82.6152 10.4593 83.0729 10.7317 83.1995 11.3055Z" fill="#475569"/>
<path d="M86.9793 9.29419C85.7004 9.29419 84.9072 9.97744 84.9072 10.8463C84.9072 11.6175 85.4328 12.0958 86.2158 12.252L87.0091 12.4179C87.465 12.5057 87.703 12.6034 87.703 12.8376C87.703 13.0427 87.4849 13.2379 87.0387 13.2379C86.5629 13.2379 86.0693 13.1488 85.762 12.8853C85.0806 12.5291 84.4754 13.2813 85.1551 13.7943C85.5516 14.0677 86.1762 14.3215 86.9892 14.3215C88.3078 14.3215 89.1703 13.6285 89.1703 12.7108C89.1703 11.8225 88.4961 11.432 87.6732 11.2758L86.9098 11.1294C86.5034 11.0513 86.3547 10.9243 86.3547 10.7389C86.3547 10.5437 86.6025 10.3875 86.9793 10.3875C87.3858 10.3875 87.7289 10.4294 88.0263 10.6246C88.6231 10.9716 89.2351 10.2316 88.6798 9.76482C88.3823 9.50117 87.9408 9.29419 86.9793 9.29419Z" fill="#475569"/>
<path d="M65.4896 9.33105C64.0288 9.33105 62.9771 10.4593 62.9771 11.86C62.9771 13.2606 64.0094 14.3404 65.5091 14.3404C66.551 14.3404 67.1678 14.0305 67.5573 13.5247C67.7949 13.1103 67.2365 12.6043 66.7383 12.894C66.297 13.1948 65.996 13.1537 65.5383 13.1537C64.9831 13.1537 64.4962 12.7743 64.4281 12.181H67.5395C67.7342 12.181 67.783 12.074 67.783 11.9573V11.6947C67.783 10.4788 66.9893 9.33105 65.4896 9.33105ZM66.5413 11.3055H64.4573C64.5936 10.7803 65.0221 10.4593 65.4994 10.4593C65.9569 10.4593 66.4147 10.7317 66.5413 11.3055Z" fill="#475569"/>
</svg>
