<svg width="150" height="40" viewBox="0 0 150 40" fill="none" xmlns="http://www.w3.org/2000/svg">
<path d="M25.991 12.0186C24.6569 13.0889 23.3779 14.5059 22.6355 16.0564C21.1095 19.2431 21.9553 22.1721 22.6094 24.0731C23.5 26.6614 25.3037 27.9684 27.4534 28.9228C30.5183 30.2838 34.371 30.3754 37.8693 29.4657C39.1025 29.1451 41.0172 28.4783 41.435 27.8563C41.8874 27.1829 41.9585 25.8805 40.9865 25.3083C40.0387 24.7504 39.9466 25.1766 37.1231 25.8078C35.158 26.2471 33.0124 26.3234 30.4352 25.2032C28.8098 24.4968 27.7099 23.4127 27.3342 21.9308C26.2564 17.6805 28.5848 16.104 29.0391 15.8158L25.991 12.0186Z" fill="#475569"/>
<path d="M29.2028 17.0228C27.9894 16.8609 24.4298 16.4811 20.7058 15.8158C14.943 14.7863 8.1679 13.3584 6.00474 13.206C1.8419 12.9127 1.14777 18.3581 4.47095 19.2895C6.35303 19.817 11.5321 19.2629 12.7911 21.7656C13.1745 22.5278 14.1889 25.4021 15.338 28.9613C15.7884 30.3568 19.4521 30.1373 18.7708 27.1644C18.3819 25.4666 17.4961 20.881 17.4961 20.881C17.4961 20.881 28.0047 22.0031 28.8599 22.0775L29.2028 17.0228Z" fill="#475569"/>
<path d="M34.7365 14.2223C36.0709 14.258 38.3929 14.6031 39.4386 15.3076L45.27 16.4647C45.3253 13.2058 43.5503 11.4521 41.5613 10.4411C40.0515 9.67387 37.9335 9.049 34.7549 9.1856C31.7156 9.3162 28.52 9.9866 25.9712 12.0316L29.0175 15.8354C30.4548 14.9235 32.2611 14.1562 34.7365 14.2223Z" fill="#475569"/>
<path d="M39.3455 15.2476C39.3455 15.2476 39.6526 15.4456 39.786 15.5684C40.4211 16.1525 40.6314 16.8506 38.7046 17.1715L40.2287 21.9166C43.6962 20.9811 45.2263 18.9209 45.269 16.4055L39.3455 15.2476Z" fill="#475569"/>
<path d="M38.762 17.1633C37.0539 17.4478 33.7423 17.6318 29.1764 17.0227L28.8335 22.0775C36.248 22.7234 38.8555 22.2829 40.2861 21.8969L38.762 17.1633Z" fill="#475569"/>
<path d="M49.438 14.7257C49.438 14.9294 49.5972 15.0861 49.7881 15.0861H52.9715V23.6465L55.0698 23.6542V15.0859H58.2534C58.4442 15.0859 58.6033 14.9292 58.6033 14.7257V13.4034C58.6033 13.1999 58.4442 13.0432 58.2532 13.0432H49.7881C49.5969 13.0432 49.438 13.1999 49.438 13.4036V14.7257Z" fill="#475569"/>
<path d="M56.9038 19.7416C56.9038 21.9967 58.782 23.7506 61.1059 23.7506C63.4458 23.7506 65.3239 21.9967 65.3239 19.7416C65.3239 17.4711 63.4458 15.6858 61.1059 15.6858C58.782 15.6858 56.9038 17.4711 56.9038 19.7416ZM59.2277 19.726C59.2277 18.6611 60.0394 17.7842 61.1059 17.7842C62.1883 17.7842 63 18.6611 63 19.726C63 20.7908 62.1883 21.6522 61.1059 21.6522C60.0394 21.6522 59.2277 20.7908 59.2277 19.726ZM66.6963 21.3791C66.6963 23.1174 68.0173 23.8221 69.3544 23.8221C70.2617 23.8221 71.1905 23.6956 71.783 23.2405C72.7492 22.4982 71.9395 20.9901 70.6211 21.7371C70.2301 21.9587 69.5869 21.8459 69.4691 21.7975C69.2036 21.6892 68.7421 21.5978 68.7688 20.8466V17.5628H70.7143C72.2063 17.5628 72.1874 15.6681 70.7143 15.6681H68.769V13.0743L66.6963 13.067V15.6679H65.6777V17.5626H66.6963V21.3791ZM72.5689 19.7103C72.5689 22.1689 74.4313 23.7506 76.4368 23.7506C77.4715 23.7506 78.5504 23.3119 78.9163 22.7171V23.7609L80.8396 23.7536V16.6784C80.8396 15.2936 78.9559 15.3612 78.9559 16.6023C78.5898 16.0068 77.4873 15.6858 76.4526 15.6858C74.4473 15.6858 72.5689 17.236 72.5689 19.7103ZM74.8928 19.726C74.8928 18.6611 75.7047 17.7842 76.787 17.7842C77.8694 17.7842 78.6811 18.6611 78.6811 19.726C78.6811 20.7908 77.8694 21.6679 76.787 21.6679C75.7047 21.6679 74.8928 20.7908 74.8928 19.726ZM84.8216 23.6544V13.9801C84.8216 12.7533 82.6473 12.793 82.6473 13.9801V23.6537L84.8216 23.6544ZM86.704 12.9248C86.4972 12.9248 86.3538 13.0815 86.3538 13.2695V23.2895C86.3538 23.4932 86.497 23.6499 86.704 23.6499H93.7431L93.7506 21.4888H88.7413V19.4394H92.6688C92.8756 19.4394 93.019 19.2671 93.019 19.079V17.7012C93.019 17.4975 92.8756 17.3408 92.6688 17.3408H88.7413V15.0859H93.2668C93.4736 15.0859 93.6328 14.9292 93.6328 14.7257V13.285C93.6328 13.0813 93.4736 12.9248 93.2668 12.9248H86.704ZM100.84 23.3365C100.84 23.5245 101.015 23.6499 101.19 23.6499H102.562C102.737 23.6499 102.912 23.5245 102.912 23.3365V19.1086C102.912 17.245 101.845 15.5609 99.7917 15.5609C98.5821 15.5609 97.4149 15.9186 96.9534 16.4669C96.9534 15.3438 95.1319 15.295 95.1319 16.3679V23.6593L97.1883 23.6669V19.3638C97.1883 16.7095 100.84 17.1331 100.84 19.3638V23.3365ZM117.648 15.4949C116.515 15.4949 115.589 16.1711 115.159 16.8447V16.3366C115.159 15.3912 113.433 15.2912 113.433 16.3702V23.6275L115.461 23.6539V19.9541C115.461 18.8402 116.204 17.6112 117.002 17.4805L117.824 17.3462C119.134 17.3462 118.924 15.4949 117.648 15.4949ZM123.076 25.1316C122.025 25.1316 121.022 25.0723 120.484 24.7712C119.194 24.0502 118.432 25.6339 119.236 26.1013C120.322 26.7326 120.864 27.0435 122.901 27.0435C125.511 27.0435 126.927 25.5896 126.927 23.4596V16.3679C126.927 15.4329 125.121 15.3247 125.121 16.2495V16.735C124.74 16.14 123.645 15.8042 122.594 15.8042C120.589 15.8042 118.774 17.339 118.774 19.7663C118.774 22.1935 120.573 23.6967 122.69 23.6967C123.708 23.6967 124.536 23.2584 124.886 22.7258V23.3817C124.886 24.3994 124.302 25.1316 123.076 25.1316ZM121.098 19.7663C121.098 18.7014 121.91 17.8713 122.976 17.8713C124.059 17.8713 124.87 18.7014 124.87 19.7663C124.87 20.8466 124.059 21.661 122.976 21.661C121.91 21.661 121.098 20.8466 121.098 19.7663Z" fill="#475569"/>
<path d="M129.681 14.7341C130.359 14.7341 130.921 14.1514 130.921 13.4671C130.921 12.768 130.359 12.1853 129.681 12.1853C128.988 12.1853 128.426 12.768 128.426 13.4671C128.426 14.1514 128.988 14.7341 129.681 14.7341ZM130.402 23.6498C130.575 23.6498 130.705 23.5043 130.705 23.3297V16.7595C130.705 15.3728 128.628 15.3732 128.628 16.7595V23.3297C128.628 23.5043 128.772 23.6498 128.945 23.6498H130.402Z" fill="#475569"/>
<path d="M136.106 15.5515C133.671 15.5515 131.918 17.4319 131.918 19.7665C131.918 22.1008 133.639 23.9004 136.138 23.9004C137.875 23.9004 138.903 23.384 139.552 22.5409C139.948 21.8503 139.017 21.0069 138.187 21.4897C137.451 21.9911 136.95 21.9226 136.187 21.9226C135.262 21.9226 134.45 21.2903 134.336 20.3015H139.522C139.847 20.3015 139.928 20.1231 139.928 19.9285V19.4909C139.928 17.4644 138.605 15.5515 136.106 15.5515ZM137.858 18.8422H134.385C134.612 17.9669 135.327 17.4319 136.122 17.4319C136.885 17.4319 137.647 17.8859 137.858 18.8422Z" fill="#475569"/>
<path d="M144.158 15.4902C142.027 15.4902 140.705 16.629 140.705 18.0771C140.705 19.3625 141.581 20.1596 142.886 20.42L144.208 20.6964C144.968 20.8428 145.364 21.0056 145.364 21.396C145.364 21.7378 145.001 22.0631 144.257 22.0631C143.464 22.0631 142.641 21.9146 142.129 21.4754C140.994 20.8818 139.985 22.1354 141.118 22.9905C141.779 23.446 142.82 23.8691 144.175 23.8691C146.372 23.8691 147.81 22.714 147.81 21.1847C147.81 19.7041 146.686 19.0533 145.315 18.793L144.042 18.549C143.365 18.4187 143.117 18.2072 143.117 17.898C143.117 17.5728 143.53 17.3124 144.158 17.3124C144.836 17.3124 145.407 17.3823 145.903 17.7075C146.898 18.286 147.918 17.0525 146.992 16.2746C146.496 15.8352 145.761 15.4902 144.158 15.4902Z" fill="#475569"/>
<path d="M108.341 15.5515C105.907 15.5515 104.154 17.4319 104.154 19.7665C104.154 22.1008 105.874 23.9004 108.374 23.9004C110.11 23.9004 111.138 23.384 111.788 22.5409C112.184 21.8503 111.253 21.0069 110.423 21.4897C109.687 21.9911 109.185 21.9226 108.423 21.9226C107.497 21.9226 106.686 21.2903 106.572 20.3015H111.758C112.082 20.3015 112.164 20.1231 112.164 19.9285V19.4909C112.164 17.4644 110.841 15.5515 108.341 15.5515ZM110.094 18.8422H106.621C106.848 17.9669 107.562 17.4319 108.358 17.4319C109.12 17.4319 109.883 17.8859 110.094 18.8422Z" fill="#475569"/>
</svg>
