<svg width="181" height="48" viewBox="0 0 181 48" fill="none" xmlns="http://www.w3.org/2000/svg">
<path d="M31.6734 14.4221C30.0726 15.7066 28.5378 17.407 27.6468 19.2676C25.8156 23.0916 26.8306 26.6064 27.6155 28.8875C28.6843 31.9936 30.8487 33.562 33.4283 34.7073C37.1062 36.3404 41.7295 36.4503 45.9275 35.3587C47.4073 34.974 49.7049 34.1739 50.2063 33.4274C50.7492 32.6193 50.8345 31.0565 49.6681 30.3699C48.5307 29.7004 48.4203 30.2117 45.032 30.9692C42.6739 31.4964 40.0991 31.588 37.0065 30.2437C35.056 29.396 33.7362 28.0951 33.2853 26.3169C31.992 21.2164 34.7861 19.3247 35.3312 18.9788L31.6734 14.4221Z" fill="#475569"/>
<path d="M35.5276 20.4273C34.0715 20.2331 29.8001 19.7773 25.3313 18.979C18.4159 17.7435 10.2858 16.0301 7.68996 15.8472C2.69456 15.4953 1.8616 22.0297 5.84942 23.1474C8.10791 23.7804 14.3228 23.1155 15.8335 26.1187C16.2937 27.0334 17.5109 30.4825 18.8898 34.7536C19.4304 36.4282 23.8267 36.1648 23.0093 32.5973C22.5426 30.56 21.4796 25.0572 21.4796 25.0572C21.4796 25.0572 34.0899 26.4037 35.1161 26.493L35.5276 20.4273Z" fill="#475569"/>
<path d="M42.1682 17.0667C43.7696 17.1095 46.5559 17.5236 47.8108 18.369L54.8085 19.7575C54.8748 15.8468 52.7448 13.7424 50.358 12.5293C48.5463 11.6085 46.0047 10.8587 42.1904 11.0226C38.5432 11.1793 34.7084 11.9838 31.6499 14.4379L35.3054 19.0023C37.0302 17.9081 39.1977 16.9873 42.1682 17.0667Z" fill="#475569"/>
<path d="M47.6988 18.2969C47.6988 18.2969 48.0673 18.5346 48.2274 18.6818C48.9895 19.3828 49.2419 20.2205 46.9297 20.6057L48.7586 26.2997C52.9197 25.1771 54.7558 22.7048 54.807 19.6865L47.6988 18.2969Z" fill="#475569"/>
<path d="M46.9992 20.596C44.9494 20.9374 40.9756 21.1582 35.4965 20.4272L35.085 26.493C43.9824 27.268 47.1113 26.7395 48.8281 26.2763L46.9992 20.596Z" fill="#475569"/>
<path d="M59.8096 17.6709C59.8096 17.9153 60.0006 18.1033 60.2298 18.1033H64.0498V28.3758L66.5677 28.385V18.1031H70.3881C70.617 18.1031 70.808 17.915 70.808 17.6709V16.0841C70.808 15.8399 70.617 15.6519 70.3878 15.6519H60.2298C60.0003 15.6519 59.8096 15.8399 59.8096 16.0843V17.6709Z" fill="#475569"/>
<path d="M68.7686 23.69C68.7686 26.3961 71.0223 28.5008 73.811 28.5008C76.6189 28.5008 78.8727 26.3961 78.8727 23.69C78.8727 20.9653 76.6189 18.823 73.811 18.823C71.0223 18.823 68.7686 20.9653 68.7686 23.69ZM71.5572 23.6711C71.5572 22.3933 72.5313 21.3411 73.811 21.3411C75.11 21.3411 76.084 22.3933 76.084 23.6711C76.084 24.949 75.11 25.9827 73.811 25.9827C72.5313 25.9827 71.5572 24.949 71.5572 23.6711ZM80.5196 25.6549C80.5196 27.7408 82.1048 28.5865 83.7092 28.5865C84.798 28.5865 85.9126 28.4347 86.6236 27.8886C87.783 26.9978 86.8114 25.1881 85.2294 26.0845C84.7601 26.3504 83.9883 26.215 83.8469 26.157C83.5284 26.027 82.9745 25.9174 83.0065 25.0159V21.0754H85.3411C87.1315 21.0754 87.1089 18.8018 85.3411 18.8018H83.0068V15.6892L80.5196 15.6803V18.8015H79.2972V21.0751H80.5196V25.6549ZM87.5667 23.6523C87.5667 26.6027 89.8015 28.5008 92.2082 28.5008C93.4498 28.5008 94.7445 27.9743 95.1836 27.2605V28.5131L97.4915 28.5043V20.0141C97.4915 18.3524 95.2311 18.4335 95.2311 19.9228C94.7917 19.2082 93.4687 18.823 92.2271 18.823C89.8207 18.823 87.5667 20.6832 87.5667 23.6523ZM90.3553 23.6711C90.3553 22.3933 91.3296 21.3411 92.6283 21.3411C93.9273 21.3411 94.9013 22.3933 94.9013 23.6711C94.9013 24.949 93.9273 26.0015 92.6283 26.0015C91.3296 26.0015 90.3553 24.949 90.3553 23.6711ZM102.27 28.3853V16.7761C102.27 15.304 99.6608 15.3515 99.6608 16.7761V28.3845L102.27 28.3853ZM104.529 15.5098C104.281 15.5098 104.109 15.6978 104.109 15.9235V27.9474C104.109 28.1918 104.28 28.3799 104.529 28.3799H112.976L112.985 25.7866H106.974V23.3273H111.687C111.935 23.3273 112.107 23.1205 112.107 22.8948V21.2414C112.107 20.997 111.935 20.8089 111.687 20.8089H106.974V18.1031H112.404C112.652 18.1031 112.843 17.915 112.843 17.6709V15.942C112.843 15.6975 112.652 15.5098 112.404 15.5098H104.529ZM121.492 28.0038C121.492 28.2295 121.702 28.3799 121.912 28.3799H123.559C123.769 28.3799 123.979 28.2295 123.979 28.0038V22.9303C123.979 20.694 122.698 18.6731 120.234 18.6731C118.782 18.6731 117.382 19.1024 116.828 19.7602C116.828 18.4125 114.642 18.354 114.642 19.6415V28.3912L117.11 28.4003V23.2365C117.11 20.0514 121.492 20.5597 121.492 23.2365V28.0038ZM141.662 18.5939C140.302 18.5939 139.19 19.4054 138.675 20.2137V19.6039C138.675 18.4695 136.604 18.3494 136.604 19.6442V28.353L139.037 28.3847V23.9449C139.037 22.6082 139.929 21.1334 140.886 20.9766L141.873 20.8154C143.445 20.8154 143.193 18.5939 141.662 18.5939ZM148.175 30.1579C146.915 30.1579 145.711 30.0867 145.064 29.7254C143.517 28.8602 142.602 30.7607 143.567 31.3216C144.87 32.0791 145.52 32.4523 147.965 32.4523C151.097 32.4523 152.797 30.7075 152.797 28.1516V19.6415C152.797 18.5195 150.63 18.3897 150.63 19.4994V20.082C150.171 19.368 148.858 18.9651 147.597 18.9651C145.191 18.9651 143.013 20.8068 143.013 23.7195C143.013 26.6322 145.171 28.436 147.712 28.436C148.934 28.436 149.927 27.9101 150.347 27.271V28.0581C150.347 29.2793 149.646 30.1579 148.175 30.1579ZM145.801 23.7195C145.801 22.4417 146.776 21.4456 148.056 21.4456C149.354 21.4456 150.329 22.4417 150.329 23.7195C150.329 25.0159 149.354 25.9932 148.056 25.9932C146.776 25.9932 145.801 25.0159 145.801 23.7195Z" fill="#475569"/>
<path d="M156.101 17.6809C156.915 17.6809 157.59 16.9816 157.59 16.1605C157.59 15.3215 156.915 14.6223 156.101 14.6223C155.27 14.6223 154.595 15.3215 154.595 16.1605C154.595 16.9816 155.27 17.6809 156.101 17.6809ZM156.967 28.3797C157.174 28.3797 157.33 28.2051 157.33 27.9956V20.1114C157.33 18.4473 154.838 18.4478 154.838 20.1114V27.9956C154.838 28.2051 155.011 28.3797 155.218 28.3797H156.967Z" fill="#475569"/>
<path d="M163.811 18.6616C160.889 18.6616 158.786 20.9181 158.786 23.7196C158.786 26.5208 160.85 28.6803 163.85 28.6803C165.934 28.6803 167.167 28.0606 167.946 27.0489C168.421 26.2202 167.305 25.208 166.308 25.7875C165.426 26.3892 164.823 26.307 163.908 26.307C162.798 26.307 161.824 25.5481 161.688 24.3616H167.911C168.3 24.3616 168.398 24.1475 168.398 23.9141V23.3889C168.398 20.957 166.81 18.6616 163.811 18.6616ZM165.914 22.6104H161.746C162.019 21.5601 162.876 20.9181 163.83 20.9181C164.746 20.9181 165.661 21.4629 165.914 22.6104Z" fill="#475569"/>
<path d="M173.473 18.5884C170.915 18.5884 169.329 19.9549 169.329 21.6926C169.329 23.2351 170.38 24.1916 171.946 24.5041L173.533 24.8358C174.445 25.0115 174.921 25.2068 174.921 25.6753C174.921 26.0855 174.484 26.4758 173.592 26.4758C172.64 26.4758 171.653 26.2977 171.039 25.7706C169.676 25.0582 168.466 26.5625 169.825 27.5887C170.618 28.1353 171.867 28.643 173.493 28.643C176.13 28.643 177.855 27.2569 177.855 25.4217C177.855 23.645 176.507 22.8641 174.861 22.5517L173.334 22.2589C172.521 22.1025 172.224 21.8487 172.224 21.4777C172.224 21.0874 172.72 20.775 173.473 20.775C174.286 20.775 174.972 20.8588 175.567 21.2491C176.761 21.9432 177.985 20.4631 176.874 19.5296C176.279 19.0023 175.396 18.5884 173.473 18.5884Z" fill="#475569"/>
<path d="M130.494 18.6616C127.572 18.6616 125.469 20.9181 125.469 23.7196C125.469 26.5208 127.533 28.6803 130.533 28.6803C132.617 28.6803 133.85 28.0606 134.629 27.0489C135.104 26.2202 133.988 25.208 132.991 25.7875C132.109 26.3892 131.507 26.307 130.591 26.307C129.481 26.307 128.507 25.5481 128.371 24.3616H134.594C134.983 24.3616 135.081 24.1475 135.081 23.9141V23.3889C135.081 20.957 133.493 18.6616 130.494 18.6616ZM132.597 22.6104H128.429C128.702 21.5601 129.559 20.9181 130.513 20.9181C131.428 20.9181 132.344 21.4629 132.597 22.6104Z" fill="#475569"/>
</svg>
