<svg width="176" height="44" viewBox="0 0 176 44" fill="none" xmlns="http://www.w3.org/2000/svg">
<g clip-path="url(#clip0_1169_5746)">
<path d="M54.8031 28.6542C55.5008 27.8547 56.2858 27.1545 57.2743 26.6869C56.6444 27.5615 55.7092 28.0921 54.8031 28.6542ZM58.0036 28.1042C55.685 28.9667 53.347 31.6221 53.3809 33.4634C54.6286 31.4452 56.8624 30.0643 58.0036 28.1042ZM55.0841 29.7881C55.7019 28.9159 56.7437 28.361 57.3131 27.5131C56.2471 27.8353 55.1229 28.9595 55.0841 29.7881ZM57.5893 29.9867C58.2798 28.8432 59.5323 28.0509 60.1647 26.9413C58.8637 27.4404 57.5602 28.9498 57.5893 29.9867ZM60.9206 24.7002C61.0369 24.6857 61.1411 24.6372 61.2428 24.5791C61.6523 24.3441 61.96 24 62.2434 23.6269C62.5487 23.2223 62.8079 22.7935 62.9436 22.2968C62.9581 22.2411 62.9969 22.1733 62.9388 22.1248C62.8903 22.0812 62.8346 22.1248 62.7837 22.1442C61.6692 22.5803 61.1193 23.4792 60.8285 24.5936C60.8091 24.6712 60.8334 24.7123 60.9182 24.7027L60.9206 24.7002ZM58.3161 27.1012C58.3815 27.0721 58.4421 27.0261 58.5051 26.9898C59.4088 26.4083 59.9781 25.5845 60.2495 24.55C60.2664 24.4822 60.3173 24.4022 60.2616 24.3392C60.1986 24.269 60.1211 24.3295 60.0605 24.3562C58.946 24.8553 58.2095 25.6572 58.0375 26.905C58.0254 26.9946 58.0036 27.0988 58.0763 27.1594C58.1635 27.232 58.241 27.1327 58.3161 27.0988V27.1012ZM57.2259 30.4446C57.1411 30.3768 57.0635 30.3041 57.003 30.2193C56.9424 30.1369 56.8818 30.1345 56.751 30.275C56.5475 30.4955 56.3367 30.7136 56.1259 30.9316C56.0266 31.0334 55.9999 31.1133 56.0387 31.1836C56.0823 31.2635 56.1162 31.3508 56.1405 31.4041C56.2842 31.6786 56.5402 31.6391 56.9085 31.2853C56.9618 31.2345 57.0175 31.1812 57.0708 31.1303C57.5239 30.6772 57.5214 30.6772 57.2259 30.4446ZM48.138 29.4586C46.5656 29.6185 45.5941 30.9777 44.1186 31.1909C44.2495 31.4477 44.5693 31.3992 44.8091 31.5615C44.4602 31.7723 44.1089 31.719 43.7916 31.8038C43.4596 31.8935 43.1737 31.6803 42.8055 31.5082C43.0211 32.16 43.4839 32.2908 43.9636 32.3296C44.4845 32.3707 45.0151 32.2932 45.5335 32.3562C46.8709 32.5161 48.0411 31.9322 48.6807 30.6918C48.2713 30.8783 47.903 31.0479 47.5347 31.2151C47.5154 31.1787 47.496 31.1424 47.4766 31.1061C47.6728 30.8686 47.8667 30.6312 48.1768 30.2581C47.2997 30.6433 46.6407 31.1351 45.8436 31.2805C46.6553 30.7548 47.4427 30.2145 48.1404 29.4586H48.138ZM47.7746 28.3223C46.493 29.0322 45.284 29.8317 43.9926 30.4979C46.35 30.12 47.5105 29.4343 47.7746 28.3223ZM48.7873 19.6996C49.5941 18.6069 51.2561 18.3889 51.7843 16.7681C50.602 17.7178 49.1047 18.103 48.7873 19.6996ZM46.6286 25.0055C47.8109 24.7099 48.5935 24.1745 48.9593 23.4428C48.0774 23.7917 47.3361 24.2496 46.6286 25.0055ZM21.187 7.85708C21.5795 7.70445 22.0108 7.6245 22.4808 7.27562C22.0084 7.18597 21.6716 7.13267 21.3421 7.05756C20.4699 6.86374 19.6486 6.54394 18.9896 5.92128C18.7231 5.66931 18.4856 5.78318 18.2312 5.8704C16.0241 6.63358 13.8024 7.34588 11.5492 7.95642C9.02954 8.63964 6.49774 9.27441 3.90294 9.60633C2.72063 9.75654 1.53346 9.85587 0.341457 9.68386C0.23001 9.6669 0.0822201 9.5821 0.0168051 9.72989C-0.0413415 9.86072 0.0967568 9.93825 0.181554 10.0206C1.21608 11.0455 2.51953 11.4622 3.91748 11.6366C6.07133 11.908 8.1961 11.6415 10.3039 11.2126C14.0423 10.4519 17.6449 9.24049 21.1919 7.85708H21.187ZM22.6165 11.0866C22.7933 11.0018 22.9629 10.9122 23.0114 10.7063C23.2682 9.62571 23.714 8.6251 24.23 7.61238C23.2779 8.09209 22.3379 8.59845 21.3712 9.04667C17.4899 10.8468 13.4317 12.08 9.21609 12.7947C8.29786 12.9498 7.36509 13.037 6.44201 13.1605C6.31845 13.1775 6.11978 13.1097 6.1004 13.2962C6.08344 13.4658 6.28211 13.4852 6.40082 13.5312C7.91991 14.149 9.50925 14.3041 11.1325 14.2338C13.9962 14.1103 16.7243 13.3641 19.4039 12.3998C20.4941 12.0073 21.5698 11.5833 22.6165 11.0842V11.0866ZM28.31 11.6778C28.3803 10.7644 28.608 9.87768 28.9569 8.94006C23.7116 12.378 18.1561 14.7475 12.0071 15.6463C12.0919 15.8619 12.31 15.891 12.4941 15.9637C14.5462 16.7584 16.6371 16.6178 18.7255 16.1817C22.0132 15.4937 25.0126 14.1006 27.8763 12.378C28.1501 12.2132 28.2858 12.0146 28.31 11.6778ZM33.1289 12.8383C32.8794 12.1018 32.9254 11.341 33.0538 10.5827C33.0732 10.4713 33.1628 10.3332 33.0272 10.2532C32.8939 10.1757 32.8091 10.3138 32.717 10.3816C29.9405 12.4531 26.9847 14.2338 23.8933 15.7893C22.4105 16.533 20.8842 17.1824 19.29 17.6645C19.1301 17.7129 18.975 17.7735 18.8176 17.8268C19.5177 18.1248 20.2203 18.1393 20.923 18.0982C25.3251 17.8413 29.267 16.3223 32.8285 13.7541C33.1774 13.5022 33.2719 13.255 33.1313 12.8407L33.1289 12.8383ZM43.0914 15.1642C43.009 15.106 42.963 15.2005 42.9121 15.2441C41.33 16.5863 39.6316 17.7202 37.8461 18.6942C36.9884 19.1618 36.1041 19.5591 35.1737 19.8426C35.0817 19.8716 34.9896 19.908 34.8975 19.9395C35.3215 20.1672 35.7407 20.1987 36.155 20.1914C38.757 20.1503 41.049 19.2272 43.0817 17.5676C43.2803 17.4052 43.3288 17.2381 43.2319 16.9473C43.0623 16.4337 43.0647 15.9104 43.118 15.3919C43.1253 15.3168 43.1762 15.2247 43.0914 15.1642ZM43.1132 20.1503C44.482 19.4404 45.9527 18.8807 47.5517 18.5173C47.605 18.5052 47.6946 18.5246 47.6728 18.4349C47.651 18.3429 47.5614 18.3283 47.496 18.292C47.0575 18.0449 46.631 17.759 46.2676 17.3568C46.0617 17.1291 45.9115 17.0709 45.7152 17.1218C43.7116 17.6257 42.2216 18.7135 41.3494 20.5064C41.2113 20.7923 41.1023 21.1 41.1507 21.5191C41.2065 21.4731 41.2646 21.4295 41.3179 21.381C41.8461 20.8892 42.4566 20.4919 43.1132 20.1503ZM40.0484 23.6391C39.9587 23.8668 39.8957 24.1163 39.9757 24.4749C40.0193 24.441 40.0629 24.4095 40.1041 24.3732C40.499 24.0073 40.9714 23.7287 41.4875 23.501C42.5632 23.0285 43.7383 22.6942 45.0393 22.5343C45.0829 22.5294 45.1604 22.5537 45.1338 22.4761C45.1071 22.3986 45.0296 22.3744 44.9739 22.338C44.5862 22.0885 44.201 21.8074 43.8618 21.4368C43.6704 21.226 43.5372 21.163 43.3773 21.1872C41.7516 21.4271 40.608 22.2072 40.0484 23.6366V23.6391ZM40.562 19.8256C40.5184 19.7578 40.4893 19.8329 40.4578 19.8619C39.5057 20.7632 38.4978 21.4561 37.4487 21.9843C36.9448 22.2387 36.4312 22.4228 35.8957 22.4955C35.8424 22.5028 35.7891 22.5173 35.7358 22.5294C35.9611 22.8202 36.1937 22.9292 36.4263 23.0067C37.8848 23.4864 39.2149 23.1036 40.436 22.0037C40.5547 21.8971 40.5911 21.7541 40.5523 21.4731C40.482 20.974 40.5111 20.4991 40.5668 20.0412C40.5741 19.9734 40.608 19.9007 40.5644 19.8304L40.562 19.8256ZM38.8394 27.3532C39.2343 26.9873 39.7068 26.7087 40.2228 26.481C41.2985 26.0085 42.4736 25.6742 43.7746 25.5143C43.8182 25.5094 43.8957 25.5337 43.8691 25.4561C43.8424 25.3786 43.7649 25.3544 43.7092 25.318C43.3215 25.0685 42.9387 24.7875 42.5971 24.4168C42.4057 24.206 42.2725 24.143 42.1126 24.1672C40.4869 24.4071 39.3433 25.1872 38.7837 26.6166C38.694 26.8444 38.631 27.0939 38.711 27.4525C38.7546 27.4186 38.7982 27.3871 38.8394 27.3508V27.3532ZM32.9424 16.1333C32.8067 15.7335 32.8333 15.3217 32.9012 14.9098C32.9109 14.8492 32.9593 14.7741 32.8866 14.7305C32.8139 14.6893 32.7679 14.7644 32.7195 14.8008C31.2149 15.9225 29.6135 16.8892 27.9393 17.7299C27.135 18.1345 26.3088 18.4834 25.4463 18.745C25.3591 18.7717 25.2743 18.8032 25.1895 18.8323C25.5674 18.9946 25.9502 19.0019 26.3306 18.9801C28.7146 18.842 30.8515 18.0182 32.78 16.6275C32.969 16.4919 33.0199 16.3586 32.9448 16.1333H32.9424ZM23.1301 6.18294C24.0338 6.18294 24.9181 6.03758 25.8412 5.80257C26.2313 5.77107 26.6165 5.58936 26.992 5.36404C28.1259 4.68567 29.3639 4.24957 30.6141 3.84496C30.7522 3.79893 30.9678 3.82316 30.9896 3.63176C31.0114 3.44763 30.7934 3.42098 30.6795 3.32406C30.6141 3.26834 30.5172 3.24654 30.4639 3.18354C29.8121 2.41552 29.0756 2.6045 28.2325 2.85889C26.0132 3.52273 23.7649 4.08239 21.422 4.07513C20.591 4.0727 19.7673 4.00971 18.9629 3.7747C18.8394 3.73836 18.6819 3.61722 18.5777 3.75047C18.4541 3.9128 18.6359 4.03394 18.7158 4.15265C19.777 5.71292 21.3445 6.18052 23.1253 6.18294H23.1301ZM39.7479 3.59057C39.5517 3.46216 39.3797 3.6366 39.2319 3.73109C37.8776 4.57906 36.8236 5.74442 35.8933 7.02122C35.0332 8.19869 34.2797 9.43673 33.9454 10.8807C33.863 11.2369 33.8146 11.5954 33.8751 11.9613C33.9163 12.2278 34.0617 12.269 34.2773 12.1381C37.3348 10.2799 39.5275 7.82801 39.8352 4.07513C39.8497 3.91038 39.9224 3.70444 39.7528 3.59299L39.7479 3.59057ZM36.5499 4.15508C36.1792 4.23745 35.8133 4.33436 35.3167 4.45792C32.7534 5.37616 30.6383 6.96065 29.5917 9.72504C29.4875 9.99882 29.4027 10.2847 29.3663 10.573C29.3373 10.7959 29.1604 11.0866 29.3978 11.2465C29.5941 11.3798 29.8194 11.1714 30.0181 11.0818C30.9169 10.6651 31.7189 10.0933 32.4602 9.44642C34.0423 8.06786 35.4063 6.49063 36.5838 4.75593C36.6516 4.65659 36.7122 4.54999 36.7655 4.44097C36.8721 4.21807 36.8115 4.09693 36.5523 4.15508H36.5499ZM41.8994 3.75047C40.4966 5.1145 39.9587 6.8589 39.7479 8.73655C39.7213 8.98125 39.6995 9.22595 39.6898 9.47307C39.668 9.92856 39.6728 10.3913 39.7213 10.8686C39.7455 11.1327 39.7843 11.404 39.8352 11.6802C39.9466 12.0654 40.201 11.7723 40.3706 11.6342C41.2161 10.9461 41.8727 10.1103 42.3185 9.12177C42.3476 9.05636 42.3767 8.99094 42.4033 8.92553C42.522 8.63722 42.6238 8.35133 42.7062 8.06302C43.1011 6.69657 43.0817 5.31559 42.585 3.92007C42.3888 3.36525 42.3112 3.35072 41.8994 3.75047ZM32.0629 4.39736C31.4814 4.47731 30.9024 4.58391 30.3403 4.77773C27.9902 5.52637 25.9551 6.71595 24.6516 8.90857C24.4311 9.28168 24.2397 9.6669 24.121 10.086C24.0895 10.1951 23.9999 10.3259 24.121 10.4228C24.2325 10.5124 24.3512 10.418 24.4578 10.3719C25.3155 9.99882 26.1247 9.53607 26.9193 9.04909C28.8672 7.85708 30.7497 6.57786 32.3439 4.92068C32.4917 4.76804 32.797 4.61298 32.6783 4.39736C32.5644 4.189 32.2712 4.36828 32.0605 4.39736H32.0629ZM38.694 9.45127C37.972 10.3041 37.2331 11.0745 36.39 11.7359C35.9127 12.1091 35.4305 12.4773 34.9024 12.7729C34.6577 12.911 34.5147 13.0951 34.4227 13.3519C34.1198 14.2169 33.8073 15.077 33.4996 15.9395C33.456 16.0655 33.347 16.1987 33.4536 16.3271C33.4947 16.3756 33.5384 16.3974 33.582 16.3974C33.6643 16.4046 33.7516 16.3513 33.8315 16.3198C34.7158 15.9879 35.5517 15.5785 36.3367 15.0891C37.1531 14.5803 37.9139 13.9867 38.6189 13.3011C38.963 12.9667 39.0841 12.6106 38.9775 12.1381C38.9412 11.9685 38.9121 11.7965 38.8903 11.6245C38.8273 11.1012 38.8297 10.5706 38.8127 10.0424V10.023C38.8079 9.85345 38.8515 9.67659 38.6892 9.45127H38.694ZM45.393 7.41129C45.2719 6.86374 45.0877 6.31377 44.8479 5.75653C44.7922 5.62813 44.7582 5.41977 44.5572 5.44157C44.3803 5.46095 44.3439 5.65235 44.2761 5.78561C43.9248 6.45429 43.6583 7.13267 43.479 7.82316C43.4088 8.09694 43.353 8.37313 43.3118 8.64933C43.1398 9.76865 43.2004 10.917 43.5105 12.0945C43.5541 12.2423 43.5856 12.3974 43.6462 12.5379C43.7164 12.7026 43.6946 12.9643 43.9345 12.9764C44.1356 12.9861 44.2519 12.7899 44.3609 12.6324C45.4124 11.1084 45.7346 9.53364 45.4923 7.91765C45.4657 7.74806 45.4342 7.57846 45.3954 7.40887L45.393 7.41129ZM42.4372 11.3435C42.367 10.9437 42.224 10.9873 41.9987 11.2514C41.4124 11.9419 40.7025 12.4919 39.9466 12.9837C39.7843 13.0879 39.6389 13.1896 39.6098 13.4101C39.496 14.2678 39.4015 15.1254 39.4184 15.9928C39.4257 16.3295 39.5541 16.4458 39.7794 16.3295C41.1095 15.7602 42.1077 14.9267 42.9727 13.914C43.118 13.742 43.1059 13.57 43.026 13.3834C42.7425 12.7293 42.5608 12.0461 42.4396 11.3435H42.4372ZM47.622 11.2029C47.4911 10.6893 47.2149 10.2193 46.8854 9.76865C46.6819 9.49246 46.5463 9.55787 46.396 9.81711C45.6959 11.014 45.8097 13.0467 46.6407 14.1539C46.9266 14.5367 47.0526 14.5367 47.307 14.12C47.8594 13.2114 47.9515 12.2447 47.6195 11.2054L47.622 11.2029ZM45.3373 13.461C45.2428 13.1896 45.141 13.1169 44.9157 13.3471C44.5644 13.7032 44.2058 14.0521 43.84 14.3937C43.668 14.5536 43.6195 14.7281 43.6825 14.9534C43.7528 15.2029 43.8037 15.4573 43.84 15.6197C44.0645 16.4692 44.4934 16.6292 45.1265 16.0994C45.2186 16.0218 45.3131 15.9467 45.4027 15.8644C46.1804 15.1666 46.178 15.1618 45.6983 14.2653C45.5602 14.0085 45.4366 13.7396 45.3397 13.4634L45.3373 13.461ZM49.5747 14.7305C49.4439 14.2193 49.1677 13.7469 48.8382 13.2986C48.6347 13.02 48.499 13.0879 48.3488 13.3447C47.651 14.5439 47.7649 16.5767 48.5959 17.6839C48.8818 18.0667 49.0078 18.0667 49.2622 17.6499C49.8122 16.7414 49.9066 15.7747 49.5747 14.7329V14.7305ZM46.9291 21.3835C47.1447 21.1848 47.3724 20.9982 47.6147 20.8335C47.8521 20.6736 47.8957 20.5573 47.6195 20.395C47.1859 20.1454 46.757 19.8862 46.333 19.6172C46.1344 19.4913 45.9527 19.4888 45.7516 19.6051C45.5287 19.736 45.2937 19.8498 45.1483 19.9274C44.3827 20.3602 44.3367 20.8149 45.0102 21.2914C45.1095 21.3616 45.2065 21.4343 45.3082 21.4997C46.1804 22.0764 46.1853 22.0715 46.9291 21.381V21.3835ZM46.2652 23.7772C45.8315 23.5276 45.4027 23.2684 44.9787 22.9994C44.78 22.8735 44.5983 22.871 44.3972 22.9873C44.1744 23.1182 43.9393 23.232 43.794 23.3096C43.0284 23.7424 42.9823 24.1971 43.6559 24.6736C43.7552 24.7438 43.8521 24.8165 43.9539 24.8819C44.8261 25.4586 44.8309 25.4537 45.5747 24.7632C45.7903 24.5646 46.0181 24.378 46.2604 24.2133C46.4978 24.0534 46.5414 23.9371 46.2652 23.7747V23.7772ZM65.6402 14.9122C65.6329 14.951 65.6353 15.0164 65.5626 14.9534C64.8964 14.3816 64.2979 14.9849 63.8618 15.4937C62.6626 16.8892 62.7449 18.6772 62.1344 20.2617C62.5002 20.1987 62.8685 20.1842 63.2222 20.2447C63.542 20.298 63.857 20.4386 64.0702 20.6857C64.3731 21.037 64.4094 21.5119 64.3537 21.9552C64.3488 22.0013 64.3416 22.0497 64.3319 22.0957C64.1913 22.9268 63.8909 23.7166 63.5251 24.4773C63.3652 24.8068 63.1932 25.1339 63.0211 25.461C62.9267 25.6354 62.8297 25.8099 62.7328 25.9867C62.0981 28.8698 60.6396 31.5737 58.4397 33.7105C58.2652 33.8801 58.0859 34.0473 57.9018 34.2096C57.301 34.7402 56.6541 35.2296 55.9587 35.673C54.9484 36.315 53.8921 36.8262 52.8067 37.2115C52.436 37.3447 52.0629 37.4586 51.6874 37.5603C48.5208 38.4156 45.1919 38.2169 42.1925 37.0806C41.2161 37.65 40.2325 38.2072 39.2464 38.7548C40.1792 38.2387 41.0805 37.6282 41.9648 36.991C39.0599 35.8329 36.4772 33.7905 34.6674 30.951C32.3827 27.3629 31.7649 23.1836 32.6177 19.3362C32.0653 19.4355 31.5008 19.4961 30.9266 19.5252C30.4784 19.547 30.0253 19.5324 29.5771 19.3314C29.6765 19.295 29.7758 19.2538 29.8775 19.2248C30.8951 18.9171 31.8666 18.5003 32.8139 18.0158C32.8794 17.9819 32.9424 17.9504 33.0053 17.9165C33.9454 17.4295 34.866 16.9086 35.76 16.3441C36.6759 15.7699 37.565 15.1521 38.4275 14.4882C38.4857 14.4446 38.539 14.3525 38.6238 14.4058C38.711 14.4592 38.6528 14.5512 38.6432 14.6239C38.5656 15.1254 38.5438 15.6318 38.7086 16.1236C38.8031 16.3998 38.7449 16.5645 38.5244 16.7269C37.4245 17.5433 36.2688 18.1927 35.0453 18.6627C34.2846 22.1757 34.8515 25.9795 36.9351 29.2478C38.7764 32.1406 41.4923 34.1345 44.5184 35.1085C44.579 35.0649 44.6371 35.0213 44.6977 34.9777C47.0962 33.2526 49.4633 31.4719 51.7431 29.587C54.195 27.5591 65.41 18.183 57.9745 18.5536C57.9527 18.5827 57.9454 18.5851 57.9454 18.5924C55.7964 23.7917 47.9636 26.9752 46.2046 27.3871C47.9442 26.9001 49.2452 25.5385 50.5341 24.3489C51.9466 23.0406 53.2065 21.5724 54.3331 20.0122C55.6389 18.2072 56.8649 16.3271 58.4494 14.7475C58.4663 14.7329 58.4881 14.7232 58.5293 14.699C58.4057 14.9389 58.2943 15.1521 58.224 15.3822C58.2047 15.4501 58.2119 15.4816 58.2895 15.4743C58.3718 15.467 58.4566 15.467 58.5366 15.4573C59.118 15.3895 59.6777 15.2369 60.2398 15.0794C60.3028 15.0624 60.3634 15.0479 60.4239 15.0309C60.4288 15.0382 60.4288 15.0455 60.4336 15.0527C60.1453 15.2732 59.8594 15.4937 59.5735 15.7166C60.1647 15.7238 60.705 15.5688 61.2259 15.2562C61.0442 15.8377 61.032 16.4022 61.0708 16.9716C61.6813 15.782 62.5027 14.8008 63.7286 14.212C62.8225 14.4688 62.1174 15.0261 61.4778 15.7311C61.4972 15.4065 61.5747 15.123 61.6813 14.8298C61.6402 14.8468 61.6184 14.8589 61.599 14.8686C61.347 14.9849 61.0878 15.0067 60.8188 14.9364C60.7946 14.9316 60.7607 14.9316 60.7534 14.9025C60.7413 14.8638 60.7849 14.8613 60.8067 14.8395C60.8528 14.7983 60.8988 14.7596 60.9618 14.7063C60.6928 14.6675 60.4796 14.5658 60.3585 14.3356C60.3101 14.2459 60.2592 14.2484 60.1792 14.2799C59.8715 14.4107 59.5687 14.5512 59.2779 14.716C59.2125 14.7523 59.1544 14.8056 59.0502 14.8153C59.6559 14.1587 60.3561 13.6742 61.1823 13.3253C61.0587 13.2841 60.9642 13.2575 60.8697 13.2284C61.6765 12.8698 62.4905 12.676 63.3821 12.928C62.963 13.3568 62.5996 13.7929 62.5172 14.3913C62.854 14.2096 63.1932 14.0473 63.5445 13.9164C63.7892 13.8268 64.0363 13.7541 64.2955 13.725C64.6081 13.6911 64.9012 13.7178 65.1459 13.9819C65.1096 13.6572 65.0102 13.3907 64.8092 13.1678C64.5136 12.8359 64.1259 12.7172 63.6995 12.6929C63.6268 12.6881 63.576 12.6687 63.5227 12.6154C63.3894 12.4797 63.2343 12.3731 63.0478 12.2956C63.0526 12.361 63.1011 12.3974 63.0962 12.4555C63.0841 12.4555 63.0744 12.4604 63.0647 12.4604C62.5366 12.3683 62.0254 12.4652 61.5214 12.6154C60.7558 12.8456 60.0557 13.2114 59.3821 13.6378C58.8419 13.9819 58.3282 14.3598 57.8315 14.7644C55.8812 16.3562 54.5341 18.5973 52.562 20.1285C50.665 21.6039 48.4288 22.4834 46.0593 22.8202C48.3415 22.4955 50.0569 20.2908 51.5517 18.7378C52.5547 17.696 53.5553 16.6348 54.6383 15.673C53.1919 15.5736 51.8037 14.8783 50.7207 13.9358C48.797 12.2568 47.7576 9.96005 46.7158 7.67537C46.6577 7.54454 46.5971 7.41129 46.539 7.28046C46.1877 6.51729 45.834 5.76138 45.4415 5.03455C44.5523 3.38463 43.3022 2.36707 41.3009 2.50759C39.6365 2.62388 38.0205 2.98245 36.3948 3.30953C34.7231 3.64629 33.0901 3.5833 31.542 2.7959C30.9339 2.48336 30.3476 2.12964 29.9623 1.51667C30.144 1.39069 30.2943 1.47306 30.4396 1.49244C31.0574 1.57966 31.6752 1.6257 32.3003 1.59178C34.2119 1.49487 36.0532 1.00789 37.9139 0.620245C39.1955 0.361007 40.4723 0.0315096 41.7952 1.35379e-05C43.903 -0.048442 45.5045 0.797107 46.5075 2.69172C46.5196 2.71837 46.5366 2.74502 46.5487 2.77167C47.2852 4.189 47.6656 5.73473 48.1356 7.25139C48.1647 7.34345 48.1937 7.43552 48.2228 7.52758C48.4917 8.36586 48.7946 9.18961 49.2065 9.97217C50.2967 12.0436 51.9248 13.8341 53.926 15.0576C54.2071 15.2272 54.5099 15.3968 54.8079 15.5179C55.4088 14.9946 56.0387 14.5003 56.705 14.0594C57.8679 13.2914 59.0914 12.6469 60.4385 12.2593C61.3034 12.0097 62.1853 11.891 63.089 11.954C63.3579 11.971 63.5469 12.1212 63.7383 12.2811C63.7916 12.3247 63.8376 12.3465 63.9079 12.3441C64.3779 12.332 64.8213 12.4216 65.1944 12.7317C65.519 13.0031 65.662 13.3689 65.7128 13.7759C65.7589 14.1587 65.7177 14.5367 65.6402 14.9098V14.9122ZM61.9672 13.6427C61.943 13.7638 61.9115 13.868 61.8364 13.9552C61.8049 13.994 61.7758 14.0061 61.7492 13.9673C61.6959 13.9019 61.6717 13.9358 61.6305 13.9819C61.5457 14.0764 61.4003 14.1006 61.3034 14.0473C61.2501 14.0182 61.238 13.9891 61.2889 13.9479C61.3373 13.9092 61.3761 13.8631 61.3833 13.7856C61.221 13.8268 61.0757 13.8922 60.9303 13.9479C60.86 13.977 60.8576 14.0182 60.8843 14.0812C60.9448 14.2169 61.0369 14.3138 61.1774 14.3574C61.4366 14.4422 61.6668 14.384 61.8582 14.1926C62.0133 14.04 62.0569 13.8147 61.9697 13.6427H61.9672ZM62.0399 20.4943C61.9527 20.6905 61.8558 20.8868 61.7395 21.0733C60.046 23.845 57.5239 26.0618 55.072 28.1454C51.966 30.7838 48.6177 33.1339 45.1532 35.2926C47.6341 35.9661 50.2919 35.9686 52.8261 35.2272C52.8818 35.2102 52.9375 35.1909 52.9908 35.1739C53.0902 35.0019 53.1919 34.8299 53.2985 34.6627C53.6038 34.1854 53.943 33.7323 54.3016 33.289C54.6117 32.9062 54.9315 32.5307 55.2779 32.1793C55.3385 32.1188 55.3991 32.0655 55.4887 32.0752C55.966 32.126 56.436 32.0897 56.923 32.0267C56.5959 32.3417 56.2592 32.6494 55.9418 32.974C55.6147 33.3156 55.2973 33.6645 54.9969 34.0279C54.8394 34.2169 54.6868 34.4059 54.539 34.5997C54.6068 34.5706 54.6747 34.5416 54.7449 34.5101C55.3288 34.2436 55.8982 33.9334 56.4554 33.5797C56.8576 33.3229 57.2404 33.0515 57.6087 32.7608C58.3839 32.1551 59.0793 31.4792 59.6947 30.7451C60.1017 30.2629 60.47 29.7541 60.8043 29.2284C60.7631 29.0976 60.734 28.9643 60.7074 28.8262C60.1065 29.4101 59.5493 30.0328 59.0308 30.6918C58.7256 31.0843 58.4445 31.4937 58.2071 31.9322C58.1829 31.9734 58.1538 32.017 58.1296 32.0606C58.0884 31.8377 58.1296 31.6318 58.1829 31.4307C58.5317 30.1587 59.215 29.0927 60.1744 28.1987C60.2689 28.1115 60.344 28.0994 60.4554 28.1624C60.5136 28.1963 60.5741 28.2205 60.6347 28.2423C60.5935 27.4137 60.8213 26.6336 61.2162 25.8825C61.5529 25.2454 62.0157 24.6736 62.4276 24.0897C62.585 23.8692 62.7353 23.6463 62.8879 23.4234C62.9533 23.3241 63.0236 23.2248 63.0914 23.1278C63.1108 23.0988 63.1326 23.0697 63.152 23.0406C63.4403 22.6263 63.7286 22.1151 63.6293 21.5894C63.559 21.2284 63.3022 20.9231 62.98 20.739C62.9751 20.739 62.9727 20.7341 62.9703 20.7341C62.9533 20.7245 62.9315 20.7148 62.9145 20.7051C62.6456 20.5694 62.3428 20.5112 62.0423 20.4967L62.0399 20.4943Z" fill="url(#paint0_linear_1169_5746)"/>
<path d="M79.3026 19.2053L78.5976 22.0738C78.3044 21.9721 77.9652 21.8752 77.5824 21.788C77.1996 21.7007 76.8023 21.6256 76.3904 21.5675C75.9786 21.5093 75.5667 21.4657 75.1548 21.4342C74.7429 21.4052 74.3456 21.3906 73.9628 21.3906C73.0955 21.3906 72.434 21.5093 71.9761 21.7444C71.5206 21.9794 71.2929 22.3476 71.2929 22.8467C71.2929 23.1108 71.3656 23.3434 71.5134 23.5421C71.6612 23.7407 71.8962 23.92 72.2184 24.0823C72.5406 24.2447 72.9598 24.407 73.4758 24.5669C73.9895 24.7292 74.6073 24.9061 75.3293 25.0975C76.1094 25.2889 76.7878 25.5215 77.3692 25.7928C77.9507 26.0642 78.4353 26.3815 78.8253 26.7425C79.2154 27.1035 79.5085 27.5227 79.7072 28C79.9059 28.4773 80.0052 29.0345 80.0052 29.6668C80.0052 30.6674 79.7411 31.513 79.2105 32.2035C78.68 32.894 77.9022 33.4197 76.8726 33.7807C75.8429 34.1417 74.5782 34.321 73.0785 34.321C72.5794 34.321 72.0633 34.2992 71.5328 34.2556C71.0046 34.212 70.4692 34.149 69.9337 34.069C69.3959 33.9891 68.8774 33.8849 68.3783 33.7589C67.8792 33.6329 67.4068 33.49 66.9658 33.3277L67.6708 30.4809C68.1118 30.6287 68.5673 30.7595 69.0397 30.8782C69.5097 30.9969 69.9895 31.0963 70.474 31.1762C70.9586 31.2562 71.4407 31.3192 71.918 31.3628C72.3953 31.4064 72.8483 31.4282 73.2747 31.4282C73.9362 31.4282 74.4764 31.3725 74.8956 31.2634C75.3147 31.1544 75.6224 30.9872 75.8235 30.7668C76.0222 30.5463 76.1215 30.275 76.1215 29.9503C76.1215 29.6717 76.0222 29.4367 75.8235 29.2453C75.6248 29.0539 75.3268 28.8746 74.9295 28.705C74.5322 28.5354 74.0355 28.3634 73.4395 28.1865C72.8435 28.0097 72.1554 27.8037 71.3777 27.5687C70.7163 27.3482 70.1397 27.0987 69.6454 26.8176C69.1536 26.539 68.7369 26.2192 68.3977 25.8582C68.0585 25.4972 67.8065 25.0829 67.6369 24.6129C67.4673 24.1429 67.3825 23.6123 67.3825 23.0236C67.3825 22.3622 67.5109 21.7516 67.7678 21.192C68.0246 20.6323 68.4146 20.1477 68.938 19.7359C69.4589 19.324 70.1397 19.0042 70.9779 18.7764C71.8162 18.5487 72.8096 18.4348 73.9555 18.4348C74.6315 18.4348 75.305 18.4712 75.9737 18.5439C76.6424 18.6165 77.265 18.7135 77.8368 18.8298C78.411 18.9485 78.8956 19.072 79.2929 19.2053H79.3026ZM81.0228 30.8104C81.0228 30.0884 81.1585 29.4948 81.4322 29.0224C81.7036 28.5524 82.1227 28.1768 82.6897 27.8958C83.2566 27.6172 83.9737 27.3991 84.8411 27.2441C85.7084 27.089 86.7381 26.9679 87.9301 26.8806V26.1538C87.9301 25.7129 87.746 25.3882 87.3777 25.1823C87.0095 24.9763 86.4813 24.8722 85.7884 24.8722C85.4783 24.8722 85.127 24.8867 84.7296 24.9158C84.3323 24.9448 83.9253 24.9957 83.5061 25.0708C83.087 25.1435 82.6557 25.2477 82.2148 25.3809L81.6406 22.556C82.302 22.35 83.0313 22.1853 83.8259 22.0593C84.6206 21.9333 85.3547 21.8728 86.0331 21.8728C87.3269 21.8728 88.3759 22.0302 89.1779 22.3476C89.9798 22.665 90.5685 23.1374 90.9416 23.7698C91.3172 24.4021 91.5037 25.1823 91.5037 26.1078V30.2992C91.5037 30.6674 91.5594 30.9097 91.6685 31.026C91.7775 31.1447 91.9083 31.2029 92.0537 31.2029C92.1264 31.2029 92.2112 31.2005 92.3081 31.1932C92.4026 31.1859 92.4874 31.1665 92.5625 31.1375L92.8484 33.7177C92.5528 33.8946 92.2257 34.0375 91.8671 34.149C91.5061 34.258 91.1064 34.3137 90.6654 34.3137C90.0476 34.3137 89.5437 34.1999 89.1536 33.9721C88.7636 33.7444 88.4728 33.3955 88.2814 32.923C87.8986 33.2017 87.5134 33.4488 87.1233 33.662C86.7333 33.8752 86.3141 34.0375 85.8659 34.1466C85.4177 34.2556 84.9138 34.3113 84.3541 34.3113C83.855 34.3113 83.402 34.2313 82.9973 34.069C82.5927 33.9067 82.239 33.6765 81.9386 33.3737C81.6382 33.0733 81.408 32.7074 81.2554 32.281C81.1003 31.8546 81.0228 31.3628 81.0228 30.8031V30.8104ZM84.6642 30.5899C84.6642 31.0599 84.766 31.4064 84.9743 31.6269C85.1803 31.8473 85.4516 31.9588 85.7908 31.9588C86.0258 31.9588 86.2729 31.9224 86.5298 31.8498C86.7866 31.7771 87.041 31.6705 87.2905 31.53C87.5401 31.3894 87.7533 31.2319 87.9301 31.0551V28.8043C87.385 28.8479 86.9101 28.9037 86.508 28.9691C86.1033 29.0345 85.7617 29.1338 85.4831 29.2671C85.2045 29.4003 84.9986 29.5723 84.8653 29.7856C84.7321 29.9988 84.6666 30.2677 84.6666 30.5899H84.6642ZM96.4026 34.0981L92.1676 22.1175L96.0295 22.0738L98.5661 30.9872L100.972 22.0738L104.766 22.1175L100.509 34.0981H96.405H96.4026ZM109.331 34.0981L105.096 22.1175L108.957 22.0738L111.494 30.9872L113.9 22.0738L117.694 22.1175L113.437 34.0981H109.333H109.331ZM121.464 38.7086L122.942 34.0981H122.457L118.045 22.1175L121.994 22.052L124.531 31.1859L126.937 22.052L130.709 22.0957L125.26 38.7523L121.466 38.7086H121.464ZM136.444 34.3186C135.649 34.3186 134.98 34.1684 134.435 33.8655C133.89 33.5651 133.483 33.0926 133.212 32.453C132.941 31.8134 132.802 30.9776 132.802 29.9479V24.7195H131.082V22.3161L132.802 22.0957L133.222 19.5372H136.398V22.0957H139.419V24.7219H136.398V29.6644C136.398 30.2531 136.504 30.6674 136.718 30.9097C136.931 31.152 137.265 31.2731 137.721 31.2731C137.97 31.2731 138.237 31.2465 138.515 31.1956C138.794 31.1447 139.097 31.0817 139.419 31.0091L139.904 33.7444C139.286 33.9503 138.69 34.0981 138.116 34.1853C137.541 34.2725 136.982 34.3186 136.439 34.3186H136.444ZM146.196 34.3186C145.253 34.3186 144.422 34.2047 143.702 33.977C142.98 33.7492 142.368 33.3955 141.861 32.9182C141.355 32.4409 140.967 31.8231 140.703 31.0648C140.439 30.3064 140.306 29.4076 140.306 28.361C140.306 27.169 140.456 26.1635 140.759 25.3373C141.059 24.5136 141.478 23.8449 142.016 23.3288C142.554 22.8152 143.189 22.4421 143.925 22.2144C144.659 21.9866 145.461 21.8728 146.329 21.8728C148.095 21.8728 149.391 22.3064 150.222 23.1738C151.053 24.0411 151.467 25.4536 151.467 27.4088C151.467 27.5566 151.465 27.7431 151.458 27.9709C151.451 28.1986 151.438 28.424 151.424 28.6444C151.056 28.6735 150.607 28.7098 150.079 28.7559C149.551 28.8019 148.962 28.8431 148.315 28.8891C147.669 28.9327 146.983 28.9691 146.263 28.9981C145.541 29.0272 144.807 29.049 144.056 29.0636C144.042 29.1072 144.034 29.1508 144.034 29.1968V29.3519C144.034 29.8364 144.134 30.2386 144.332 30.5536C144.531 30.871 144.836 31.106 145.248 31.2586C145.66 31.4137 146.198 31.4912 146.859 31.4912C147.271 31.4912 147.705 31.4694 148.16 31.4258C148.616 31.3822 149.079 31.3192 149.551 31.2392C150.021 31.1593 150.491 31.0672 150.964 30.963L151.383 33.5675C150.867 33.7298 150.338 33.8704 149.793 33.9866C149.248 34.1029 148.684 34.1877 148.095 34.241C147.506 34.2919 146.874 34.3186 146.198 34.3186H146.196ZM144.078 26.9267C144.461 26.9267 144.844 26.9194 145.226 26.9049C145.609 26.8903 145.968 26.8709 146.307 26.8491C146.646 26.8273 146.947 26.808 147.211 26.7934C147.475 26.7789 147.695 26.7716 147.872 26.7716C147.858 26.1829 147.785 25.7153 147.652 25.3713C147.518 25.0272 147.327 24.7801 147.077 24.6323C146.828 24.4845 146.51 24.4118 146.128 24.4118C145.864 24.4118 145.621 24.4482 145.401 24.5209C145.18 24.5935 144.977 24.7244 144.795 24.9061C144.613 25.0878 144.456 25.347 144.332 25.6789C144.206 26.0109 144.124 26.4252 144.078 26.9267ZM152.572 28.2713C152.572 26.8443 152.812 25.662 153.289 24.7195C153.767 23.7795 154.469 23.0696 155.397 22.5899C156.325 22.1126 157.464 21.8728 158.816 21.8728C159.286 21.8728 159.761 21.8921 160.238 21.9285C160.715 21.9648 161.176 22.0157 161.617 22.0835C162.057 22.149 162.455 22.2338 162.809 22.3379L162.3 25.3373C161.946 25.2646 161.595 25.2041 161.241 25.1605C160.887 25.1169 160.543 25.0805 160.204 25.0514C159.865 25.0224 159.535 25.0078 159.211 25.0078C158.578 25.0078 158.045 25.1217 157.612 25.3494C157.178 25.5772 156.853 25.9236 156.64 26.3864C156.427 26.8491 156.32 27.4427 156.32 28.1623C156.32 28.8819 156.434 29.4246 156.662 29.8728C156.89 30.321 157.229 30.6602 157.677 30.8879C158.125 31.1157 158.658 31.2295 159.276 31.2295C159.63 31.2295 159.979 31.215 160.325 31.1859C160.669 31.1568 161.021 31.1132 161.374 31.0527C161.728 30.9945 162.094 30.9267 162.477 30.854L163.029 33.7226C162.397 33.8994 161.675 34.0424 160.865 34.1538C160.056 34.2628 159.262 34.3186 158.484 34.3186C156.512 34.3186 155.034 33.8219 154.05 32.8286C153.064 31.8352 152.572 30.3186 152.572 28.2737V28.2713ZM164.441 34.0957V17.771H168.059V23.043C168.471 22.7789 168.87 22.5608 169.26 22.3912C169.65 22.2216 170.048 22.0932 170.452 22.006C170.857 21.9188 171.271 21.8728 171.698 21.8728C172.463 21.8728 173.103 22.0084 173.617 22.2798C174.13 22.5536 174.525 22.9485 174.796 23.4718C175.068 23.9951 175.203 24.6299 175.203 25.3809V34.0957H171.564V26.5051C171.564 25.9454 171.443 25.5433 171.201 25.2913C170.959 25.0418 170.61 24.9158 170.152 24.9158C169.917 24.9158 169.684 24.9424 169.457 24.9933C169.229 25.0442 169.001 25.112 168.773 25.192C168.546 25.2719 168.306 25.3712 168.056 25.49V34.0933H164.439L164.441 34.0957Z" fill="url(#paint1_linear_1169_5746)"/>
<path d="M142.709 43.5177V37.0537H144.279V42.1512H147.179V43.5177H142.709Z" fill="#2D307A"/>
<path d="M148.768 37.9576C148.461 37.9576 148.235 37.897 148.09 37.7735C147.945 37.6499 147.872 37.4585 147.872 37.2017C147.872 36.9449 147.945 36.7535 148.09 36.6299C148.235 36.5064 148.461 36.4458 148.768 36.4458C149.076 36.4458 149.302 36.5064 149.442 36.6299C149.583 36.7535 149.655 36.9449 149.655 37.2017C149.655 37.4585 149.585 37.6523 149.447 37.7735C149.309 37.897 149.081 37.9576 148.768 37.9576ZM148.01 43.5179V38.4955H149.515V43.5179H148.01Z" fill="#2D307A"/>
<path d="M150.595 43.5178V38.4954H151.962V38.929C152.146 38.8055 152.325 38.7086 152.497 38.6335C152.669 38.5608 152.841 38.5051 153.011 38.4663C153.18 38.43 153.35 38.4106 153.522 38.4106C153.718 38.4106 153.888 38.4324 154.031 38.476C154.174 38.5196 154.295 38.5826 154.399 38.665C154.503 38.7473 154.59 38.8515 154.658 38.9751C154.869 38.8467 155.063 38.7401 155.245 38.6553C155.426 38.5729 155.608 38.5099 155.79 38.4663C155.971 38.4227 156.165 38.4009 156.366 38.4009C156.55 38.4009 156.715 38.4251 156.861 38.4711C157.006 38.5172 157.132 38.5826 157.238 38.6698C157.347 38.757 157.437 38.8588 157.512 38.9751C157.585 39.0914 157.641 39.2246 157.675 39.3724C157.708 39.5202 157.725 39.6777 157.725 39.8424V43.5178H156.211V40.3415C156.211 40.2495 156.202 40.1622 156.185 40.0774C156.168 39.9951 156.136 39.9248 156.097 39.8642C156.056 39.8061 156.003 39.7601 155.93 39.731C155.857 39.7019 155.773 39.685 155.666 39.685C155.574 39.685 155.482 39.6946 155.395 39.7164C155.305 39.7383 155.22 39.7649 155.135 39.7988C155.051 39.8327 154.971 39.8715 154.891 39.9151C154.903 39.9636 154.91 40.0145 154.913 40.0678C154.915 40.1211 154.917 40.1719 154.917 40.2204V43.5178H153.403V40.3415C153.403 40.2543 153.394 40.1695 153.377 40.0871C153.357 40.0048 153.328 39.9345 153.284 39.8739C153.241 39.8158 153.185 39.7697 153.112 39.7358C153.04 39.7019 152.953 39.685 152.848 39.685C152.768 39.685 152.686 39.6946 152.604 39.7164C152.521 39.7383 152.439 39.7649 152.359 39.7988C152.279 39.8327 152.197 39.8715 152.109 39.9151V43.5178H150.595Z" fill="#2D307A"/>
<path d="M159.552 37.9576C159.244 37.9576 159.019 37.897 158.874 37.7735C158.728 37.6499 158.656 37.4585 158.656 37.2017C158.656 36.9449 158.728 36.7535 158.874 36.6299C159.019 36.5064 159.244 36.4458 159.552 36.4458C159.86 36.4458 160.085 36.5064 160.226 36.6299C160.366 36.7535 160.439 36.9449 160.439 37.2017C160.439 37.4585 160.369 37.6523 160.231 37.7735C160.092 37.897 159.865 37.9576 159.552 37.9576ZM158.794 43.5179V38.4955H160.298V43.5179H158.794Z" fill="#2D307A"/>
<path d="M163.257 43.6101C162.925 43.6101 162.644 43.5471 162.416 43.4212C162.188 43.2952 162.016 43.0989 161.905 42.83C161.791 42.5611 161.733 42.2122 161.733 41.7809V39.5932H161.013V38.5853L161.733 38.4932L161.907 37.4224H163.237V38.4932H164.502V39.5932H163.237V41.6622C163.237 41.9093 163.281 42.0814 163.371 42.1831C163.46 42.2849 163.601 42.3358 163.79 42.3358C163.894 42.3358 164.005 42.3261 164.122 42.3043C164.238 42.2825 164.364 42.2558 164.5 42.2267L164.703 43.3727C164.444 43.4599 164.194 43.5205 163.954 43.5568C163.715 43.5932 163.48 43.6126 163.252 43.6126L163.257 43.6101Z" fill="#2D307A"/>
<path d="M167.569 43.6099C167.174 43.6099 166.828 43.5614 166.525 43.4669C166.222 43.3724 165.965 43.2246 165.754 43.0235C165.541 42.8249 165.381 42.5656 165.27 42.2483C165.158 41.9309 165.103 41.5553 165.103 41.1168C165.103 40.6177 165.166 40.1962 165.292 39.8521C165.417 39.5081 165.592 39.227 165.817 39.0114C166.043 38.7958 166.309 38.6407 166.617 38.5438C166.924 38.4493 167.261 38.4009 167.622 38.4009C168.361 38.4009 168.904 38.5826 169.253 38.946C169.602 39.3094 169.774 39.9006 169.774 40.7195C169.774 40.78 169.774 40.86 169.769 40.9545C169.766 41.049 169.762 41.1435 169.754 41.2355C169.599 41.2476 169.413 41.2622 169.19 41.2816C168.967 41.3009 168.722 41.3179 168.451 41.3373C168.179 41.3567 167.894 41.3712 167.591 41.3833C167.29 41.3954 166.983 41.4051 166.668 41.41C166.663 41.4294 166.658 41.4463 166.658 41.4657V41.5311C166.658 41.7346 166.699 41.9018 166.782 42.035C166.864 42.1683 166.992 42.2652 167.164 42.3306C167.336 42.396 167.562 42.4275 167.838 42.4275C168.01 42.4275 168.192 42.4178 168.383 42.4009C168.574 42.3839 168.768 42.3573 168.964 42.3234C169.161 42.2894 169.359 42.2507 169.556 42.2071L169.73 43.2973C169.514 43.3652 169.294 43.4233 169.066 43.4718C168.838 43.5202 168.601 43.5565 168.356 43.5784C168.109 43.6002 167.845 43.6099 167.562 43.6099H167.569ZM166.682 40.516C166.842 40.516 167.002 40.5135 167.162 40.5063C167.322 40.5014 167.472 40.4917 167.615 40.482C167.755 40.4724 167.881 40.4651 167.993 40.4578C168.104 40.453 168.196 40.4481 168.269 40.4481C168.264 40.201 168.233 40.0072 168.177 39.8618C168.121 39.7164 168.041 39.6147 167.937 39.5517C167.833 39.4911 167.7 39.4596 167.54 39.4596C167.428 39.4596 167.327 39.4742 167.235 39.5057C167.143 39.5372 167.058 39.5905 166.98 39.668C166.903 39.7455 166.837 39.8521 166.786 39.9902C166.733 40.1283 166.699 40.3028 166.68 40.5111L166.682 40.516Z" fill="#2D307A"/>
<path d="M173.876 43.5275L173.701 43.1495C173.454 43.3022 173.209 43.4184 172.962 43.496C172.715 43.5735 172.458 43.6123 172.187 43.6123C171.639 43.6123 171.215 43.3966 170.917 42.9654C170.619 42.5341 170.469 41.9115 170.469 41.0998C170.469 40.4893 170.556 39.9878 170.733 39.5905C170.91 39.1931 171.174 38.8951 171.533 38.6989C171.889 38.5026 172.342 38.4033 172.89 38.4033C173.013 38.4033 173.144 38.4081 173.282 38.4178C173.42 38.4275 173.556 38.4445 173.684 38.4687V36.6855H175.208V43.5275H173.878H173.876ZM173.682 42.0956V39.6026C173.558 39.5662 173.44 39.5396 173.326 39.525C173.212 39.5105 173.1 39.5008 172.989 39.5008C172.773 39.5008 172.594 39.5468 172.453 39.6389C172.313 39.731 172.206 39.8812 172.141 40.092C172.073 40.3003 172.039 40.5886 172.039 40.9496C172.039 41.2816 172.068 41.5505 172.126 41.7588C172.185 41.9648 172.269 42.115 172.381 42.2119C172.492 42.3088 172.628 42.3548 172.788 42.3548C172.88 42.3548 172.974 42.3452 173.069 42.3282C173.163 42.3088 173.263 42.2797 173.364 42.241C173.466 42.1998 173.573 42.1538 173.684 42.098L173.682 42.0956Z" fill="#2D307A"/>
</g>
<defs>
<linearGradient id="paint0_linear_1169_5746" x1="-0.000154319" y1="19.3774" x2="65.7298" y2="19.3774" gradientUnits="userSpaceOnUse">
<stop stop-color="#2E3192"/>
<stop offset="0.01" stop-color="#303090"/>
<stop offset="0.09" stop-color="#3C2E89"/>
<stop offset="0.2" stop-color="#432D85"/>
<stop offset="0.5" stop-color="#452D84"/>
<stop offset="0.56" stop-color="#4A2C80"/>
<stop offset="0.64" stop-color="#592B78"/>
<stop offset="0.73" stop-color="#732A6A"/>
<stop offset="0.83" stop-color="#962856"/>
<stop offset="0.92" stop-color="#C3263C"/>
<stop offset="1" stop-color="#EC2426"/>
</linearGradient>
<linearGradient id="paint1_linear_1169_5746" x1="66.9682" y1="28.2616" x2="175.206" y2="28.2616" gradientUnits="userSpaceOnUse">
<stop stop-color="#2E3192"/>
<stop offset="0.01" stop-color="#303090"/>
<stop offset="0.09" stop-color="#3C2E89"/>
<stop offset="0.21" stop-color="#432D85"/>
<stop offset="0.52" stop-color="#452D84"/>
<stop offset="0.55" stop-color="#5B2B77"/>
<stop offset="0.59" stop-color="#812961"/>
<stop offset="0.64" stop-color="#A2274F"/>
<stop offset="0.69" stop-color="#BD2640"/>
<stop offset="0.74" stop-color="#D22534"/>
<stop offset="0.81" stop-color="#E0242C"/>
<stop offset="0.88" stop-color="#E92427"/>
<stop offset="1" stop-color="#EC2426"/>
</linearGradient>
<clipPath id="clip0_1169_5746">
<rect width="175.206" height="43.61" fill="white"/>
</clipPath>
</defs>
</svg>
