<svg width="161" height="40" viewBox="0 0 161 40" fill="none" xmlns="http://www.w3.org/2000/svg">
<g clip-path="url(#clip0_1169_5779)">
<path d="M50.2668 26.2821C50.9068 25.5487 51.6268 24.9065 52.5334 24.4776C51.9556 25.2799 51.0979 25.7665 50.2668 26.2821ZM53.2023 25.7776C51.0757 26.5687 48.9312 29.0043 48.9623 30.6932C50.1068 28.8421 52.1557 27.5754 53.2023 25.7776ZM50.5245 27.3221C51.0912 26.5221 52.0468 26.0132 52.569 25.2354C51.5912 25.531 50.5601 26.5621 50.5245 27.3221ZM52.8223 27.5043C53.4556 26.4554 54.6045 25.7287 55.1845 24.711C53.9912 25.1687 52.7956 26.5532 52.8223 27.5043ZM55.8779 22.6554C55.9845 22.6421 56.0801 22.5976 56.1734 22.5443C56.549 22.3287 56.8312 22.0132 57.0912 21.671C57.3712 21.2999 57.609 20.9065 57.7334 20.451C57.7468 20.3999 57.7823 20.3376 57.729 20.2932C57.6845 20.2532 57.6334 20.2932 57.5868 20.311C56.5645 20.711 56.0601 21.5354 55.7934 22.5576C55.7757 22.6287 55.7979 22.6665 55.8757 22.6576L55.8779 22.6554ZM53.489 24.8576C53.549 24.831 53.6045 24.7887 53.6623 24.7554C54.4912 24.2221 55.0134 23.4665 55.2623 22.5176C55.2779 22.4554 55.3245 22.3821 55.2734 22.3243C55.2156 22.2599 55.1445 22.3154 55.089 22.3399C54.0668 22.7976 53.3912 23.5332 53.2334 24.6776C53.2223 24.7599 53.2023 24.8554 53.269 24.911C53.349 24.9776 53.4201 24.8865 53.489 24.8554V24.8576ZM52.489 27.9243C52.4112 27.8621 52.3401 27.7954 52.2845 27.7176C52.229 27.6421 52.1734 27.6399 52.0534 27.7687C51.8668 27.971 51.6734 28.171 51.4801 28.371C51.389 28.4643 51.3645 28.5376 51.4001 28.6021C51.4401 28.6754 51.4712 28.7554 51.4934 28.8043C51.6253 29.0561 51.8601 29.0199 52.1979 28.6954C52.2468 28.6487 52.2979 28.5999 52.3468 28.5532C52.7623 28.1376 52.7601 28.1376 52.489 27.9243ZM44.1534 27.0199C42.7112 27.1665 41.8201 28.4132 40.4668 28.6087C40.5868 28.8443 40.8801 28.7999 41.1001 28.9487C40.7801 29.1421 40.4579 29.0932 40.1668 29.171C39.8623 29.2532 39.6001 29.0576 39.2623 28.8999C39.4601 29.4976 39.8845 29.6176 40.3245 29.6532C40.8023 29.691 41.289 29.6199 41.7645 29.6776C42.9912 29.8243 44.0645 29.2887 44.6512 28.151C44.2757 28.3221 43.9379 28.4776 43.6001 28.631C43.5823 28.5976 43.5645 28.5643 43.5468 28.531C43.7268 28.3132 43.9045 28.0954 44.189 27.7532C43.3845 28.1065 42.7801 28.5576 42.049 28.691C42.7934 28.2087 43.5157 27.7132 44.1557 27.0199H44.1534ZM43.8201 25.9776C42.6445 26.6287 41.5357 27.3621 40.3512 27.9732C42.5134 27.6265 43.5779 26.9976 43.8201 25.9776ZM44.749 18.0687C45.489 17.0665 47.0134 16.8665 47.4979 15.3799C46.4134 16.251 45.0401 16.6043 44.749 18.0687ZM42.769 22.9354C43.8534 22.6643 44.5712 22.1732 44.9068 21.5021C44.0979 21.8221 43.4179 22.2421 42.769 22.9354ZM19.4334 7.20652C19.7934 7.06652 20.189 6.99318 20.6201 6.67318C20.1868 6.59096 19.8779 6.54207 19.5757 6.47318C18.7757 6.29541 18.0223 6.00207 17.4179 5.43096C17.1734 5.19985 16.9557 5.3043 16.7223 5.3843C14.6979 6.0843 12.6601 6.73763 10.5934 7.29763C8.28232 7.9243 5.9601 8.50652 3.5801 8.81096C2.49566 8.94874 1.40677 9.03985 0.313434 8.88207C0.211212 8.86652 0.0756565 8.78874 0.0156565 8.9243C-0.0376768 9.0443 0.0889898 9.11541 0.166768 9.19096C1.11566 10.131 2.31121 10.5132 3.59343 10.6732C5.56899 10.9221 7.51788 10.6776 9.45121 10.2843C12.8801 9.58652 16.1845 8.47541 19.4379 7.20652H19.4334ZM20.7445 10.1687C20.9068 10.091 21.0623 10.0087 21.1068 9.81985C21.3423 8.82874 21.7512 7.91096 22.2245 6.98207C21.3512 7.42207 20.489 7.88652 19.6023 8.29763C16.0423 9.94874 12.3201 11.0799 8.45343 11.7354C7.61121 11.8776 6.75566 11.9576 5.90899 12.071C5.79566 12.0865 5.61343 12.0243 5.59566 12.1954C5.5801 12.351 5.76232 12.3687 5.87121 12.411C7.26454 12.9776 8.72232 13.1199 10.2112 13.0554C12.8379 12.9421 15.3401 12.2576 17.7979 11.3732C18.7979 11.0132 19.7845 10.6243 20.7445 10.1665V10.1687ZM25.9668 10.711C26.0312 9.87318 26.2401 9.05985 26.5601 8.19985C21.749 11.3532 16.6534 13.5265 11.0134 14.351C11.0912 14.5487 11.2912 14.5754 11.4601 14.6421C13.3423 15.371 15.2601 15.2421 17.1757 14.8421C20.1912 14.211 22.9423 12.9332 25.569 11.3532C25.8201 11.2021 25.9445 11.0199 25.9668 10.711ZM30.3868 11.7754C30.1579 11.0999 30.2001 10.4021 30.3179 9.70652C30.3357 9.6043 30.4179 9.47763 30.2934 9.4043C30.1712 9.33318 30.0934 9.45985 30.009 9.52207C27.4623 11.4221 24.7512 13.0554 21.9157 14.4821C20.5557 15.1643 19.1557 15.7599 17.6934 16.2021C17.5468 16.2465 17.4045 16.3021 17.2601 16.351C17.9023 16.6243 18.5468 16.6376 19.1912 16.5999C23.229 16.3643 26.8445 14.971 30.1112 12.6154C30.4312 12.3843 30.5179 12.1576 30.389 11.7776L30.3868 11.7754ZM39.5245 13.9087C39.449 13.8554 39.4068 13.9421 39.3601 13.9821C37.909 15.2132 36.3512 16.2532 34.7134 17.1465C33.9268 17.5754 33.1157 17.9399 32.2623 18.1999C32.1779 18.2265 32.0934 18.2599 32.009 18.2887C32.3979 18.4976 32.7823 18.5265 33.1623 18.5199C35.549 18.4821 37.6512 17.6354 39.5157 16.1132C39.6979 15.9643 39.7423 15.811 39.6534 15.5443C39.4979 15.0732 39.5001 14.5932 39.549 14.1176C39.5557 14.0487 39.6023 13.9643 39.5245 13.9087ZM39.5445 18.4821C40.8001 17.831 42.149 17.3176 43.6157 16.9843C43.6645 16.9732 43.7468 16.991 43.7268 16.9087C43.7068 16.8243 43.6245 16.811 43.5645 16.7776C43.1623 16.551 42.7712 16.2887 42.4379 15.9199C42.249 15.711 42.1112 15.6576 41.9312 15.7043C40.0934 16.1665 38.7268 17.1643 37.9268 18.8087C37.8001 19.071 37.7001 19.3532 37.7445 19.7376C37.7957 19.6954 37.849 19.6554 37.8979 19.611C38.3823 19.1599 38.9423 18.7954 39.5445 18.4821ZM36.7334 21.6821C36.6512 21.891 36.5934 22.1199 36.6668 22.4487C36.7068 22.4176 36.7468 22.3887 36.7845 22.3554C37.1468 22.0199 37.5801 21.7643 38.0534 21.5554C39.0401 21.1221 40.1179 20.8154 41.3112 20.6687C41.3512 20.6643 41.4223 20.6865 41.3979 20.6154C41.3734 20.5443 41.3023 20.5221 41.2512 20.4887C40.8957 20.2599 40.5423 20.0021 40.2312 19.6621C40.0557 19.4687 39.9334 19.411 39.7868 19.4332C38.2957 19.6532 37.2468 20.3687 36.7334 21.6799V21.6821ZM37.2045 18.1843C37.1645 18.1221 37.1379 18.191 37.109 18.2176C36.2357 19.0443 35.3112 19.6799 34.349 20.1643C33.8868 20.3976 33.4157 20.5665 32.9245 20.6332C32.8757 20.6399 32.8268 20.6532 32.7779 20.6643C32.9845 20.931 33.1979 21.031 33.4112 21.1021C34.749 21.5421 35.969 21.191 37.089 20.1821C37.1979 20.0843 37.2312 19.9532 37.1957 19.6954C37.1312 19.2376 37.1579 18.8021 37.209 18.3821C37.2157 18.3199 37.2468 18.2532 37.2068 18.1887L37.2045 18.1843ZM35.6245 25.0887C35.9868 24.7532 36.4201 24.4976 36.8934 24.2887C37.8801 23.8554 38.9579 23.5487 40.1512 23.4021C40.1912 23.3976 40.2623 23.4199 40.2379 23.3487C40.2134 23.2776 40.1423 23.2554 40.0912 23.2221C39.7357 22.9932 39.3845 22.7354 39.0712 22.3954C38.8957 22.2021 38.7734 22.1443 38.6268 22.1665C37.1357 22.3865 36.0868 23.1021 35.5734 24.4132C35.4912 24.6221 35.4334 24.851 35.5068 25.1799C35.5468 25.1487 35.5868 25.1199 35.6245 25.0865V25.0887ZM30.2157 14.7976C30.0912 14.431 30.1157 14.0532 30.1779 13.6754C30.1868 13.6199 30.2312 13.551 30.1645 13.511C30.0979 13.4732 30.0557 13.5421 30.0112 13.5754C28.6312 14.6043 27.1623 15.491 25.6268 16.2621C24.889 16.6332 24.1312 16.9532 23.3401 17.1932C23.2601 17.2176 23.1823 17.2465 23.1045 17.2732C23.4512 17.4221 23.8023 17.4287 24.1512 17.4087C26.3379 17.2821 28.2979 16.5265 30.0668 15.251C30.2401 15.1265 30.2868 15.0043 30.2179 14.7976H30.2157ZM21.2157 5.67096C22.0445 5.67096 22.8557 5.53763 23.7023 5.32207C24.0601 5.29318 24.4134 5.12652 24.7579 4.91985C25.7979 4.29763 26.9334 3.89763 28.0801 3.52652C28.2068 3.4843 28.4045 3.50652 28.4245 3.33096C28.4445 3.16207 28.2445 3.13763 28.1401 3.04874C28.0801 2.99763 27.9912 2.97763 27.9423 2.91985C27.3445 2.21541 26.669 2.38874 25.8957 2.62207C23.8601 3.23096 21.7979 3.7443 19.649 3.73763C18.8868 3.73541 18.1312 3.67763 17.3934 3.46207C17.2801 3.42874 17.1357 3.31763 17.0401 3.43985C16.9268 3.58874 17.0934 3.69985 17.1668 3.80874C18.1401 5.23985 19.5779 5.66874 21.2112 5.67096H21.2157ZM36.4579 3.29318C36.2779 3.17541 36.1201 3.33541 35.9845 3.42207C34.7423 4.19985 33.7757 5.26874 32.9223 6.43985C32.1334 7.51985 31.4423 8.65541 31.1357 9.97985C31.0601 10.3065 31.0157 10.6354 31.0712 10.971C31.109 11.2154 31.2423 11.2532 31.4401 11.1332C34.2445 9.42874 36.2557 7.17985 36.5379 3.73763C36.5512 3.58652 36.6179 3.39763 36.4623 3.29541L36.4579 3.29318ZM33.5245 3.81096C33.1845 3.88652 32.849 3.97541 32.3934 4.08874C30.0423 4.93096 28.1023 6.3843 27.1423 8.91985C27.0468 9.17096 26.969 9.43318 26.9357 9.69763C26.909 9.90207 26.7468 10.1687 26.9645 10.3154C27.1445 10.4376 27.3512 10.2465 27.5334 10.1643C28.3579 9.78207 29.0934 9.25763 29.7734 8.6643C31.2245 7.39985 32.4757 5.95318 33.5557 4.36207C33.6179 4.27096 33.6734 4.17318 33.7223 4.07318C33.8201 3.86874 33.7645 3.75763 33.5268 3.81096H33.5245ZM38.4312 3.43985C37.1445 4.69096 36.6512 6.29096 36.4579 8.01318C36.4334 8.23763 36.4134 8.46207 36.4045 8.68874C36.3845 9.10652 36.389 9.53096 36.4334 9.96874C36.4557 10.211 36.4912 10.4599 36.5379 10.7132C36.6401 11.0665 36.8734 10.7976 37.029 10.671C37.8045 10.0399 38.4068 9.27318 38.8157 8.36652C38.8423 8.30652 38.869 8.24652 38.8934 8.18652C39.0023 7.92207 39.0957 7.65985 39.1712 7.39541C39.5334 6.14207 39.5157 4.87541 39.0601 3.59541C38.8801 3.08652 38.809 3.07318 38.4312 3.43985ZM29.409 4.03318C28.8757 4.10652 28.3445 4.2043 27.829 4.38207C25.6734 5.06874 23.8068 6.15985 22.6112 8.17096C22.409 8.51318 22.2334 8.86652 22.1245 9.25096C22.0957 9.35096 22.0134 9.47096 22.1245 9.55985C22.2268 9.64207 22.3357 9.55541 22.4334 9.51318C23.2201 9.17096 23.9623 8.74652 24.6912 8.29985C26.4779 7.20652 28.2045 6.03318 29.6668 4.51318C29.8023 4.37318 30.0823 4.23096 29.9734 4.03318C29.869 3.84207 29.6001 4.00652 29.4068 4.03318H29.409ZM35.4912 8.66874C34.829 9.45096 34.1512 10.1576 33.3779 10.7643C32.9401 11.1065 32.4979 11.4443 32.0134 11.7154C31.789 11.8421 31.6579 12.011 31.5734 12.2465C31.2957 13.0399 31.009 13.8287 30.7268 14.6199C30.6868 14.7354 30.5868 14.8576 30.6845 14.9754C30.7223 15.0199 30.7623 15.0399 30.8023 15.0399C30.8779 15.0465 30.9579 14.9976 31.0312 14.9687C31.8423 14.6643 32.609 14.2887 33.329 13.8399C34.0779 13.3732 34.7757 12.8287 35.4223 12.1999C35.7379 11.8932 35.849 11.5665 35.7512 11.1332C35.7179 10.9776 35.6912 10.8199 35.6712 10.6621C35.6134 10.1821 35.6157 9.69541 35.6001 9.21096V9.19318C35.5957 9.03763 35.6357 8.87541 35.4868 8.66874H35.4912ZM41.6357 6.79763C41.5245 6.29541 41.3557 5.79096 41.1357 5.27985C41.0845 5.16207 41.0534 4.97096 40.869 4.99096C40.7068 5.00874 40.6734 5.1843 40.6112 5.30652C40.289 5.91985 40.0445 6.54207 39.8801 7.17541C39.8157 7.42652 39.7645 7.67985 39.7268 7.93318C39.569 8.95985 39.6245 10.0132 39.909 11.0932C39.949 11.2287 39.9779 11.371 40.0334 11.4999C40.0979 11.651 40.0779 11.891 40.2979 11.9021C40.4823 11.911 40.589 11.731 40.689 11.5865C41.6534 10.1887 41.949 8.7443 41.7268 7.26207C41.7023 7.10652 41.6734 6.95096 41.6379 6.79541L41.6357 6.79763ZM38.9245 10.4043C38.8601 10.0376 38.729 10.0776 38.5223 10.3199C37.9845 10.9532 37.3334 11.4576 36.6401 11.9087C36.4912 12.0043 36.3579 12.0976 36.3312 12.2999C36.2268 13.0865 36.1401 13.8732 36.1557 14.6687C36.1623 14.9776 36.2801 15.0843 36.4868 14.9776C37.7068 14.4554 38.6223 13.691 39.4157 12.7621C39.549 12.6043 39.5379 12.4465 39.4645 12.2754C39.2045 11.6754 39.0379 11.0487 38.9268 10.4043H38.9245ZM43.6801 10.2754C43.5601 9.8043 43.3068 9.37318 43.0045 8.95985C42.8179 8.70652 42.6934 8.76652 42.5557 9.0043C41.9134 10.1021 42.0179 11.9665 42.7801 12.9821C43.0423 13.3332 43.1579 13.3332 43.3912 12.951C43.8979 12.1176 43.9823 11.231 43.6779 10.2776L43.6801 10.2754ZM41.5845 12.3465C41.4979 12.0976 41.4045 12.031 41.1979 12.2421C40.8757 12.5687 40.5468 12.8887 40.2112 13.2021C40.0534 13.3487 40.009 13.5087 40.0668 13.7154C40.1312 13.9443 40.1779 14.1776 40.2112 14.3265C40.4171 15.1058 40.8105 15.2524 41.3912 14.7665C41.4757 14.6954 41.5623 14.6265 41.6445 14.551C42.3579 13.911 42.3557 13.9065 41.9157 13.0843C41.789 12.8487 41.6757 12.6021 41.5868 12.3487L41.5845 12.3465ZM45.4712 13.511C45.3512 13.0421 45.0979 12.6087 44.7957 12.1976C44.609 11.9421 44.4845 12.0043 44.3468 12.2399C43.7068 13.3399 43.8112 15.2043 44.5734 16.2199C44.8357 16.571 44.9512 16.571 45.1845 16.1887C45.689 15.3554 45.7757 14.4687 45.4712 13.5132V13.511ZM43.0445 19.6132C43.2423 19.431 43.4512 19.2599 43.6734 19.1087C43.8912 18.9621 43.9312 18.8554 43.6779 18.7065C43.2801 18.4776 42.8868 18.2399 42.4979 17.9932C42.3157 17.8776 42.149 17.8754 41.9645 17.9821C41.7601 18.1021 41.5445 18.2065 41.4112 18.2776C40.709 18.6747 40.6668 19.0917 41.2845 19.5287C41.3757 19.5932 41.4645 19.6599 41.5579 19.7199C42.3579 20.2487 42.3623 20.2443 43.0445 19.611V19.6132ZM42.4357 21.8087C42.0379 21.5799 41.6445 21.3421 41.2557 21.0954C41.0734 20.9799 40.9068 20.9776 40.7223 21.0843C40.5179 21.2043 40.3023 21.3087 40.169 21.3799C39.4668 21.7769 39.4245 22.1939 40.0423 22.631C40.1334 22.6954 40.2223 22.7621 40.3157 22.8221C41.1157 23.351 41.1201 23.3465 41.8023 22.7132C42.0001 22.531 42.209 22.3599 42.4312 22.2087C42.649 22.0621 42.689 21.9554 42.4357 21.8065V21.8087ZM60.2068 13.6776C60.2001 13.7132 60.2023 13.7732 60.1356 13.7154C59.5245 13.191 58.9756 13.7443 58.5756 14.211C57.4756 15.491 57.5512 17.131 56.9912 18.5843C57.3268 18.5265 57.6645 18.5132 57.989 18.5687C58.2823 18.6176 58.5712 18.7465 58.7668 18.9732C59.0445 19.2954 59.0779 19.731 59.0268 20.1376C59.0223 20.1799 59.0156 20.2243 59.0068 20.2665C58.8779 21.0287 58.6023 21.7532 58.2668 22.451C58.1201 22.7532 57.9623 23.0532 57.8045 23.3532C57.7179 23.5132 57.629 23.6732 57.5401 23.8354C56.9579 26.4799 55.6201 28.9599 53.6023 30.9199C53.4423 31.0754 53.2779 31.2287 53.109 31.3776C52.5579 31.8643 51.9645 32.3132 51.3268 32.7199C50.4001 33.3087 49.4312 33.7776 48.4357 34.131C48.0957 34.2532 47.7534 34.3576 47.409 34.451C44.5045 35.2354 41.4512 35.0532 38.7001 34.011C37.8045 34.5332 36.9023 35.0443 35.9979 35.5465C36.8534 35.0732 37.6801 34.5132 38.4912 33.9287C35.8268 32.8665 33.4579 30.9932 31.7979 28.3887C29.7023 25.0976 29.1357 21.2643 29.9179 17.7354C29.4112 17.8265 28.8934 17.8821 28.3668 17.9087C27.9557 17.9287 27.5401 17.9154 27.129 17.731C27.2201 17.6976 27.3112 17.6599 27.4045 17.6332C28.3379 17.351 29.229 16.9687 30.0979 16.5243C30.1579 16.4932 30.2157 16.4643 30.2734 16.4332C31.1357 15.9865 31.9801 15.5087 32.8001 14.991C33.6401 14.4643 34.4557 13.8976 35.2468 13.2887C35.3001 13.2487 35.349 13.1643 35.4268 13.2132C35.5068 13.2621 35.4534 13.3465 35.4445 13.4132C35.3734 13.8732 35.3534 14.3376 35.5045 14.7887C35.5912 15.0421 35.5379 15.1932 35.3357 15.3421C34.3268 16.091 33.2668 16.6865 32.1445 17.1176C31.4468 20.3399 31.9668 23.8287 33.8779 26.8265C35.5668 29.4799 38.0579 31.3087 40.8334 32.2021C40.889 32.1621 40.9423 32.1221 40.9979 32.0821C43.1979 30.4998 45.369 28.8665 47.4601 27.1376C49.709 25.2776 59.9956 16.6776 53.1756 17.0176C53.1556 17.0443 53.149 17.0465 53.149 17.0532C51.1779 21.8221 43.9934 24.7421 42.3801 25.1199C43.9757 24.6732 45.169 23.4243 46.3512 22.3332C47.6468 21.1332 48.8023 19.7865 49.8356 18.3554C51.0334 16.6999 52.1579 14.9754 53.6112 13.5265C53.6268 13.5132 53.6468 13.5043 53.6845 13.4821C53.5712 13.7021 53.469 13.8976 53.4045 14.1087C53.3868 14.171 53.3934 14.1999 53.4645 14.1932C53.5401 14.1865 53.6179 14.1865 53.6912 14.1776C54.2245 14.1154 54.7379 13.9754 55.2534 13.831C55.3112 13.8154 55.3668 13.8021 55.4223 13.7865C55.4268 13.7932 55.4268 13.7999 55.4312 13.8065C55.1668 14.0087 54.9045 14.211 54.6423 14.4154C55.1845 14.4221 55.6801 14.2799 56.1579 13.9932C55.9912 14.5265 55.9801 15.0443 56.0157 15.5665C56.5757 14.4754 57.329 13.5754 58.4534 13.0354C57.6223 13.271 56.9757 13.7821 56.389 14.4287C56.4068 14.131 56.4779 13.871 56.5756 13.6021C56.5379 13.6176 56.5179 13.6287 56.5001 13.6376C56.269 13.7443 56.0312 13.7643 55.7845 13.6999C55.7623 13.6954 55.7312 13.6954 55.7245 13.6687C55.7134 13.6332 55.7534 13.631 55.7734 13.611C55.8156 13.5732 55.8579 13.5376 55.9156 13.4887C55.669 13.4532 55.4734 13.3599 55.3623 13.1487C55.3179 13.0665 55.2712 13.0687 55.1979 13.0976C54.9157 13.2176 54.6379 13.3465 54.3712 13.4976C54.3112 13.531 54.2579 13.5799 54.1623 13.5887C54.7179 12.9865 55.3601 12.5421 56.1179 12.2221C56.0045 12.1843 55.9179 12.1599 55.8312 12.1332C56.5712 11.8043 57.3179 11.6265 58.1356 11.8576C57.7512 12.251 57.4179 12.651 57.3423 13.1999C57.6512 13.0332 57.9623 12.8843 58.2845 12.7643C58.509 12.6821 58.7357 12.6154 58.9734 12.5887C59.2601 12.5576 59.529 12.5821 59.7534 12.8243C59.7201 12.5265 59.629 12.2821 59.4445 12.0776C59.1734 11.7732 58.8179 11.6643 58.4268 11.6421C58.3601 11.6376 58.3134 11.6199 58.2645 11.571C58.1423 11.4465 58.0001 11.3487 57.829 11.2776C57.8334 11.3376 57.8779 11.371 57.8734 11.4243C57.8623 11.4243 57.8534 11.4287 57.8445 11.4287C57.3601 11.3443 56.8912 11.4332 56.429 11.571C55.7268 11.7821 55.0845 12.1176 54.4668 12.5087C53.9712 12.8243 53.5001 13.171 53.0445 13.5421C51.2557 15.0021 50.0201 17.0576 48.2112 18.4621C46.4712 19.8154 44.4201 20.6221 42.2468 20.931C44.3401 20.6332 45.9134 18.611 47.2845 17.1865C48.2045 16.231 49.1223 15.2576 50.1157 14.3754C48.789 14.2843 47.5157 13.6465 46.5223 12.7821C44.7579 11.2421 43.8045 9.13541 42.849 7.03985C42.7957 6.91985 42.7401 6.79763 42.6868 6.67763C42.3645 5.97763 42.0401 5.2843 41.6801 4.61763C40.8645 3.1043 39.7179 2.17096 37.8823 2.29985C36.3557 2.40652 34.8734 2.73541 33.3823 3.03541C31.849 3.3443 30.3512 3.28652 28.9312 2.5643C28.3734 2.27763 27.8357 1.95318 27.4823 1.39096C27.649 1.27541 27.7868 1.35096 27.9201 1.36874C28.4868 1.44874 29.0534 1.49096 29.6268 1.45985C31.3801 1.37096 33.069 0.924295 34.7757 0.56874C35.9512 0.330962 37.1223 0.0287396 38.3357 -0.000149261C40.269 -0.0445937 41.7379 0.730962 42.6579 2.46874C42.669 2.49318 42.6845 2.51763 42.6957 2.54207C43.3712 3.84207 43.7201 5.25985 44.1512 6.65096C44.1779 6.73541 44.2045 6.81985 44.2312 6.9043C44.4779 7.67318 44.7557 8.42874 45.1334 9.14652C46.1334 11.0465 47.6268 12.6887 49.4623 13.811C49.7201 13.9665 49.9979 14.1221 50.2712 14.2332C50.8223 13.7532 51.4001 13.2999 52.0112 12.8954C53.0779 12.191 54.2001 11.5999 55.4357 11.2443C56.229 11.0154 57.0379 10.9065 57.8668 10.9643C58.1134 10.9799 58.2868 11.1176 58.4623 11.2643C58.5112 11.3043 58.5534 11.3243 58.6179 11.3221C59.049 11.311 59.4556 11.3932 59.7979 11.6776C60.0956 11.9265 60.2268 12.2621 60.2734 12.6354C60.3157 12.9865 60.2779 13.3332 60.2068 13.6754V13.6776ZM56.8379 12.5132C56.8157 12.6243 56.7868 12.7199 56.7179 12.7999C56.689 12.8354 56.6623 12.8465 56.6379 12.811C56.589 12.751 56.5668 12.7821 56.529 12.8243C56.4512 12.911 56.3179 12.9332 56.229 12.8843C56.1801 12.8576 56.169 12.831 56.2157 12.7932C56.2601 12.7576 56.2957 12.7154 56.3023 12.6443C56.1534 12.6821 56.0201 12.7421 55.8868 12.7932C55.8223 12.8199 55.8201 12.8576 55.8445 12.9154C55.9001 13.0399 55.9845 13.1287 56.1134 13.1687C56.3512 13.2465 56.5623 13.1932 56.7379 13.0176C56.8801 12.8776 56.9201 12.671 56.8401 12.5132H56.8379ZM56.9045 18.7976C56.8245 18.9776 56.7357 19.1576 56.629 19.3287C55.0757 21.871 52.7623 23.9043 50.5134 25.8154C47.6645 28.2354 44.5934 30.391 41.4157 32.371C43.6912 32.9887 46.129 32.991 48.4534 32.311C48.5045 32.2954 48.5557 32.2776 48.6045 32.2621C48.6957 32.1043 48.789 31.9465 48.8868 31.7932C49.1668 31.3554 49.4779 30.9398 49.8068 30.5332C50.0912 30.1821 50.3845 29.8376 50.7023 29.5154C50.7579 29.4599 50.8134 29.411 50.8957 29.4199C51.3334 29.4665 51.7645 29.4332 52.2112 29.3754C51.9112 29.6643 51.6023 29.9465 51.3112 30.2443C51.0112 30.5576 50.7201 30.8776 50.4445 31.211C50.3001 31.3843 50.1601 31.5576 50.0245 31.7354C50.0868 31.7087 50.149 31.6821 50.2134 31.6532C50.749 31.4087 51.2712 31.1243 51.7823 30.7999C52.1512 30.5643 52.5023 30.3154 52.8401 30.0487C53.5512 29.4932 54.189 28.8732 54.7534 28.1999C55.1268 27.7576 55.4645 27.291 55.7712 26.8087C55.7334 26.6887 55.7068 26.5665 55.6823 26.4399C55.1312 26.9754 54.6201 27.5465 54.1445 28.151C53.8645 28.511 53.6068 28.8865 53.389 29.2887C53.3668 29.3265 53.3401 29.3665 53.3179 29.4065C53.2801 29.2021 53.3179 29.0132 53.3668 28.8287C53.6868 27.6621 54.3134 26.6843 55.1934 25.8643C55.2801 25.7843 55.349 25.7732 55.4512 25.831C55.5045 25.8621 55.5601 25.8843 55.6157 25.9043C55.5779 25.1443 55.7868 24.4287 56.149 23.7399C56.4579 23.1554 56.8823 22.631 57.2601 22.0954C57.4045 21.8932 57.5423 21.6887 57.6823 21.4843C57.7423 21.3932 57.8068 21.3021 57.869 21.2132C57.8868 21.1865 57.9068 21.1599 57.9245 21.1332C58.189 20.7532 58.4534 20.2843 58.3623 19.8021C58.2979 19.471 58.0623 19.191 57.7668 19.0221C57.7623 19.0221 57.7601 19.0176 57.7579 19.0176C57.7423 19.0087 57.7223 18.9999 57.7068 18.991C57.4601 18.8665 57.1823 18.8132 56.9068 18.7999L56.9045 18.7976Z" fill="#F8FAFC"/>
<path d="M72.7379 17.6154L72.0913 20.2465C71.8224 20.1531 71.5113 20.0642 71.1601 19.9842C70.809 19.9042 70.4446 19.8354 70.0668 19.782C69.689 19.7287 69.3113 19.6887 68.9335 19.6598C68.5557 19.6331 68.1913 19.6198 67.8401 19.6198C67.0446 19.6198 66.4379 19.7287 66.0179 19.9442C65.6001 20.1598 65.3913 20.4976 65.3913 20.9554C65.3913 21.1976 65.4579 21.4109 65.5935 21.5931C65.729 21.7754 65.9446 21.9398 66.2401 22.0887C66.5357 22.2376 66.9201 22.3865 67.3935 22.5331C67.8646 22.682 68.4313 22.8442 69.0935 23.0198C69.809 23.1954 70.4313 23.4087 70.9646 23.6576C71.4979 23.9065 71.9424 24.1976 72.3001 24.5287C72.6579 24.8598 72.9268 25.2442 73.109 25.682C73.2913 26.1198 73.3824 26.6309 73.3824 27.2109C73.3824 28.1287 73.1401 28.9042 72.6535 29.5376C72.1668 30.1709 71.4535 30.6531 70.509 30.9842C69.5646 31.3154 68.4046 31.4798 67.029 31.4798C66.5713 31.4798 66.0979 31.4598 65.6113 31.4198C65.1268 31.3798 64.6357 31.322 64.1446 31.2487C63.6513 31.1754 63.1757 31.0798 62.7179 30.9642C62.2601 30.8487 61.8268 30.7176 61.4224 30.5687L62.069 27.9576C62.4735 28.0931 62.8913 28.2131 63.3246 28.322C63.7557 28.4309 64.1957 28.522 64.6401 28.5954C65.0846 28.6687 65.5268 28.7265 65.9646 28.7665C66.4024 28.8065 66.8179 28.8265 67.209 28.8265C67.8157 28.8265 68.3113 28.7754 68.6957 28.6754C69.0801 28.5754 69.3624 28.422 69.5468 28.2198C69.729 28.0176 69.8201 27.7687 69.8201 27.4709C69.8201 27.2154 69.729 26.9998 69.5468 26.8242C69.3646 26.6487 69.0913 26.4843 68.7268 26.3287C68.3624 26.1731 67.9068 26.0154 67.3601 25.8531C66.8135 25.6909 66.1824 25.502 65.469 25.2865C64.8624 25.0842 64.3335 24.8554 63.8801 24.5976C63.429 24.342 63.0468 24.0487 62.7357 23.7176C62.4246 23.3865 62.1935 23.0065 62.0379 22.5754C61.8824 22.1442 61.8046 21.6576 61.8046 21.1176C61.8046 20.5109 61.9224 19.9509 62.1579 19.4376C62.3935 18.9242 62.7513 18.4798 63.2313 18.102C63.709 17.7242 64.3335 17.4309 65.1024 17.222C65.8713 17.0131 66.7824 16.9087 67.8335 16.9087C68.4535 16.9087 69.0713 16.942 69.6846 17.0087C70.2979 17.0754 70.869 17.1642 71.3935 17.2709C71.9201 17.3798 72.3646 17.4931 72.729 17.6154H72.7379ZM74.3157 28.2598C74.3157 27.5976 74.4401 27.0531 74.6913 26.6198C74.9401 26.1887 75.3246 25.8442 75.8446 25.5865C76.3646 25.3309 77.0224 25.1309 77.8179 24.9887C78.6135 24.8465 79.5579 24.7354 80.6513 24.6554V23.9887C80.6513 23.5842 80.4824 23.2865 80.1446 23.0976C79.8068 22.9087 79.3224 22.8131 78.6868 22.8131C78.4024 22.8131 78.0801 22.8265 77.7157 22.8531C77.3513 22.8798 76.9779 22.9265 76.5935 22.9954C76.209 23.062 75.8135 23.1576 75.409 23.2798L74.8824 20.6887C75.489 20.4998 76.1579 20.3487 76.8868 20.2331C77.6157 20.1176 78.289 20.062 78.9113 20.062C80.0979 20.062 81.0601 20.2065 81.7957 20.4976C82.5313 20.7887 83.0713 21.222 83.4135 21.802C83.7579 22.382 83.929 23.0976 83.929 23.9465V27.7909C83.929 28.1287 83.9801 28.3509 84.0801 28.4576C84.1801 28.5665 84.3001 28.6198 84.4335 28.6198C84.5001 28.6198 84.5779 28.6176 84.6668 28.6109C84.7535 28.6042 84.8313 28.5865 84.9001 28.5598L85.1624 30.9265C84.8913 31.0887 84.5913 31.2198 84.2624 31.322C83.9313 31.422 83.5646 31.4731 83.1601 31.4731C82.5935 31.4731 82.1313 31.3687 81.7735 31.1598C81.4157 30.9509 81.149 30.6309 80.9735 30.1976C80.6224 30.4531 80.269 30.6798 79.9113 30.8754C79.5535 31.0709 79.169 31.2198 78.7579 31.3198C78.3468 31.4198 77.8846 31.4709 77.3713 31.4709C76.9135 31.4709 76.4979 31.3976 76.1268 31.2487C75.7557 31.0998 75.4313 30.8887 75.1557 30.6109C74.8801 30.3354 74.669 29.9998 74.529 29.6087C74.3868 29.2176 74.3157 28.7665 74.3157 28.2531V28.2598ZM77.6557 28.0576C77.6557 28.4887 77.749 28.8065 77.9401 29.0087C78.129 29.2109 78.3779 29.3131 78.689 29.3131C78.9046 29.3131 79.1313 29.2798 79.3668 29.2131C79.6024 29.1465 79.8357 29.0487 80.0646 28.9198C80.2935 28.7909 80.489 28.6465 80.6513 28.4842V26.4198C80.1513 26.4598 79.7157 26.5109 79.3468 26.5709C78.9757 26.6309 78.6624 26.722 78.4068 26.8443C78.1513 26.9665 77.9624 27.1243 77.8401 27.3198C77.7179 27.5154 77.6579 27.762 77.6579 28.0576H77.6557ZM88.4224 31.2754L84.5379 20.2865L88.0801 20.2465L90.4068 28.422L92.6135 20.2465L96.0935 20.2865L92.189 31.2754H88.4246H88.4224ZM100.28 31.2754L96.3957 20.2865L99.9379 20.2465L102.265 28.422L104.471 20.2465L107.951 20.2865L104.047 31.2754H100.282H100.28ZM111.409 35.5043L112.765 31.2754H112.32L108.273 20.2865L111.896 20.2265L114.222 28.6042L116.429 20.2265L119.889 20.2665L114.891 35.5442L111.411 35.5043H111.409ZM125.149 31.4776C124.42 31.4776 123.807 31.3398 123.307 31.062C122.807 30.7865 122.433 30.3531 122.185 29.7665C121.936 29.1798 121.809 28.4131 121.809 27.4687V22.6731H120.231V20.4687L121.809 20.2665L122.193 17.9198H125.107V20.2665H127.878V22.6754H125.107V27.2087C125.107 27.7487 125.205 28.1287 125.4 28.3509C125.596 28.5731 125.902 28.6842 126.32 28.6842C126.549 28.6842 126.793 28.6598 127.049 28.6131C127.305 28.5665 127.582 28.5087 127.878 28.442L128.322 30.9509C127.756 31.1398 127.209 31.2754 126.682 31.3554C126.156 31.4354 125.642 31.4776 125.145 31.4776H125.149ZM134.093 31.4776C133.229 31.4776 132.467 31.3731 131.807 31.1643C131.145 30.9554 130.582 30.6309 130.118 30.1931C129.653 29.7554 129.298 29.1887 129.056 28.4931C128.813 27.7976 128.691 26.9731 128.691 26.0131C128.691 24.9198 128.829 23.9976 129.107 23.2398C129.382 22.4842 129.767 21.8709 130.26 21.3976C130.753 20.9265 131.336 20.5843 132.011 20.3754C132.685 20.1665 133.42 20.062 134.216 20.062C135.836 20.062 137.025 20.4598 137.787 21.2554C138.549 22.0509 138.929 23.3465 138.929 25.1398C138.929 25.2754 138.927 25.4465 138.92 25.6554C138.913 25.8642 138.902 26.0709 138.889 26.2731C138.551 26.2998 138.14 26.3331 137.656 26.3754C137.171 26.4176 136.631 26.4554 136.038 26.4976C135.445 26.5376 134.816 26.5709 134.156 26.5976C133.493 26.6243 132.82 26.6442 132.131 26.6576C132.118 26.6976 132.111 26.7376 132.111 26.7798V26.922C132.111 27.3665 132.202 27.7354 132.385 28.0242C132.567 28.3154 132.847 28.5309 133.225 28.6709C133.602 28.8131 134.096 28.8842 134.702 28.8842C135.08 28.8842 135.478 28.8643 135.896 28.8243C136.313 28.7843 136.738 28.7265 137.171 28.6531C137.602 28.5798 138.033 28.4954 138.467 28.3998L138.851 30.7887C138.378 30.9376 137.893 31.0665 137.393 31.1731C136.893 31.2798 136.376 31.3576 135.836 31.4065C135.296 31.4531 134.716 31.4776 134.096 31.4776H134.093ZM132.151 24.6976C132.502 24.6976 132.853 24.6909 133.205 24.6776C133.556 24.6643 133.885 24.6465 134.196 24.6265C134.507 24.6065 134.782 24.5887 135.025 24.5754C135.267 24.562 135.469 24.5554 135.631 24.5554C135.618 24.0154 135.551 23.5865 135.429 23.2709C135.307 22.9554 135.131 22.7287 134.902 22.5931C134.673 22.4576 134.382 22.3909 134.031 22.3909C133.789 22.3909 133.567 22.4242 133.365 22.4909C133.162 22.5576 132.976 22.6776 132.809 22.8443C132.642 23.0109 132.498 23.2487 132.385 23.5531C132.269 23.8576 132.193 24.2376 132.151 24.6976ZM139.942 25.9309C139.942 24.622 140.162 23.5376 140.6 22.6731C141.038 21.8109 141.682 21.1598 142.533 20.7198C143.385 20.282 144.429 20.062 145.669 20.062C146.1 20.062 146.536 20.0798 146.973 20.1131C147.411 20.1465 147.833 20.1931 148.238 20.2554C148.642 20.3154 149.007 20.3931 149.331 20.4887L148.865 23.2398C148.54 23.1731 148.218 23.1176 147.893 23.0776C147.569 23.0376 147.253 23.0042 146.942 22.9776C146.631 22.9509 146.329 22.9376 146.031 22.9376C145.451 22.9376 144.962 23.042 144.565 23.2509C144.167 23.4598 143.869 23.7776 143.673 24.202C143.478 24.6265 143.38 25.1709 143.38 25.8309C143.38 26.4909 143.485 26.9887 143.693 27.3998C143.902 27.8109 144.213 28.122 144.625 28.3309C145.036 28.5398 145.525 28.6442 146.091 28.6442C146.416 28.6442 146.736 28.6309 147.053 28.6042C147.369 28.5776 147.691 28.5376 148.016 28.482C148.34 28.4287 148.676 28.3665 149.027 28.2998L149.533 30.9309C148.953 31.0931 148.291 31.2242 147.549 31.3265C146.807 31.4265 146.078 31.4776 145.365 31.4776C143.556 31.4776 142.2 31.022 141.298 30.1109C140.393 29.1998 139.942 27.8087 139.942 25.9331V25.9309ZM150.829 31.2731V16.2998H154.147V21.1354C154.525 20.8931 154.891 20.6931 155.249 20.5376C155.607 20.382 155.971 20.2642 156.342 20.1842C156.713 20.1042 157.093 20.062 157.485 20.062C158.187 20.062 158.773 20.1865 159.245 20.4354C159.716 20.6865 160.078 21.0487 160.327 21.5287C160.576 22.0087 160.7 22.5909 160.7 23.2798V31.2731H157.362V24.3109C157.362 23.7976 157.251 23.4287 157.029 23.1976C156.807 22.9687 156.487 22.8531 156.067 22.8531C155.851 22.8531 155.638 22.8776 155.429 22.9243C155.22 22.9709 155.011 23.0331 154.802 23.1065C154.593 23.1798 154.373 23.2709 154.145 23.3798V31.2709H150.827L150.829 31.2731Z" fill="#F8FAFC"/>
<path d="M130.896 39.9152V33.9863H132.336V38.6619H134.995V39.9152H130.896Z" fill="#F8FAFC"/>
<path d="M136.453 34.8154C136.171 34.8154 135.964 34.7598 135.831 34.6465C135.698 34.5332 135.631 34.3576 135.631 34.122C135.631 33.8865 135.698 33.7109 135.831 33.5976C135.964 33.4843 136.171 33.4287 136.453 33.4287C136.735 33.4287 136.942 33.4843 137.071 33.5976C137.2 33.7109 137.266 33.8865 137.266 34.122C137.266 34.3576 137.202 34.5354 137.075 34.6465C136.949 34.7598 136.74 34.8154 136.453 34.8154ZM135.758 39.9154V35.3087H137.138V39.9154H135.758Z" fill="#F8FAFC"/>
<path d="M138.129 39.9155V35.3088H139.382V35.7066C139.551 35.5933 139.716 35.5044 139.873 35.4355C140.031 35.3688 140.189 35.3177 140.344 35.2822C140.5 35.2488 140.656 35.2311 140.813 35.2311C140.993 35.2311 141.149 35.2511 141.28 35.2911C141.411 35.3311 141.522 35.3888 141.618 35.4644C141.713 35.5399 141.793 35.6355 141.856 35.7488C142.049 35.6311 142.227 35.5333 142.393 35.4555C142.56 35.3799 142.727 35.3222 142.893 35.2822C143.06 35.2422 143.238 35.2222 143.422 35.2222C143.591 35.2222 143.742 35.2444 143.876 35.2866C144.009 35.3288 144.124 35.3888 144.222 35.4688C144.322 35.5488 144.404 35.6422 144.473 35.7488C144.54 35.8555 144.591 35.9777 144.622 36.1133C144.653 36.2488 144.669 36.3933 144.669 36.5444V39.9155H143.28V37.0022C143.28 36.9177 143.271 36.8377 143.256 36.7599C143.24 36.6844 143.211 36.6199 143.176 36.5644C143.138 36.5111 143.089 36.4688 143.022 36.4422C142.956 36.4155 142.878 36.3999 142.78 36.3999C142.696 36.3999 142.611 36.4088 142.531 36.4288C142.449 36.4488 142.371 36.4733 142.293 36.5044C142.216 36.5355 142.142 36.5711 142.069 36.6111C142.08 36.6555 142.087 36.7022 142.089 36.7511C142.091 36.7999 142.093 36.8466 142.093 36.8911V39.9155H140.704V37.0022C140.704 36.9222 140.696 36.8444 140.68 36.7688C140.662 36.6933 140.636 36.6288 140.596 36.5733C140.556 36.5199 140.504 36.4777 140.438 36.4466C140.371 36.4155 140.291 36.3999 140.196 36.3999C140.122 36.3999 140.047 36.4088 139.971 36.4288C139.896 36.4488 139.82 36.4733 139.747 36.5044C139.673 36.5355 139.598 36.5711 139.518 36.6111V39.9155H138.129Z" fill="#F8FAFC"/>
<path d="M146.344 34.8154C146.062 34.8154 145.855 34.7598 145.722 34.6465C145.589 34.5332 145.522 34.3576 145.522 34.122C145.522 33.8865 145.589 33.7109 145.722 33.5976C145.855 33.4843 146.062 33.4287 146.344 33.4287C146.626 33.4287 146.833 33.4843 146.962 33.5976C147.091 33.7109 147.158 33.8865 147.158 34.122C147.158 34.3576 147.093 34.5354 146.966 34.6465C146.84 34.7598 146.631 34.8154 146.344 34.8154ZM145.649 39.9154V35.3087H147.029V39.9154H145.649Z" fill="#F8FAFC"/>
<path d="M149.742 39.9998C149.438 39.9998 149.18 39.942 148.971 39.8264C148.762 39.7109 148.605 39.5309 148.502 39.2842C148.398 39.0376 148.345 38.7176 148.345 38.322V36.3153H147.685V35.3909L148.345 35.3064L148.505 34.3242H149.725V35.3064H150.885V36.3153H149.725V38.2131C149.725 38.4398 149.765 38.5976 149.847 38.6909C149.929 38.7842 150.058 38.8309 150.231 38.8309C150.327 38.8309 150.429 38.822 150.536 38.802C150.642 38.782 150.758 38.7575 150.882 38.7309L151.069 39.782C150.831 39.862 150.602 39.9176 150.382 39.9509C150.162 39.9842 149.947 40.002 149.738 40.002L149.742 39.9998Z" fill="#F8FAFC"/>
<path d="M153.698 39.9999C153.336 39.9999 153.018 39.9555 152.74 39.8688C152.462 39.7822 152.227 39.6466 152.033 39.4622C151.838 39.2799 151.691 39.0422 151.589 38.7511C151.487 38.4599 151.436 38.1155 151.436 37.7133C151.436 37.2555 151.493 36.8688 151.609 36.5533C151.724 36.2377 151.884 35.9799 152.091 35.7822C152.298 35.5844 152.542 35.4422 152.824 35.3533C153.107 35.2666 153.416 35.2222 153.747 35.2222C154.424 35.2222 154.922 35.3888 155.242 35.7222C155.562 36.0555 155.72 36.5977 155.72 37.3488C155.72 37.4044 155.72 37.4777 155.716 37.5644C155.713 37.6511 155.709 37.7377 155.702 37.8222C155.56 37.8333 155.389 37.8466 155.184 37.8644C154.98 37.8822 154.756 37.8977 154.507 37.9155C154.258 37.9333 153.996 37.9466 153.718 37.9577C153.442 37.9688 153.16 37.9777 152.871 37.9822C152.867 37.9999 152.862 38.0155 152.862 38.0333V38.0933C152.862 38.2799 152.9 38.4333 152.976 38.5555C153.051 38.6777 153.169 38.7666 153.327 38.8266C153.484 38.8866 153.691 38.9155 153.944 38.9155C154.102 38.9155 154.269 38.9066 154.444 38.8911C154.62 38.8755 154.798 38.8511 154.978 38.8199C155.158 38.7888 155.34 38.7533 155.52 38.7133L155.68 39.7133C155.482 39.7755 155.28 39.8288 155.071 39.8733C154.862 39.9177 154.644 39.9511 154.42 39.9711C154.193 39.9911 153.951 39.9999 153.691 39.9999H153.698ZM152.884 37.1622C153.031 37.1622 153.178 37.1599 153.324 37.1533C153.471 37.1488 153.609 37.1399 153.74 37.1311C153.869 37.1222 153.984 37.1155 154.087 37.1088C154.189 37.1044 154.273 37.0999 154.34 37.0999C154.336 36.8733 154.307 36.6955 154.256 36.5622C154.204 36.4288 154.131 36.3355 154.036 36.2777C153.94 36.2222 153.818 36.1933 153.671 36.1933C153.569 36.1933 153.476 36.2066 153.391 36.2355C153.307 36.2644 153.229 36.3133 153.158 36.3844C153.087 36.4555 153.027 36.5533 152.98 36.6799C152.931 36.8066 152.9 36.9666 152.882 37.1577L152.884 37.1622Z" fill="#F8FAFC"/>
<path d="M159.482 39.9245L159.322 39.5778C159.096 39.7178 158.871 39.8245 158.645 39.8956C158.418 39.9667 158.182 40.0023 157.933 40.0023C157.431 40.0023 157.042 39.8045 156.769 39.4089C156.496 39.0134 156.358 38.4423 156.358 37.6978C156.358 37.1378 156.438 36.6778 156.6 36.3134C156.762 35.9489 157.005 35.6756 157.333 35.4956C157.66 35.3156 158.076 35.2245 158.578 35.2245C158.691 35.2245 158.811 35.2289 158.938 35.2378C159.065 35.2467 159.189 35.2623 159.307 35.2845V33.6489H160.705V39.9245H159.485H159.482ZM159.305 38.6111V36.3245C159.191 36.2911 159.082 36.2667 158.978 36.2534C158.873 36.24 158.771 36.2311 158.669 36.2311C158.471 36.2311 158.307 36.2734 158.178 36.3578C158.049 36.4423 157.951 36.58 157.891 36.7734C157.829 36.9645 157.798 37.2289 157.798 37.56C157.798 37.8645 157.825 38.1111 157.878 38.3023C157.931 38.4911 158.009 38.6289 158.111 38.7178C158.213 38.8067 158.338 38.8489 158.485 38.8489C158.569 38.8489 158.656 38.84 158.742 38.8245C158.829 38.8067 158.92 38.78 159.013 38.7445C159.107 38.7067 159.205 38.6645 159.307 38.6134L159.305 38.6111Z" fill="#F8FAFC"/>
</g>
<defs>
<clipPath id="clip0_1169_5779">
<rect width="160.702" height="40" fill="white"/>
</clipPath>
</defs>
</svg>
