<svg width="225" height="56" viewBox="0 0 225 56" fill="none" xmlns="http://www.w3.org/2000/svg">
<g clip-path="url(#clip0_1169_5768)">
<path d="M70.3733 36.7952C71.2693 35.7685 72.2773 34.8694 73.5466 34.269C72.7377 35.3921 71.5368 36.0734 70.3733 36.7952ZM74.4831 36.089C71.5057 37.1965 68.5035 40.6063 68.5471 42.9708C70.1493 40.3792 73.0177 38.6059 74.4831 36.089ZM70.7342 38.2512C71.5275 37.1312 72.8653 36.4188 73.5964 35.3299C72.2275 35.7436 70.7839 37.1872 70.7342 38.2512ZM73.9511 38.5063C74.8377 37.0379 76.4462 36.0205 77.2582 34.5956C75.5875 35.2365 73.9137 37.1748 73.9511 38.5063ZM78.2288 31.7179C78.3782 31.6992 78.5119 31.637 78.6426 31.5623C79.1684 31.2605 79.5635 30.8188 79.9275 30.3396C80.3195 29.8201 80.6524 29.2694 80.8266 28.6316C80.8453 28.5601 80.8951 28.473 80.8204 28.4108C80.7582 28.3548 80.6866 28.4108 80.6213 28.4356C79.1902 28.9956 78.4839 30.1499 78.1106 31.581C78.0857 31.6805 78.1168 31.7334 78.2257 31.721L78.2288 31.7179ZM74.8844 34.801C74.9684 34.7636 75.0462 34.7045 75.1271 34.6579C76.2875 33.9112 77.0186 32.8534 77.3671 31.525C77.3888 31.4379 77.4542 31.3352 77.3826 31.2543C77.3017 31.1641 77.2022 31.2419 77.1244 31.2761C75.6933 31.917 74.7475 32.9468 74.5266 34.549C74.5111 34.6641 74.4831 34.7979 74.5764 34.8756C74.6884 34.969 74.7879 34.8414 74.8844 34.7979V34.801ZM73.4844 39.0943C73.3755 39.0072 73.2759 38.9139 73.1982 38.805C73.1204 38.6992 73.0426 38.6961 72.8746 38.8765C72.6133 39.1596 72.3426 39.4396 72.0719 39.7196C71.9444 39.8503 71.9102 39.953 71.9599 40.0432C72.0159 40.1459 72.0595 40.2579 72.0906 40.3263C72.2752 40.6789 72.6039 40.6281 73.0768 40.1739C73.1453 40.1085 73.2168 40.0401 73.2853 39.9748C73.8671 39.393 73.8639 39.393 73.4844 39.0943ZM61.8146 37.8281C59.7955 38.0334 58.5479 39.7788 56.6533 40.0525C56.8213 40.3823 57.2319 40.3201 57.5399 40.5285C57.0919 40.7992 56.6408 40.7308 56.2333 40.8396C55.8071 40.9548 55.4399 40.681 54.9671 40.4601C55.2439 41.297 55.8382 41.465 56.4542 41.5148C57.1231 41.5676 57.8044 41.4681 58.4702 41.549C60.1875 41.7543 61.6902 41.0045 62.5115 39.4116C61.9857 39.6512 61.5128 39.869 61.0399 40.0836C61.0151 40.037 60.9902 39.9903 60.9653 39.9436C61.2173 39.6388 61.4662 39.3339 61.8644 38.8548C60.7382 39.3494 59.8919 39.981 58.8684 40.1676C59.9106 39.4925 60.9217 38.7988 61.8177 37.8281H61.8146ZM61.3479 36.369C59.7022 37.2805 58.1497 38.3072 56.4915 39.1628C59.5186 38.6774 61.0088 37.797 61.3479 36.369ZM62.6484 25.2965C63.6844 23.8934 65.8186 23.6134 66.4968 21.5321C64.9786 22.7516 63.0559 23.2463 62.6484 25.2965ZM59.8764 32.1099C61.3946 31.7303 62.3995 31.0428 62.8693 30.1032C61.7368 30.5512 60.7848 31.1392 59.8764 32.1099ZM27.2066 10.0894C27.7106 9.89342 28.2644 9.79075 28.8679 9.34275C28.2613 9.22764 27.8288 9.1592 27.4057 9.06275C26.2857 8.81386 25.2311 8.4032 24.3848 7.60364C24.0426 7.28008 23.7377 7.42631 23.4111 7.53831C20.5768 8.51831 17.7239 9.43297 14.8306 10.217C11.5951 11.0943 8.34395 11.9094 5.01195 12.3356C3.49372 12.5285 1.96928 12.6561 0.438613 12.4352C0.295502 12.4134 0.105724 12.3045 0.0217238 12.4943C-0.0529428 12.6623 0.12439 12.7619 0.233279 12.8676C1.56172 14.1836 3.2355 14.7188 5.03061 14.9428C7.79639 15.2912 10.5248 14.949 13.2315 14.3983C18.0319 13.4214 22.6582 11.8659 27.2128 10.0894H27.2066ZM29.0422 14.2365C29.2693 14.1276 29.4871 14.0125 29.5493 13.7481C29.8791 12.3605 30.4515 11.0756 31.1142 9.7752C29.8915 10.3912 28.6844 11.0414 27.4431 11.617C22.4591 13.9285 17.2479 15.5121 11.8346 16.4299C10.6555 16.629 9.45772 16.741 8.27239 16.8996C8.11372 16.9214 7.85861 16.8343 7.83372 17.0739C7.81195 17.2916 8.06706 17.3165 8.2195 17.3756C10.1702 18.169 12.2111 18.3681 14.2955 18.2779C17.9728 18.1192 21.4759 17.161 24.9168 15.9228C26.3168 15.4188 27.6982 14.8743 29.0422 14.2334V14.2365ZM36.3533 14.9956C36.4435 13.8228 36.7359 12.6841 37.1839 11.4801C30.4484 15.8948 23.3146 18.9374 15.4186 20.0916C15.5275 20.3685 15.8075 20.4059 16.0439 20.4992C18.6791 21.5196 21.3639 21.3392 24.0457 20.7792C28.2675 19.8956 32.1191 18.1068 35.7964 15.8948C36.1479 15.6832 36.3222 15.4281 36.3533 14.9956ZM42.5413 16.4859C42.2208 15.5401 42.2799 14.5632 42.4448 13.5894C42.4697 13.4463 42.5848 13.269 42.4106 13.1663C42.2395 13.0668 42.1306 13.2441 42.0124 13.3312C38.4471 15.9912 34.6515 18.2779 30.6817 20.2752C28.7777 21.2303 26.8177 22.0641 24.7706 22.6832C24.5653 22.7454 24.3662 22.8232 24.1639 22.8916C25.0631 23.2743 25.9653 23.293 26.8675 23.2401C32.5204 22.9103 37.5822 20.9596 42.1555 17.6619C42.6035 17.3383 42.7248 17.021 42.5444 16.489L42.5413 16.4859ZM55.3342 19.4725C55.2284 19.3979 55.1693 19.5192 55.1039 19.5752C53.0724 21.2988 50.8915 22.7548 48.5986 24.0054C47.4973 24.6059 46.3617 25.1161 45.1671 25.4801C45.0488 25.5174 44.9306 25.5641 44.8124 25.6045C45.3568 25.897 45.8951 25.9374 46.4271 25.9281C49.7684 25.8752 52.7115 24.6899 55.3217 22.5588C55.5768 22.3503 55.6391 22.1356 55.5146 21.7623C55.2968 21.1028 55.2999 20.4308 55.3684 19.765C55.3777 19.6685 55.4431 19.5503 55.3342 19.4725ZM55.3622 25.8752C57.1199 24.9636 59.0084 24.245 61.0617 23.7783C61.1302 23.7628 61.2453 23.7876 61.2173 23.6725C61.1893 23.5543 61.0742 23.5356 60.9902 23.489C60.4271 23.1716 59.8795 22.8045 59.4128 22.2881C59.1484 21.9956 58.9555 21.921 58.7035 21.9863C56.1306 22.6334 54.2173 24.0303 53.0973 26.3325C52.9199 26.6996 52.7799 27.0948 52.8422 27.633C52.9137 27.5739 52.9884 27.5179 53.0568 27.4556C53.7351 26.8241 54.5191 26.3139 55.3622 25.8752ZM51.4266 30.3552C51.3115 30.6476 51.2306 30.9681 51.3333 31.4285C51.3893 31.385 51.4453 31.3445 51.4982 31.2979C52.0053 30.8281 52.6119 30.4703 53.2746 30.1779C54.6559 29.5712 56.1648 29.1419 57.8355 28.9365C57.8915 28.9303 57.9911 28.9614 57.9568 28.8619C57.9226 28.7623 57.8231 28.7312 57.7515 28.6845C57.2537 28.3641 56.7591 28.0032 56.3235 27.5272C56.0777 27.2565 55.9066 27.1756 55.7013 27.2068C53.6137 27.5148 52.1453 28.5165 51.4266 30.3521V30.3552ZM52.0862 25.4583C52.0302 25.3712 51.9928 25.4676 51.9524 25.505C50.7297 26.6623 49.4355 27.5521 48.0884 28.2303C47.4413 28.557 46.7817 28.7934 46.0942 28.8868C46.0257 28.8961 45.9573 28.9148 45.8888 28.9303C46.1782 29.3036 46.4768 29.4436 46.7755 29.5432C48.6484 30.1592 50.3564 29.6676 51.9244 28.2552C52.0768 28.1183 52.1235 27.9348 52.0737 27.5739C51.9835 26.933 52.0208 26.3232 52.0924 25.7352C52.1017 25.6481 52.1453 25.5548 52.0893 25.4645L52.0862 25.4583ZM49.8742 35.1245C50.3813 34.6548 50.9879 34.297 51.6506 34.0045C53.0319 33.3979 54.5408 32.9685 56.2115 32.7632C56.2675 32.757 56.3671 32.7881 56.3328 32.6885C56.2986 32.589 56.1991 32.5579 56.1275 32.5112C55.6297 32.1908 55.1382 31.8299 54.6995 31.3539C54.4537 31.0832 54.2826 31.0023 54.0773 31.0334C51.9897 31.3414 50.5213 32.3432 49.8026 34.1788C49.6875 34.4712 49.6066 34.7916 49.7093 35.2521C49.7653 35.2085 49.8213 35.1681 49.8742 35.1214V35.1245ZM42.3017 20.717C42.1275 20.2036 42.1617 19.6748 42.2488 19.1459C42.2613 19.0681 42.3235 18.9716 42.2302 18.9156C42.1368 18.8628 42.0777 18.9592 42.0155 19.0059C40.0835 20.4463 38.0271 21.6876 35.8773 22.7672C34.8444 23.2868 33.7835 23.7348 32.6759 24.0708C32.5639 24.105 32.4551 24.1454 32.3462 24.1828C32.8315 24.3912 33.3231 24.4005 33.8115 24.3725C36.8728 24.1952 39.6168 23.1374 42.0933 21.3516C42.3359 21.1774 42.4013 21.0063 42.3048 20.717H42.3017ZM29.7017 7.93964C30.8622 7.93964 31.9977 7.75297 33.1831 7.4512C33.6839 7.41075 34.1786 7.17742 34.6608 6.88808C36.1168 6.01697 37.7066 5.45697 39.3119 4.93742C39.4893 4.87831 39.7662 4.90942 39.7942 4.66364C39.8222 4.4272 39.5422 4.39297 39.3959 4.26853C39.3119 4.19697 39.1875 4.16897 39.1191 4.08808C38.2822 3.10186 37.3364 3.34453 36.2537 3.6712C33.4039 4.52364 30.5168 5.24231 27.5084 5.23297C26.4413 5.22986 25.3835 5.14897 24.3506 4.8472C24.1919 4.80053 23.9897 4.64497 23.8559 4.81608C23.6973 5.02453 23.9306 5.18008 24.0333 5.33253C25.3959 7.33608 27.4088 7.93653 29.6955 7.93964H29.7017ZM51.0408 4.61075C50.7888 4.44586 50.5679 4.66986 50.3782 4.7912C48.6391 5.88008 47.2857 7.37653 46.0911 9.01608C44.9866 10.5281 44.0191 12.1179 43.5897 13.9721C43.4839 14.4294 43.4217 14.8899 43.4995 15.3596C43.5524 15.7019 43.7391 15.7548 44.0159 15.5868C47.9422 13.2005 50.7577 10.0521 51.1528 5.23297C51.1715 5.02142 51.2648 4.75697 51.0471 4.61386L51.0408 4.61075ZM46.9342 5.33564C46.4582 5.44142 45.9884 5.56586 45.3506 5.72453C42.0591 6.90364 39.3431 8.93831 37.9991 12.4881C37.8653 12.8396 37.7564 13.2068 37.7097 13.577C37.6724 13.8632 37.4453 14.2365 37.7502 14.4419C38.0022 14.613 38.2915 14.3454 38.5466 14.2303C39.7008 13.6952 40.7306 12.961 41.6826 12.1303C43.7142 10.3601 45.4657 8.33475 46.9777 6.1072C47.0648 5.97964 47.1426 5.84275 47.2111 5.70275C47.3479 5.41653 47.2702 5.26097 46.9373 5.33564H46.9342ZM53.8035 4.81608C52.0022 6.56764 51.3115 8.80764 51.0408 11.2188C51.0066 11.533 50.9786 11.8472 50.9662 12.1645C50.9382 12.7494 50.9444 13.3436 51.0066 13.9565C51.0377 14.2956 51.0875 14.6441 51.1528 14.9988C51.2959 15.4934 51.6226 15.117 51.8404 14.9396C52.9262 14.0561 53.7693 12.9828 54.3417 11.7134C54.3791 11.6294 54.4164 11.5454 54.4506 11.4614C54.6031 11.0912 54.7337 10.7241 54.8395 10.3539C55.3466 8.5992 55.3217 6.82586 54.6839 5.03386C54.4319 4.32142 54.3324 4.30275 53.8035 4.81608ZM41.1724 5.64675C40.4257 5.74942 39.6822 5.88631 38.9604 6.1352C35.9426 7.09653 33.3293 8.62408 31.6555 11.4396C31.3724 11.9188 31.1266 12.4134 30.9742 12.9516C30.9337 13.0916 30.8186 13.2596 30.9742 13.3841C31.1173 13.4992 31.2697 13.3779 31.4066 13.3188C32.5079 12.8396 33.5471 12.2454 34.5675 11.6201C37.0688 10.0894 39.4862 8.44675 41.5333 6.31875C41.7231 6.12275 42.1151 5.92364 41.9626 5.64675C41.8164 5.3792 41.4399 5.60942 41.1693 5.64675H41.1724ZM49.6875 12.1365C48.7604 13.2316 47.8115 14.221 46.7288 15.0703C46.1159 15.5494 45.4968 16.0223 44.8186 16.4019C44.5044 16.5792 44.3208 16.8156 44.2026 17.1454C43.8137 18.2561 43.4124 19.3605 43.0173 20.4681C42.9613 20.6299 42.8213 20.801 42.9582 20.9659C43.0111 21.0281 43.0671 21.0561 43.1231 21.0561C43.2288 21.0654 43.3408 20.997 43.4435 20.9565C44.5791 20.5303 45.6524 20.0045 46.6604 19.3761C47.7088 18.7228 48.6857 17.9605 49.5911 17.0801C50.0328 16.6508 50.1884 16.1934 50.0515 15.5868C50.0048 15.369 49.9675 15.1481 49.9395 14.9272C49.8586 14.2552 49.8617 13.5739 49.8399 12.8956V12.8708C49.8337 12.653 49.8897 12.4259 49.6813 12.1365H49.6875ZM58.2897 9.51697C58.1342 8.81386 57.8977 8.10764 57.5897 7.39208C57.5182 7.2272 57.4746 6.95964 57.2164 6.98764C56.9893 7.01253 56.9426 7.25831 56.8555 7.42942C56.4044 8.28808 56.0622 9.1592 55.8319 10.0459C55.7417 10.3974 55.6702 10.7521 55.6173 11.1068C55.3964 12.5441 55.4742 14.0188 55.8724 15.5308C55.9284 15.7205 55.9688 15.9196 56.0466 16.1001C56.1368 16.3116 56.1088 16.6476 56.4168 16.6632C56.6751 16.6756 56.8244 16.4236 56.9644 16.2214C58.3146 14.2645 58.7284 12.2423 58.4173 10.1672C58.3831 9.94942 58.3426 9.73164 58.2928 9.51386L58.2897 9.51697ZM54.4942 14.5663C54.4039 14.053 54.2204 14.109 53.9311 14.4481C53.1782 15.3348 52.2666 16.041 51.2959 16.6725C51.0875 16.8063 50.9008 16.937 50.8635 17.2201C50.7173 18.3214 50.5959 19.4228 50.6177 20.5365C50.6271 20.969 50.7919 21.1183 51.0813 20.969C52.7893 20.2379 54.0711 19.1676 55.1817 17.8672C55.3684 17.6463 55.3528 17.4254 55.2502 17.1859C54.8862 16.3459 54.6528 15.4685 54.4973 14.5663H54.4942ZM61.1519 14.3859C60.9839 13.7263 60.6293 13.1228 60.2062 12.5441C59.9448 12.1894 59.7706 12.2734 59.5777 12.6063C58.6786 14.1432 58.8248 16.7534 59.8919 18.1752C60.2591 18.6668 60.4208 18.6668 60.7475 18.1316C61.4568 16.965 61.5751 15.7236 61.1488 14.389L61.1519 14.3859ZM58.2182 17.2854C58.0968 16.937 57.9662 16.8436 57.6768 17.1392C57.2257 17.5965 56.7653 18.0445 56.2955 18.4832C56.0746 18.6885 56.0124 18.9125 56.0933 19.2019C56.1835 19.5223 56.2488 19.849 56.2955 20.0574C56.5838 21.1484 57.1345 21.3537 57.9475 20.6734C58.0657 20.5739 58.1871 20.4774 58.3022 20.3716C59.3008 19.4756 59.2977 19.4694 58.6817 18.3183C58.5044 17.9885 58.3457 17.6432 58.2213 17.2885L58.2182 17.2854ZM63.6595 18.9156C63.4915 18.2592 63.1368 17.6525 62.7137 17.077C62.4524 16.7192 62.2782 16.8063 62.0853 17.1361C61.1893 18.6761 61.3355 21.2863 62.4026 22.7081C62.7697 23.1996 62.9315 23.1996 63.2582 22.6645C63.9644 21.4979 64.0857 20.2565 63.6595 18.9188V18.9156ZM60.2622 27.4588C60.5391 27.2036 60.8315 26.9641 61.1426 26.7525C61.4475 26.5472 61.5035 26.3979 61.1488 26.1894C60.5919 25.869 60.0413 25.5361 59.4968 25.1908C59.2417 25.029 59.0084 25.0259 58.7502 25.1752C58.4639 25.3432 58.1622 25.4894 57.9755 25.589C56.9924 26.1448 56.9333 26.7287 57.7982 27.3405C57.9257 27.4308 58.0502 27.5241 58.1808 27.6081C59.3008 28.3485 59.3071 28.3423 60.2622 27.4556V27.4588ZM59.4097 30.5325C58.8528 30.2121 58.3022 29.8792 57.7577 29.5339C57.5026 29.3721 57.2693 29.369 57.0111 29.5183C56.7248 29.6863 56.4231 29.8325 56.2364 29.9321C55.2533 30.4879 55.1942 31.0718 56.0591 31.6836C56.1866 31.7739 56.3111 31.8672 56.4417 31.9512C57.5617 32.6916 57.5679 32.6854 58.5231 31.7988C58.7999 31.5436 59.0924 31.3041 59.4035 31.0925C59.7084 30.8872 59.7644 30.7379 59.4097 30.5294V30.5325ZM84.2893 19.149C84.2799 19.1988 84.283 19.2828 84.1897 19.2019C83.3342 18.4676 82.5657 19.2423 82.0057 19.8956C80.4657 21.6876 80.5715 23.9836 79.7875 26.0183C80.2573 25.9374 80.7302 25.9188 81.1844 25.9965C81.5951 26.065 81.9995 26.2454 82.2733 26.5628C82.6622 27.0139 82.7088 27.6236 82.6373 28.193C82.6311 28.2521 82.6217 28.3143 82.6093 28.3734C82.4288 29.4405 82.0431 30.4548 81.5733 31.4316C81.3679 31.8548 81.1471 32.2748 80.9262 32.6948C80.8048 32.9188 80.6804 33.1428 80.5559 33.3699C79.7408 37.0721 77.8679 40.5441 75.0431 43.2881C74.8191 43.5059 74.5888 43.7205 74.3524 43.929C73.5808 44.6103 72.7502 45.2388 71.8573 45.8081C70.5599 46.6325 69.2035 47.289 67.8097 47.7836C67.3337 47.9548 66.8546 48.101 66.3724 48.2316C62.3062 49.3299 58.0315 49.0748 54.1799 47.6156C52.9262 48.3468 51.6631 49.0623 50.3968 49.7654C51.5946 49.1028 52.7519 48.3188 53.8875 47.5005C50.1573 46.0134 46.8408 43.3908 44.5168 39.7445C41.5831 35.137 40.7897 29.7703 41.8848 24.8299C41.1755 24.9574 40.4506 25.0352 39.7133 25.0725C39.1377 25.1005 38.5559 25.0819 37.9804 24.8236C38.1079 24.777 38.2355 24.7241 38.3662 24.6868C39.6728 24.2916 40.9204 23.7565 42.1368 23.1343C42.2208 23.0908 42.3017 23.0503 42.3826 23.0068C43.5897 22.3814 44.7719 21.7125 45.9199 20.9876C47.0959 20.2503 48.2377 19.457 49.3453 18.6045C49.4199 18.5485 49.4884 18.4303 49.5973 18.4988C49.7093 18.5672 49.6346 18.6854 49.6222 18.7788C49.5226 19.4228 49.4946 20.073 49.7062 20.7045C49.8275 21.0592 49.7528 21.2708 49.4697 21.4792C48.0573 22.5276 46.5733 23.3614 45.0022 23.965C44.0253 28.4761 44.7533 33.3605 47.4288 37.5574C49.7933 41.2721 53.2808 43.8325 57.1666 45.0832C57.2444 45.0272 57.3191 44.9712 57.3968 44.9152C60.4768 42.7001 63.5164 40.4134 66.4439 37.993C69.5924 35.389 83.9937 23.349 74.4457 23.825C74.4177 23.8623 74.4084 23.8654 74.4084 23.8748C71.6488 30.5512 61.5906 34.6392 59.3319 35.1681C61.5657 34.5428 63.2364 32.7943 64.8915 31.2668C66.7053 29.5868 68.3231 27.7014 69.7697 25.6979C71.4466 23.3801 73.0208 20.9659 75.0555 18.9374C75.0773 18.9188 75.1053 18.9063 75.1582 18.8752C74.9995 19.1832 74.8564 19.457 74.7662 19.7525C74.7413 19.8396 74.7506 19.8801 74.8502 19.8708C74.9559 19.8614 75.0648 19.8614 75.1675 19.849C75.9142 19.7619 76.6328 19.5659 77.3546 19.3636C77.4355 19.3419 77.5133 19.3232 77.5911 19.3014C77.5973 19.3108 77.5973 19.3201 77.6035 19.3294C77.2333 19.6125 76.8662 19.8956 76.4991 20.1819C77.2582 20.1912 77.9519 19.9921 78.6208 19.5908C78.3875 20.3374 78.3719 21.0623 78.4217 21.7934C79.2057 20.2659 80.2604 19.0059 81.8346 18.2499C80.6711 18.5796 79.7657 19.2952 78.9444 20.2005C78.9693 19.7836 79.0688 19.4196 79.2057 19.0432C79.1528 19.065 79.1248 19.0805 79.0999 19.093C78.7764 19.2423 78.4435 19.2703 78.0982 19.1801C78.0671 19.1739 78.0235 19.1739 78.0142 19.1365C77.9986 19.0868 78.0546 19.0836 78.0826 19.0556C78.1417 19.0028 78.2008 18.953 78.2817 18.8845C77.9364 18.8348 77.6626 18.7041 77.5071 18.4085C77.4448 18.2934 77.3795 18.2965 77.2768 18.337C76.8817 18.505 76.4928 18.6854 76.1195 18.897C76.0355 18.9436 75.9608 19.0121 75.8271 19.0245C76.6048 18.1814 77.5039 17.5592 78.5648 17.1112C78.4062 17.0583 78.2848 17.0241 78.1635 16.9868C79.1995 16.5263 80.2448 16.2774 81.3897 16.601C80.8515 17.1516 80.3848 17.7116 80.2791 18.4801C80.7115 18.2468 81.1471 18.0383 81.5982 17.8703C81.9124 17.7552 82.2297 17.6619 82.5626 17.6245C82.9639 17.581 83.3404 17.6152 83.6546 17.9543C83.6079 17.5374 83.4804 17.1952 83.2222 16.909C82.8426 16.4828 82.3448 16.3303 81.7973 16.2992C81.7039 16.293 81.6386 16.2681 81.5702 16.1996C81.3991 16.0254 81.1999 15.8885 80.9604 15.789C80.9666 15.873 81.0288 15.9196 81.0226 15.9943C81.0071 15.9943 80.9946 16.0005 80.9822 16.0005C80.3039 15.8823 79.6475 16.0068 79.0004 16.1996C78.0173 16.4952 77.1182 16.965 76.2533 17.5125C75.5595 17.9543 74.8999 18.4396 74.2622 18.9592C71.7577 21.0032 70.0279 23.881 67.4955 25.8472C65.0595 27.7419 62.1879 28.8712 59.1453 29.3036C62.0759 28.8868 64.2786 26.0556 66.1982 24.0614C67.4862 22.7236 68.7711 21.361 70.1617 20.1259C68.3044 19.9983 66.5217 19.1054 65.1311 17.8952C62.6608 15.7392 61.3262 12.7899 59.9884 9.85608C59.9137 9.68808 59.8359 9.51697 59.7613 9.34897C59.3102 8.36897 58.8559 7.39831 58.3519 6.46497C57.2102 4.34631 55.6048 3.03964 53.0351 3.22008C50.8977 3.36942 48.8226 3.82986 46.7351 4.24986C44.5884 4.68231 42.4915 4.60142 40.5035 3.59031C39.7226 3.18897 38.9697 2.73475 38.4751 1.94764C38.7084 1.78586 38.9013 1.89164 39.0879 1.91653C39.8813 2.02853 40.6746 2.08764 41.4773 2.04408C43.9319 1.91964 46.2964 1.29431 48.6857 0.796528C50.3315 0.46364 51.9711 0.0405284 53.6697 8.40037e-05C56.3764 -0.0621382 58.4328 1.02364 59.7208 3.45653C59.7364 3.49075 59.7582 3.52497 59.7737 3.5592C60.7195 5.3792 61.2079 7.36408 61.8115 9.31164C61.8488 9.42986 61.8862 9.54808 61.9235 9.66631C62.2688 10.7428 62.6577 11.8005 63.1866 12.8054C64.5866 15.4654 66.6773 17.7645 69.2471 19.3356C69.6079 19.5534 69.9968 19.7712 70.3795 19.9268C71.1511 19.2548 71.9599 18.6201 72.8155 18.0539C74.3088 17.0676 75.8799 16.2401 77.6097 15.7423C78.7204 15.4219 79.8528 15.2694 81.0133 15.3503C81.3586 15.3721 81.6013 15.565 81.847 15.7703C81.9155 15.8263 81.9746 15.8543 82.0648 15.8512C82.6684 15.8356 83.2377 15.9508 83.7168 16.349C84.1337 16.6974 84.3173 17.1672 84.3826 17.6899C84.4417 18.1814 84.3888 18.6668 84.2893 19.1459V19.149ZM79.5728 17.5188C79.5417 17.6743 79.5013 17.8081 79.4048 17.9201C79.3644 17.9699 79.3271 17.9854 79.2928 17.9356C79.2244 17.8516 79.1933 17.8952 79.1404 17.9543C79.0315 18.0756 78.8448 18.1068 78.7204 18.0383C78.6519 18.001 78.6364 17.9636 78.7017 17.9108C78.7639 17.861 78.8137 17.8019 78.8231 17.7023C78.6146 17.7552 78.4279 17.8392 78.2413 17.9108C78.1511 17.9481 78.1479 18.001 78.1822 18.0819C78.2599 18.2561 78.3782 18.3805 78.5586 18.4365C78.8915 18.5454 79.1871 18.4708 79.4328 18.225C79.6319 18.029 79.6879 17.7396 79.5759 17.5188H79.5728ZM79.6662 26.317C79.5542 26.569 79.4297 26.821 79.2804 27.0605C77.1057 30.6196 73.8671 33.4663 70.7186 36.1419C66.7302 39.5299 62.4306 42.5476 57.9817 45.3196C61.1675 46.1845 64.5804 46.1876 67.8346 45.2356C67.9062 45.2139 67.9777 45.189 68.0462 45.1672C68.1737 44.9463 68.3044 44.7254 68.4413 44.5108C68.8333 43.8979 69.2688 43.3161 69.7293 42.7468C70.1275 42.2552 70.5382 41.773 70.9831 41.3219C71.0608 41.2441 71.1386 41.1756 71.2537 41.1881C71.8666 41.2534 72.4702 41.2068 73.0955 41.1259C72.6755 41.5303 72.2431 41.9254 71.8355 42.3423C71.4155 42.781 71.0079 43.229 70.6222 43.6956C70.4199 43.9383 70.2239 44.181 70.0342 44.4299C70.1213 44.3925 70.2084 44.3552 70.2986 44.3148C71.0484 43.9725 71.7795 43.5743 72.4951 43.1201C73.0115 42.7903 73.5031 42.4419 73.9759 42.0685C74.9715 41.2908 75.8644 40.4228 76.6546 39.4801C77.1773 38.861 77.6502 38.2076 78.0795 37.5325C78.0266 37.3645 77.9893 37.1934 77.9551 37.0161C77.1835 37.7659 76.4679 38.5654 75.8022 39.4116C75.4102 39.9156 75.0493 40.4414 74.7444 41.0045C74.7133 41.0574 74.6759 41.1134 74.6448 41.1694C74.5919 40.8832 74.6448 40.6188 74.7133 40.3605C75.1613 38.7272 76.0386 37.3583 77.2706 36.2103C77.3919 36.0983 77.4884 36.0828 77.6315 36.1636C77.7062 36.2072 77.7839 36.2383 77.8617 36.2663C77.8088 35.2023 78.1013 34.2005 78.6084 33.2361C79.0408 32.4179 79.6351 31.6836 80.1639 30.9339C80.3662 30.6508 80.5591 30.3645 80.7551 30.0783C80.8391 29.9508 80.9293 29.8232 81.0164 29.6988C81.0413 29.6614 81.0693 29.6241 81.0942 29.5868C81.4644 29.0548 81.8346 28.3983 81.7071 27.7232C81.6168 27.2596 81.2871 26.8676 80.8733 26.6312C80.8671 26.6312 80.8639 26.625 80.8608 26.625C80.8391 26.6125 80.8111 26.6001 80.7893 26.5876C80.4439 26.4134 80.055 26.3388 79.6693 26.3201L79.6662 26.317Z" fill="#F8FAFC"/>
<path d="M101.833 24.6616L100.928 28.3452C100.551 28.2145 100.116 28.09 99.6241 27.978C99.1325 27.866 98.6223 27.7696 98.0934 27.6949C97.5645 27.6203 97.0357 27.5643 96.5068 27.5238C95.9779 27.4865 95.4677 27.4678 94.9761 27.4678C93.8623 27.4678 93.013 27.6203 92.425 27.922C91.8401 28.2238 91.5477 28.6967 91.5477 29.3376C91.5477 29.6767 91.641 29.9754 91.8308 30.2305C92.0206 30.4856 92.3223 30.7158 92.7361 30.9243C93.1499 31.1327 93.6881 31.3412 94.3508 31.5465C95.0103 31.7549 95.8037 31.982 96.7308 32.2278C97.7326 32.4736 98.6037 32.7723 99.3503 33.1207C100.097 33.4692 100.719 33.8767 101.22 34.3403C101.721 34.8038 102.097 35.342 102.353 35.9549C102.608 36.5678 102.735 37.2834 102.735 38.0954C102.735 39.3803 102.396 40.466 101.715 41.3527C101.033 42.2394 100.035 42.9145 98.7126 43.378C97.3903 43.8416 95.7663 44.0718 93.8405 44.0718C93.1997 44.0718 92.537 44.0438 91.8557 43.9878C91.1774 43.9318 90.4899 43.8509 89.8023 43.7483C89.1117 43.6456 88.4459 43.5118 87.805 43.35C87.1641 43.1883 86.5574 43.0047 85.9912 42.7963L86.8965 39.1407C87.4628 39.3305 88.0477 39.4985 88.6543 39.6509C89.2579 39.8034 89.8739 39.9309 90.4961 40.0336C91.1183 40.1363 91.7374 40.2172 92.3503 40.2732C92.9632 40.3292 93.545 40.3572 94.0925 40.3572C94.9419 40.3572 95.6357 40.2856 96.1739 40.1456C96.7121 40.0056 97.1072 39.7909 97.3654 39.5078C97.6205 39.2247 97.7481 38.8763 97.7481 38.4594C97.7481 38.1016 97.6205 37.7998 97.3654 37.554C97.1103 37.3083 96.7277 37.078 96.2174 36.8603C95.7072 36.6425 95.0694 36.4216 94.3041 36.1945C93.5388 35.9674 92.6552 35.7029 91.6565 35.4012C90.8072 35.118 90.0668 34.7976 89.4321 34.4367C88.8005 34.0789 88.2654 33.6683 87.8299 33.2047C87.3943 32.7412 87.0708 32.2092 86.853 31.6056C86.6352 31.002 86.5263 30.3207 86.5263 29.5647C86.5263 28.7154 86.6912 27.9314 87.021 27.2127C87.3508 26.494 87.8517 25.8718 88.5237 25.3429C89.1925 24.814 90.0668 24.4034 91.1432 24.1109C92.2197 23.8185 93.4952 23.6723 94.9668 23.6723C95.8348 23.6723 96.6997 23.7189 97.5583 23.8123C98.417 23.9056 99.2165 24.03 99.9508 24.1794C100.688 24.3318 101.31 24.4905 101.821 24.6616H101.833ZM104.042 39.5638C104.042 38.6367 104.216 37.8745 104.568 37.2678C104.916 36.6643 105.454 36.182 106.182 35.8212C106.91 35.4634 107.831 35.1834 108.945 34.9843C110.059 34.7852 111.381 34.6296 112.912 34.5176V33.5843C112.912 33.018 112.675 32.6012 112.202 32.3367C111.729 32.0723 111.051 31.9385 110.161 31.9385C109.763 31.9385 109.312 31.9572 108.802 31.9945C108.292 32.0318 107.769 32.0972 107.231 32.1936C106.693 32.2869 106.139 32.4207 105.573 32.5918L104.835 28.9643C105.685 28.6998 106.621 28.4883 107.641 28.3265C108.662 28.1647 109.605 28.0869 110.476 28.0869C112.137 28.0869 113.484 28.2892 114.514 28.6967C115.544 29.1043 116.3 29.7109 116.779 30.5229C117.261 31.3349 117.501 32.3367 117.501 33.5252V38.9074C117.501 39.3803 117.572 39.6914 117.712 39.8407C117.852 39.9932 118.02 40.0678 118.207 40.0678C118.3 40.0678 118.409 40.0647 118.533 40.0554C118.655 40.046 118.764 40.0212 118.86 39.9838L119.227 43.2972C118.848 43.5243 118.428 43.7078 117.967 43.8509C117.504 43.9909 116.99 44.0625 116.424 44.0625C115.631 44.0625 114.984 43.9163 114.483 43.6238C113.982 43.3314 113.609 42.8834 113.363 42.2767C112.871 42.6345 112.377 42.9518 111.876 43.2256C111.375 43.4994 110.837 43.7078 110.261 43.8478C109.685 43.9878 109.038 44.0594 108.32 44.0594C107.679 44.0594 107.097 43.9567 106.577 43.7483C106.058 43.5398 105.604 43.2443 105.218 42.8554C104.832 42.4696 104.537 41.9998 104.341 41.4523C104.141 40.9047 104.042 40.2732 104.042 39.5545V39.5638ZM108.718 39.2807C108.718 39.8843 108.849 40.3292 109.116 40.6123C109.381 40.8954 109.729 41.0385 110.165 41.0385C110.466 41.0385 110.784 40.9918 111.113 40.8985C111.443 40.8052 111.77 40.6683 112.09 40.4878C112.411 40.3074 112.685 40.1052 112.912 39.878V36.9878C112.212 37.0438 111.602 37.1154 111.085 37.1994C110.566 37.2834 110.127 37.4109 109.769 37.582C109.412 37.7532 109.147 37.974 108.976 38.2478C108.805 38.5216 108.721 38.8669 108.721 39.2807H108.718ZM123.791 43.7856L118.353 28.4012L123.312 28.3452L126.569 39.7909L129.659 28.3452L134.531 28.4012L129.065 43.7856H123.794H123.791ZM140.392 43.7856L134.954 28.4012L139.913 28.3452L143.17 39.7909L146.26 28.3452L151.132 28.4012L145.665 43.7856H140.395H140.392ZM155.973 49.706L157.87 43.7856H157.248L151.583 28.4012L156.654 28.3172L159.911 40.046L163.001 28.3172L167.845 28.3732L160.848 49.762L155.976 49.706H155.973ZM175.209 44.0687C174.188 44.0687 173.329 43.8758 172.629 43.4869C171.929 43.1012 171.407 42.4945 171.058 41.6732C170.71 40.8518 170.533 39.7785 170.533 38.4563V31.7425H168.324V28.6563L170.533 28.3732L171.071 25.0878H175.149V28.3732H179.029V31.7456H175.149V38.0923C175.149 38.8483 175.286 39.3803 175.56 39.6914C175.834 40.0025 176.263 40.158 176.848 40.158C177.169 40.158 177.511 40.1238 177.869 40.0585C178.226 39.9932 178.615 39.9123 179.029 39.8189L179.651 43.3314C178.858 43.5958 178.093 43.7856 177.355 43.8976C176.618 44.0096 175.899 44.0687 175.202 44.0687H175.209ZM187.731 44.0687C186.521 44.0687 185.453 43.9225 184.529 43.63C183.602 43.3376 182.815 42.8834 182.165 42.2705C181.515 41.6576 181.017 40.8643 180.678 39.8905C180.339 38.9167 180.168 37.7625 180.168 36.4185C180.168 34.8878 180.361 33.5967 180.749 32.5358C181.135 31.478 181.673 30.6194 182.364 29.9567C183.055 29.2972 183.87 28.818 184.816 28.5256C185.758 28.2332 186.788 28.0869 187.902 28.0869C190.17 28.0869 191.834 28.6438 192.901 29.7576C193.969 30.8714 194.501 32.6852 194.501 35.1958C194.501 35.3856 194.497 35.6252 194.488 35.9176C194.479 36.21 194.463 36.4994 194.445 36.7825C193.972 36.8198 193.396 36.8665 192.718 36.9256C192.04 36.9847 191.284 37.0376 190.453 37.0967C189.622 37.1527 188.742 37.1994 187.818 37.2367C186.891 37.274 185.948 37.302 184.984 37.3207C184.965 37.3767 184.956 37.4327 184.956 37.4918V37.6909C184.956 38.3132 185.083 38.8296 185.338 39.234C185.593 39.6416 185.985 39.9434 186.514 40.1394C187.043 40.3385 187.734 40.438 188.583 40.438C189.112 40.438 189.669 40.41 190.254 40.354C190.839 40.298 191.433 40.2172 192.04 40.1145C192.643 40.0118 193.247 39.8936 193.853 39.7598L194.392 43.1043C193.729 43.3127 193.051 43.4932 192.351 43.6425C191.651 43.7918 190.926 43.9007 190.17 43.9692C189.414 44.0345 188.602 44.0687 187.734 44.0687H187.731ZM185.012 34.5767C185.503 34.5767 185.995 34.5674 186.486 34.5487C186.978 34.53 187.438 34.5052 187.874 34.4772C188.309 34.4492 188.695 34.4243 189.034 34.4056C189.373 34.3869 189.657 34.3776 189.884 34.3776C189.865 33.6216 189.772 33.0212 189.601 32.5794C189.429 32.1376 189.184 31.8203 188.863 31.6305C188.543 31.4407 188.135 31.3474 187.644 31.3474C187.305 31.3474 186.993 31.394 186.71 31.4874C186.427 31.5807 186.166 31.7487 185.933 31.982C185.699 32.2154 185.497 32.5483 185.338 32.9745C185.177 33.4007 185.071 33.9327 185.012 34.5767ZM195.919 36.3034C195.919 34.4709 196.227 32.9527 196.84 31.7425C197.453 30.5354 198.355 29.6238 199.547 29.0078C200.738 28.3949 202.201 28.0869 203.937 28.0869C204.54 28.0869 205.15 28.1118 205.763 28.1585C206.376 28.2052 206.967 28.2705 207.533 28.3576C208.099 28.4416 208.609 28.5505 209.064 28.6843L208.41 32.5358C207.956 32.4425 207.505 32.3647 207.051 32.3087C206.597 32.2527 206.155 32.206 205.719 32.1687C205.284 32.1314 204.861 32.1127 204.444 32.1127C203.632 32.1127 202.947 32.2589 202.39 32.5514C201.833 32.8438 201.417 33.2887 201.143 33.8829C200.869 34.4772 200.732 35.2394 200.732 36.1634C200.732 37.0874 200.878 37.7843 201.171 38.3598C201.463 38.9354 201.899 39.3709 202.474 39.6634C203.05 39.9558 203.734 40.102 204.528 40.102C204.982 40.102 205.43 40.0834 205.875 40.046C206.317 40.0087 206.768 39.9527 207.222 39.8749C207.676 39.8003 208.146 39.7132 208.637 39.6198L209.347 43.3034C208.535 43.5305 207.608 43.714 206.569 43.8572C205.529 43.9972 204.509 44.0687 203.51 44.0687C200.978 44.0687 199.08 43.4309 197.817 42.1554C196.551 40.8798 195.919 38.9323 195.919 36.3065V36.3034ZM211.161 43.7825V22.8198H215.805V29.5896C216.334 29.2505 216.848 28.9705 217.349 28.7527C217.849 28.5349 218.36 28.37 218.879 28.258C219.399 28.146 219.931 28.0869 220.478 28.0869C221.461 28.0869 222.283 28.2612 222.942 28.6096C223.602 28.9612 224.109 29.4683 224.457 30.1403C224.806 30.8123 224.98 31.6274 224.98 32.5918V43.7825H220.307V34.0354C220.307 33.3167 220.152 32.8003 219.841 32.4767C219.529 32.1563 219.081 31.9945 218.493 31.9945C218.192 31.9945 217.893 32.0287 217.601 32.094C217.308 32.1594 217.016 32.2465 216.723 32.3492C216.431 32.4518 216.123 32.5794 215.802 32.7318V43.7794H211.157L211.161 43.7825Z" fill="#F8FAFC"/>
<path d="M183.254 55.8815V47.5811H185.27V54.1268H188.994V55.8815H183.254Z" fill="#F8FAFC"/>
<path d="M191.035 48.7416C190.64 48.7416 190.35 48.6639 190.164 48.5052C189.977 48.3465 189.884 48.1007 189.884 47.771C189.884 47.4412 189.977 47.1954 190.164 47.0367C190.35 46.8781 190.64 46.8003 191.035 46.8003C191.43 46.8003 191.719 46.8781 191.9 47.0367C192.08 47.1954 192.174 47.4412 192.174 47.771C192.174 48.1007 192.083 48.3496 191.906 48.5052C191.729 48.6639 191.436 48.7416 191.035 48.7416ZM190.061 55.8816V49.4323H191.993V55.8816H190.061Z" fill="#F8FAFC"/>
<path d="M193.38 55.8817V49.4324H195.135V49.9893C195.371 49.8306 195.602 49.7061 195.823 49.6097C196.043 49.5164 196.264 49.4448 196.482 49.395C196.7 49.3484 196.918 49.3235 197.139 49.3235C197.391 49.3235 197.608 49.3515 197.792 49.4075C197.975 49.4635 198.131 49.5444 198.265 49.6501C198.399 49.7559 198.511 49.8897 198.598 50.0484C198.868 49.8835 199.117 49.7466 199.351 49.6377C199.584 49.5319 199.817 49.451 200.051 49.395C200.284 49.339 200.533 49.311 200.791 49.311C201.027 49.311 201.239 49.3421 201.426 49.4013C201.612 49.4604 201.774 49.5444 201.911 49.6564C202.051 49.7684 202.166 49.899 202.263 50.0484C202.356 50.1977 202.427 50.3688 202.471 50.5586C202.515 50.7484 202.536 50.9506 202.536 51.1621V55.8817H200.592V51.803C200.592 51.6848 200.579 51.5728 200.558 51.4639C200.536 51.3581 200.495 51.2679 200.446 51.1901C200.393 51.1155 200.324 51.0564 200.231 51.019C200.138 50.9817 200.029 50.9599 199.892 50.9599C199.774 50.9599 199.655 50.9724 199.543 51.0004C199.428 51.0284 199.319 51.0626 199.211 51.1061C199.102 51.1497 198.999 51.1995 198.896 51.2555C198.912 51.3177 198.921 51.383 198.924 51.4515C198.927 51.5199 198.931 51.5853 198.931 51.6475V55.8817H196.986V51.803C196.986 51.691 196.974 51.5821 196.952 51.4764C196.927 51.3706 196.89 51.2804 196.834 51.2026C196.778 51.1279 196.706 51.0688 196.613 51.0253C196.519 50.9817 196.407 50.9599 196.274 50.9599C196.171 50.9599 196.065 50.9724 195.959 51.0004C195.854 51.0284 195.748 51.0626 195.645 51.1061C195.543 51.1497 195.437 51.1995 195.325 51.2555V55.8817H193.38Z" fill="#F8FAFC"/>
<path d="M204.883 48.7416C204.487 48.7416 204.198 48.6639 204.011 48.5052C203.825 48.3465 203.731 48.1007 203.731 47.771C203.731 47.4412 203.825 47.1954 204.011 47.0367C204.198 46.8781 204.487 46.8003 204.883 46.8003C205.278 46.8003 205.567 46.8781 205.747 47.0367C205.928 47.1954 206.021 47.4412 206.021 47.771C206.021 48.1007 205.931 48.3496 205.754 48.5052C205.576 48.6639 205.284 48.7416 204.883 48.7416ZM203.909 55.8816V49.4323H205.841V55.8816H203.909Z" fill="#F8FAFC"/>
<path d="M209.639 56C209.213 56 208.852 55.9191 208.56 55.7573C208.267 55.5955 208.046 55.3435 207.903 54.9982C207.757 54.6529 207.682 54.2049 207.682 53.6511V50.8418H206.758V49.5475L207.682 49.4293L207.906 48.0542H209.614V49.4293H211.238V50.8418H209.614V53.4986C209.614 53.816 209.67 54.0369 209.785 54.1675C209.901 54.2982 210.081 54.3635 210.324 54.3635C210.457 54.3635 210.601 54.3511 210.75 54.3231C210.899 54.2951 211.061 54.2609 211.235 54.2235L211.497 55.6951C211.164 55.8071 210.843 55.8849 210.535 55.9315C210.227 55.9782 209.925 56.0031 209.633 56.0031L209.639 56Z" fill="#F8FAFC"/>
<path d="M215.177 55.9999C214.67 55.9999 214.225 55.9377 213.836 55.8164C213.447 55.695 213.117 55.5053 212.847 55.247C212.573 54.9919 212.368 54.659 212.224 54.2515C212.081 53.8439 212.01 53.3617 212.01 52.7986C212.01 52.1577 212.091 51.6164 212.252 51.1746C212.414 50.7328 212.638 50.3719 212.928 50.095C213.217 49.8181 213.559 49.619 213.954 49.4946C214.349 49.3733 214.782 49.311 215.245 49.311C216.194 49.311 216.891 49.5444 217.339 50.011C217.787 50.4777 218.008 51.2368 218.008 52.2884C218.008 52.3661 218.008 52.4688 218.002 52.5901C217.999 52.7115 217.992 52.8328 217.983 52.951C217.784 52.9666 217.544 52.9853 217.258 53.0101C216.972 53.035 216.658 53.0568 216.309 53.0817C215.961 53.1066 215.594 53.1253 215.205 53.1408C214.819 53.1564 214.424 53.1688 214.02 53.175C214.013 53.1999 214.007 53.2217 214.007 53.2466V53.3306C214.007 53.5919 214.06 53.8066 214.166 53.9777C214.272 54.1488 214.436 54.2733 214.657 54.3573C214.878 54.4413 215.168 54.4817 215.522 54.4817C215.743 54.4817 215.976 54.4693 216.222 54.4475C216.468 54.4257 216.717 54.3915 216.969 54.3479C217.221 54.3044 217.476 54.2546 217.728 54.1986L217.952 55.5986C217.675 55.6857 217.392 55.7604 217.1 55.8226C216.807 55.8848 216.502 55.9315 216.188 55.9595C215.871 55.9875 215.532 55.9999 215.168 55.9999H215.177ZM214.038 52.027C214.244 52.027 214.449 52.0239 214.654 52.0146C214.86 52.0084 215.052 51.9959 215.236 51.9835C215.416 51.971 215.578 51.9617 215.721 51.9524C215.864 51.9461 215.983 51.9399 216.076 51.9399C216.07 51.6226 216.029 51.3737 215.958 51.187C215.886 51.0004 215.784 50.8697 215.65 50.7888C215.516 50.711 215.345 50.6706 215.14 50.6706C214.996 50.6706 214.866 50.6893 214.748 50.7297C214.629 50.7701 214.52 50.8386 214.421 50.9381C214.321 51.0377 214.237 51.1746 214.172 51.3519C214.104 51.5293 214.06 51.7533 214.035 52.0208L214.038 52.027Z" fill="#F8FAFC"/>
<path d="M223.275 55.8942L223.051 55.4088C222.734 55.6048 222.42 55.7542 222.102 55.8537C221.785 55.9533 221.455 56.0031 221.107 56.0031C220.404 56.0031 219.859 55.7262 219.476 55.1724C219.094 54.6186 218.901 53.8191 218.901 52.7768C218.901 51.9928 219.013 51.3488 219.24 50.8386C219.467 50.3284 219.806 49.9457 220.267 49.6937C220.724 49.4417 221.306 49.3142 222.009 49.3142C222.168 49.3142 222.336 49.3204 222.513 49.3328C222.69 49.3453 222.864 49.3671 223.029 49.3982V47.1084H224.986V55.8942H223.278H223.275ZM223.026 54.0555V50.8542C222.868 50.8075 222.715 50.7733 222.569 50.7546C222.423 50.736 222.28 50.7235 222.136 50.7235C221.86 50.7235 221.629 50.7826 221.449 50.9008C221.268 51.0191 221.132 51.212 221.048 51.4826C220.96 51.7502 220.917 52.1204 220.917 52.584C220.917 53.0102 220.954 53.3555 221.029 53.6231C221.104 53.8875 221.212 54.0804 221.356 54.2048C221.499 54.3293 221.673 54.3884 221.878 54.3884C221.996 54.3884 222.118 54.376 222.239 54.3542C222.36 54.3293 222.488 54.292 222.619 54.2422C222.749 54.1893 222.886 54.1302 223.029 54.0586L223.026 54.0555Z" fill="#F8FAFC"/>
</g>
<defs>
<clipPath id="clip0_1169_5768">
<rect width="224.983" height="56" fill="white"/>
</clipPath>
</defs>
</svg>
