<svg width="97" height="24" viewBox="0 0 97 24" fill="none" xmlns="http://www.w3.org/2000/svg">
<g clip-path="url(#clip0_1169_5757)">
<path d="M30.1598 15.7694C30.5438 15.3294 30.9758 14.9441 31.5198 14.6868C31.1731 15.1681 30.6584 15.4601 30.1598 15.7694ZM31.9211 15.4668C30.6451 15.9414 29.3584 17.4028 29.3771 18.4161C30.0638 17.3054 31.2931 16.5454 31.9211 15.4668ZM30.3144 16.3934C30.6544 15.9134 31.2278 15.6081 31.5411 15.1414C30.9544 15.3188 30.3358 15.9374 30.3144 16.3934ZM31.6931 16.5028C32.0731 15.8734 32.7624 15.4374 33.1104 14.8268C32.3944 15.1014 31.6771 15.9321 31.6931 16.5028ZM33.5264 13.5934C33.5904 13.5854 33.6478 13.5588 33.7038 13.5268C33.9291 13.3974 34.0984 13.2081 34.2544 13.0028C34.4224 12.7801 34.5651 12.5441 34.6398 12.2708C34.6478 12.2401 34.6691 12.2028 34.6371 12.1761C34.6104 12.1521 34.5798 12.1761 34.5518 12.1868C33.9384 12.4268 33.6358 12.9214 33.4758 13.5348C33.4651 13.5774 33.4784 13.6001 33.5251 13.5948L33.5264 13.5934ZM32.0931 14.9148C32.1291 14.8988 32.1624 14.8734 32.1971 14.8534C32.6944 14.5334 33.0078 14.0801 33.1571 13.5108C33.1664 13.4734 33.1944 13.4294 33.1638 13.3948C33.1291 13.3561 33.0864 13.3894 33.0531 13.4041C32.4398 13.6788 32.0344 14.1201 31.9398 14.8068C31.9331 14.8561 31.9211 14.9134 31.9611 14.9468C32.0091 14.9868 32.0518 14.9321 32.0931 14.9134V14.9148ZM31.4931 16.7548C31.4464 16.7174 31.4038 16.6774 31.3704 16.6308C31.3371 16.5854 31.3038 16.5841 31.2318 16.6614C31.1198 16.7828 31.0038 16.9028 30.8878 17.0228C30.8331 17.0788 30.8184 17.1228 30.8398 17.1614C30.8638 17.2054 30.8824 17.2534 30.8958 17.2828C30.9749 17.4339 31.1158 17.4121 31.3184 17.2174C31.3478 17.1894 31.3784 17.1601 31.4078 17.1321C31.6571 16.8828 31.6558 16.8828 31.4931 16.7548ZM26.4918 16.2121C25.6264 16.3001 25.0918 17.0481 24.2798 17.1654C24.3518 17.3068 24.5278 17.2801 24.6598 17.3694C24.4678 17.4854 24.2744 17.4561 24.0998 17.5028C23.9171 17.5521 23.7598 17.4348 23.5571 17.3401C23.6758 17.6988 23.9304 17.7708 24.1944 17.7921C24.4811 17.8148 24.7731 17.7721 25.0584 17.8068C25.7944 17.8948 26.4384 17.5734 26.7904 16.8908C26.5651 16.9934 26.3624 17.0868 26.1598 17.1788C26.1491 17.1588 26.1384 17.1388 26.1278 17.1188C26.2358 16.9881 26.3424 16.8574 26.5131 16.6521C26.0304 16.8641 25.6678 17.1348 25.2291 17.2148C25.6758 16.9254 26.1091 16.6281 26.4931 16.2121H26.4918ZM26.2918 15.5868C25.5864 15.9774 24.9211 16.4174 24.2104 16.7841C25.5078 16.5761 26.1464 16.1988 26.2918 15.5868ZM26.8491 10.8414C27.2931 10.2401 28.2078 10.1201 28.4984 9.22811C27.8478 9.75077 27.0238 9.96277 26.8491 10.8414ZM25.6611 13.7614C26.3118 13.5988 26.7424 13.3041 26.9438 12.9014C26.4584 13.0934 26.0504 13.3454 25.6611 13.7614ZM11.6598 4.32411C11.8758 4.24011 12.1131 4.19611 12.3718 4.00411C12.1118 3.95477 11.9264 3.92544 11.7451 3.88411C11.2651 3.77744 10.8131 3.60144 10.4504 3.25877C10.3038 3.12011 10.1731 3.18277 10.0331 3.23077C8.81843 3.65077 7.59577 4.04277 6.35577 4.37877C4.9691 4.75477 3.57577 5.10411 2.14777 5.28677C1.4971 5.36944 0.843768 5.42411 0.187768 5.32944C0.126434 5.32011 0.0451009 5.27344 0.00910095 5.35477C-0.0228991 5.42677 0.0531009 5.46944 0.0997676 5.51477C0.669101 6.07877 1.38643 6.30811 2.15577 6.40411C3.3411 6.55344 4.51043 6.40677 5.67043 6.17077C7.72777 5.75211 9.71043 5.08544 11.6624 4.32411H11.6598ZM12.4464 6.10144C12.5438 6.05477 12.6371 6.00544 12.6638 5.89211C12.8051 5.29744 13.0504 4.74677 13.3344 4.18944C12.8104 4.45344 12.2931 4.73211 11.7611 4.97877C9.6251 5.96944 7.39177 6.64811 5.07177 7.04144C4.56643 7.12677 4.0531 7.17477 3.5451 7.24277C3.4771 7.25211 3.36777 7.21477 3.3571 7.31744C3.34777 7.41077 3.4571 7.42144 3.52243 7.44677C4.35843 7.78677 5.2331 7.87211 6.12643 7.83344C7.70243 7.76544 9.20377 7.35477 10.6784 6.82411C11.2784 6.60811 11.8704 6.37477 12.4464 6.10011V6.10144ZM15.5798 6.42677C15.6184 5.92411 15.7438 5.43611 15.9358 4.92011C13.0491 6.81211 9.99177 8.11611 6.60777 8.61077C6.65443 8.72944 6.77443 8.74544 6.87577 8.78544C8.0051 9.22277 9.15577 9.14544 10.3051 8.90544C12.1144 8.52677 13.7651 7.76011 15.3411 6.81211C15.4918 6.72144 15.5664 6.61211 15.5798 6.42677ZM18.2318 7.06544C18.0944 6.66011 18.1198 6.24144 18.1904 5.82411C18.2011 5.76277 18.2504 5.68677 18.1758 5.64277C18.1024 5.60011 18.0558 5.67611 18.0051 5.71344C16.4771 6.85344 14.8504 7.83344 13.1491 8.68944C12.3331 9.09877 11.4931 9.45611 10.6158 9.72144C10.5278 9.74811 10.4424 9.78144 10.3558 9.81077C10.7411 9.97477 11.1278 9.98277 11.5144 9.9601C13.9371 9.81877 16.1064 8.98277 18.0664 7.56944C18.2584 7.43077 18.3104 7.29477 18.2331 7.06677L18.2318 7.06544ZM23.7144 8.34544C23.6691 8.31344 23.6438 8.36544 23.6158 8.38944C22.7451 9.12811 21.8104 9.75211 20.8278 10.2881C20.3558 10.5454 19.8691 10.7641 19.3571 10.9201C19.3064 10.9361 19.2558 10.9561 19.2051 10.9734C19.4384 11.0988 19.6691 11.1161 19.8971 11.1121C21.3291 11.0894 22.5904 10.5814 23.7091 9.66811C23.8184 9.57877 23.8451 9.48677 23.7918 9.32677C23.6984 9.0441 23.6998 8.75611 23.7291 8.47077C23.7331 8.42944 23.7611 8.37877 23.7144 8.34544ZM23.7264 11.0894C24.4798 10.6988 25.2891 10.3908 26.1691 10.1908C26.1984 10.1841 26.2478 10.1948 26.2358 10.1454C26.2238 10.0948 26.1744 10.0868 26.1384 10.0668C25.8971 9.93077 25.6624 9.77344 25.4624 9.55211C25.3491 9.42677 25.2664 9.39477 25.1584 9.42277C24.0558 9.7001 23.2358 10.2988 22.7558 11.2854C22.6798 11.4428 22.6198 11.6121 22.6464 11.8428C22.6771 11.8174 22.7091 11.7934 22.7384 11.7668C23.0291 11.4961 23.3651 11.2774 23.7264 11.0894ZM22.0398 13.0094C21.9904 13.1348 21.9558 13.2721 21.9998 13.4694C22.0238 13.4508 22.0478 13.4334 22.0704 13.4134C22.2878 13.2121 22.5478 13.0588 22.8318 12.9334C23.4238 12.6734 24.0704 12.4894 24.7864 12.4014C24.8104 12.3988 24.8531 12.4121 24.8384 12.3694C24.8238 12.3268 24.7811 12.3134 24.7504 12.2934C24.5371 12.1561 24.3251 12.0014 24.1384 11.7974C24.0331 11.6814 23.9598 11.6468 23.8718 11.6601C22.9771 11.7921 22.3478 12.2214 22.0398 13.0081V13.0094ZM22.3224 10.9108C22.2984 10.8734 22.2824 10.9148 22.2651 10.9308C21.7411 11.4268 21.1864 11.8081 20.6091 12.0988C20.3318 12.2388 20.0491 12.3401 19.7544 12.3801C19.7251 12.3841 19.6958 12.3921 19.6664 12.3988C19.7904 12.5588 19.9184 12.6188 20.0464 12.6614C20.8491 12.9254 21.5811 12.7148 22.2531 12.1094C22.3184 12.0508 22.3384 11.9721 22.3171 11.8174C22.2784 11.5428 22.2944 11.2814 22.3251 11.0294C22.3291 10.9921 22.3478 10.9521 22.3238 10.9134L22.3224 10.9108ZM21.3744 15.0534C21.5918 14.8521 21.8518 14.6988 22.1358 14.5734C22.7278 14.3134 23.3744 14.1294 24.0904 14.0414C24.1144 14.0388 24.1571 14.0521 24.1424 14.0094C24.1278 13.9668 24.0851 13.9534 24.0544 13.9334C23.8411 13.7961 23.6304 13.6414 23.4424 13.4374C23.3371 13.3214 23.2638 13.2868 23.1758 13.3001C22.2811 13.4321 21.6518 13.8614 21.3438 14.6481C21.2944 14.7734 21.2598 14.9108 21.3038 15.1081C21.3278 15.0894 21.3518 15.0721 21.3744 15.0521V15.0534ZM18.1291 8.87877C18.0544 8.65877 18.0691 8.43211 18.1064 8.20544C18.1118 8.17211 18.1384 8.13077 18.0984 8.10677C18.0584 8.08411 18.0331 8.12544 18.0064 8.14544C17.1784 8.76277 16.2971 9.29477 15.3758 9.75744C14.9331 9.98011 14.4784 10.1721 14.0038 10.3161C13.9558 10.3308 13.9091 10.3481 13.8624 10.3641C14.0704 10.4534 14.2811 10.4574 14.4904 10.4454C15.8024 10.3694 16.9784 9.9161 18.0398 9.15077C18.1438 9.0761 18.1718 9.00277 18.1304 8.87877H18.1291ZM12.7291 3.40277C13.2264 3.40277 13.7131 3.32277 14.2211 3.19344C14.4358 3.17611 14.6478 3.07611 14.8544 2.95211C15.4784 2.57877 16.1598 2.33877 16.8478 2.11611C16.9238 2.09077 17.0424 2.10411 17.0544 1.99877C17.0664 1.89744 16.9464 1.88277 16.8838 1.82944C16.8478 1.79877 16.7944 1.78677 16.7651 1.75211C16.4064 1.32944 16.0011 1.43344 15.5371 1.57344C14.3158 1.93877 13.0784 2.24677 11.7891 2.24277C11.3318 2.24144 10.8784 2.20677 10.4358 2.07744C10.3678 2.05744 10.2811 1.99077 10.2238 2.06411C10.1558 2.15344 10.2558 2.22011 10.2998 2.28544C10.8838 3.14411 11.7464 3.40144 12.7264 3.40277H12.7291ZM21.8744 1.97611C21.7664 1.90544 21.6718 2.00144 21.5904 2.05344C20.8451 2.52011 20.2651 3.16144 19.7531 3.86411C19.2798 4.51211 18.8651 5.19344 18.6811 5.98811C18.6358 6.18411 18.6091 6.38144 18.6424 6.58277C18.6651 6.72944 18.7451 6.75211 18.8638 6.68011C20.5464 5.65744 21.7531 4.30811 21.9224 2.24277C21.9304 2.15211 21.9704 2.03877 21.8771 1.97744L21.8744 1.97611ZM20.1144 2.28677C19.9104 2.33211 19.7091 2.38544 19.4358 2.45344C18.0251 2.95877 16.8611 3.83077 16.2851 5.35211C16.2278 5.50277 16.1811 5.66011 16.1611 5.81877C16.1451 5.94144 16.0478 6.10144 16.1784 6.18944C16.2864 6.26277 16.4104 6.14811 16.5198 6.09877C17.0144 5.86944 17.4558 5.55477 17.8638 5.19877C18.7344 4.44011 19.4851 3.57211 20.1331 2.61744C20.1704 2.56277 20.2038 2.50411 20.2331 2.44411C20.2918 2.32144 20.2584 2.25477 20.1158 2.28677H20.1144ZM23.0584 2.06411C22.2864 2.81477 21.9904 3.77477 21.8744 4.80811C21.8598 4.94277 21.8478 5.07744 21.8424 5.21344C21.8304 5.46411 21.8331 5.71877 21.8598 5.98144C21.8731 6.12677 21.8944 6.27611 21.9224 6.42811C21.9838 6.64011 22.1238 6.47877 22.2171 6.40277C22.6824 6.02411 23.0438 5.56411 23.2891 5.02011C23.3051 4.98411 23.3211 4.94811 23.3358 4.91211C23.4011 4.75344 23.4571 4.59611 23.5024 4.43744C23.7198 3.68544 23.7091 2.92544 23.4358 2.15744C23.3278 1.85211 23.2851 1.84411 23.0584 2.06411ZM17.6451 2.42011C17.3251 2.46411 17.0064 2.52277 16.6971 2.62944C15.4038 3.04144 14.2838 3.69611 13.5664 4.90277C13.4451 5.10811 13.3398 5.32011 13.2744 5.55077C13.2571 5.61077 13.2078 5.68277 13.2744 5.73611C13.3358 5.78544 13.4011 5.73344 13.4598 5.70811C13.9318 5.50277 14.3771 5.24811 14.8144 4.98011C15.8864 4.32411 16.9224 3.62011 17.7998 2.70811C17.8811 2.62411 18.0491 2.53877 17.9838 2.42011C17.9211 2.30544 17.7598 2.40411 17.6438 2.42011H17.6451ZM21.2944 5.20144C20.8971 5.67077 20.4904 6.09477 20.0264 6.45877C19.7638 6.66411 19.4984 6.86677 19.2078 7.02944C19.0731 7.10544 18.9944 7.20677 18.9438 7.34811C18.7771 7.82411 18.6051 8.29744 18.4358 8.77211C18.4118 8.84144 18.3518 8.91477 18.4104 8.98544C18.4331 9.01211 18.4571 9.02411 18.4811 9.02411C18.5264 9.02811 18.5744 8.99877 18.6184 8.98144C19.1051 8.79877 19.5651 8.57344 19.9971 8.30411C20.4464 8.02411 20.8651 7.69744 21.2531 7.32011C21.4424 7.13611 21.5091 6.94011 21.4504 6.68011C21.4304 6.58677 21.4144 6.49211 21.4024 6.39744C21.3678 6.10944 21.3691 5.81744 21.3598 5.52677V5.51611C21.3571 5.42277 21.3811 5.32544 21.2918 5.20144H21.2944ZM24.9811 4.07877C24.9144 3.77744 24.8131 3.47477 24.6811 3.16811C24.6504 3.09744 24.6318 2.98277 24.5211 2.99477C24.4238 3.00544 24.4038 3.11077 24.3664 3.18411C24.1731 3.55211 24.0264 3.92544 23.9278 4.30544C23.8891 4.45611 23.8584 4.60811 23.8358 4.76011C23.7411 5.37611 23.7744 6.00811 23.9451 6.65611C23.9691 6.73744 23.9864 6.82277 24.0198 6.90011C24.0584 6.99077 24.0464 7.13477 24.1784 7.14144C24.2891 7.14677 24.3531 7.03877 24.4131 6.95211C24.9918 6.11344 25.1691 5.24677 25.0358 4.35744C25.0211 4.26411 25.0038 4.17077 24.9824 4.07744L24.9811 4.07877ZM23.3544 6.24277C23.3158 6.02277 23.2371 6.04677 23.1131 6.19211C22.7904 6.57211 22.3998 6.87477 21.9838 7.14544C21.8944 7.20277 21.8144 7.25877 21.7984 7.38011C21.7358 7.85211 21.6838 8.32411 21.6931 8.80144C21.6971 8.98677 21.7678 9.05077 21.8918 8.98677C22.6238 8.67344 23.1731 8.21477 23.6491 7.65744C23.7291 7.56277 23.7224 7.46811 23.6784 7.36544C23.5224 7.00544 23.4224 6.62944 23.3558 6.24277H23.3544ZM26.2078 6.16544C26.1358 5.88277 25.9838 5.62411 25.8024 5.37611C25.6904 5.22411 25.6158 5.26011 25.5331 5.40277C25.1478 6.06144 25.2104 7.18011 25.6678 7.78944C25.8251 8.00011 25.8944 8.00011 26.0344 7.77077C26.3384 7.27077 26.3891 6.73877 26.2064 6.16677L26.2078 6.16544ZM24.9504 7.40811C24.8984 7.25877 24.8424 7.21877 24.7184 7.34544C24.5251 7.54144 24.3278 7.73344 24.1264 7.92144C24.0318 8.00944 24.0051 8.10544 24.0398 8.22944C24.0784 8.36677 24.1064 8.50677 24.1264 8.59611C24.25 9.06366 24.486 9.15166 24.8344 8.8601C24.8851 8.81744 24.9371 8.77611 24.9864 8.73077C25.4144 8.34677 25.4131 8.34411 25.1491 7.85077C25.0731 7.70944 25.0051 7.56144 24.9518 7.40944L24.9504 7.40811ZM27.2824 8.10677C27.2104 7.82544 27.0584 7.56544 26.8771 7.31877C26.7651 7.16544 26.6904 7.20277 26.6078 7.34411C26.2238 8.00411 26.2864 9.12277 26.7438 9.7321C26.9011 9.94277 26.9704 9.94277 27.1104 9.71344C27.4131 9.21344 27.4651 8.68144 27.2824 8.10811V8.10677ZM25.8264 11.7681C25.9451 11.6588 26.0704 11.5561 26.2038 11.4654C26.3344 11.3774 26.3584 11.3134 26.2064 11.2241C25.9678 11.0868 25.7318 10.9441 25.4984 10.7961C25.3891 10.7268 25.2891 10.7254 25.1784 10.7894C25.0558 10.8614 24.9264 10.9241 24.8464 10.9668C24.4251 11.205 24.3998 11.4552 24.7704 11.7174C24.8251 11.7561 24.8784 11.7961 24.9344 11.8321C25.4144 12.1494 25.4171 12.1468 25.8264 11.7668V11.7681ZM25.4611 13.0854C25.2224 12.9481 24.9864 12.8054 24.7531 12.6574C24.6438 12.5881 24.5438 12.5868 24.4331 12.6508C24.3104 12.7228 24.1811 12.7854 24.1011 12.8281C23.6798 13.0663 23.6544 13.3165 24.0251 13.5788C24.0798 13.6174 24.1331 13.6574 24.1891 13.6934C24.6691 14.0108 24.6718 14.0081 25.0811 13.6281C25.1998 13.5188 25.3251 13.4161 25.4584 13.3254C25.5891 13.2374 25.6131 13.1734 25.4611 13.0841V13.0854ZM36.1238 8.20677C36.1198 8.22811 36.1211 8.26411 36.0811 8.22944C35.7144 7.91477 35.3851 8.24677 35.1451 8.52677C34.4851 9.29477 34.5304 10.2788 34.1944 11.1508C34.3958 11.1161 34.5984 11.1081 34.7931 11.1414C34.9691 11.1708 35.1424 11.2481 35.2598 11.3841C35.4264 11.5774 35.4464 11.8388 35.4158 12.0828C35.4131 12.1081 35.4091 12.1348 35.4038 12.1601C35.3264 12.6174 35.1611 13.0521 34.9598 13.4708C34.8718 13.6521 34.7771 13.8321 34.6824 14.0121C34.6304 14.1081 34.5771 14.2041 34.5238 14.3014C34.1744 15.8881 33.3718 17.3761 32.1611 18.5521C32.0651 18.6454 31.9664 18.7374 31.8651 18.8268C31.5344 19.1188 31.1784 19.3881 30.7958 19.6321C30.2398 19.9854 29.6584 20.2668 29.0611 20.4788C28.8571 20.5521 28.6518 20.6148 28.4451 20.6708C26.7024 21.1414 24.8704 21.0321 23.2198 20.4068C22.6824 20.7201 22.1411 21.0268 21.5984 21.3281C22.1118 21.0441 22.6078 20.7081 23.0944 20.3574C21.4958 19.7201 20.0744 18.5961 19.0784 17.0334C17.8211 15.0588 17.4811 12.7588 17.9504 10.6414C17.6464 10.6961 17.3358 10.7294 17.0198 10.7454C16.7731 10.7574 16.5238 10.7494 16.2771 10.6388C16.3318 10.6188 16.3864 10.5961 16.4424 10.5801C17.0024 10.4108 17.5371 10.1814 18.0584 9.91477C18.0944 9.89611 18.1291 9.87877 18.1638 9.8601C18.6811 9.5921 19.1878 9.30544 19.6798 8.99477C20.1838 8.67877 20.6731 8.33877 21.1478 7.97344C21.1798 7.94944 21.2091 7.89877 21.2558 7.92811C21.3038 7.95744 21.2718 8.00811 21.2664 8.04811C21.2238 8.32411 21.2118 8.60277 21.3024 8.87344C21.3544 9.02544 21.3224 9.11611 21.2011 9.20544C20.5958 9.65477 19.9598 10.0121 19.2864 10.2708C18.8678 12.2041 19.1798 14.2974 20.3264 16.0961C21.3398 17.6881 22.8344 18.7854 24.4998 19.3214C24.5331 19.2974 24.5651 19.2734 24.5984 19.2494C25.9184 18.3001 27.2211 17.3201 28.4758 16.2828C29.8251 15.1668 35.9971 10.0068 31.9051 10.2108C31.8931 10.2268 31.8891 10.2281 31.8891 10.2321C30.7064 13.0934 26.3958 14.8454 25.4278 15.0721C26.3851 14.8041 27.1011 14.0548 27.8104 13.4001C28.5878 12.6801 29.2811 11.8721 29.9011 11.0134C30.6198 10.0201 31.2944 8.98544 32.1664 8.11611C32.1758 8.10811 32.1878 8.10277 32.2104 8.08944C32.1424 8.22144 32.0811 8.33877 32.0424 8.46544C32.0318 8.50277 32.0358 8.52011 32.0784 8.51611C32.1238 8.51211 32.1704 8.51211 32.2144 8.50677C32.5344 8.46944 32.8424 8.38544 33.1518 8.29877C33.1864 8.28944 33.2198 8.28144 33.2531 8.27211C33.2558 8.27611 33.2558 8.28011 33.2584 8.28411C33.0998 8.40544 32.9424 8.52677 32.7851 8.64944C33.1104 8.65344 33.4078 8.56811 33.6944 8.39611C33.5944 8.71611 33.5878 9.02677 33.6091 9.34011C33.9451 8.68544 34.3971 8.14544 35.0718 7.82144C34.5731 7.96277 34.1851 8.26944 33.8331 8.65744C33.8438 8.47877 33.8864 8.32277 33.9451 8.16144C33.9224 8.17077 33.9104 8.17744 33.8998 8.18277C33.7611 8.24677 33.6184 8.25877 33.4704 8.22011C33.4571 8.21744 33.4384 8.21744 33.4344 8.20144C33.4278 8.18011 33.4518 8.17877 33.4638 8.16677C33.4891 8.14411 33.5144 8.12277 33.5491 8.09344C33.4011 8.07211 33.2838 8.01611 33.2171 7.88944C33.1904 7.84011 33.1624 7.84144 33.1184 7.85877C32.9491 7.93077 32.7824 8.00811 32.6224 8.09877C32.5864 8.11877 32.5544 8.14811 32.4971 8.15344C32.8304 7.79211 33.2158 7.52544 33.6704 7.33344C33.6024 7.31077 33.5504 7.29611 33.4984 7.28011C33.9424 7.08277 34.3904 6.97611 34.8811 7.11477C34.6504 7.35077 34.4504 7.59077 34.4051 7.92011C34.5904 7.82011 34.7771 7.73077 34.9704 7.65877C35.1051 7.60944 35.2411 7.56944 35.3838 7.55344C35.5558 7.53477 35.7171 7.54944 35.8518 7.69477C35.8318 7.51611 35.7771 7.36944 35.6664 7.24677C35.5038 7.06411 35.2904 6.99877 35.0558 6.98544C35.0158 6.98277 34.9878 6.97211 34.9584 6.94277C34.8851 6.86811 34.7998 6.80944 34.6971 6.76677C34.6998 6.80277 34.7264 6.82277 34.7238 6.85477C34.7171 6.85477 34.7118 6.85744 34.7064 6.85744C34.4158 6.80677 34.1344 6.86011 33.8571 6.94277C33.4358 7.06944 33.0504 7.27077 32.6798 7.50544C32.3824 7.69477 32.0998 7.90277 31.8264 8.12544C30.7531 9.00144 30.0118 10.2348 28.9264 11.0774C27.8824 11.8894 26.6518 12.3734 25.3478 12.5588C26.6038 12.3801 27.5478 11.1668 28.3704 10.3121C28.9224 9.73877 29.4731 9.15477 30.0691 8.62544C29.2731 8.57077 28.5091 8.18811 27.9131 7.66944C26.8544 6.74544 26.2824 5.48144 25.7091 4.22411C25.6771 4.15211 25.6438 4.07877 25.6118 4.00677C25.4184 3.58677 25.2238 3.17077 25.0078 2.77077C24.5184 1.86277 23.8304 1.30277 22.7291 1.38011C21.8131 1.44411 20.9238 1.64144 20.0291 1.82144C19.1091 2.00677 18.2104 1.97211 17.3584 1.53877C17.0238 1.36677 16.7011 1.17211 16.4891 0.834772C16.5891 0.765439 16.6718 0.810772 16.7518 0.821439C17.0918 0.869439 17.4318 0.894772 17.7758 0.876106C18.8278 0.822772 19.8411 0.554772 20.8651 0.341439C21.5704 0.198772 22.2731 0.0174391 23.0011 0.000105756C24.1611 -0.0265609 25.0424 0.438772 25.5944 1.48144C25.6011 1.49611 25.6104 1.51077 25.6171 1.52544C26.0224 2.30544 26.2318 3.15611 26.4904 3.99077C26.5064 4.04144 26.5224 4.09211 26.5384 4.14277C26.6864 4.60411 26.8531 5.05744 27.0798 5.48811C27.6798 6.62811 28.5758 7.61344 29.6771 8.28677C29.8318 8.38011 29.9984 8.47344 30.1624 8.54011C30.4931 8.25211 30.8398 7.98011 31.2064 7.73744C31.8464 7.31477 32.5198 6.96011 33.2611 6.74677C33.7371 6.60944 34.2224 6.54411 34.7198 6.57877C34.8678 6.58811 34.9718 6.67077 35.0771 6.75877C35.1064 6.78277 35.1318 6.79477 35.1704 6.79344C35.4291 6.78677 35.6731 6.83611 35.8784 7.00677C36.0571 7.15611 36.1358 7.35744 36.1638 7.58144C36.1891 7.79211 36.1664 8.00011 36.1238 8.20544V8.20677ZM34.1024 7.50811C34.0891 7.57477 34.0718 7.63211 34.0304 7.68011C34.0131 7.70144 33.9971 7.70811 33.9824 7.68677C33.9531 7.65077 33.9398 7.66944 33.9171 7.69477C33.8704 7.74677 33.7904 7.76011 33.7371 7.73077C33.7078 7.71477 33.7011 7.69877 33.7291 7.67611C33.7558 7.65477 33.7771 7.62944 33.7811 7.58677C33.6918 7.60944 33.6118 7.64544 33.5318 7.67611C33.4931 7.69211 33.4918 7.71477 33.5064 7.74944C33.5398 7.82411 33.5904 7.87744 33.6678 7.90144C33.8104 7.94811 33.9371 7.91611 34.0424 7.81077C34.1278 7.72677 34.1518 7.60277 34.1038 7.50811H34.1024ZM34.1424 11.2788C34.0944 11.3868 34.0411 11.4948 33.9771 11.5974C33.0451 13.1228 31.6571 14.3428 30.3078 15.4894C28.5984 16.9414 26.7558 18.2348 24.8491 19.4228C26.2144 19.7934 27.6771 19.7948 29.0718 19.3868C29.1024 19.3774 29.1331 19.3668 29.1624 19.3574C29.2171 19.2628 29.2731 19.1681 29.3318 19.0761C29.4998 18.8134 29.6864 18.5641 29.8838 18.3201C30.0544 18.1094 30.2304 17.9028 30.4211 17.7094C30.4544 17.6761 30.4878 17.6468 30.5371 17.6521C30.7998 17.6801 31.0584 17.6601 31.3264 17.6254C31.1464 17.7988 30.9611 17.9681 30.7864 18.1468C30.6064 18.3348 30.4318 18.5268 30.2664 18.7268C30.1798 18.8308 30.0958 18.9348 30.0144 19.0414C30.0518 19.0254 30.0891 19.0094 30.1278 18.9921C30.4491 18.8454 30.7624 18.6748 31.0691 18.4801C31.2904 18.3388 31.5011 18.1894 31.7038 18.0294C32.1304 17.6961 32.5131 17.3241 32.8518 16.9201C33.0758 16.6548 33.2784 16.3748 33.4624 16.0854C33.4398 16.0134 33.4238 15.9401 33.4091 15.8641C33.0784 16.1854 32.7718 16.5281 32.4864 16.8908C32.3184 17.1068 32.1638 17.3321 32.0331 17.5734C32.0198 17.5961 32.0038 17.6201 31.9904 17.6441C31.9678 17.5214 31.9904 17.4081 32.0198 17.2974C32.2118 16.5974 32.5878 16.0108 33.1158 15.5188C33.1678 15.4708 33.2091 15.4641 33.2704 15.4988C33.3024 15.5174 33.3358 15.5308 33.3691 15.5428C33.3464 15.0868 33.4718 14.6574 33.6891 14.2441C33.8744 13.8934 34.1291 13.5788 34.3558 13.2574C34.4424 13.1361 34.5251 13.0134 34.6091 12.8908C34.6451 12.8361 34.6838 12.7814 34.7211 12.7281C34.7318 12.7121 34.7438 12.6961 34.7544 12.6801C34.9131 12.4521 35.0718 12.1708 35.0171 11.8814C34.9784 11.6828 34.8371 11.5148 34.6598 11.4134C34.6571 11.4134 34.6558 11.4108 34.6544 11.4108C34.6451 11.4054 34.6331 11.4001 34.6238 11.3948C34.4758 11.3201 34.3091 11.2881 34.1438 11.2801L34.1424 11.2788Z" fill="url(#paint0_linear_1169_5757)"/>
<path d="M43.6429 10.5691L43.2549 12.1478C43.0935 12.0918 42.9069 12.0385 42.6962 11.9905C42.4855 11.9425 42.2668 11.9011 42.0402 11.8691C41.8135 11.8371 41.5869 11.8131 41.3602 11.7958C41.1335 11.7798 40.9149 11.7718 40.7042 11.7718C40.2269 11.7718 39.8628 11.8371 39.6108 11.9665C39.3602 12.0958 39.2349 12.2985 39.2349 12.5731C39.2349 12.7185 39.2749 12.8465 39.3562 12.9558C39.4375 13.0651 39.5668 13.1638 39.7442 13.2531C39.9215 13.3425 40.1522 13.4318 40.4362 13.5198C40.7188 13.6091 41.0589 13.7065 41.4562 13.8118C41.8855 13.9171 42.2589 14.0451 42.5789 14.1945C42.8989 14.3438 43.1655 14.5185 43.3802 14.7171C43.5949 14.9158 43.7562 15.1465 43.8655 15.4091C43.9748 15.6718 44.0295 15.9785 44.0295 16.3265C44.0295 16.8771 43.8842 17.3425 43.5922 17.7225C43.3002 18.1025 42.8722 18.3918 42.3055 18.5905C41.7389 18.7891 41.0429 18.8878 40.2175 18.8878C39.9429 18.8878 39.6589 18.8758 39.3669 18.8518C39.0762 18.8278 38.7815 18.7931 38.4868 18.7491C38.1908 18.7051 37.9055 18.6478 37.6309 18.5785C37.3562 18.5091 37.0962 18.4305 36.8535 18.3411L37.2415 16.7745C37.4842 16.8558 37.7348 16.9278 37.9948 16.9931C38.2535 17.0585 38.5175 17.1131 38.7842 17.1571C39.0509 17.2011 39.3162 17.2358 39.5788 17.2598C39.8415 17.2838 40.0909 17.2958 40.3255 17.2958C40.6895 17.2958 40.9869 17.2651 41.2175 17.2051C41.4482 17.1451 41.6175 17.0531 41.7282 16.9318C41.8375 16.8105 41.8922 16.6611 41.8922 16.4825C41.8922 16.3291 41.8375 16.1998 41.7282 16.0945C41.6188 15.9891 41.4548 15.8905 41.2362 15.7971C41.0175 15.7038 40.7442 15.6091 40.4162 15.5118C40.0882 15.4145 39.7095 15.3011 39.2815 15.1718C38.9175 15.0505 38.6002 14.9131 38.3282 14.7585C38.0575 14.6051 37.8282 14.4291 37.6415 14.2305C37.4548 14.0318 37.3162 13.8038 37.2229 13.5451C37.1295 13.2865 37.0828 12.9945 37.0828 12.6705C37.0828 12.3065 37.1535 11.9705 37.2948 11.6625C37.4362 11.3545 37.6509 11.0878 37.9389 10.8611C38.2255 10.6345 38.6002 10.4585 39.0615 10.3331C39.5228 10.2078 40.0695 10.1451 40.7002 10.1451C41.0722 10.1451 41.4428 10.1651 41.8108 10.2051C42.1788 10.2451 42.5215 10.2985 42.8362 10.3625C43.1522 10.4278 43.4189 10.4958 43.6375 10.5691H43.6429ZM44.5895 16.9558C44.5895 16.5585 44.6642 16.2318 44.8148 15.9718C44.9642 15.7131 45.1948 15.5065 45.5068 15.3518C45.8188 15.1985 46.2135 15.0785 46.6909 14.9931C47.1682 14.9078 47.7349 14.8411 48.3909 14.7931V14.3931C48.3909 14.1505 48.2895 13.9718 48.0869 13.8585C47.8842 13.7451 47.5935 13.6878 47.2122 13.6878C47.0415 13.6878 46.8482 13.6958 46.6295 13.7118C46.4109 13.7278 46.1869 13.7558 45.9562 13.7971C45.7255 13.8371 45.4882 13.8945 45.2455 13.9678L44.9295 12.4131C45.2935 12.2998 45.6948 12.2091 46.1322 12.1398C46.5695 12.0705 46.9735 12.0371 47.3469 12.0371C48.0589 12.0371 48.6362 12.1238 49.0775 12.2985C49.5189 12.4731 49.8428 12.7331 50.0482 13.0811C50.2549 13.4291 50.3575 13.8585 50.3575 14.3678V16.6745C50.3575 16.8771 50.3882 17.0105 50.4482 17.0745C50.5082 17.1398 50.5802 17.1718 50.6602 17.1718C50.7002 17.1718 50.7469 17.1705 50.8002 17.1665C50.8522 17.1625 50.8989 17.1518 50.9402 17.1358L51.0975 18.5558C50.9349 18.6531 50.7549 18.7318 50.5575 18.7931C50.3589 18.8531 50.1389 18.8838 49.8962 18.8838C49.5562 18.8838 49.2789 18.8211 49.0642 18.6958C48.8495 18.5705 48.6895 18.3785 48.5842 18.1185C48.3735 18.2718 48.1615 18.4078 47.9469 18.5251C47.7322 18.6425 47.5015 18.7318 47.2549 18.7918C47.0082 18.8518 46.7309 18.8825 46.4229 18.8825C46.1482 18.8825 45.8989 18.8385 45.6762 18.7491C45.4535 18.6598 45.2589 18.5331 45.0935 18.3665C44.9282 18.2011 44.8015 17.9998 44.7175 17.7651C44.6322 17.5305 44.5895 17.2598 44.5895 16.9518V16.9558ZM46.5935 16.8345C46.5935 17.0931 46.6495 17.2838 46.7642 17.4051C46.8775 17.5265 47.0269 17.5878 47.2135 17.5878C47.3429 17.5878 47.4789 17.5678 47.6202 17.5278C47.7615 17.4878 47.9015 17.4291 48.0389 17.3518C48.1762 17.2745 48.2935 17.1878 48.3909 17.0905V15.8518C48.0909 15.8758 47.8295 15.9065 47.6082 15.9425C47.3855 15.9785 47.1975 16.0331 47.0442 16.1065C46.8908 16.1798 46.7775 16.2745 46.7042 16.3918C46.6309 16.5091 46.5949 16.6571 46.5949 16.8345H46.5935ZM53.0535 18.7651L50.7229 12.1718L52.8482 12.1478L54.2442 17.0531L55.5682 12.1478L57.6562 12.1718L55.3135 18.7651H53.0549H53.0535ZM60.1682 18.7651L57.8375 12.1718L59.9629 12.1478L61.3589 17.0531L62.6829 12.1478L64.7709 12.1718L62.4282 18.7651H60.1695H60.1682ZM66.8455 21.3025L67.6589 18.7651H67.3922L64.9642 12.1718L67.1375 12.1358L68.5335 17.1625L69.8575 12.1358L71.9335 12.1598L68.9349 21.3265L66.8469 21.3025H66.8455ZM75.0895 18.8865C74.6522 18.8865 74.2842 18.8038 73.9842 18.6371C73.6842 18.4718 73.4602 18.2118 73.3109 17.8598C73.1615 17.5078 73.0855 17.0478 73.0855 16.4811V13.6038H72.1389V12.2811L73.0855 12.1598L73.3162 10.7518H75.0642V12.1598H76.7269V13.6051H75.0642V16.3251C75.0642 16.6491 75.1229 16.8771 75.2402 17.0105C75.3575 17.1438 75.5415 17.2105 75.7922 17.2105C75.9295 17.2105 76.0762 17.1958 76.2295 17.1678C76.3829 17.1398 76.5495 17.1051 76.7269 17.0651L76.9935 18.5705C76.6535 18.6838 76.3255 18.7651 76.0095 18.8131C75.6935 18.8611 75.3855 18.8865 75.0869 18.8865H75.0895ZM80.4562 18.8865C79.9375 18.8865 79.4802 18.8238 79.0842 18.6985C78.6869 18.5731 78.3495 18.3785 78.0709 18.1158C77.7922 17.8531 77.5789 17.5131 77.4335 17.0958C77.2882 16.6785 77.2149 16.1838 77.2149 15.6078C77.2149 14.9518 77.2975 14.3985 77.4642 13.9438C77.6295 13.4905 77.8602 13.1225 78.1562 12.8385C78.4522 12.5558 78.8015 12.3505 79.2069 12.2251C79.6109 12.0998 80.0522 12.0371 80.5295 12.0371C81.5015 12.0371 82.2149 12.2758 82.6722 12.7531C83.1295 13.2305 83.3575 14.0078 83.3575 15.0838C83.3575 15.1651 83.3562 15.2678 83.3522 15.3931C83.3482 15.5185 83.3415 15.6425 83.3335 15.7638C83.1309 15.7798 82.8842 15.7998 82.5935 15.8251C82.3029 15.8505 81.9789 15.8731 81.6229 15.8985C81.2669 15.9225 80.8895 15.9425 80.4935 15.9585C80.0962 15.9745 79.6922 15.9865 79.2789 15.9945C79.2709 16.0185 79.2669 16.0425 79.2669 16.0678V16.1531C79.2669 16.4198 79.3215 16.6411 79.4309 16.8145C79.5402 16.9891 79.7082 17.1185 79.9349 17.2025C80.1615 17.2878 80.4575 17.3305 80.8215 17.3305C81.0482 17.3305 81.2869 17.3185 81.5375 17.2945C81.7882 17.2705 82.0429 17.2358 82.3029 17.1918C82.5615 17.1478 82.8202 17.0971 83.0802 17.0398L83.3109 18.4731C83.0269 18.5625 82.7362 18.6398 82.4362 18.7038C82.1362 18.7678 81.8255 18.8145 81.5015 18.8438C81.1775 18.8718 80.8295 18.8865 80.4575 18.8865H80.4562ZM79.2909 14.8185C79.5015 14.8185 79.7122 14.8145 79.9229 14.8065C80.1335 14.7985 80.3309 14.7878 80.5175 14.7758C80.7042 14.7638 80.8695 14.7531 81.0149 14.7451C81.1602 14.7371 81.2815 14.7331 81.3789 14.7331C81.3709 14.4091 81.3309 14.1518 81.2575 13.9625C81.1842 13.7731 81.0789 13.6371 80.9415 13.5558C80.8042 13.4745 80.6295 13.4345 80.4189 13.4345C80.2735 13.4345 80.1402 13.4545 80.0189 13.4945C79.8975 13.5345 79.7855 13.6065 79.6855 13.7065C79.5855 13.8065 79.4989 13.9491 79.4309 14.1318C79.3615 14.3145 79.3162 14.5425 79.2909 14.8185ZM83.9655 15.5585C83.9655 14.7731 84.0975 14.1225 84.3602 13.6038C84.6229 13.0865 85.0095 12.6958 85.5202 12.4318C86.0309 12.1691 86.6575 12.0371 87.4015 12.0371C87.6602 12.0371 87.9215 12.0478 88.1842 12.0678C88.4469 12.0878 88.7002 12.1158 88.9429 12.1531C89.1855 12.1891 89.4042 12.2358 89.5989 12.2931L89.3189 13.9438C89.1242 13.9038 88.9309 13.8705 88.7362 13.8465C88.5415 13.8225 88.3522 13.8025 88.1655 13.7865C87.9789 13.7705 87.7975 13.7625 87.6189 13.7625C87.2709 13.7625 86.9775 13.8251 86.7389 13.9505C86.5002 14.0758 86.3215 14.2665 86.2042 14.5211C86.0869 14.7758 86.0282 15.1025 86.0282 15.4985C86.0282 15.8945 86.0909 16.1931 86.2162 16.4398C86.3415 16.6865 86.5282 16.8731 86.7749 16.9985C87.0215 17.1238 87.3149 17.1865 87.6549 17.1865C87.8495 17.1865 88.0415 17.1785 88.2322 17.1625C88.4215 17.1465 88.6149 17.1225 88.8095 17.0891C89.0042 17.0571 89.2055 17.0198 89.4162 16.9798L89.7202 18.5585C89.3722 18.6558 88.9749 18.7345 88.5295 18.7958C88.0842 18.8558 87.6469 18.8865 87.2189 18.8865C86.1335 18.8865 85.3202 18.6131 84.7789 18.0665C84.2362 17.5198 83.9655 16.6851 83.9655 15.5598V15.5585ZM90.4975 18.7638V9.77979H92.4882V12.6811C92.7149 12.5358 92.9349 12.4158 93.1495 12.3225C93.3642 12.2291 93.5829 12.1585 93.8055 12.1105C94.0282 12.0625 94.2562 12.0371 94.4909 12.0371C94.9122 12.0371 95.2642 12.1118 95.5469 12.2611C95.8295 12.4118 96.0469 12.6291 96.1962 12.9171C96.3455 13.2051 96.4202 13.5545 96.4202 13.9678V18.7638H94.4175V14.5865C94.4175 14.2785 94.3509 14.0571 94.2175 13.9185C94.0842 13.7811 93.8922 13.7118 93.6402 13.7118C93.5109 13.7118 93.3829 13.7265 93.2575 13.7545C93.1322 13.7825 93.0069 13.8198 92.8815 13.8638C92.7562 13.9078 92.6242 13.9625 92.4869 14.0278V18.7625H90.4962L90.4975 18.7638Z" fill="url(#paint1_linear_1169_5757)"/>
<path d="M78.5371 23.9489V20.3916H79.4011V23.1969H80.9971V23.9489H78.5371Z" fill="#2D307A"/>
<path d="M81.8717 20.8891C81.7024 20.8891 81.5784 20.8558 81.4984 20.7878C81.4184 20.7198 81.3784 20.6145 81.3784 20.4731C81.3784 20.3318 81.4184 20.2265 81.4984 20.1585C81.5784 20.0905 81.7024 20.0571 81.8717 20.0571C82.0411 20.0571 82.1651 20.0905 82.2424 20.1585C82.3197 20.2265 82.3597 20.3318 82.3597 20.4731C82.3597 20.6145 82.3211 20.7211 82.2451 20.7878C82.1691 20.8558 82.0437 20.8891 81.8717 20.8891ZM81.4544 23.9491V21.1851H82.2824V23.9491H81.4544Z" fill="#2D307A"/>
<path d="M82.877 23.9493V21.1853H83.6289V21.424C83.7303 21.356 83.8289 21.3026 83.9236 21.2613C84.0183 21.2213 84.1129 21.1906 84.2063 21.1693C84.2996 21.1493 84.3929 21.1386 84.4876 21.1386C84.5956 21.1386 84.689 21.1506 84.7676 21.1746C84.8463 21.1986 84.913 21.2333 84.9703 21.2786C85.0276 21.324 85.0756 21.3813 85.1129 21.4493C85.2289 21.3786 85.3356 21.32 85.4356 21.2733C85.5356 21.228 85.6356 21.1933 85.7356 21.1693C85.8356 21.1453 85.9423 21.1333 86.053 21.1333C86.1543 21.1333 86.245 21.1466 86.325 21.172C86.405 21.1973 86.4743 21.2333 86.533 21.2813C86.593 21.3293 86.6423 21.3853 86.6836 21.4493C86.7236 21.5133 86.7543 21.5866 86.7729 21.668C86.7916 21.7493 86.801 21.836 86.801 21.9266V23.9493H85.9676V22.2013C85.9676 22.1506 85.9623 22.1026 85.953 22.056C85.9436 22.0106 85.9263 21.972 85.9049 21.9386C85.8823 21.9066 85.8529 21.8813 85.8129 21.8653C85.7729 21.8493 85.7263 21.84 85.6676 21.84C85.617 21.84 85.5663 21.8453 85.5183 21.8573C85.469 21.8693 85.4223 21.884 85.3756 21.9026C85.329 21.9213 85.285 21.9426 85.241 21.9666C85.2476 21.9933 85.2516 22.0213 85.253 22.0506C85.2543 22.08 85.2556 22.108 85.2556 22.1346V23.9493H84.4223V22.2013C84.4223 22.1533 84.417 22.1066 84.4076 22.0613C84.397 22.016 84.3809 21.9773 84.3569 21.944C84.3329 21.912 84.3023 21.8866 84.2623 21.868C84.2223 21.8493 84.1743 21.84 84.117 21.84C84.073 21.84 84.0276 21.8453 83.9823 21.8573C83.937 21.8693 83.8916 21.884 83.8476 21.9026C83.8036 21.9213 83.7583 21.9426 83.7103 21.9666V23.9493H82.877Z" fill="#2D307A"/>
<path d="M87.8063 20.8891C87.637 20.8891 87.513 20.8558 87.433 20.7878C87.353 20.7198 87.313 20.6145 87.313 20.4731C87.313 20.3318 87.353 20.2265 87.433 20.1585C87.513 20.0905 87.637 20.0571 87.8063 20.0571C87.9757 20.0571 88.0997 20.0905 88.177 20.1585C88.2543 20.2265 88.2943 20.3318 88.2943 20.4731C88.2943 20.6145 88.2557 20.7211 88.1797 20.7878C88.1037 20.8558 87.9783 20.8891 87.8063 20.8891ZM87.389 23.9491V21.1851H88.217V23.9491H87.389Z" fill="#2D307A"/>
<path d="M89.845 23.9996C89.6624 23.9996 89.5077 23.9649 89.3823 23.8956C89.257 23.8262 89.1624 23.7182 89.101 23.5702C89.0384 23.4222 89.0063 23.2302 89.0063 22.9929V21.7889H88.6104V21.2342L89.0063 21.1836L89.1024 20.5942H89.8344V21.1836H90.5303V21.7889H89.8344V22.9276C89.8344 23.0636 89.8583 23.1582 89.9077 23.2142C89.957 23.2702 90.0343 23.2982 90.1383 23.2982C90.1957 23.2982 90.257 23.2929 90.321 23.2809C90.385 23.2689 90.4543 23.2542 90.529 23.2382L90.641 23.8689C90.4983 23.9169 90.361 23.9502 90.229 23.9702C90.097 23.9902 89.9677 24.0009 89.8424 24.0009L89.845 23.9996Z" fill="#2D307A"/>
<path d="M92.2187 24C92.0013 24 91.8107 23.9733 91.644 23.9213C91.4773 23.8693 91.336 23.788 91.22 23.6773C91.1027 23.568 91.0147 23.4253 90.9533 23.2506C90.892 23.076 90.8613 22.8693 90.8613 22.628C90.8613 22.3533 90.896 22.1213 90.9653 21.932C91.0347 21.7426 91.1307 21.588 91.2547 21.4693C91.3787 21.3506 91.5253 21.2653 91.6947 21.212C91.864 21.16 92.0493 21.1333 92.248 21.1333C92.6547 21.1333 92.9533 21.2333 93.1453 21.4333C93.3373 21.6333 93.432 21.9586 93.432 22.4093C93.432 22.4426 93.432 22.4866 93.4293 22.5386C93.428 22.5906 93.4253 22.6426 93.4213 22.6933C93.336 22.7 93.2333 22.708 93.1107 22.7186C92.988 22.7293 92.8533 22.7386 92.704 22.7493C92.5547 22.76 92.3973 22.768 92.2307 22.7746C92.0653 22.7813 91.896 22.7866 91.7227 22.7893C91.72 22.8 91.7173 22.8093 91.7173 22.82V22.856C91.7173 22.968 91.74 23.06 91.7853 23.1333C91.8307 23.2066 91.9013 23.26 91.996 23.296C92.0907 23.332 92.2147 23.3493 92.3667 23.3493C92.4613 23.3493 92.5613 23.344 92.6667 23.3346C92.772 23.3253 92.8787 23.3106 92.9867 23.292C93.0947 23.2733 93.204 23.252 93.312 23.228L93.408 23.828C93.2893 23.8653 93.168 23.8973 93.0427 23.924C92.9173 23.9506 92.7867 23.9706 92.652 23.9826C92.516 23.9946 92.3707 24 92.2147 24H92.2187ZM91.7307 22.2973C91.8187 22.2973 91.9067 22.296 91.9947 22.292C92.0827 22.2893 92.1653 22.284 92.244 22.2786C92.3213 22.2733 92.3907 22.2693 92.452 22.2653C92.5133 22.2626 92.564 22.26 92.604 22.26C92.6013 22.124 92.584 22.0173 92.5533 21.9373C92.5227 21.8573 92.4787 21.8013 92.4213 21.7666C92.364 21.7333 92.2907 21.716 92.2027 21.716C92.1413 21.716 92.0853 21.724 92.0347 21.7413C91.984 21.7586 91.9373 21.788 91.8947 21.8306C91.852 21.8733 91.816 21.932 91.788 22.008C91.7587 22.084 91.74 22.18 91.7293 22.2946L91.7307 22.2973Z" fill="#2D307A"/>
<path d="M95.6891 23.9543L95.5931 23.7463C95.4571 23.8303 95.3225 23.8943 95.1865 23.937C95.0505 23.9796 94.9091 24.001 94.7598 24.001C94.4585 24.001 94.2251 23.8823 94.0611 23.645C93.8971 23.4076 93.8145 23.065 93.8145 22.6183C93.8145 22.2823 93.8625 22.0063 93.9598 21.7876C94.0571 21.569 94.2025 21.405 94.3998 21.297C94.5958 21.189 94.8451 21.1343 95.1465 21.1343C95.2145 21.1343 95.2865 21.137 95.3625 21.1423C95.4385 21.1476 95.5131 21.157 95.5838 21.1703V20.189H96.4225V23.9543H95.6905H95.6891ZM95.5825 23.1663V21.7943C95.5145 21.7743 95.4491 21.7596 95.3865 21.7516C95.3238 21.7436 95.2625 21.7383 95.2011 21.7383C95.0825 21.7383 94.9838 21.7636 94.9065 21.8143C94.8291 21.865 94.7705 21.9476 94.7345 22.0636C94.6971 22.1783 94.6785 22.337 94.6785 22.5356C94.6785 22.7183 94.6945 22.8663 94.7265 22.981C94.7585 23.0943 94.8051 23.177 94.8665 23.2303C94.9278 23.2836 95.0025 23.309 95.0905 23.309C95.1411 23.309 95.1931 23.3036 95.2451 23.2943C95.2971 23.2836 95.3518 23.2676 95.4078 23.2463C95.4638 23.2236 95.5225 23.1983 95.5838 23.1676L95.5825 23.1663Z" fill="#2D307A"/>
</g>
<defs>
<linearGradient id="paint0_linear_1169_5757" x1="-0.000232385" y1="10.6641" x2="36.1731" y2="10.6641" gradientUnits="userSpaceOnUse">
<stop stop-color="#2E3192"/>
<stop offset="0.01" stop-color="#303090"/>
<stop offset="0.09" stop-color="#3C2E89"/>
<stop offset="0.2" stop-color="#432D85"/>
<stop offset="0.5" stop-color="#452D84"/>
<stop offset="0.56" stop-color="#4A2C80"/>
<stop offset="0.64" stop-color="#592B78"/>
<stop offset="0.73" stop-color="#732A6A"/>
<stop offset="0.83" stop-color="#962856"/>
<stop offset="0.92" stop-color="#C3263C"/>
<stop offset="1" stop-color="#EC2426"/>
</linearGradient>
<linearGradient id="paint1_linear_1169_5757" x1="36.8548" y1="15.5531" x2="96.4215" y2="15.5531" gradientUnits="userSpaceOnUse">
<stop stop-color="#2E3192"/>
<stop offset="0.01" stop-color="#303090"/>
<stop offset="0.09" stop-color="#3C2E89"/>
<stop offset="0.21" stop-color="#432D85"/>
<stop offset="0.52" stop-color="#452D84"/>
<stop offset="0.55" stop-color="#5B2B77"/>
<stop offset="0.59" stop-color="#812961"/>
<stop offset="0.64" stop-color="#A2274F"/>
<stop offset="0.69" stop-color="#BD2640"/>
<stop offset="0.74" stop-color="#D22534"/>
<stop offset="0.81" stop-color="#E0242C"/>
<stop offset="0.88" stop-color="#E92427"/>
<stop offset="1" stop-color="#EC2426"/>
</linearGradient>
<clipPath id="clip0_1169_5757">
<rect width="96.4213" height="24" fill="white"/>
</clipPath>
</defs>
</svg>
