<svg width="48" height="48" viewBox="0 0 48 48" fill="none" xmlns="http://www.w3.org/2000/svg">
<path d="M22.3572 20.3606C22.3126 19.7187 22.2022 19.1806 22.2022 18.4922C22.2022 18.1193 22.2319 16.9097 22.4019 16.6873C23.0879 17.5982 23.3981 19.1743 23.6827 20.153C23.774 19.8755 23.825 19.5005 23.9036 19.1997C24.065 18.5896 24.6598 16.9796 24.9742 16.6873C25.1229 16.9669 25.159 18.1532 25.159 18.5388C25.159 19.2145 25.0379 19.7801 24.9933 20.3924C25.1611 20.1297 25.3438 19.8437 25.5179 19.5958C25.9024 19.0451 26.9241 17.8079 27.4169 17.5601C27.3001 18.9476 26.5779 20.0683 26.1573 21.0554C26.5163 20.869 27.7674 19.67 29.4051 19.2124C28.8358 20.5385 27.1684 21.888 27.0346 22.0786C27.3043 22.0235 27.5911 21.9007 27.8863 21.8181C28.5724 21.6232 30.0848 21.3584 30.7008 21.4622L30.0041 22.0193C28.9441 22.7925 28.462 22.8667 27.4679 23.3327C27.7291 23.3857 28.6616 23.3814 29.4709 23.5318C29.8618 23.6039 30.8516 23.8305 31.132 24.0043C30.9132 24.197 29.8384 24.4195 29.4433 24.4936C28.7211 24.6271 28.154 24.5889 27.4636 24.6758C28.0818 24.9279 28.634 25.1673 29.1948 25.485C29.575 25.7011 30.5415 26.3154 30.6944 26.5739C28.6213 26.5718 28.4747 26.2371 27.0579 25.949L27.7398 26.6099C28.3218 27.1797 29.0355 28.0589 29.4072 28.7982C28.6107 28.6605 27.196 27.739 26.4844 27.2073C26.374 27.1247 26.2699 27.0187 26.1552 26.9573C26.2444 27.1925 26.4313 27.4848 26.5524 27.7411C26.9369 28.5525 27.3022 29.546 27.4148 30.4527C26.9836 30.2345 26.3761 29.5248 26.0511 29.1308C25.8684 28.9084 25.6645 28.6584 25.4861 28.3872C25.365 28.2029 25.0825 27.8047 24.9912 27.6161C24.9954 27.8703 25.074 28.2135 25.1016 28.4889C25.1632 29.1266 25.1887 30.906 24.9678 31.3234C24.7448 31.12 24.3284 30.0926 24.1925 29.7282C24.0226 29.2727 23.7188 27.9996 23.6466 27.9042C23.5043 28.9634 22.9138 30.5607 22.3934 31.3234L22.3211 31.1306C22.0216 29.6074 22.3488 27.9148 22.3169 27.7432L22.2893 27.6712C21.9898 28.436 20.6346 29.976 19.9315 30.4739C19.9804 29.4697 20.7769 27.6691 21.1975 26.9616C20.9575 27.0992 20.745 27.3111 20.471 27.5039C19.8253 27.9593 18.691 28.6118 17.9433 28.8067C18.6294 27.3238 20.1397 26.1841 20.3223 25.932C19.3006 26.1905 17.8902 26.7031 16.6476 26.5591C16.9938 26.1968 17.6353 25.7922 18.1302 25.4956C18.8248 25.0804 19.4854 24.8855 19.8614 24.6694C19.1095 24.6271 16.7581 24.4576 16.2185 24.0021C17.0576 23.5149 18.948 23.4196 19.8699 23.3454C19.8125 23.3073 18.6889 22.837 18.1239 22.5171C17.6821 22.2672 16.9174 21.763 16.6497 21.4537C17.2296 21.4092 18.0814 21.5194 18.6379 21.6274C19.2964 21.7545 20.0866 22.0384 20.3181 22.0786C20.0781 21.8329 19.8593 21.6719 19.6235 21.441C19.1859 21.0109 18.109 19.723 17.9518 19.2103C19.7998 19.8204 20.8789 20.8966 21.1677 21.03C21.087 20.8033 20.8852 20.458 20.762 20.2144C20.4816 19.653 19.9081 18.0367 19.94 17.5431L20.6218 18.1596C21.6627 19.1595 22.1257 20.1255 22.3572 20.3606ZM29.4624 16.1746C29.4518 16.1789 29.4433 16.1852 29.4327 16.1894C29.4433 16.1852 29.4518 16.181 29.4624 16.1746ZM29.4284 16.1916C29.4199 16.1958 29.4115 16.2 29.4008 16.2064C29.4115 16.2022 29.4199 16.1958 29.4284 16.1916ZM29.3647 16.2255C29.3265 16.2466 29.2861 16.2657 29.2479 16.2869C29.2861 16.2657 29.3244 16.2466 29.3647 16.2255ZM29.0461 16.3992C29.0376 16.4034 29.0291 16.4076 29.0206 16.414C29.0291 16.4098 29.0376 16.4055 29.0461 16.3992ZM29.0164 16.4182C29.0079 16.4225 29.0015 16.4267 28.993 16.4309C28.9994 16.4267 29.0079 16.4225 29.0164 16.4182ZM28.8549 16.5136C28.8486 16.5178 28.8401 16.522 28.8337 16.5263C28.8401 16.522 28.8464 16.5178 28.8549 16.5136ZM28.5151 16.7296C28.5087 16.7339 28.5002 16.7381 28.4938 16.7445C28.5002 16.7381 28.5066 16.7339 28.5151 16.7296ZM27.487 17.3101C27.4891 17.2889 27.4891 17.2677 27.4912 17.2465C27.4891 17.2677 27.487 17.2889 27.487 17.3101ZM27.4997 17.0474C27.5019 17.0262 27.5019 17.0029 27.504 16.9817C27.504 17.0029 27.5019 17.0241 27.4997 17.0474ZM27.5061 16.9627C27.5082 16.9436 27.5082 16.9245 27.5104 16.9055C27.5082 16.9245 27.5061 16.9436 27.5061 16.9627ZM27.5104 16.8864C27.5125 16.8652 27.5125 16.844 27.5146 16.825C27.5125 16.8462 27.5125 16.8652 27.5104 16.8864ZM27.5295 16.611C27.5783 15.9141 27.6144 15.734 27.5911 15.2637C27.6123 15.734 27.5783 15.9141 27.5295 16.611ZM30.0423 17.9647C30.0551 17.9329 30.0699 17.9011 30.0827 17.8672C30.0678 17.9011 30.0551 17.9329 30.0423 17.9647ZM30.0869 17.8566C30.0954 17.8376 30.1018 17.8185 30.1103 17.8016C30.1018 17.8185 30.0933 17.8376 30.0869 17.8566ZM30.1549 17.6872C30.1634 17.666 30.1719 17.6427 30.1804 17.6215C30.1719 17.6427 30.1634 17.6639 30.1549 17.6872ZM30.1846 17.6109C30.1931 17.5897 30.1995 17.5707 30.208 17.5495C30.2016 17.5707 30.1931 17.5897 30.1846 17.6109ZM30.2547 17.4287C30.2632 17.4075 30.2696 17.3885 30.2781 17.3673C30.2696 17.3885 30.2611 17.4075 30.2547 17.4287ZM32.0645 21.5236C32.0539 21.5215 32.0411 21.5215 32.0305 21.5194C32.0411 21.5194 32.0517 21.5215 32.0645 21.5236ZM31.971 21.5109C31.9604 21.5088 31.9477 21.5088 31.937 21.5067L31.971 21.5109ZM30.8176 21.4325C30.8176 21.4325 30.8197 21.4304 30.8197 21.4283C30.8197 21.4304 30.8197 21.4325 30.8176 21.4325ZM30.8282 21.4219C30.8304 21.4198 30.8325 21.4177 30.8346 21.4134C30.8325 21.4156 30.8304 21.4198 30.8282 21.4219ZM30.8601 21.3859C31.0173 21.2228 31.5887 20.6699 32.1346 20.0428C31.5887 20.6699 31.0194 21.2249 30.8601 21.3859ZM32.9099 24.8029C32.5806 24.6165 31.9519 24.3263 31.5781 24.142C31.9498 24.3263 32.5806 24.6186 32.9099 24.8029ZM31.5462 24.1271C31.5398 24.1229 31.5335 24.1208 31.5271 24.1165C31.5335 24.1186 31.5398 24.1229 31.5462 24.1271ZM31.5228 24.1144C31.5165 24.1102 31.5101 24.1081 31.5037 24.1038C31.5101 24.1081 31.5165 24.1123 31.5228 24.1144ZM31.3614 24.0297C31.3593 24.0276 31.355 24.0276 31.3529 24.0254C31.3571 24.0254 31.3593 24.0276 31.3614 24.0297ZM31.3338 24.0127C31.3317 24.0106 31.3295 24.0106 31.3274 24.0085C31.3295 24.0106 31.3317 24.0127 31.3338 24.0127ZM31.321 24.0064C31.3189 24.0043 31.3168 24.0043 31.3147 24.0021C31.3189 24.0043 31.321 24.0043 31.321 24.0064ZM31.3019 23.9937C31.2998 23.9915 31.2977 23.9915 31.2977 23.9894C31.2998 23.9915 31.2998 23.9915 31.3019 23.9937ZM31.2955 23.9873C31.2934 23.9852 31.2934 23.9852 31.2913 23.9831C31.2913 23.9852 31.2934 23.9873 31.2955 23.9873ZM31.6758 29.3829C31.3338 30.0375 30.9302 30.6455 30.4714 31.1984L31.6758 29.3829ZM30.4438 31.1094C30.4417 31.1009 30.4374 31.0924 30.4353 31.0819C30.4395 31.0924 30.4417 31.1009 30.4438 31.1094ZM30.3291 30.7789C30.3248 30.7704 30.3227 30.7599 30.3185 30.7514C30.3227 30.762 30.3269 30.7704 30.3291 30.7789ZM30.2547 30.5861C30.2484 30.5713 30.242 30.5544 30.2356 30.5395C30.2441 30.5544 30.2505 30.5713 30.2547 30.5861ZM30.1698 30.3785C30.1655 30.3701 30.1613 30.3595 30.157 30.351C30.1634 30.3595 30.1655 30.3679 30.1698 30.3785ZM30.1103 30.2345C30.1018 30.2154 30.0933 30.1942 30.0848 30.1752C30.0912 30.1964 30.0997 30.2154 30.1103 30.2345ZM30.0636 30.1328C30.0487 30.101 30.0359 30.0693 30.0211 30.0396C30.0359 30.0693 30.0508 30.101 30.0636 30.1328ZM30.019 30.029C30.0147 30.0184 30.0105 30.0078 30.0041 29.9972C30.0083 30.0078 30.0126 30.0184 30.019 30.029ZM29.9064 29.7875C29.8342 29.6307 29.7598 29.4697 29.6833 29.3045C29.7598 29.4697 29.8342 29.6286 29.9064 29.7875ZM29.6579 29.2473C29.6515 29.2304 29.643 29.2155 29.6366 29.1986L29.6579 29.2473ZM29.6302 29.188C29.6239 29.1732 29.6175 29.1605 29.6111 29.1456C29.6175 29.1583 29.6239 29.1732 29.6302 29.188ZM29.5814 29.08C29.575 29.0651 29.5686 29.0503 29.5623 29.0355C29.5686 29.0524 29.575 29.0672 29.5814 29.08ZM29.558 29.027C29.5516 29.0101 29.5431 28.9952 29.5368 28.9783C29.5431 28.9952 29.5495 29.0101 29.558 29.027ZM29.4858 28.8639C29.5028 28.8681 29.5198 28.8702 29.5368 28.8745C29.5198 28.8702 29.5028 28.866 29.4858 28.8639ZM29.6026 28.8872C29.6175 28.8914 29.6324 28.8935 29.6494 28.8978C29.6345 28.8935 29.6175 28.8914 29.6026 28.8872ZM27.5826 33.2596C27.5847 33.2447 27.5847 33.2278 27.5868 33.213C27.5847 33.2278 27.5826 33.2426 27.5826 33.2596ZM27.5868 33.2024C27.5911 33.1325 27.5953 33.0626 27.5996 32.9969C27.5953 33.0647 27.5911 33.1325 27.5868 33.2024ZM27.6038 32.5499C27.5953 32.1516 27.5528 31.8212 27.521 31.4483C27.5528 31.8191 27.5953 32.1516 27.6038 32.5499ZM27.521 31.4483C27.5189 31.4335 27.5189 31.4166 27.5167 31.4017C27.5167 31.4166 27.5189 31.4335 27.521 31.4483ZM27.5082 31.2958C27.5061 31.2619 27.504 31.228 27.5019 31.1941C27.5019 31.2301 27.5061 31.264 27.5082 31.2958ZM27.4997 31.1857C27.4997 31.1729 27.4976 31.1602 27.4976 31.1475C27.4976 31.1581 27.4997 31.1729 27.4997 31.1857ZM27.4955 31.1306C27.4955 31.1179 27.4934 31.1073 27.4934 31.0946C27.4955 31.1073 27.4955 31.1179 27.4955 31.1306ZM27.487 30.9717C27.487 30.9547 27.4849 30.9357 27.4849 30.9187L27.487 30.9717ZM27.4806 30.7323C27.4806 30.7196 27.4806 30.7069 27.4806 30.6963V30.7323ZM27.4806 30.6137C27.4806 30.5946 27.4806 30.5734 27.4806 30.5544C27.4785 30.5756 27.4785 30.5946 27.4806 30.6137ZM23.9397 34.5179C23.9418 34.5116 23.9461 34.5073 23.9482 34.501C23.9461 34.5052 23.9418 34.5116 23.9397 34.5179ZM23.9503 34.4946C23.9588 34.4755 23.9695 34.4565 23.978 34.4395C23.9695 34.4586 23.9588 34.4755 23.9503 34.4946ZM23.978 34.4374C23.9971 34.3972 24.0162 34.3569 24.0353 34.3145C24.0162 34.3569 23.9971 34.3993 23.978 34.4374ZM24.0672 34.2489C24.133 34.1069 24.1967 33.9565 24.2541 33.8188C24.1967 33.9565 24.1309 34.1048 24.0672 34.2489ZM20.5921 33.7087C20.6813 33.6176 20.7727 33.5223 20.864 33.4227C20.7727 33.5223 20.6834 33.6176 20.5921 33.7087ZM20.864 33.4227C20.9213 33.3613 20.9787 33.2977 21.0339 33.2342C20.9787 33.2977 20.9213 33.3591 20.864 33.4227ZM21.2994 32.9249L21.3164 32.9037C21.3122 32.91 21.3058 32.9164 21.2994 32.9249ZM23.3386 34.3273C23.3471 34.3463 23.3556 34.3633 23.3641 34.3802C23.3556 34.3633 23.3471 34.3442 23.3386 34.3273ZM23.3662 34.3866C23.3747 34.4035 23.3832 34.4226 23.3917 34.4395C23.3832 34.4226 23.3747 34.4056 23.3662 34.3866ZM17.5907 32.0076L17.6544 31.9758C17.6353 31.9864 17.6141 31.997 17.5907 32.0076ZM18.1855 31.6877C18.2173 31.6687 18.2471 31.6517 18.2789 31.6326C18.2471 31.6517 18.2152 31.6708 18.1855 31.6877ZM18.4213 31.5458C18.451 31.5267 18.4828 31.5077 18.5126 31.4886C18.4807 31.5098 18.451 31.5288 18.4213 31.5458ZM18.7484 31.3382C18.7569 31.3318 18.7675 31.3255 18.776 31.3191C18.7675 31.3255 18.759 31.3318 18.7484 31.3382ZM18.7781 31.317C18.7972 31.3043 18.8163 31.2916 18.8355 31.2789C18.8163 31.2937 18.7972 31.3043 18.7781 31.317ZM19.0096 31.1624C19.0245 31.1518 19.0394 31.1412 19.0542 31.1306C19.0394 31.1433 19.0245 31.1539 19.0096 31.1624ZM19.8848 30.6815C19.8826 30.7027 19.8826 30.7238 19.8805 30.745L19.8848 30.6815ZM19.855 31.0903C19.8529 31.1157 19.8508 31.139 19.8487 31.1624L19.855 31.0903ZM19.8487 31.1645C19.8465 31.1878 19.8444 31.2111 19.8423 31.2344L19.8487 31.1645ZM19.7764 32.1135C19.7764 32.1241 19.7743 32.1326 19.7743 32.1432C19.7764 32.1326 19.7764 32.122 19.7764 32.1135ZM19.7743 32.1495C19.7743 32.158 19.7743 32.1686 19.7722 32.1771C19.7743 32.1686 19.7743 32.1601 19.7743 32.1495ZM19.7722 32.1855C19.7722 32.194 19.7722 32.2046 19.7701 32.2131C19.7722 32.2046 19.7722 32.1961 19.7722 32.1855ZM19.7722 32.2194C19.7701 32.2618 19.7701 32.3042 19.7679 32.3444C19.7679 32.3021 19.7701 32.2618 19.7722 32.2194ZM19.7658 32.3847V32.4101C19.7658 32.4016 19.7658 32.3931 19.7658 32.3847ZM19.7658 32.4207V32.444C19.7658 32.4376 19.7658 32.4292 19.7658 32.4207ZM19.7658 32.4567V32.4821C19.7658 32.4736 19.7658 32.4652 19.7658 32.4567ZM19.7679 32.5838V32.6113C19.7679 32.6029 19.7679 32.5944 19.7679 32.5838ZM19.7679 32.6219V32.6474C19.7701 32.6389 19.7679 32.6304 19.7679 32.6219ZM19.7722 32.6982V32.7236C19.7722 32.7151 19.7722 32.7067 19.7722 32.6982ZM19.7722 32.7384C19.7722 32.7469 19.7722 32.7554 19.7743 32.7639C19.7743 32.7554 19.7743 32.7469 19.7722 32.7384ZM19.7743 32.7766C19.7743 32.7851 19.7743 32.7956 19.7764 32.8041C19.7764 32.7956 19.7743 32.7851 19.7743 32.7766ZM19.7764 32.8105C19.7786 32.8444 19.7807 32.8804 19.7828 32.9164C19.7807 32.8783 19.7786 32.8444 19.7764 32.8105ZM19.7849 32.9312C19.7849 32.9418 19.7871 32.9503 19.7871 32.9609C19.7849 32.9503 19.7849 32.9397 19.7849 32.9312ZM19.7977 33.1219C19.7977 33.1325 19.7998 33.1431 19.7998 33.1537C19.7998 33.1452 19.7998 33.1346 19.7977 33.1219ZM19.8019 33.1664C19.8062 33.2087 19.8083 33.2511 19.8125 33.2956C19.8083 33.2511 19.8062 33.2066 19.8019 33.1664ZM19.838 33.5562L19.8444 33.6134C19.8402 33.5922 19.838 33.5731 19.838 33.5562ZM16.8876 31.2534C16.4118 30.6878 15.9934 30.0629 15.6429 29.3914L16.8876 31.2534ZM15.7491 29.3723L15.8511 29.3532C15.8171 29.3596 15.7831 29.3659 15.7491 29.3723ZM15.9573 29.3342C16.4819 29.2325 16.9747 29.0906 17.5185 28.9507C16.9747 29.0906 16.4819 29.2304 15.9573 29.3342ZM17.527 28.9486C17.561 28.9401 17.5971 28.9317 17.6332 28.9211C17.5971 28.9296 17.5631 28.9401 17.527 28.9486ZM17.8201 28.8745C17.8371 28.8702 17.8562 28.866 17.8732 28.8618C17.8562 28.866 17.8392 28.8702 17.8201 28.8745ZM17.0958 30.6433C17.0916 30.6582 17.0852 30.673 17.0809 30.6878C17.0852 30.673 17.0894 30.6582 17.0958 30.6433ZM17.0066 30.8912C17.0023 30.906 16.996 30.9209 16.9917 30.9357C16.996 30.923 17.0023 30.9081 17.0066 30.8912ZM14.6977 26.3853C14.7189 26.3875 14.738 26.3917 14.7593 26.3938C14.7401 26.3917 14.7189 26.3896 14.6977 26.3853ZM14.9016 26.415C14.9207 26.4171 14.9398 26.4214 14.9589 26.4235C14.9398 26.4214 14.9207 26.4192 14.9016 26.415ZM15.1034 26.4425C15.1225 26.4447 15.1416 26.4468 15.1607 26.4489C15.1416 26.4489 15.1225 26.4447 15.1034 26.4425ZM15.6047 26.5019C15.6195 26.504 15.6344 26.504 15.6493 26.5061C15.6344 26.5061 15.6195 26.504 15.6047 26.5019ZM15.0673 24.4851L15.0418 24.4978C15.0503 24.4936 15.0588 24.4894 15.0673 24.4851ZM14.8315 24.6101L14.8081 24.6228C14.8166 24.6186 14.8251 24.6144 14.8315 24.6101ZM14.5044 24.7902C14.4916 24.7965 14.481 24.8029 14.4683 24.8114L14.5044 24.7902ZM16.5117 21.3732C16.5159 21.3774 16.5202 21.3838 16.5244 21.388C16.5202 21.3817 16.5159 21.3774 16.5117 21.3732ZM16.5478 21.4177C16.5499 21.4219 16.5541 21.424 16.5563 21.4283C16.5541 21.424 16.552 21.4198 16.5478 21.4177ZM16.312 21.4431C16.295 21.4452 16.2759 21.4452 16.2589 21.4473L16.312 21.4431ZM15.4432 21.5194C15.4326 21.5215 15.4199 21.5215 15.4092 21.5236C15.4199 21.5215 15.4305 21.5194 15.4432 21.5194ZM15.3795 21.5257C15.3689 21.5278 15.3604 21.5278 15.3498 21.53C15.3604 21.5278 15.371 21.5278 15.3795 21.5257ZM15.3285 21.5321C15.3158 21.5342 15.303 21.5342 15.2903 21.5363C15.303 21.5363 15.3158 21.5342 15.3285 21.5321ZM14.9696 21.5787C14.9207 21.585 14.874 21.5935 14.8272 21.5999C14.874 21.5935 14.9207 21.5872 14.9696 21.5787ZM19.8019 14.9523C19.7998 14.9883 19.7977 15.0243 19.7977 15.0603C19.7977 15.0264 19.7998 14.9904 19.8019 14.9523ZM19.7956 15.0709C19.7956 15.0815 19.7956 15.0942 19.7934 15.1048C19.7956 15.0942 19.7956 15.0836 19.7956 15.0709ZM19.7956 15.1091C19.7934 15.1472 19.7934 15.1832 19.7913 15.2192C19.7913 15.1832 19.7934 15.1472 19.7956 15.1091ZM19.7871 15.3421V15.376C19.7871 15.3654 19.7871 15.3527 19.7871 15.3421ZM19.7871 15.3823V15.4501C19.7871 15.4268 19.7871 15.4056 19.7871 15.3823ZM19.7849 15.4544V15.4883C19.7849 15.4777 19.7849 15.4671 19.7849 15.4544ZM19.7849 15.4988V15.6027C19.7849 15.5666 19.7849 15.5327 19.7849 15.4988ZM19.7849 15.6514V15.717C19.7849 15.6959 19.7849 15.6726 19.7849 15.6514ZM19.7871 15.7255V15.7573C19.7871 15.7467 19.7871 15.7361 19.7871 15.7255ZM19.7892 15.9246C19.7892 15.9437 19.7913 15.9649 19.7913 15.984C19.7913 15.9649 19.7913 15.9437 19.7892 15.9246ZM19.7977 16.1577C19.7977 16.1661 19.7977 16.1767 19.7998 16.1852C19.7998 16.1767 19.7977 16.1661 19.7977 16.1577ZM19.7998 16.2085C19.7998 16.2233 19.8019 16.2361 19.8019 16.2509C19.8019 16.2382 19.8019 16.2233 19.7998 16.2085ZM19.8041 16.2742C19.8041 16.2827 19.8041 16.2933 19.8062 16.3017C19.8041 16.2911 19.8041 16.2827 19.8041 16.2742ZM19.8168 16.4966L19.8189 16.5284C19.8168 16.5178 19.8168 16.5072 19.8168 16.4966ZM21.3525 15.1599L21.3334 15.1366C21.3398 15.1451 21.3462 15.1514 21.3525 15.1599ZM21.1826 14.9608C21.1741 14.9523 21.1656 14.9417 21.1592 14.9332C21.1677 14.9417 21.1762 14.9502 21.1826 14.9608ZM21.1083 14.8739L21.0913 14.8549C21.0976 14.8591 21.1019 14.8654 21.1083 14.8739ZM20.7918 14.518C20.7811 14.5074 20.7705 14.4947 20.7599 14.4841C20.7705 14.4947 20.7811 14.5053 20.7918 14.518Z" fill="#E2E8F0"/>
<path d="M14.1749 29.4931C14.4107 28.991 14.9311 28.3449 15.2604 27.9382C15.4579 27.6924 15.6703 27.4573 15.8721 27.2412C16.0293 27.0739 16.4754 26.7328 16.5476 26.5845C15.6002 26.521 13.7183 26.3345 12.8983 25.9151C12.9451 25.8176 12.8835 25.9087 12.9578 25.8325C13.4485 25.3219 15.4197 24.2394 16.1036 24.0212L14.3916 23.1654C14.0921 22.998 12.9876 22.3138 12.9047 22.085C14.0326 21.6656 15.2667 21.4982 16.5561 21.4262C16.3904 21.1868 14.9141 19.9814 14.1813 18.5367C14.6677 18.4795 15.6512 18.6256 16.144 18.7104C16.7855 18.8205 17.3017 19.0154 17.8709 19.1404C17.7966 18.9159 17.5905 18.5875 17.4864 18.3503C17.1466 17.577 16.7324 16.4564 16.6262 15.6175C17.1126 15.7552 17.9495 16.1789 18.3488 16.4183L19.8973 17.4393C19.7529 16.0052 19.738 15.1409 19.9143 13.7194C20.2924 13.8719 21.4925 15.287 21.8218 15.7531C21.9471 15.9289 22.2296 16.3992 22.3571 16.5284L22.9115 14.6981C23.1748 13.9821 23.5105 13.4355 23.6528 13.0627C23.827 13.1941 24.0011 13.6283 24.0882 13.8211C24.222 14.1113 24.3304 14.3846 24.4493 14.6748C24.7042 15.2976 24.8168 15.8781 24.9973 16.5602C25.3308 16.1365 25.556 15.6938 26.104 15.0328C26.344 14.7447 27.1639 13.8486 27.4571 13.7215C27.6886 16.0857 27.5845 15.2722 27.4783 17.4203C27.6206 17.3631 27.5548 17.397 27.6822 17.3059C28.4724 16.7381 28.9248 16.4119 29.8573 15.9755C30.1377 15.8442 30.4861 15.7234 30.7367 15.5879C31.0681 14.5392 31.0596 12.5162 31.0277 11.3299C30.4223 11.5311 28.825 12.5882 28.2621 13.0309C28.1071 13.1517 27.5612 13.641 27.4358 13.641C26.8857 11.4146 27.1172 11.8933 26.2527 9.60547C25.6749 9.88086 23.6783 12.9886 23.6719 12.9928C23.5508 12.8488 22.9221 11.7599 22.5142 11.2303C22.27 10.9125 21.4033 9.76435 21.1378 9.61394C20.6748 10.1753 20.0906 12.8636 19.9249 13.6686C19.7784 13.5987 19.6509 13.4652 19.532 13.3656C19.3812 13.2407 19.2622 13.1474 19.1093 13.0394C18.608 12.6878 16.7664 11.3786 16.3373 11.3532C16.3118 12.1137 16.3097 12.781 16.3522 13.5372C16.3925 14.2702 16.5391 14.9015 16.6049 15.5857C16.0527 15.4438 15.5131 15.1938 14.6699 14.9947C13.9795 14.8316 13.1809 14.6536 12.4502 14.5922C12.5712 15.2002 12.9599 16.0984 13.2 16.6492C13.3423 16.9775 13.4952 17.3059 13.6545 17.5961C13.7522 17.7762 14.1027 18.3799 14.1282 18.5197C13.2425 18.5494 10.6362 18.6511 9.92033 19.0006C9.98193 19.1552 10.4301 19.706 10.5597 19.8437C11.1736 20.5047 11.7195 21.1508 12.4119 21.7291C12.5585 21.8499 12.6817 21.9346 12.8198 22.0808C12.7135 22.1697 12.002 22.4218 11.8193 22.496C10.8847 22.8794 9.82262 23.4577 9.01758 23.9831C9.27672 24.3051 11.1821 25.2372 11.7768 25.4872C12.0742 25.6122 12.5542 25.7414 12.8176 25.9087C12.8113 25.9193 12.7985 25.9214 12.7964 25.9363L12.036 26.6332C11.7449 26.879 11.5325 27.095 11.2734 27.3662C10.9845 27.6691 10.0839 28.6521 9.90971 28.991C10.4832 29.3617 13.3869 29.4634 14.1749 29.4931Z" fill="#64748B"/>
<path d="M30.7386 15.5944C30.6558 16.626 29.9123 18.3589 29.4918 19.1321C29.6872 19.1194 30.0908 18.9669 30.3159 18.9118C30.6091 18.8376 30.8958 18.772 31.1996 18.7169C31.8432 18.5983 32.5059 18.5389 33.1877 18.5262C32.7757 19.5748 30.8533 21.3713 30.8193 21.4348C32.0131 21.4412 33.4363 21.7144 34.4707 22.0873C34.4219 22.2504 34.4962 22.1233 34.3539 22.2377C33.5255 22.9007 32.2786 23.621 31.2845 23.9811C31.3716 24.0701 32.5632 24.5955 32.9796 24.8476C33.1707 24.962 34.3475 25.6886 34.4728 25.9174C33.8653 26.1928 32.5802 26.4321 31.8602 26.5148C31.5394 26.5508 31.0997 26.5423 30.813 26.5995L31.4523 27.2117C31.6647 27.4299 31.8729 27.6672 32.0747 27.9002C32.3445 28.2116 33.0178 29.0674 33.1814 29.4869C31.5097 29.5271 30.7131 29.1162 29.4875 28.8662C30.0164 30.0758 30.5156 30.8723 30.7493 32.4145C31.3398 32.5607 32.0237 32.853 32.7034 33.0161C33.4214 33.1877 34.1542 33.3233 34.9253 33.4208C34.8 32.7302 34.082 31.0757 33.706 30.383C33.6147 30.2135 33.2408 29.6182 33.26 29.4932C34.4261 29.4826 36.0659 29.364 37.2321 29.078L37.4572 28.9996C37.1747 28.5209 36.4865 27.7922 36.0744 27.3685L34.5599 25.9195L36.5332 25.0679L38.3345 24.0044C37.7673 23.4303 34.562 22.0958 34.5557 22.0894L35.3501 21.367C35.9449 20.848 37.094 19.6215 37.4636 19.0113C36.6246 18.6131 34.0693 18.6067 33.243 18.522C33.2536 18.3822 33.6019 17.8272 33.7103 17.628C34.0841 16.9395 34.7766 15.3211 34.9189 14.6072C34.3369 14.6178 33.2812 14.855 32.7119 14.997C32.0067 15.1707 31.104 15.5075 30.7386 15.5944ZM14.1514 29.4869C14.0473 29.7496 13.7988 30.1309 13.6416 30.4338C13.4802 30.7473 13.3315 31.0609 13.187 31.3829C12.8854 32.0586 12.6624 32.7323 12.4287 33.4335C13.153 33.2704 13.905 33.1941 14.6399 33.0183C15.36 32.8446 15.9484 32.6052 16.5962 32.4166C16.5941 32.7005 16.4943 33.1221 16.4539 33.4292C16.3074 34.5499 16.301 35.5159 16.3328 36.6556C16.6047 36.6471 17.9833 35.7574 18.2403 35.5858L19.536 34.6367C19.6868 34.5223 19.7612 34.4249 19.9184 34.3359C20.2285 35.6281 20.2731 36.1577 20.7468 37.4627C20.8084 37.6322 20.8636 37.7741 20.9252 37.9393L21.1376 38.3969C21.4074 38.2317 22.2315 37.1301 22.5013 36.8017C23.0217 36.1705 23.2915 35.5392 23.6653 35.018L24.8676 36.8102C25.1649 37.2 25.8956 38.1279 26.2291 38.416C26.6858 37.5983 27.2912 35.4269 27.4293 34.3232L26.7623 33.658C26.6518 33.5458 26.5329 33.4568 26.4288 33.3381C25.97 32.8276 25.3561 32.0692 25.0311 31.4591C24.9334 31.5968 24.8102 32.2239 24.7592 32.4124C24.6743 32.7238 24.5659 33.0331 24.4555 33.3212C24.3429 33.6135 23.8565 34.8232 23.6823 34.9206C23.4848 34.7469 23.0493 33.6517 22.9219 33.3339C22.8072 33.05 22.701 32.7175 22.6181 32.4272C22.5332 32.137 22.4779 31.6879 22.359 31.4718C22.1997 31.6477 21.9724 32.0353 21.8279 32.2429C21.4244 32.8213 20.4409 33.9758 19.912 34.2872C19.6953 32.137 19.7506 32.6285 19.895 30.5673C19.7845 30.6202 19.8037 30.6139 19.7017 30.6838C18.7671 31.332 17.807 32.0247 16.6472 32.3849C16.6132 31.8616 17.2122 30.2749 17.482 29.6818C17.5924 29.4382 17.807 29.0865 17.8771 28.8598C16.5962 29.1691 15.6637 29.525 14.1514 29.4869Z" fill="#64748B"/>
<path d="M27.4399 34.3294C27.6184 34.446 27.6863 34.5159 27.8648 34.6599C28.5636 35.2234 30.3118 36.4563 31.0361 36.6724C31.0063 34.9798 31.1168 34.1812 30.7472 32.4123C30.1354 32.1348 29.5619 31.906 28.9927 31.5755C28.3108 31.1794 27.8117 30.7536 27.4803 30.5544C27.4739 31.9335 27.7883 32.353 27.4399 34.3294Z" fill="#64748B"/>
<path d="M30.7388 15.5942C31.1042 15.5073 32.0069 15.1705 32.71 14.9947C33.2793 14.8527 34.335 14.6155 34.917 14.6049C34.7768 15.3167 34.0822 16.9372 33.7084 17.6257C33.6 17.8248 33.2517 18.3799 33.2411 18.5197C34.0673 18.6044 36.6205 18.6108 37.4617 19.009C37.0921 19.6191 35.9429 20.8436 35.3482 21.3647L34.5538 22.0871C34.558 22.0934 37.7633 23.428 38.3326 24.0021L36.5313 25.0656L34.558 25.9172L36.0725 27.3662C36.4846 27.7898 37.1728 28.5207 37.4553 28.9973L37.2302 29.0757C36.0619 29.3638 34.4242 29.4803 33.258 29.4909C33.2368 29.6159 33.6107 30.2091 33.7041 30.3807C34.0801 31.0734 34.8002 32.7279 34.9234 33.4185C34.1523 33.321 33.4195 33.1854 32.7015 33.0138C32.0218 32.8528 31.3378 32.5584 30.7473 32.4122C31.1169 34.1811 31.0065 34.9797 31.0362 36.6723C30.3119 36.4563 28.5616 35.2255 27.8649 34.6598C27.6865 34.5158 27.6206 34.448 27.4401 34.3294L27.4316 34.3188C27.2914 35.4203 26.686 37.5938 26.2315 38.4115C25.9001 38.1234 25.1673 37.1956 24.8699 36.8058L23.6676 35.0136C23.2959 35.5347 23.024 36.166 22.5036 36.7973C22.2317 37.1278 21.4097 38.2272 21.1399 38.3925L20.9275 37.9349C20.8659 37.7718 20.8107 37.6299 20.7491 37.4583C20.2754 36.1533 20.2287 35.6237 19.9207 34.3315C19.7635 34.4205 19.6913 34.5179 19.5383 34.6323L18.2426 35.5813C17.9835 35.7508 16.6049 36.6427 16.3352 36.6511C16.3033 35.5114 16.3076 34.5476 16.4562 33.4248C16.4966 33.1198 16.5964 32.6961 16.5986 32.4122C15.9507 32.6007 15.3623 32.8401 14.6422 33.0138C13.9073 33.1918 13.1575 33.2659 12.431 33.429C12.6668 32.7279 12.8877 32.0563 13.1893 31.3784C13.3317 31.0585 13.4804 30.7429 13.6439 30.4294C13.799 30.1264 14.0475 29.7451 14.1537 29.4825L14.1771 29.4888C13.3911 29.4591 10.4853 29.3575 9.91183 28.991C10.086 28.652 10.9866 27.6691 11.2755 27.3662C11.5347 27.0929 11.7471 26.8789 12.0381 26.6332L12.7985 25.9362C12.8028 25.9214 12.8134 25.9193 12.8198 25.9087C12.5564 25.7413 12.0763 25.6121 11.7789 25.4871C11.1842 25.2372 9.27672 24.3051 9.0197 23.9831C9.82261 23.4577 10.8868 22.8815 11.8214 22.4959C12.0041 22.4218 12.7157 22.1697 12.8219 22.0807C12.6817 21.9324 12.5585 21.8498 12.414 21.7291C11.7216 21.1507 11.1736 20.5046 10.5618 19.8437C10.4322 19.7039 9.98405 19.1552 9.92245 19.0006C10.6383 18.6531 13.2446 18.5515 14.1303 18.5197C14.1048 18.382 13.7544 17.7761 13.6567 17.5961C13.4995 17.3058 13.3444 16.9775 13.2021 16.6491C12.9642 16.0983 12.5734 15.2001 12.4523 14.5922C13.1809 14.6536 13.9816 14.8294 14.672 14.9947C15.5153 15.1959 16.0548 15.4459 16.6071 15.5857C16.5412 14.9036 16.3946 14.2723 16.3543 13.5372C16.3118 12.783 16.3139 12.1136 16.3394 11.3531C16.7706 11.3785 18.6122 12.6877 19.1114 13.0394C19.2643 13.1474 19.3833 13.2406 19.5341 13.3656C19.653 13.4652 19.7826 13.5986 19.9271 13.6685C20.0949 12.8657 20.6769 10.1753 21.1399 9.61389C21.4076 9.7643 22.2721 10.9125 22.5164 11.2302C22.9242 11.7577 23.5508 12.8466 23.674 12.9928C23.6804 12.9885 25.6771 9.88293 26.2548 9.60542C27.1193 11.8933 26.8878 11.4167 27.438 13.641C27.5633 13.641 28.1092 13.1538 28.2642 13.0309C28.8271 12.5881 30.4245 11.5289 31.0298 11.3298C31.0617 12.5246 31.0702 14.5477 30.7388 15.5942ZM12.4289 33.4333C12.2038 33.9036 11.9234 35.289 11.8065 35.8928C11.6366 36.7677 11.5198 37.6468 11.4221 38.5535C11.7534 38.5619 13.5696 37.9074 13.9625 37.7548C14.3789 37.5938 14.7824 37.4392 15.1584 37.2676C15.4876 37.1172 16.0293 36.8185 16.3373 36.7316C16.3862 37.9476 16.76 40.7778 17.1593 41.8709C17.565 41.6908 19.0371 40.4367 19.4598 40.0639L21.1421 38.473C21.4947 39.3924 23.007 42.212 23.6698 43C23.7526 42.9513 23.691 43.0043 23.7696 42.9132C24.205 42.4047 25.3691 40.2652 25.6728 39.6741C25.8066 39.4114 26.1104 38.6636 26.2463 38.4878L26.6988 38.9094C26.8772 39.0767 26.9706 39.1932 27.1533 39.3902C27.5208 39.7843 29.7894 41.676 30.2227 41.8794C30.5902 40.1338 30.9449 38.6488 31.0362 36.7465C31.2592 36.7867 31.9326 37.1469 32.1939 37.2612C32.5868 37.4328 32.9755 37.596 33.3855 37.7527C34.1013 38.0281 35.191 38.4327 35.9493 38.5789C35.8601 37.3693 35.5776 35.8271 35.2845 34.6429C35.1889 34.2616 35.0274 33.8019 34.968 33.4502C35.79 33.4672 36.6545 33.6028 37.5275 33.6112C38.443 33.6218 39.2969 33.5773 40.2018 33.5307C39.9512 32.7469 38.7999 30.8954 38.2795 30.118L37.5382 29.0461C37.6295 28.9846 39.7302 28.4021 40.0829 28.2771C40.6755 28.0674 41.9818 27.6182 42.4449 27.3174L42.258 27.0844C41.2341 26.146 40.6542 25.6502 39.5136 24.7796C39.3245 24.6355 38.5153 24.1165 38.4324 24.0021C38.5726 23.875 38.7765 23.7627 38.9486 23.6399C39.144 23.5001 39.3139 23.3878 39.4966 23.2522C39.8768 22.9726 40.1848 22.7332 40.5225 22.4557L41.9988 21.1741C42.1602 21.0321 42.328 20.8881 42.4661 20.6762L40.1126 19.7484C39.3904 19.4963 38.3092 19.1277 37.5275 19.0027C37.6189 18.8205 37.7697 18.6426 37.8908 18.4773C38.4558 17.7083 40.0446 15.1281 40.1997 14.4841C39.3075 14.4354 38.4303 14.3888 37.5297 14.4079C37.1091 14.4163 36.6779 14.4312 36.2594 14.4608C35.841 14.4884 35.3716 14.5646 34.968 14.5689C35.3248 12.9398 35.8856 11.2747 35.9472 9.43807C35.0381 9.63084 33.1157 10.3426 32.2024 10.7536C31.956 10.8638 31.2146 11.2514 31.0362 11.2705C30.9916 9.86175 30.6326 7.38109 30.2121 6.14182C29.8828 6.31765 28.4639 7.45735 28.1474 7.7391C27.8054 8.04415 27.5123 8.31107 27.1894 8.60341C26.9579 8.81314 26.429 9.42112 26.2484 9.52916C26.0976 9.32579 25.813 8.60129 25.6771 8.32802C25.4753 7.92129 25.2798 7.55268 25.0589 7.17137C24.9166 6.92563 23.931 5.18006 23.6613 5C23.4956 5.31776 23.1961 5.70755 22.9879 6.04649C22.4845 6.86844 21.3842 8.7284 21.1569 9.54611C20.9891 9.46772 20.0184 8.41276 19.7359 8.18397C18.8268 7.44253 18.2681 6.89174 17.1763 6.14606C16.9257 6.63541 16.5391 9.12031 16.452 9.902C16.4031 10.332 16.3946 10.8892 16.3203 11.2917C15.8827 11.1349 14.8185 10.5841 13.9859 10.2748C13.2063 9.98673 12.2441 9.60754 11.4348 9.44442C11.4348 10.1732 11.6664 11.3976 11.8065 12.1136C11.9574 12.8868 12.3418 14.2024 12.4055 14.5794C11.5368 14.5074 10.7509 14.4333 9.86085 14.4121C8.9496 14.3909 8.08508 14.4481 7.18446 14.4905C7.26517 14.8803 8.18279 16.45 8.40583 16.8207C8.87738 17.6109 9.35318 18.2824 9.85023 18.9667C9.79713 19.0048 7.6199 19.6276 7.3119 19.7357C6.52173 20.0026 5.62747 20.3415 4.90527 20.6911C5.16654 21.0766 7.39687 22.9048 7.83231 23.2183C8.17642 23.4662 8.6416 23.7394 8.93898 23.9979L8.888 24.0487C8.59487 24.2987 7.47546 25.0211 6.83822 25.5613C6.36879 25.9595 5.24088 26.9001 4.90952 27.309C5.69969 27.7432 7.52644 28.3724 8.50354 28.6647C8.89225 28.7813 9.51462 28.8575 9.82686 29.0397C9.66118 29.3405 8.79879 30.5332 8.40795 31.1899C8.17005 31.5903 7.27367 33.1494 7.17171 33.5286C9.02819 33.5943 10.5809 33.6578 12.4289 33.4333Z" fill="#475569"/>
<path d="M22.3572 20.3605C22.3125 19.7186 22.2021 19.1805 22.2021 18.4921C22.2021 18.1192 22.2318 16.9096 22.4018 16.6872C23.0879 17.5981 23.398 19.1742 23.6826 20.1529C23.7739 19.8754 23.8249 19.5004 23.9035 19.1996C24.0649 18.5895 24.6597 16.9795 24.9741 16.6872C25.1228 16.9668 25.1589 18.1531 25.1589 18.5387C25.1589 19.2144 25.0378 19.78 24.9932 20.3923C25.161 20.1296 25.3437 19.8436 25.5178 19.5957C25.9023 19.045 26.924 17.8078 27.4168 17.56C27.3 18.9475 26.5778 20.0681 26.1572 21.0553C26.5162 20.8689 27.7673 19.6699 29.405 19.2123C28.8357 20.5384 27.1683 21.8879 27.0345 22.0785C27.3042 22.0234 27.591 21.9006 27.8862 21.818C28.5723 21.6231 30.0847 21.3583 30.7007 21.4621L30.004 22.0192C28.9441 22.7924 28.4619 22.8666 27.4678 23.3326C27.7291 23.3856 28.6615 23.3813 29.4708 23.5317C29.8617 23.6038 30.8515 23.8304 31.1319 24.0041C30.9131 24.1969 29.8383 24.4194 29.4432 24.4935C28.721 24.627 28.1539 24.5888 27.4635 24.6757C28.0817 24.9278 28.6339 25.1672 29.1947 25.4849C29.5749 25.701 30.5414 26.3153 30.6943 26.5738C28.6212 26.5717 28.4746 26.237 27.0578 25.9488L27.7397 26.6098C28.3217 27.1796 29.0354 28.0588 29.4071 28.7981C28.6106 28.6604 27.1959 27.7389 26.4843 27.2072C26.3739 27.1246 26.2698 27.0186 26.1551 26.9572C26.2443 27.1924 26.4312 27.4847 26.5523 27.741C26.9368 28.5524 27.3021 29.5459 27.4147 30.4526C26.9835 30.2344 26.376 29.5247 26.051 29.1307C25.8683 28.9083 25.6644 28.6583 25.486 28.3871C25.3649 28.2028 25.0824 27.8046 24.9911 27.616C24.9953 27.8702 25.0739 28.2134 25.1015 28.4888C25.1631 29.1265 25.1886 30.9059 24.9677 31.3233C24.7447 31.1199 24.3283 30.0925 24.1924 29.7281C24.0225 29.2726 23.7187 27.9995 23.6465 27.9041C23.5042 28.9633 22.9137 30.5606 22.3933 31.3233L22.321 31.1305C22.0215 29.6073 22.3487 27.9147 22.3168 27.7431L22.2892 27.6711C21.9897 28.4359 20.6345 29.9759 19.9314 30.4738C19.9803 29.4696 20.7768 27.669 21.1974 26.9614C20.9574 27.0991 20.7449 27.311 20.4709 27.5038C19.8252 27.9592 18.6909 28.6117 17.9432 28.8066C18.6293 27.3237 20.1396 26.184 20.3222 25.9319C19.3005 26.1903 17.8901 26.703 16.6475 26.5589C16.9937 26.1967 17.6352 25.7921 18.1301 25.4955C18.8247 25.0803 19.4853 24.8854 19.8613 24.6693C19.1094 24.627 16.758 24.4575 16.2184 24.002C17.0575 23.5148 18.9479 23.4195 19.8698 23.3453C19.8125 23.3072 18.6888 22.8369 18.1238 22.517C17.682 22.2671 16.9173 21.7629 16.6496 21.4536C17.2295 21.4091 18.0813 21.5193 18.6378 21.6273C19.2963 21.7544 20.0865 22.0383 20.318 22.0785C20.078 21.8328 19.8592 21.6718 19.6234 21.4409C19.1858 21.0108 18.1089 19.7228 17.9517 19.2102C19.7997 19.8203 20.8788 20.8964 21.1676 21.0299C21.0869 20.8032 20.8851 20.4579 20.7619 20.2143C20.4816 19.6529 19.908 18.0366 19.9399 17.543L20.6217 18.1595C21.6626 19.1594 22.1256 20.1253 22.3572 20.3605ZM14.175 29.4929L14.1517 29.4866C15.664 29.5268 16.5965 29.1709 17.8753 28.8638C17.8052 29.0904 17.5906 29.4442 17.4802 29.6857C17.2125 30.2789 16.6114 31.8656 16.6454 32.3888C17.8052 32.0287 18.7653 31.336 19.6999 30.6877C19.8018 30.6157 19.7827 30.6242 19.8932 30.5712C19.7487 32.6324 19.6935 32.141 19.9102 34.2911C20.4391 33.9797 21.4225 32.8231 21.8261 32.2469C21.9706 32.0393 22.1978 31.6516 22.3572 31.4758C22.4761 31.6919 22.5313 32.141 22.6163 32.4312C22.7013 32.7214 22.8075 33.054 22.92 33.3379C23.0496 33.6577 23.4829 34.753 23.6805 34.9245C23.8525 34.8271 24.3411 33.6154 24.4537 33.3251C24.5641 33.037 24.6703 32.7256 24.7574 32.4163C24.8084 32.2278 24.9316 31.6008 25.0293 31.4631C25.3564 32.0732 25.9682 32.8316 26.427 33.3421C26.5332 33.4586 26.6521 33.5497 26.7605 33.662L27.4317 34.3229L27.4402 34.3335C27.7885 32.357 27.4742 31.9376 27.4805 30.5585C27.8098 30.7555 28.3111 31.1813 28.9929 31.5796C29.5643 31.9122 30.1378 32.1388 30.7474 32.4163C30.5138 30.8741 30.0125 30.0776 29.4857 28.868C30.7113 29.118 31.5079 29.5268 33.1796 29.4887C33.016 29.0693 32.3426 28.2134 32.0729 27.902C31.8732 27.669 31.6629 27.4317 31.4505 27.2135L30.8112 26.6013C31.0979 26.5441 31.5376 26.5526 31.8583 26.5166C32.5784 26.434 33.8614 26.1946 34.471 25.9192C34.3436 25.6904 33.1689 24.9659 32.9778 24.8494C32.5593 24.5973 31.3698 24.0719 31.2827 23.983C32.2768 23.6228 33.5237 22.9026 34.3521 22.2395C34.4944 22.1251 34.4179 22.2522 34.4689 22.0891C33.4366 21.7163 32.0113 21.443 30.8175 21.4366C30.8536 21.3752 32.7738 19.5767 33.1859 18.5281C32.5041 18.5408 31.8414 18.6022 31.1977 18.7187C30.894 18.7738 30.6072 18.8395 30.3141 18.9136C30.0911 18.9708 29.6854 19.1233 29.49 19.1339C29.9105 18.3628 30.654 16.63 30.7368 15.5962C30.4862 15.7318 30.1378 15.8525 29.8574 15.9839C28.9249 16.4181 28.4725 16.7465 27.6823 17.3142C27.5549 17.4053 27.6207 17.3714 27.4784 17.4286C27.5825 15.2805 27.6887 16.0919 27.4572 13.7299C27.164 13.857 26.3441 14.7531 26.1041 15.0412C25.554 15.7 25.3309 16.1449 24.9974 16.5685C24.8148 15.8864 24.7043 15.306 24.4494 14.6832C24.3305 14.3929 24.2221 14.1197 24.0883 13.8294C23.9991 13.6367 23.827 13.2024 23.6529 13.071C23.5105 13.4439 23.1771 13.9904 22.9115 14.7065L22.3572 16.5368C22.2297 16.4075 21.9472 15.9373 21.8219 15.7614C21.4926 15.2954 20.2904 13.8803 19.9144 13.7278C19.7381 15.1492 19.753 16.0135 19.8974 17.4477L18.3489 16.4266C17.9496 16.1893 17.1127 15.7635 16.6263 15.6258C16.7325 16.4626 17.1467 17.5833 17.4865 18.3586C17.5906 18.5959 17.7967 18.9242 17.871 19.1488C17.3017 19.0238 16.7835 18.8289 16.1441 18.7187C15.6513 18.634 14.6678 18.4878 14.1814 18.545C14.9142 19.9898 16.3905 21.1951 16.5562 21.4345C15.2668 21.5065 14.0327 21.6739 12.9048 22.0933C12.9877 22.32 14.0943 23.0043 14.3917 23.1737L16.1037 24.0296C15.4198 24.2456 13.4465 25.3303 12.9579 25.8408C12.8836 25.9171 12.9452 25.826 12.8984 25.9234C13.7183 26.3429 15.6003 26.5293 16.5477 26.5928C16.4733 26.7411 16.0273 27.0822 15.8722 27.2496C15.6704 27.4656 15.458 27.7008 15.2605 27.9465C14.9312 28.3448 14.4087 28.9909 14.175 29.4929Z" fill="#94A3B8"/>
</svg>
