<svg width="144" height="48" viewBox="0 0 144 48" fill="none" xmlns="http://www.w3.org/2000/svg">
<path d="M110.256 18.7356C106.334 18.7356 102.969 20.445 102.969 23.8546C102.969 27.4784 106.209 29.2546 110.256 29.2546C112.178 29.2546 113.696 29.1096 115.293 28.7152V23.3377H110.279V25.1462H111.287V26.6249C111.001 26.7113 110.61 26.7188 110.279 26.7188C108.416 26.7188 107.749 25.5046 107.749 24.1131C107.749 22.2587 109.271 21.2715 111.591 21.2715C112.893 21.2715 114.156 21.5307 114.824 21.859V19.1105C113.653 18.8814 112.531 18.7349 110.256 18.7349L110.256 18.7356ZM36.1304 18.9235V29.0909H45.9947V26.2485H40.8167V18.9227L36.1304 18.9235ZM50.7028 18.9235L46.4385 29.0909H51.0544L51.804 26.8834H55.8096L56.6065 29.0909H61.4795L57.1456 18.9227L50.7028 18.9235ZM62.6745 18.9235V29.0909H67.36V25.4272H72.8889V23.0101H67.36V21.3195H73.1228V18.9227L62.6745 18.9235ZM77.1756 18.9235L72.9122 29.0909H77.5512L78.3009 26.8834H82.3065L83.1034 29.0909H87.9531L83.6184 18.9227L77.1756 18.9235ZM89.1946 18.9235V29.0909H93.7159V25.6391H94.9109C95.4837 25.6391 95.9575 25.6842 96.2461 26.1553C96.6255 26.7631 96.6705 28.3665 96.8789 29.0909H101.752C101.262 28.1021 101.32 26.5287 100.604 25.4513C100.169 24.911 99.556 24.4955 98.5424 24.3475V24.3242C100.279 23.9809 101.447 23.1829 101.447 21.6238C101.447 19.6733 99.6445 18.9235 96.7387 18.9235H89.1946ZM117.683 18.9235V29.0909H128.366V26.6715H122.251V25.1222H127.968V22.7509H122.251V21.2947H128.249V18.9235H117.683ZM53.8184 20.756H53.8657L55.3178 24.7705H52.3431L53.8184 20.756ZM80.3153 20.756H80.3386L81.7915 24.7705H78.816L80.3153 20.756ZM93.7159 21.1317H95.0511C95.9852 21.1317 96.8789 21.2632 96.8789 22.2347C96.8789 23.3317 95.9298 23.4324 94.9814 23.4324H93.7159V21.1317Z" fill="#475569"/>
<path d="M34.9249 31.2322V17.7017H40.8489L46.4101 5H31.5558L14.9053 43H40.109L42.6017 37.343H32.2493L34.9249 31.2322Z" fill="#475569"/>
</svg>
