<svg width="159" height="48" viewBox="0 0 159 48" fill="none" xmlns="http://www.w3.org/2000/svg">
<path d="M57.3906 28.5795C57.3906 20.6167 63.8467 14.1538 71.8073 14.1538C79.7678 14.1538 86.2239 20.6167 86.2239 28.5795C86.2239 36.5472 79.7678 43.0001 71.8073 43.0001C63.8467 42.9951 57.3906 36.5472 57.3906 28.5795ZM71.7973 35.1968C75.4488 35.1968 78.4029 32.2369 78.4029 28.5844C78.4029 24.9319 75.4488 21.9721 71.7973 21.9721C68.1408 21.9721 65.1918 24.9369 65.1918 28.5844C65.1868 32.2369 68.1408 35.1968 71.7973 35.1968Z" fill="#64748B"/>
<path d="M16.9053 5H28.9607L35.7754 27.8418H35.8751L42.7945 5H54.5161V42.2027H46.7648V15.8927H46.6602L39.2227 42.2027H32.0991L24.7612 15.8927H24.6566V42.2027H16.9053L16.9053 5ZM121.643 12.3349H129.394V5H121.643V12.3349ZM121.643 42.2027H129.394V14.946H121.643V42.2027ZM133.693 42.2027H141.444V5H133.693V42.2027ZM89.4767 42.2027H97.2231V39.786C99.2157 41.9884 101.731 42.8305 104.666 42.8305C112.472 42.8305 118.395 36.283 118.395 28.6291C118.395 20.9853 112.521 14.3281 104.666 14.3281C101.836 14.3281 99.3801 15.215 97.2231 17.0538V5H89.4767V42.2027ZM97.3177 28.5843C97.3177 24.9318 100.272 21.9719 103.923 21.9719C107.575 21.9719 110.534 24.9368 110.534 28.5843C110.534 32.2368 107.58 35.1967 103.923 35.1967C100.272 35.1967 97.3177 32.2368 97.3177 28.5843Z" fill="#475569"/>
</svg>
