<svg width="49" height="48" viewBox="0 0 49 48" fill="none" xmlns="http://www.w3.org/2000/svg">
<path fill-rule="evenodd" clip-rule="evenodd" d="M13.9707 34.4759L13.2252 28.4377C11.2513 27.0341 9.73065 25.879 7.90307 24.5485C7.0402 18.1881 8.63401 14.7376 10.9733 11.4625C13.883 7.76335 18.5616 5 24.1615 5C29.7615 5.05833 34.4548 7.88024 37.2184 11.5794C39.806 15.0885 41.1952 19.504 40.1861 24.724L35.142 28.4377L34.396 34.4759H26.3987C25.9015 34.871 25.2292 35.2363 24.1615 35.2656C23.1088 35.2363 22.4508 34.871 21.9099 34.4759H13.9707Z" fill="#475569"/>
<path fill-rule="evenodd" clip-rule="evenodd" d="M24.1616 26.0982C23.7375 20.469 23.6206 13.5239 23.2698 7.95344C22.6703 7.80716 21.8222 7.85113 21.1205 7.96802C20.4187 8.18744 19.9069 8.37747 19.3075 8.71377C20.4041 14.065 21.6762 20.8784 22.7582 26.1859C21.2815 21.0247 19.3075 14.5622 17.8456 9.41555C17.1438 9.56183 16.4566 9.95646 15.9597 10.3659C15.4333 10.7754 15.1262 11.0825 14.6436 11.8134C16.7635 16.346 19.3075 22.1213 21.4424 26.6245C18.9712 22.5305 15.9738 17.1355 13.4882 13.0709C13.0058 13.495 12.6401 13.8021 12.1576 14.6208C11.7481 15.2788 11.5435 16.0537 11.4558 16.7995C14.1754 20.1185 17.4211 24.0954 20.1553 27.3995C17.3044 24.6507 13.7951 21.1124 10.9734 18.3636C10.6957 18.9191 10.5202 19.3871 10.4325 20.3081C10.3302 21.1999 10.5057 22.2671 10.6957 22.9106L16.2078 27.0046L16.7927 31.5518L22.8605 31.5955C23.2991 32.1073 23.4452 32.3704 24.1618 32.4142C24.8487 32.3704 25.2438 31.9464 25.4193 31.5955H31.4721L32.0859 27.0337L37.5545 22.9689C37.7589 22.2965 37.8904 21.2582 37.8177 20.3664C37.73 19.4015 37.5545 18.9189 37.3205 18.4072C34.4843 21.1413 30.9603 24.6798 28.1387 27.4284C30.8872 24.1533 34.104 20.1616 36.8525 16.8136C36.7065 16.0681 36.531 15.3075 36.0922 14.6497C35.5804 13.8308 35.2879 13.5239 34.8201 13.0853C32.3201 17.1353 29.2788 22.5745 26.8078 26.6389C29.0013 22.1211 31.4867 16.3458 33.6362 11.872C33.1684 11.1554 32.8319 10.7899 32.3641 10.4099C31.8086 9.98585 31.1214 9.59122 30.4488 9.43036C28.9136 14.5622 27.0277 21.0832 25.5362 26.2005C26.574 20.893 27.8755 14.1382 28.9136 8.80172C28.3875 8.42144 27.8757 8.23142 27.1881 8.02681C26.3988 7.88053 25.6239 7.85137 25.0096 7.95367C24.6004 13.5679 24.5854 20.4984 24.1616 26.0982Z" fill="#94A3B8"/>
<path fill-rule="evenodd" clip-rule="evenodd" d="M7.40576 40.9093H10.2423C10.1985 41.5382 10.5057 41.6842 10.6519 41.7868C10.8126 41.8451 11.9972 41.9034 12.5818 41.8011C12.8158 41.7574 13.035 41.6696 13.035 40.9531C13.035 40.6461 12.9619 40.3098 12.611 40.2365C11.3681 40.1344 10.1545 40.2659 8.91185 40.1487C7.66893 39.8712 7.47913 39.5493 7.40576 38.5697C7.49348 37.2099 7.97607 36.8153 9.36504 36.7713C10.8122 36.7276 12.2604 36.7276 13.7076 36.7713C15.1843 36.7713 15.6375 37.3419 15.6375 38.5846H13.035C13.035 37.9703 12.9181 37.7365 12.611 37.7071C11.9782 37.6634 11.3431 37.6634 10.7103 37.7071C10.4763 37.7071 10.1693 37.8242 10.1693 38.3797C10.1693 38.9058 10.3008 39.0375 10.6519 39.0817C11.7192 39.1252 12.8012 39.1401 13.8539 39.2127C15.6083 39.3153 15.6669 40.0902 15.7252 40.9088C15.7544 42.0789 15.3304 42.4878 15.0234 42.6783C14.7311 42.8098 13.3128 42.9709 13.035 42.9709H10.2279C9.59904 42.9709 8.80954 42.8977 8.12235 42.6929C7.4789 42.5177 7.40576 41.6551 7.40576 40.9093ZM34.0602 43H36.5456V36.801H34.0602V43ZM38.2123 43H40.6688V36.801H38.2123V43ZM32.6127 39.7541C32.5675 39.5602 32.5087 39.3697 32.4368 39.184C32.0128 38.4968 30.5509 38.4968 29.1328 38.4674C28.0655 38.4674 26.4719 38.4968 26.0039 38.9498C25.8137 39.1546 25.7114 39.447 25.6531 39.7541C25.5799 40.1198 25.5943 40.4996 25.5943 40.6753C25.5943 40.9968 25.6237 42.2395 26.2231 42.5612C26.7786 42.9269 28.4599 42.9709 29.1031 42.9709C29.7903 42.9709 31.6913 42.8977 31.9693 42.5758C32.466 42.4003 32.5831 41.7865 32.6854 41.3042H30.2438C30.2438 41.7865 29.8635 42.0791 29.1031 42.0346C28.4159 42.0789 28.0213 41.918 28.0213 41.0556L32.6852 41.0699C32.6854 40.6461 32.7004 40.1927 32.6127 39.7541ZM30.2438 40.1781H28.0213C28.0213 40.0027 28.0507 39.8562 28.0945 39.7541C28.2549 39.3595 28.6645 39.3449 29.1029 39.3155C29.7755 39.3155 30.0681 39.4764 30.1852 39.7541C30.2438 39.8712 30.2583 40.0173 30.2438 40.1781ZM17.1873 43H19.6144V40.3682C19.6729 40.0029 19.7607 39.7104 20.6525 39.7104C21.5003 39.696 21.7343 39.9296 21.7343 40.3682V43H24.1613V40.3682C24.1613 39.5055 24.147 39.0378 23.5912 38.7896C23.0941 38.4677 22.3775 38.5117 21.7051 38.5117C21.0033 38.5117 20.2138 38.5994 19.6144 38.8919V36.8012H17.1873V43Z" fill="#475569"/>
</svg>
