<svg width="265" height="56" viewBox="0 0 265 56" fill="none" xmlns="http://www.w3.org/2000/svg">
<g clip-path="url(#clip0_640_5221)">
<path d="M106.659 50.0809C103.839 50.0809 101.486 49.347 99.5995 47.8752C97.7129 46.4074 96.7676 44.5687 96.7676 42.3709H101.973C101.973 42.9453 102.439 43.4279 103.373 43.8188C104.306 44.2097 105.483 44.4051 106.903 44.4051C108.127 44.4051 109.148 44.2615 109.97 43.9744C110.788 43.6872 111.198 43.3083 111.198 42.8456C111.198 42.3151 110.684 41.9083 109.663 41.633C108.638 41.3578 107.106 41.0707 105.068 40.7795C102.866 40.4644 101.003 39.7145 99.4719 38.5259C97.9442 37.3373 97.1784 35.7259 97.1784 33.6877C97.1784 31.51 98.0639 29.7311 99.8388 28.351C101.614 26.9709 103.831 26.2849 106.5 26.2849C109.168 26.2849 111.497 26.9949 113.3 28.4148C115.099 29.8348 116.001 31.5937 116.001 33.6838H110.795C110.795 33.1732 110.381 32.7584 109.551 32.4313C108.721 32.1043 107.652 31.9447 106.34 31.9447C105.192 31.9447 104.242 32.0803 103.492 32.3516C102.743 32.6228 102.372 32.9698 102.372 33.3926C102.372 34.2382 104.27 34.8883 108.063 35.343C109.591 35.5385 110.947 35.8775 112.132 36.3601C113.312 36.8427 114.321 37.6006 115.147 38.6296C115.977 39.6587 116.392 40.8952 116.392 42.339C116.392 44.6285 115.466 46.4912 113.611 47.9271C111.757 49.363 109.443 50.0809 106.667 50.0809H106.659ZM131.676 32.6946H136.343V49.6741H131.676V46.7783C130.384 48.9801 128.521 50.0809 126.08 50.0809C123.79 50.0809 121.88 49.2313 120.344 47.5282C118.809 45.8251 118.043 43.7071 118.043 41.1744C118.043 38.6416 118.809 36.5276 120.344 34.8325C121.88 33.1333 123.79 32.2877 126.08 32.2877C128.521 32.2877 130.384 33.3886 131.676 35.5903V32.6946ZM124.129 43.396C124.963 43.9823 126.012 44.2735 127.276 44.2735C128.541 44.2735 129.59 43.9823 130.423 43.396C131.257 42.8097 131.676 42.0718 131.676 41.1823C131.676 40.2929 131.257 39.555 130.423 38.9607C129.59 38.3704 128.541 38.0752 127.276 38.0752C126.012 38.0752 124.963 38.3704 124.129 38.9607C123.296 39.551 122.877 40.2929 122.877 41.1823C122.877 42.0718 123.296 42.8097 124.129 43.396ZM143.841 49.6741L137.822 32.6946H142.716L146.474 43.1846H146.976L150.733 32.6946H156.134L150.099 49.6741H143.837H143.841ZM162.221 49.6741L156.202 32.6946H161.096L164.853 43.1846H165.356L169.113 32.6946H174.513L168.479 49.6741H162.217H162.221ZM187.496 32.6946H192.897L184.601 56.004H179.068L181.896 49.6781H180.596L174.577 32.6986H179.471L183.229 43.1886H183.731L187.488 32.6986L187.496 32.6946ZM206.315 38.3544H201.68V42.5504C201.68 43.4838 202.326 43.9504 203.614 43.9504H205.972V49.6741H203.044C199.019 49.6741 197.009 47.7755 197.009 43.9823V38.3544H193.918V32.6946H197.009V29.0171L201.676 27.6849V32.6946H206.311V38.3544H206.315ZM226.062 41.314C226.062 41.8883 226.014 42.355 225.915 42.714H212.429C213.143 44.2416 214.667 45.0074 217 45.0074C217.846 45.0074 218.627 44.9077 219.341 44.7043C220.055 44.5048 220.562 44.2735 220.853 44.0142H225.815C225.217 45.837 224.104 47.3009 222.472 48.4137C220.841 49.5265 218.954 50.0809 216.821 50.0809C214.196 50.0809 212.002 49.2313 210.239 47.5282C208.476 45.8251 207.595 43.7071 207.595 41.1744C207.595 38.6416 208.476 36.5276 210.247 34.8325C212.014 33.1333 214.204 32.2877 216.817 32.2877C219.429 32.2877 221.663 33.1413 223.422 34.8484C225.181 36.5556 226.058 38.7094 226.058 41.314H226.062ZM216.825 37.3453C215.803 37.3453 214.906 37.5447 214.132 37.9476C213.358 38.3504 212.792 38.9088 212.433 39.6228H221.296C220.961 38.9088 220.39 38.3504 219.589 37.9476C218.787 37.5487 217.866 37.3453 216.825 37.3453ZM236.636 50.0809C234.011 50.0809 231.818 49.2313 230.055 47.5282C228.292 45.8251 227.41 43.7071 227.41 41.1744C227.41 38.6416 228.292 36.5276 230.063 34.8325C231.83 33.1333 234.019 32.2877 236.632 32.2877C239.005 32.2877 241.043 32.9977 242.746 34.4177C244.45 35.8376 245.451 37.6484 245.754 39.8501H240.696C240.361 39.3197 239.827 38.8889 239.093 38.5658C238.363 38.2387 237.541 38.0792 236.628 38.0792C235.36 38.0792 234.311 38.3744 233.481 38.9647C232.651 39.555 232.237 40.2969 232.237 41.1863C232.237 42.0758 232.655 42.8137 233.489 43.4C234.323 43.9863 235.372 44.2775 236.628 44.2775C237.537 44.2775 238.359 44.1179 239.093 43.7989C239.823 43.4798 240.357 43.053 240.696 42.5225H245.754C245.439 44.7242 244.434 46.535 242.739 47.955C241.039 49.3749 239.005 50.0849 236.632 50.0849L236.636 50.0809ZM258.625 32.2877C260.512 32.2877 262.027 32.8541 263.172 33.9869C264.317 35.1197 264.887 36.6313 264.887 38.5179V49.6781H260.221V40.5521C260.221 39.7943 259.894 39.192 259.235 38.7453C258.577 38.2986 257.7 38.0792 256.591 38.0792C255.41 38.0792 254.461 38.3105 253.751 38.7772C253.041 39.2439 252.686 39.8581 252.686 40.616V49.6741H248.019V25.6826H252.686V36.1886C254.062 33.588 256.041 32.2838 258.621 32.2838L258.625 32.2877Z" fill="#FAFAFA"/>
<path d="M79.1938 41.4057C80.2029 40.249 81.3357 39.2399 82.7676 38.5618C81.8582 39.8262 80.5061 40.592 79.1938 41.4057ZM83.8206 40.612C80.4702 41.8604 77.0918 45.6934 77.1397 48.3538C78.9425 45.4382 82.1733 43.4399 83.8206 40.612ZM79.6007 43.045C80.4941 41.7846 82.0018 40.9829 82.8195 39.7584C81.2799 40.2251 79.6525 41.8484 79.6007 43.045ZM83.2223 43.3322C84.2235 41.6769 86.0303 40.5362 86.9437 38.9328C85.065 39.6547 83.1824 41.8325 83.2223 43.3322ZM88.0366 35.694C88.2041 35.6741 88.3556 35.6023 88.5032 35.5225C89.0935 35.1835 89.5403 34.6849 89.9471 34.1464C90.3858 33.5641 90.7648 32.9419 90.9602 32.2239C90.9802 32.1441 91.036 32.0444 90.9562 31.9766C90.8844 31.9168 90.8046 31.9766 90.7329 32.0045C89.1215 32.6347 88.3277 33.935 87.9089 35.5424C87.881 35.6541 87.9169 35.7139 88.0405 35.698L88.0366 35.694ZM84.2713 39.1641C84.367 39.1202 84.4548 39.0564 84.5425 39.0045C85.8508 38.163 86.6685 36.9743 87.0633 35.4786C87.0873 35.3789 87.1591 35.2672 87.0793 35.1755C86.9876 35.0718 86.8759 35.1595 86.7881 35.1994C85.1767 35.9214 84.1158 37.082 83.8645 38.8849C83.8485 39.0125 83.8126 39.1641 83.9203 39.2518C84.048 39.3555 84.1556 39.2159 84.2673 39.1641H84.2713ZM82.6958 43.9943C82.5722 43.8986 82.4605 43.7909 82.3727 43.6672C82.285 43.5476 82.1972 43.5436 82.0098 43.747C81.7146 44.0661 81.4115 44.3812 81.1044 44.6963C80.9608 44.8439 80.9209 44.9595 80.9767 45.0632C81.0405 45.1789 81.0884 45.3026 81.1243 45.3823C81.3317 45.7785 81.7027 45.7214 82.2371 45.2108C82.3169 45.135 82.3967 45.0632 82.4725 44.9875C83.1266 44.3333 83.1266 44.3333 82.6958 43.9943ZM69.5613 42.5704C67.2878 42.8017 65.8839 44.7641 63.7499 45.0752C63.9374 45.4461 64.4001 45.3783 64.7471 45.6097C64.2445 45.9128 63.738 45.837 63.2753 45.9607C62.7967 46.0883 62.3819 45.7812 61.8514 45.5339C62.1625 46.4752 62.8326 46.6667 63.5266 46.7225C64.2804 46.7823 65.0462 46.6706 65.7961 46.7584C67.7306 46.9897 69.4178 46.1481 70.3431 44.3533C69.7528 44.6245 69.2183 44.8678 68.6878 45.1111C68.6599 45.0592 68.632 45.0074 68.6041 44.9516C68.8873 44.6085 69.1705 44.2655 69.6132 43.7271C68.3448 44.2855 67.3955 44.9954 66.2428 45.2028C67.4155 44.445 68.5522 43.6632 69.5613 42.5704ZM69.0388 40.9271C67.1881 41.9521 65.4411 43.1088 63.5744 44.0701C66.9807 43.5236 68.6559 42.5345 69.0388 40.9271ZM70.5027 28.4667C71.6713 26.8872 74.0685 26.5721 74.8303 24.2308C73.1232 25.6028 70.9613 26.1573 70.5027 28.4667ZM67.3836 36.1328C69.0907 35.706 70.2235 34.9322 70.75 33.8752C69.4776 34.3778 68.4047 35.0439 67.3836 36.1328ZM30.6166 11.3516C31.183 11.1282 31.8092 11.0165 32.4873 10.5139C31.8052 10.3863 31.3186 10.3065 30.84 10.1988C29.5796 9.91965 28.395 9.45697 27.4417 8.55554C27.0548 8.18859 26.7118 8.35611 26.3448 8.48375C23.1579 9.5846 19.9471 10.6177 16.6884 11.4991C13.0468 12.4843 9.38926 13.4057 5.63598 13.8843C3.92487 14.1037 2.20977 14.2473 0.486694 13.996C0.327149 13.9721 0.111765 13.8484 0.0160383 14.0598C-0.0677224 14.2513 0.131708 14.363 0.255355 14.4826C1.75108 15.9624 3.6337 16.5647 5.65194 16.8199C8.76305 17.2108 11.8343 16.8239 14.8776 16.2057C20.2821 15.1048 25.4873 13.3538 30.6126 11.3555L30.6166 11.3516ZM32.6827 16.0182C32.938 15.8946 33.1813 15.7669 33.2531 15.4678C33.624 13.9082 34.2702 12.4604 35.0121 10.9966C33.636 11.6906 32.2799 12.4205 30.8838 13.0706C25.2759 15.6712 19.4126 17.4541 13.322 18.4872C11.9938 18.7145 10.6497 18.8382 9.31348 19.0177C9.13399 19.0416 8.8508 18.9459 8.81889 19.2131C8.79097 19.4604 9.08214 19.4843 9.25365 19.5521C11.4474 20.4456 13.7448 20.6689 16.0901 20.5652C20.2303 20.3857 24.171 19.3088 28.04 17.9128C29.6155 17.3464 31.171 16.7322 32.6827 16.0142V16.0182ZM40.9112 16.8718C41.0109 15.5516 41.342 14.2712 41.8445 12.9151C34.2662 17.8849 26.2371 21.3071 17.3545 22.6074C17.4781 22.9185 17.7932 22.9624 18.0605 23.0661C21.024 24.2148 24.0474 24.0114 27.0628 23.3812C31.8132 22.388 36.1488 20.3738 40.285 17.8849C40.6799 17.6456 40.8753 17.3584 40.9112 16.8718ZM47.8753 18.547C47.5163 17.482 47.5841 16.3812 47.7676 15.2883C47.7955 15.1288 47.9272 14.9293 47.7277 14.8137C47.5363 14.702 47.4126 14.9014 47.281 15.0011C43.2685 17.9966 39.0007 20.5692 34.5294 22.8148C32.3875 23.8917 30.1779 24.829 27.8764 25.5231C27.6451 25.5909 27.4217 25.6786 27.1944 25.7584C28.2035 26.1892 29.2246 26.2091 30.2337 26.1493C36.5955 25.7783 42.2913 23.5846 47.4366 19.8712C47.9391 19.5082 48.0747 19.1493 47.8713 18.551L47.8753 18.547ZM62.2702 21.9094C62.1545 21.8256 62.0867 21.9612 62.0109 22.0251C59.7254 23.9635 57.2725 25.6028 54.6878 27.0108C53.4514 27.6849 52.171 28.2632 50.8269 28.6701C50.6913 28.71 50.5596 28.7618 50.428 28.8097C51.0423 29.1367 51.6445 29.1806 52.2428 29.1726C56.0041 29.1128 59.3146 27.7766 62.2502 25.3795C62.5374 25.1441 62.6092 24.9048 62.4696 24.482C62.2223 23.7402 62.2303 22.9823 62.3061 22.2325C62.318 22.1248 62.3898 21.9892 62.2662 21.9054L62.2702 21.9094ZM62.3021 29.1128C64.2804 28.0877 66.4024 27.2781 68.7158 26.7516C68.7915 26.7356 68.9232 26.7595 68.8913 26.6319C68.8594 26.5003 68.7277 26.4763 68.636 26.4245C68.0018 26.0655 67.3836 25.6547 66.8611 25.0724C66.5659 24.7453 66.3465 24.6615 66.0633 24.7333C63.1676 25.4632 61.0138 27.0347 59.7534 29.6233C59.5539 30.0342 59.3944 30.4809 59.4662 31.0872C59.546 31.0194 59.6337 30.9595 59.7095 30.8877C60.4753 30.1778 61.3568 29.5994 62.3021 29.1088V29.1128ZM57.8747 34.1544C57.7471 34.4815 57.6554 34.8444 57.771 35.363C57.8309 35.3151 57.8987 35.2712 57.9545 35.2154C58.5249 34.6849 59.2069 34.282 59.9528 33.955C61.5084 33.2729 63.2035 32.7903 65.0861 32.559C65.146 32.551 65.2576 32.5869 65.2217 32.4752C65.1819 32.3595 65.0702 32.3276 64.9904 32.2758C64.428 31.9128 63.8736 31.51 63.383 30.9715C63.1038 30.6684 62.9123 30.5766 62.685 30.6085C60.3357 30.9555 58.6844 32.0803 57.8747 34.1504V34.1544ZM58.6166 28.6422C58.5568 28.5424 58.5089 28.6501 58.465 28.694C57.089 29.9943 55.6331 30.9954 54.1175 31.7612C53.3915 32.1282 52.6457 32.3954 51.8719 32.4991C51.7961 32.5111 51.7203 32.531 51.6405 32.547C51.9676 32.9658 52.3027 33.1253 52.6377 33.237C54.7477 33.931 56.6662 33.3766 58.4292 31.7852C58.6007 31.6296 58.6525 31.4262 58.5967 31.0154C58.497 30.2934 58.5368 29.6074 58.6166 28.9453C58.6286 28.8496 58.6764 28.7419 58.6126 28.6382L58.6166 28.6422ZM56.1277 39.5191C56.6981 38.9886 57.3801 38.5857 58.126 38.2587C59.6816 37.5766 61.3767 37.094 63.2594 36.8627C63.3192 36.8547 63.4309 36.8906 63.395 36.7789C63.3551 36.6632 63.2434 36.6313 63.1636 36.5795C62.6012 36.2165 62.0468 35.8137 61.5562 35.2752C61.277 34.9721 61.0856 34.8803 60.8582 34.9122C58.5089 35.2592 56.8576 36.384 56.048 38.4541C55.9203 38.7812 55.8286 39.1441 55.9442 39.6627C56.0041 39.6148 56.0719 39.5709 56.1277 39.5151V39.5191ZM47.6081 23.3094C47.4126 22.735 47.4485 22.1367 47.5482 21.5424C47.5642 21.4547 47.632 21.347 47.5283 21.2832C47.4246 21.2233 47.3568 21.331 47.285 21.3829C45.1112 23.0063 42.7978 24.3983 40.3767 25.6148C39.216 26.1971 38.0195 26.7037 36.775 27.0826C36.6514 27.1185 36.5277 27.1664 36.4041 27.2102C36.9505 27.4456 37.5049 27.4535 38.0514 27.4216C41.4975 27.2222 44.5847 26.0336 47.3727 24.0194C47.644 23.8239 47.7197 23.6285 47.6081 23.3054V23.3094ZM33.4206 8.93446C34.7289 8.93446 36.0052 8.72306 37.3374 8.38403C37.9038 8.34016 38.4582 8.07691 39.0007 7.74985C40.64 6.76865 42.4309 6.13845 44.2377 5.55212C44.4371 5.48831 44.7482 5.52022 44.7801 5.245C44.8121 4.97776 44.497 4.93788 44.3334 4.80227C44.2417 4.72249 44.0981 4.69059 44.0223 4.59885C43.081 3.49002 42.016 3.76523 40.7995 4.12819C37.5927 5.08945 34.346 5.89514 30.9596 5.88717C29.7591 5.88717 28.5665 5.79144 27.4058 5.45241C27.2263 5.40056 26.9989 5.22506 26.8514 5.41651C26.6719 5.65184 26.9351 5.82734 27.0508 5.99486C28.5864 8.24842 30.8479 8.92648 33.4246 8.92648L33.4206 8.93446ZM57.432 5.18916C57.1488 5.0017 56.9015 5.25697 56.6861 5.39258C54.7277 6.61708 53.2081 8.30027 51.8599 10.147C50.6155 11.8501 49.5306 13.637 49.044 15.7231C48.9243 16.2376 48.8565 16.7561 48.9403 17.2826C49.0001 17.6655 49.2075 17.7293 49.5226 17.5379C53.942 14.8535 57.1089 11.3077 57.5517 5.88717C57.5716 5.64785 57.6793 5.35269 57.432 5.18916ZM52.8092 6.00284C52.2747 6.12249 51.7442 6.2621 51.0263 6.44158C47.3209 7.76979 44.2656 10.0592 42.7539 14.0518C42.6064 14.4467 42.4827 14.8615 42.4269 15.2763C42.383 15.5994 42.1317 16.0182 42.4707 16.2496C42.7539 16.441 43.081 16.1419 43.3642 16.0102C44.6645 15.408 45.8212 14.5823 46.8941 13.645C49.1796 11.6507 51.1499 9.3772 52.8531 6.86836C52.9528 6.72477 53.0405 6.57321 53.1123 6.41366C53.2639 6.09059 53.1801 5.91908 52.8052 6.00284H52.8092ZM60.5391 5.41651C58.5129 7.38688 57.7351 9.90768 57.432 12.6199C57.3921 12.9749 57.3642 13.3259 57.3482 13.6849C57.3163 14.343 57.3243 15.0131 57.3921 15.7031C57.428 16.086 57.4839 16.4769 57.5556 16.8758C57.7152 17.4302 58.0861 17.0074 58.3294 16.812C59.5499 15.8188 60.4992 14.6102 61.1414 13.1823C61.1853 13.0866 61.2252 12.9949 61.265 12.8991C61.4366 12.4843 61.5841 12.0695 61.7038 11.6507C62.2742 9.67634 62.2462 7.67805 61.5283 5.6638C61.2451 4.8621 61.1334 4.84215 60.5391 5.4205V5.41651ZM46.3237 6.34985C45.4821 6.46551 44.6485 6.61708 43.8348 6.90027C40.4366 7.98118 37.5009 9.70027 35.6143 12.8672C35.2952 13.4057 35.02 13.9641 34.8485 14.5704C34.8046 14.7259 34.673 14.9174 34.8485 15.057C35.0081 15.1846 35.1796 15.049 35.3351 14.9852C36.5756 14.4467 37.7442 13.7766 38.893 13.0746C41.7089 11.3516 44.4291 9.50483 46.7306 7.10768C46.942 6.88831 47.3847 6.66494 47.2172 6.35383C47.0536 6.0507 46.6269 6.31395 46.3277 6.35383L46.3237 6.34985ZM55.9044 13.653C54.8594 14.8855 53.7944 15.9983 52.5739 16.9555C51.8838 17.494 51.1898 18.0245 50.424 18.4553C50.069 18.6547 49.8616 18.9219 49.734 19.2929C49.2992 20.5413 48.8445 21.7857 48.4018 23.0342C48.338 23.2137 48.1824 23.4051 48.338 23.5966C48.3978 23.6684 48.4576 23.6963 48.5254 23.7003C48.6451 23.7082 48.7727 23.6325 48.8884 23.5886C50.1648 23.11 51.3733 22.5196 52.5061 21.8097C53.6867 21.0758 54.7876 20.2182 55.8046 19.2251C56.2992 18.7424 56.4747 18.2239 56.3232 17.5419C56.2713 17.2946 56.2274 17.0473 56.1995 16.8C56.1078 16.0422 56.1118 15.2763 56.0878 14.5145V14.4866C56.0799 14.2433 56.1437 13.988 55.9123 13.661L55.9044 13.653ZM65.5847 10.7054C65.4092 9.91167 65.146 9.11794 64.799 8.31623C64.7192 8.13275 64.6673 7.82962 64.3762 7.86153C64.1209 7.88945 64.069 8.16865 63.9693 8.35611C63.4628 9.32136 63.0759 10.3026 62.8166 11.2997C62.7129 11.6946 62.6331 12.0934 62.5733 12.4963C62.322 14.1157 62.4138 15.7749 62.8605 17.478C62.9243 17.6934 62.9682 17.9168 63.0559 18.1202C63.1596 18.3555 63.1237 18.7384 63.4747 18.7544C63.7659 18.7664 63.9334 18.4832 64.089 18.2598C65.6086 16.0581 66.0753 13.7806 65.7243 11.4473C65.6844 11.204 65.6405 10.9567 65.5847 10.7094V10.7054ZM61.3129 16.3852C61.2132 15.8108 61.0058 15.8706 60.6787 16.2496C59.8292 17.2467 58.8081 18.0444 57.7152 18.7544C57.4838 18.906 57.2685 19.0535 57.2286 19.3726C57.0611 20.6131 56.9254 21.8496 56.9534 23.102C56.9653 23.5886 57.1488 23.7561 57.4719 23.5886C59.3944 22.7669 60.8383 21.5624 62.0867 20.0986C62.2981 19.8513 62.2782 19.6 62.1625 19.3328C61.7517 18.3875 61.4924 17.3983 61.3169 16.3852H61.3129ZM68.8075 16.1818C68.62 15.4399 68.2212 14.7578 67.7465 14.1077C67.4514 13.7088 67.2559 13.8045 67.0405 14.1755C66.0314 15.9065 66.191 18.8422 67.3955 20.4416C67.8064 20.992 67.9898 20.996 68.3568 20.3937C69.1545 19.0815 69.2901 17.6855 68.8115 16.1818H68.8075ZM65.5089 19.4444C65.3693 19.0535 65.2257 18.9498 64.8987 19.2809C64.3921 19.7954 63.8696 20.302 63.3431 20.7926C63.0958 21.0239 63.024 21.2752 63.1158 21.5983C63.2155 21.9573 63.2913 22.3282 63.3431 22.5595C63.6675 23.788 64.2871 24.018 65.2018 23.2496C65.3374 23.1379 65.473 23.0262 65.6007 22.9105C66.7254 21.9014 66.7215 21.8934 66.0274 20.6011C65.828 20.2302 65.6485 19.8393 65.5089 19.4404V19.4444ZM71.6314 21.2792C71.444 20.5413 71.0451 19.8553 70.5705 19.2091C70.2753 18.8063 70.0799 18.906 69.8605 19.2769C68.8514 21.012 69.0149 23.9476 70.2195 25.547C70.6303 26.0974 70.8138 26.1014 71.1807 25.4991C71.9745 24.1869 72.1141 22.7909 71.6354 21.2832L71.6314 21.2792ZM67.8103 30.8917C68.1215 30.6045 68.4525 30.3333 68.7995 30.098C69.1425 29.8667 69.2064 29.6991 68.8035 29.4678C68.1773 29.1088 67.5591 28.7299 66.9448 28.347C66.6576 28.1635 66.3984 28.1595 66.1072 28.331C65.7841 28.5185 65.4451 28.682 65.2337 28.7937C64.1275 29.4186 64.0611 30.0767 65.0343 30.7681C65.1779 30.8678 65.3175 30.9755 65.465 31.0712C66.7254 31.9048 66.7334 31.8969 67.8064 30.8997L67.8103 30.8917ZM66.8531 34.3498C66.2269 33.9909 65.6086 33.612 64.9944 33.229C64.7072 33.0456 64.448 33.0416 64.1568 33.2131C63.8337 33.4006 63.4947 33.5641 63.2833 33.6758C62.1771 34.3007 62.1106 34.9588 63.0839 35.6501C63.2274 35.7498 63.367 35.8575 63.5146 35.9533C64.775 36.7869 64.783 36.7789 65.8559 35.7818C66.167 35.4946 66.4981 35.2234 66.8451 34.988C67.1881 34.7567 67.2519 34.5892 66.8491 34.3578L66.8531 34.3498ZM94.8491 21.5424C94.8371 21.5983 94.8411 21.694 94.7374 21.6023C93.7722 20.7766 92.9106 21.6501 92.2804 22.384C90.5454 24.3983 90.6651 26.9829 89.7836 29.2763C90.3141 29.1846 90.8445 29.1647 91.3551 29.2484C91.8178 29.3282 92.2725 29.5316 92.5796 29.8826C93.0183 30.3892 93.0702 31.0752 92.9904 31.7174C92.9824 31.7852 92.9745 31.853 92.9585 31.9208C92.7551 33.1214 92.3243 34.2661 91.7938 35.363C91.5625 35.8376 91.3152 36.3122 91.0639 36.7829C90.9283 37.0342 90.7887 37.2894 90.6491 37.5447C89.7317 41.7128 87.6217 45.6177 84.4468 48.7088C84.1955 48.9521 83.9363 49.1954 83.669 49.4308C82.7995 50.1966 81.8662 50.9065 80.8611 51.5447C79.4012 52.4741 77.8736 53.212 76.3061 53.7664C75.7716 53.9578 75.2331 54.1253 74.6867 54.2729C70.1118 55.5054 65.3015 55.2222 60.9659 53.5789C59.5539 54.4006 58.134 55.2063 56.7101 55.996C58.0582 55.2501 59.3625 54.3687 60.6388 53.4473C56.4388 51.7761 52.7095 48.8205 50.097 44.7202C46.7944 39.535 45.9049 33.4963 47.1334 27.9362C46.3357 28.0798 45.518 28.1675 44.6884 28.2074C44.0423 28.2393 43.3881 28.2194 42.738 27.9242C42.8816 27.8724 43.0252 27.8125 43.1727 27.7687C44.6405 27.3259 46.0485 26.7196 47.4166 26.0216C47.5083 25.9738 47.6041 25.9259 47.6918 25.878C49.0519 25.1761 50.3801 24.4222 51.6725 23.6085C52.9967 22.7789 54.281 21.8855 55.5294 20.9282C55.6132 20.8644 55.689 20.7288 55.8126 20.8085C55.9403 20.8883 55.8565 21.0159 55.8405 21.1236C55.7289 21.8496 55.697 22.5795 55.9323 23.2894C56.0679 23.6883 55.9841 23.9236 55.665 24.159C54.0776 25.3396 52.4024 26.2769 50.6394 26.955C49.5385 32.0325 50.3602 37.5288 53.3676 42.2513C56.028 46.4313 59.9528 49.3151 64.3283 50.7231C64.416 50.6592 64.4998 50.5954 64.5876 50.5356C68.0536 48.0427 71.4759 45.4701 74.7665 42.7459C78.3084 39.8142 94.5141 26.2649 83.7727 26.8034C83.7408 26.8433 83.7329 26.8513 83.7289 26.8592C80.6257 34.3698 69.3061 38.9726 66.7613 39.5709C69.2742 38.8689 71.1528 36.8986 73.0155 35.1795C75.0576 33.2889 76.8764 31.1669 78.5078 28.9134C80.3944 26.3048 82.1653 23.5886 84.4548 21.3071C84.4787 21.2872 84.5106 21.2712 84.5705 21.2393C84.395 21.5863 84.2314 21.8934 84.1277 22.2285C84.0998 22.3282 84.1118 22.3721 84.2195 22.3601C84.3391 22.3481 84.4588 22.3481 84.5784 22.3322C85.416 22.2325 86.2297 22.0131 87.0394 21.7857C87.1311 21.7618 87.2189 21.7379 87.3066 21.7179C87.3106 21.7299 87.3146 21.7379 87.3226 21.7498C86.9078 22.0689 86.493 22.388 86.0782 22.7071C86.9317 22.7191 87.7135 22.4917 88.4633 22.041C88.2001 22.8786 88.1841 23.6963 88.24 24.5179C89.1215 22.7988 90.3061 21.3829 92.081 20.5293C90.7727 20.9003 89.7517 21.706 88.8303 22.7231C88.8582 22.2524 88.9699 21.8416 89.1254 21.4188C89.0656 21.4467 89.0337 21.4587 89.0058 21.4746C88.6428 21.6422 88.2679 21.6741 87.881 21.5743C87.8451 21.5664 87.7972 21.5704 87.7853 21.5265C87.7693 21.4706 87.8331 21.4667 87.8611 21.4347C87.9289 21.3749 87.9927 21.3191 88.0844 21.2433C87.6935 21.1875 87.3864 21.0399 87.2149 20.7048C87.1471 20.5732 87.0713 20.5772 86.9556 20.6251C86.5129 20.8125 86.0742 21.0159 85.6514 21.2553C85.5596 21.3071 85.4759 21.3869 85.3243 21.3988C86.2018 20.4496 87.2109 19.7476 88.4035 19.245C88.224 19.1852 88.0884 19.1453 87.9528 19.1054C89.1175 18.5869 90.2981 18.3077 91.5824 18.6706C90.9801 19.2929 90.4537 19.9231 90.33 20.7846C90.8166 20.5214 91.3072 20.29 91.8138 20.0986C92.1688 19.9669 92.5237 19.8632 92.8987 19.8233C93.3494 19.7755 93.7722 19.8114 94.1272 20.1943C94.0753 19.7276 93.9277 19.3407 93.6405 19.0177C93.2138 18.539 92.6514 18.3675 92.0371 18.3316C91.9334 18.3276 91.8576 18.2957 91.7819 18.2199C91.5904 18.0205 91.3631 17.8689 91.0958 17.7573C91.0998 17.853 91.1756 17.9048 91.1636 17.9886C91.1477 17.9886 91.1317 17.9966 91.1158 17.9926C90.3539 17.861 89.616 17.9966 88.8861 18.2159C87.7813 18.547 86.7682 19.0775 85.795 19.6957C85.0132 20.1903 84.2753 20.7367 83.5574 21.3231C80.7374 23.6245 78.791 26.8592 75.9431 29.0729C73.2029 31.2028 69.9682 32.4752 66.546 32.9618C69.8445 32.4951 72.3215 29.3043 74.4833 27.0627C75.9311 25.555 77.379 24.0233 78.9425 22.6353C76.8525 22.4917 74.8462 21.4866 73.2827 20.1265C70.5027 17.7014 68.999 14.3829 67.4952 11.0803C67.4115 10.8929 67.3237 10.7014 67.24 10.51C66.7334 9.40512 66.2189 8.31623 65.6565 7.26323C64.3682 4.87805 62.5653 3.40626 59.6736 3.61366C57.2685 3.78118 54.9351 4.2997 52.5858 4.77036C50.1687 5.25697 47.8075 5.16523 45.5739 4.02848C44.6924 3.57777 43.8508 3.06722 43.2924 2.18175C43.5556 1.99828 43.771 2.11794 43.9824 2.14586C44.8719 2.2695 45.7693 2.33731 46.6707 2.28945C49.4309 2.14984 52.0952 1.44785 54.7836 0.885457C56.6383 0.522494 58.485 0.0478501 60.3955 -1.31123e-05C63.4428 -0.0678194 65.7562 1.15269 67.2041 3.88888C67.22 3.92477 67.244 3.96865 67.2639 4.00455C68.3249 6.0507 68.8793 8.28831 69.5574 10.4781C69.5972 10.6097 69.6411 10.7453 69.681 10.8769C70.0719 12.0894 70.5066 13.2781 71.1049 14.4108C72.6804 17.4063 75.0337 19.9909 77.9254 21.7618C78.3323 22.0091 78.767 22.2524 79.2018 22.4279C80.0713 21.6701 80.9807 20.9601 81.942 20.3179C83.6252 19.2091 85.3921 18.2758 87.3386 17.7174C88.591 17.3584 89.8633 17.1869 91.1676 17.2746C91.5585 17.3026 91.8297 17.5139 92.1049 17.7493C92.1807 17.8131 92.2485 17.841 92.3482 17.841C93.0263 17.8251 93.6685 17.9527 94.2069 18.4034C94.6736 18.7943 94.885 19.3248 94.9568 19.9151C95.0246 20.4655 94.9608 21.012 94.8531 21.5544L94.8491 21.5424ZM89.5403 19.7077C89.5044 19.8832 89.4605 20.0347 89.3528 20.1624C89.3049 20.2182 89.265 20.2342 89.2252 20.1783C89.1494 20.0826 89.1135 20.1305 89.0537 20.1983C88.93 20.3339 88.7226 20.3698 88.579 20.29C88.5032 20.2501 88.4873 20.2063 88.5591 20.1464C88.6269 20.0906 88.6827 20.0228 88.6947 19.9111C88.4593 19.9709 88.2519 20.0667 88.0366 20.1464C87.9368 20.1863 87.9329 20.2461 87.9688 20.3379C88.0565 20.5333 88.1881 20.6729 88.3915 20.7367C88.7665 20.8604 89.1015 20.7726 89.3767 20.4974C89.6001 20.2781 89.6639 19.951 89.5363 19.7037L89.5403 19.7077ZM89.644 29.6114C89.5203 29.8946 89.3767 30.1778 89.2132 30.449C86.7642 34.4535 83.1226 37.6564 79.5767 40.6678C75.0856 44.4809 70.2514 47.8792 65.2417 50.9983C68.8274 51.9715 72.6685 51.9755 76.33 50.9026C76.4098 50.8786 76.4896 50.8507 76.5693 50.8268C76.7129 50.5755 76.8605 50.3322 77.0121 50.0889C77.4548 49.3989 77.9454 48.7447 78.4599 48.1026C78.9066 47.5481 79.3733 47.0097 79.8719 46.4991C79.9596 46.4114 80.0474 46.3356 80.175 46.3476C80.865 46.4194 81.5471 46.3675 82.2491 46.2798C81.7745 46.7345 81.2918 47.1812 80.8331 47.6518C80.3585 48.1464 79.8998 48.649 79.469 49.1715C79.2417 49.4427 79.0223 49.7179 78.8069 49.9971C78.9066 49.9533 79.0064 49.9134 79.1021 49.8655C79.9437 49.4786 80.7693 49.0319 81.575 48.5214C82.1574 48.1504 82.7118 47.7595 83.2423 47.3367C84.3631 46.4592 85.3682 45.486 86.2576 44.4251C86.844 43.7271 87.3784 42.9932 87.8611 42.2313C87.8012 42.0439 87.7613 41.8484 87.7215 41.649C86.8519 42.4906 86.0502 43.392 85.3004 44.3453C84.8576 44.9117 84.4508 45.502 84.1118 46.1362C84.0759 46.196 84.036 46.2598 84.0001 46.3236C83.9403 46.0006 84.0001 45.7054 84.0759 45.4102C84.5824 43.5715 85.5636 42.0319 86.9517 40.7396C87.0873 40.612 87.199 40.596 87.3585 40.6877C87.4423 40.7356 87.53 40.7715 87.6178 40.8034C87.5579 39.6068 87.889 38.4781 88.4554 37.3932C88.942 36.4718 89.6121 35.6461 90.2064 34.8045C90.4337 34.4855 90.6491 34.1624 90.8725 33.8433C90.9682 33.6997 91.0679 33.5561 91.1676 33.4165C91.1955 33.3726 91.2274 33.3328 91.2554 33.2929C91.6742 32.6946 92.089 31.9527 91.9454 31.1949C91.8457 30.6724 91.4707 30.2296 91.0081 29.9664C91.0041 29.9664 90.9961 29.9624 90.9921 29.9584C90.9642 29.9424 90.9363 29.9305 90.9123 29.9145C90.5215 29.7151 90.0867 29.6313 89.6519 29.6114H89.644Z" fill="#FAFAFA"/>
</g>
<defs>
<clipPath id="clip0_640_5221">
<rect width="264.891" height="56" fill="white"/>
</clipPath>
</defs>
</svg>
