<svg width="190" height="40" viewBox="0 0 190 40" fill="none" xmlns="http://www.w3.org/2000/svg">
<g clip-path="url(#clip0_640_4267)">
<path d="M76.1852 35.7721C74.1709 35.7721 72.49 35.2479 71.1424 34.1966C69.7948 33.1481 69.1196 31.8348 69.1196 30.265H72.8376C72.8376 30.6752 73.1709 31.0199 73.8376 31.2991C74.5042 31.5783 75.3447 31.7179 76.3589 31.7179C77.2336 31.7179 77.9629 31.6154 78.5498 31.4103C79.1339 31.2051 79.4273 30.9345 79.4273 30.604C79.4273 30.2251 79.0598 29.9345 78.3305 29.7379C77.5983 29.5413 76.5042 29.3362 75.0484 29.1282C73.4758 28.9031 72.1453 28.3675 71.0513 27.5185C69.9601 26.6695 69.4131 25.5185 69.4131 24.0627C69.4131 22.5071 70.0456 21.2365 71.3134 20.2507C72.5812 19.265 74.1652 18.7749 76.0712 18.7749C77.9772 18.7749 79.641 19.282 80.9287 20.2963C82.2136 21.3105 82.8575 22.5669 82.8575 24.0598H79.1396C79.1396 23.6952 78.8433 23.3989 78.2507 23.1652C77.6581 22.9316 76.8946 22.8177 75.9572 22.8177C75.1367 22.8177 74.4587 22.9145 73.923 23.1083C73.3874 23.302 73.1225 23.5499 73.1225 23.8519C73.1225 24.4558 74.4786 24.9202 77.188 25.245C78.2792 25.3846 79.2478 25.6268 80.094 25.9715C80.9373 26.3162 81.6581 26.8575 82.2478 27.5926C82.8404 28.3276 83.1367 29.2108 83.1367 30.2422C83.1367 31.8775 82.4758 33.208 81.151 34.2336C79.8262 35.2593 78.1738 35.7721 76.1909 35.7721H76.1852ZM94.0541 23.3533H97.3874V35.4815H94.0541V33.4131C93.131 34.9858 91.8005 35.7721 90.057 35.7721C88.4216 35.7721 87.057 35.1652 85.9601 33.9487C84.8632 32.7322 84.3162 31.2194 84.3162 29.4103C84.3162 27.6011 84.8632 26.0912 85.9601 24.8803C87.057 23.6667 88.4216 23.0627 90.057 23.0627C91.8005 23.0627 93.131 23.849 94.0541 25.4217V23.3533ZM88.6638 30.9972C89.2592 31.416 90.0085 31.6239 90.9117 31.6239C91.8148 31.6239 92.5641 31.416 93.1595 30.9972C93.755 30.5783 94.0541 30.0513 94.0541 29.416C94.0541 28.7806 93.755 28.2536 93.1595 27.8291C92.5641 27.4074 91.8148 27.1966 90.9117 27.1966C90.0085 27.1966 89.2592 27.4074 88.6638 27.8291C88.0683 28.2507 87.7692 28.7806 87.7692 29.416C87.7692 30.0513 88.0683 30.5783 88.6638 30.9972ZM102.744 35.4815L98.4444 23.3533H101.94L104.624 30.8462H104.983L107.667 23.3533H111.524L107.214 35.4815H102.741H102.744ZM115.872 35.4815L111.573 23.3533H115.068L117.752 30.8462H118.111L120.795 23.3533H124.652L120.342 35.4815H115.869H115.872ZM133.926 23.3533H137.783L131.858 40.0028H127.906L129.926 35.4843H128.997L124.698 23.3561H128.194L130.877 30.849H131.236L133.92 23.3561L133.926 23.3533ZM147.367 27.396H144.057V30.3932C144.057 31.0598 144.518 31.3932 145.439 31.3932H147.122V35.4815H145.031C142.157 35.4815 140.721 34.1254 140.721 31.416V27.396H138.513V23.3533H140.721V20.7265L144.054 19.7749V23.3533H147.365V27.396H147.367ZM161.473 29.51C161.473 29.9202 161.439 30.2536 161.368 30.51H151.735C152.245 31.6011 153.333 32.1481 155 32.1481C155.604 32.1481 156.162 32.0769 156.672 31.9316C157.182 31.7892 157.544 31.6239 157.752 31.4387H161.296C160.869 32.7407 160.074 33.7863 158.909 34.5812C157.744 35.3761 156.396 35.7721 154.872 35.7721C152.997 35.7721 151.43 35.1652 150.171 33.9487C148.912 32.7322 148.282 31.2194 148.282 29.4103C148.282 27.6011 148.912 26.0912 150.177 24.8803C151.439 23.6667 153.003 23.0627 154.869 23.0627C156.735 23.0627 158.33 23.6724 159.587 24.8917C160.843 26.1111 161.47 27.6496 161.47 29.51H161.473ZM154.875 26.6752C154.145 26.6752 153.504 26.8177 152.952 27.1054C152.399 27.3932 151.994 27.792 151.738 28.302H158.068C157.829 27.792 157.422 27.3932 156.849 27.1054C156.276 26.8205 155.618 26.6752 154.875 26.6752ZM169.026 35.7721C167.151 35.7721 165.584 35.1652 164.325 33.9487C163.066 32.7322 162.436 31.2194 162.436 29.4103C162.436 27.6011 163.065 26.0912 164.33 24.8803C165.593 23.6667 167.157 23.0627 169.023 23.0627C170.718 23.0627 172.174 23.5698 173.39 24.584C174.607 25.5983 175.322 26.8917 175.538 28.4644H171.926C171.687 28.0855 171.305 27.7778 170.781 27.547C170.259 27.3134 169.672 27.1994 169.02 27.1994C168.114 27.1994 167.365 27.4103 166.772 27.8319C166.179 28.2536 165.883 28.7835 165.883 29.4188C165.883 30.0541 166.182 30.5812 166.778 31C167.373 31.4188 168.122 31.6268 169.02 31.6268C169.669 31.6268 170.256 31.5128 170.781 31.2849C171.302 31.057 171.684 30.7521 171.926 30.3732H175.538C175.313 31.9459 174.595 33.2393 173.385 34.2536C172.171 35.2678 170.718 35.7749 169.023 35.7749L169.026 35.7721ZM184.732 23.0627C186.08 23.0627 187.162 23.4672 187.98 24.2764C188.798 25.0855 189.205 26.1652 189.205 27.5128V35.4843H185.872V28.9658C185.872 28.4245 185.638 27.9943 185.168 27.6752C184.698 27.3561 184.071 27.1994 183.279 27.1994C182.436 27.1994 181.758 27.3647 181.251 27.698C180.744 28.0313 180.49 28.4701 180.49 29.0114V35.4815H177.157V18.3447H180.49V25.849C181.473 23.9915 182.886 23.0598 184.729 23.0598L184.732 23.0627Z" fill="#FAFAFA"/>
<path d="M56.5669 29.5755C57.2877 28.7492 58.0968 28.0284 59.1196 27.5441C58.47 28.4472 57.5042 28.9943 56.5669 29.5755ZM59.8717 29.0085C57.4786 29.9002 55.0654 32.6381 55.0996 34.5384C56.3874 32.4558 58.6951 31.0284 59.8717 29.0085ZM56.8575 30.7464C57.4956 29.8461 58.5726 29.2735 59.1566 28.3988C58.0569 28.7321 56.8945 29.8917 56.8575 30.7464ZM59.4444 30.9515C60.1595 29.7692 61.4501 28.9544 62.1025 27.8091C60.7606 28.3247 59.4159 29.8803 59.4444 30.9515ZM62.8831 25.4957C63.0028 25.4814 63.111 25.4302 63.2164 25.3732C63.6381 25.131 63.9572 24.7749 64.2478 24.3903C64.5612 23.9743 64.8318 23.5299 64.9714 23.017C64.9857 22.9601 65.0256 22.8888 64.9686 22.8404C64.9173 22.7977 64.8603 22.8404 64.809 22.8604C63.658 23.3105 63.0911 24.2393 62.7919 25.3874C62.772 25.4672 62.7976 25.5099 62.886 25.4985L62.8831 25.4957ZM60.1937 27.9743C60.262 27.943 60.3247 27.8974 60.3874 27.8604C61.3219 27.2592 61.9059 26.4102 62.188 25.3418C62.205 25.2706 62.2563 25.1908 62.1994 25.1253C62.1338 25.0512 62.0541 25.1139 61.9914 25.1424C60.8404 25.6581 60.0825 26.4871 59.9031 27.7749C59.8917 27.8661 59.866 27.9743 59.9429 28.037C60.0341 28.1111 60.111 28.0114 60.1908 27.9743H60.1937ZM59.0683 31.4245C58.98 31.3561 58.9002 31.2792 58.8375 31.1908C58.7749 31.1054 58.7122 31.1025 58.5783 31.2478C58.3674 31.4757 58.1509 31.7008 57.9315 31.9259C57.829 32.0313 57.8005 32.1139 57.8404 32.188C57.886 32.2706 57.9201 32.3589 57.9458 32.4159C58.0939 32.6989 58.3589 32.6581 58.7407 32.2934C58.7976 32.2393 58.8546 32.188 58.9088 32.1339C59.376 31.6666 59.376 31.6666 59.0683 31.4245ZM49.6865 30.4074C48.0626 30.5726 47.0598 31.9743 45.5355 32.1965C45.6694 32.4615 45.9999 32.4131 46.2478 32.5783C45.8888 32.7948 45.527 32.7407 45.1965 32.829C44.8546 32.9202 44.5583 32.7008 44.1794 32.5242C44.4016 33.1965 44.8803 33.3333 45.376 33.3732C45.9145 33.4159 46.4615 33.3361 46.9971 33.3988C48.3788 33.5641 49.584 32.9629 50.2449 31.6809C49.8233 31.8746 49.4415 32.0484 49.0626 32.2222C49.0427 32.1851 49.0227 32.1481 49.0028 32.1082C49.205 31.8632 49.4073 31.6182 49.7236 31.2336C48.8176 31.6324 48.1395 32.1396 47.3162 32.2877C48.1538 31.7464 48.9657 31.188 49.6865 30.4074ZM49.3133 29.2336C47.9914 29.9658 46.7435 30.792 45.4102 31.4786C47.8432 31.0883 49.0398 30.3817 49.3133 29.2336ZM50.3589 20.3333C51.1937 19.2051 52.9059 18.98 53.4501 17.3076C52.2307 18.2877 50.6865 18.6837 50.3589 20.3333ZM48.131 25.8091C49.3503 25.5042 50.1595 24.9515 50.5355 24.1965C49.6267 24.5555 48.8603 25.0313 48.131 25.8091ZM21.8689 8.10822C22.2734 7.94867 22.7207 7.8689 23.205 7.50993C22.7179 7.41876 22.3703 7.36178 22.0284 7.28486C21.1281 7.08543 20.282 6.75494 19.6011 6.11107C19.3247 5.84896 19.0797 5.96862 18.8176 6.05978C16.5412 6.84611 14.2478 7.584 11.9201 8.21363C9.31901 8.91733 6.70647 9.57545 4.02556 9.91733C2.80334 10.074 1.57827 10.1766 0.347499 9.99711C0.233539 9.98001 0.0796924 9.89169 0.0113164 10.0427C-0.0485127 10.1794 0.0939375 10.2592 0.182257 10.3447C1.25063 11.4017 2.59536 11.8319 4.03696 12.0142C6.25918 12.2934 8.45291 12.017 10.6267 11.5755C14.4871 10.7891 18.205 9.53842 21.866 8.11107L21.8689 8.10822ZM23.3446 11.4416C23.527 11.3532 23.7008 11.2621 23.7521 11.0484C24.017 9.93443 24.4786 8.90024 25.0085 7.85466C24.0256 8.35038 23.0569 8.87175 22.0597 9.33614C18.0541 11.1937 13.866 12.4672 9.51559 13.2051C8.56687 13.3675 7.60676 13.4558 6.65234 13.584C6.52414 13.6011 6.32186 13.5327 6.29907 13.7236C6.27912 13.9002 6.4871 13.9173 6.60961 13.9658C8.17656 14.6039 9.81758 14.7635 11.4928 14.6894C14.4501 14.5612 17.2649 13.792 20.0284 12.7948C21.1538 12.3903 22.2649 11.9515 23.3446 11.4387V11.4416ZM29.2221 12.0512C29.2934 11.1082 29.5298 10.1937 29.8888 9.22503C24.4757 12.7749 18.7407 15.2193 12.3959 16.1481C12.4842 16.3703 12.7093 16.4017 12.9002 16.4757C15.017 17.2963 17.1766 17.151 19.3304 16.7008C22.7236 15.9914 25.8204 14.5527 28.7748 12.7749C29.0569 12.6039 29.1965 12.3988 29.2221 12.0512ZM34.1965 13.2478C33.9401 12.4871 33.9885 11.7008 34.1196 10.9202C34.1395 10.8062 34.2335 10.6638 34.0911 10.5812C33.9543 10.5014 33.866 10.6438 33.772 10.7151C30.9059 12.8547 27.8575 14.6923 24.6637 16.2963C23.1338 17.0655 21.5555 17.735 19.9116 18.2307C19.7464 18.2792 19.5868 18.3418 19.4244 18.3988C20.1452 18.7065 20.8746 18.7208 21.5954 18.678C26.1395 18.4131 30.2079 16.8461 33.8831 14.1937C34.2421 13.9344 34.3389 13.678 34.1937 13.2507L34.1965 13.2478ZM44.4786 15.6495C44.3959 15.5897 44.3475 15.6866 44.2934 15.7321C42.6609 17.1168 40.9088 18.2877 39.0626 19.2934C38.1794 19.7749 37.2649 20.188 36.3048 20.4786C36.2079 20.5071 36.1139 20.5441 36.0199 20.5783C36.4586 20.8119 36.8888 20.8433 37.3162 20.8376C40.0028 20.7948 42.3674 19.8404 44.4643 18.1282C44.6694 17.9601 44.7207 17.7891 44.621 17.4871C44.4444 16.9572 44.4501 16.4159 44.5042 15.8803C44.5127 15.8034 44.564 15.7065 44.4757 15.6467L44.4786 15.6495ZM44.5013 20.7948C45.9145 20.0626 47.4301 19.4843 49.0825 19.1082C49.1367 19.0968 49.2307 19.1139 49.2079 19.0227C49.1851 18.9287 49.0911 18.9116 49.0256 18.8746C48.5726 18.6182 48.131 18.3247 47.7578 17.9088C47.5469 17.6752 47.3902 17.6153 47.188 17.6666C45.1196 18.188 43.5811 19.3105 42.6808 21.1595C42.5384 21.4529 42.4244 21.772 42.4757 22.2051C42.5327 22.1567 42.5954 22.1139 42.6495 22.0626C43.1965 21.5555 43.8261 21.1424 44.5013 20.792V20.7948ZM41.339 24.396C41.2478 24.6296 41.1823 24.8888 41.2649 25.2592C41.3076 25.225 41.356 25.1937 41.3959 25.1538C41.8033 24.7749 42.2905 24.4871 42.8233 24.2535C43.9344 23.7663 45.1452 23.4216 46.4899 23.2564C46.5327 23.2507 46.6125 23.2763 46.5868 23.1965C46.5583 23.1139 46.4786 23.0911 46.4216 23.0541C46.0199 22.7948 45.6239 22.5071 45.2734 22.1225C45.074 21.9059 44.9372 21.8404 44.7749 21.8632C43.0968 22.1111 41.9173 22.9145 41.339 24.3931V24.396ZM41.8689 20.4586C41.8261 20.3874 41.7919 20.4643 41.7606 20.4957C40.7777 21.4245 39.7378 22.1396 38.6552 22.6866C38.1367 22.9487 37.6039 23.1396 37.0512 23.2136C36.9971 23.2222 36.9429 23.2364 36.886 23.2478C37.1196 23.547 37.3589 23.6609 37.5982 23.7407C39.1053 24.2364 40.4757 23.8404 41.735 22.7037C41.8575 22.5925 41.8945 22.4472 41.8546 22.1538C41.7834 21.6381 41.8119 21.1481 41.8689 20.6752C41.8774 20.6068 41.9116 20.5299 41.866 20.4558L41.8689 20.4586ZM40.0911 28.2279C40.4985 27.849 40.9857 27.5612 41.5184 27.3276C42.6295 26.8404 43.8404 26.4957 45.1851 26.3304C45.2278 26.3247 45.3076 26.3504 45.282 26.2706C45.2535 26.188 45.1737 26.1652 45.1167 26.1282C44.715 25.8689 44.319 25.5812 43.9686 25.1965C43.7692 24.98 43.6324 24.9145 43.47 24.9373C41.7919 25.1851 40.6125 25.9886 40.0341 27.4672C39.9429 27.7008 39.8774 27.9601 39.96 28.3304C40.0028 28.2963 40.0512 28.2649 40.0911 28.225V28.2279ZM34.0056 16.6495C33.866 16.2393 33.8917 15.8119 33.9629 15.3874C33.9743 15.3247 34.0227 15.2478 33.9486 15.2022C33.8746 15.1595 33.8261 15.2364 33.7748 15.2735C32.2221 16.433 30.5697 17.4273 28.8404 18.2963C28.0113 18.7122 27.1566 19.074 26.2677 19.3447C26.1794 19.3703 26.0911 19.4045 26.0028 19.4359C26.3931 19.6039 26.7891 19.6096 27.1794 19.5868C29.6409 19.4444 31.8461 18.5954 33.8375 17.1567C34.0313 17.017 34.0854 16.8774 34.0056 16.6467V16.6495ZM23.8717 6.38172C24.8062 6.38172 25.7179 6.23073 26.6694 5.98856C27.074 5.95722 27.47 5.76919 27.8575 5.53557C29.0284 4.83471 30.3076 4.38457 31.5982 3.96577C31.7407 3.92018 31.9629 3.94298 31.9857 3.74639C32.0085 3.55551 31.7834 3.52702 31.6666 3.43016C31.6011 3.37318 31.4985 3.35038 31.4444 3.28486C30.772 2.49283 30.0113 2.68941 29.1424 2.94867C26.8518 3.63528 24.5327 4.21078 22.1139 4.20508C21.2563 4.20508 20.4045 4.13671 19.5754 3.89454C19.4472 3.85751 19.2848 3.73215 19.1794 3.8689C19.0512 4.03699 19.2392 4.16235 19.3219 4.28201C20.4187 5.89169 22.0341 6.37602 23.8746 6.37602L23.8717 6.38172ZM41.0227 3.70651C40.8204 3.57261 40.6438 3.75494 40.4899 3.85181C39.0911 4.72645 38.0056 5.92873 37.0427 7.24782C36.1538 8.46434 35.3788 9.7407 35.0313 11.2307C34.9458 11.5982 34.8974 11.9686 34.9572 12.3447C34.9999 12.6182 35.1481 12.6638 35.3731 12.527C38.5298 10.6096 40.7919 8.07688 41.1082 4.20508C41.1224 4.03414 41.1994 3.82332 41.0227 3.70651ZM37.7207 4.28771C37.339 4.37318 36.96 4.47289 36.4472 4.6011C33.8005 5.54981 31.6182 7.18514 30.5384 10.037C30.433 10.319 30.3446 10.6153 30.3048 10.9116C30.2734 11.1424 30.0939 11.4416 30.3361 11.6068C30.5384 11.7435 30.772 11.5299 30.9743 11.4359C31.9031 11.0057 32.7293 10.4159 33.4956 9.74639C35.1281 8.32189 36.5355 6.69796 37.7521 4.90594C37.8233 4.80337 37.886 4.69511 37.9372 4.58115C38.0455 4.35038 37.9857 4.22788 37.7179 4.28771H37.7207ZM43.2421 3.8689C41.7948 5.27631 41.2392 7.07688 41.0227 9.0142C40.9942 9.26776 40.9743 9.51847 40.9629 9.77488C40.9401 10.245 40.9458 10.7236 40.9942 11.2165C41.0199 11.49 41.0598 11.7692 41.111 12.0541C41.225 12.4501 41.49 12.1481 41.6637 12.0085C42.5355 11.2991 43.2136 10.4359 43.6723 9.41591C43.7036 9.34753 43.7321 9.28201 43.7606 9.21363C43.8831 8.91733 43.9885 8.62104 44.074 8.32189C44.4814 6.91164 44.4615 5.48429 43.9486 4.04554C43.7464 3.47289 43.6666 3.45865 43.2421 3.87175V3.8689ZM33.0882 4.53557C32.4871 4.61819 31.8917 4.72645 31.3105 4.92873C28.8831 5.70081 26.7862 6.92873 25.4387 9.19084C25.2107 9.57545 25.0142 9.97431 24.8917 10.4074C24.8603 10.5185 24.7663 10.6552 24.8917 10.7549C25.0056 10.8461 25.1281 10.7492 25.2392 10.7037C26.1253 10.319 26.96 9.84041 27.7805 9.33899C29.7919 8.10822 31.735 6.78913 33.3788 5.07688C33.5298 4.92018 33.8461 4.76064 33.7264 4.53842C33.6096 4.32189 33.3048 4.50993 33.0911 4.53842L33.0882 4.53557ZM39.9315 9.75209C39.1851 10.6324 38.4244 11.4273 37.5526 12.1111C37.0597 12.4957 36.564 12.8746 36.017 13.1823C35.7635 13.3247 35.6153 13.5156 35.5241 13.7806C35.2136 14.6723 34.8888 15.5612 34.5726 16.4529C34.527 16.5812 34.4159 16.7179 34.527 16.8547C34.5697 16.9059 34.6125 16.9259 34.6609 16.9287C34.7464 16.9344 34.8375 16.8803 34.9201 16.849C35.8318 16.5071 36.6951 16.0854 37.5042 15.5783C38.3475 15.0541 39.1338 14.4416 39.8603 13.7321C40.2136 13.3874 40.339 13.017 40.2307 12.5299C40.1937 12.3532 40.1623 12.1766 40.1424 12C40.0768 11.4586 40.0797 10.9116 40.0626 10.3675V10.3475C40.0569 10.1737 40.1025 9.99141 39.9372 9.75779L39.9315 9.75209ZM46.8461 7.64668C46.7207 7.07973 46.5327 6.51278 46.2848 5.94013C46.2278 5.80907 46.1908 5.59255 45.9828 5.61534C45.8005 5.63528 45.7635 5.83471 45.6922 5.96862C45.3304 6.65808 45.0541 7.35893 44.8689 8.07118C44.7948 8.35323 44.7378 8.63813 44.6951 8.92588C44.5156 10.0826 44.5811 11.2678 44.9002 12.4843C44.9458 12.6381 44.9771 12.7977 45.0398 12.943C45.1139 13.1111 45.0882 13.3846 45.339 13.396C45.5469 13.4045 45.6666 13.2022 45.7777 13.0427C46.8632 11.47 47.1965 9.84326 46.9458 8.17659C46.9173 8.0028 46.886 7.82617 46.8461 7.64953V7.64668ZM43.7948 11.7037C43.7236 11.2934 43.5754 11.3361 43.3418 11.6068C42.735 12.319 42.0056 12.8888 41.225 13.396C41.0597 13.5042 40.9059 13.6096 40.8774 13.8376C40.7578 14.7236 40.6609 15.6068 40.6808 16.5014C40.6894 16.849 40.8204 16.9686 41.0512 16.849C42.4244 16.2621 43.4558 15.4017 44.3475 14.3561C44.4985 14.1794 44.4843 14 44.4016 13.8091C44.1082 13.1339 43.923 12.4273 43.7976 11.7037H43.7948ZM49.1481 11.5584C49.0142 11.0284 48.7293 10.5413 48.3902 10.0769C48.1794 9.79198 48.0398 9.86035 47.886 10.1253C47.1652 11.3618 47.2791 13.4586 48.1395 14.6011C48.433 14.9943 48.564 14.9971 48.8261 14.5669C49.3959 13.6296 49.4928 12.6324 49.1509 11.5584H49.1481ZM46.7919 13.8888C46.6922 13.6096 46.5897 13.5356 46.356 13.772C45.9942 14.1396 45.621 14.5014 45.2449 14.8518C45.0683 15.017 45.017 15.1965 45.0825 15.4273C45.1538 15.6837 45.2079 15.9487 45.2449 16.1139C45.4767 16.9914 45.9192 17.1557 46.5726 16.6068C46.6694 16.527 46.7663 16.4472 46.8575 16.3646C47.6609 15.6438 47.658 15.6381 47.1623 14.7151C47.0199 14.4501 46.8917 14.1709 46.7919 13.886V13.8888ZM51.1652 15.1994C51.0313 14.6723 50.7464 14.1823 50.4073 13.7208C50.1965 13.433 50.0569 13.5042 49.9002 13.7692C49.1794 15.0085 49.2962 17.1054 50.1566 18.2478C50.4501 18.641 50.5811 18.6438 50.8432 18.2136C51.4102 17.2763 51.5099 16.2792 51.168 15.2022L51.1652 15.1994ZM48.4358 22.0655C48.658 21.8604 48.8945 21.6666 49.1424 21.4985C49.3874 21.3333 49.433 21.2136 49.1452 21.0484C48.6979 20.792 48.2563 20.5213 47.8176 20.2478C47.6125 20.1168 47.4273 20.1139 47.2193 20.2364C46.9885 20.3703 46.7464 20.4871 46.5954 20.5669C45.8052 21.0133 45.7578 21.4833 46.4529 21.9772C46.5555 22.0484 46.6552 22.1253 46.7606 22.1937C47.6609 22.7891 47.6666 22.7834 48.433 22.0712L48.4358 22.0655ZM47.7521 24.5356C47.3048 24.2792 46.8632 24.0085 46.4244 23.735C46.2193 23.6039 46.0341 23.6011 45.8261 23.7236C45.5954 23.8575 45.3532 23.9743 45.2022 24.0541C44.4121 24.5004 44.3646 24.9705 45.0598 25.4643C45.1623 25.5356 45.262 25.6125 45.3674 25.6809C46.2677 26.2763 46.2734 26.2706 47.0398 25.5584C47.262 25.3532 47.4985 25.1595 47.7464 24.9914C47.9914 24.8262 48.037 24.7065 47.7492 24.5413L47.7521 24.5356ZM67.7492 15.3874C67.7407 15.4273 67.7435 15.4957 67.6694 15.4302C66.98 14.8404 66.3646 15.4643 65.9145 15.9886C64.6751 17.4273 64.7606 19.2735 64.131 20.9116C64.5099 20.8461 64.8888 20.8319 65.2535 20.8917C65.584 20.9487 65.9088 21.094 66.1281 21.3447C66.4415 21.7065 66.4786 22.1965 66.4216 22.6552C66.4159 22.7037 66.4102 22.7521 66.3988 22.8005C66.2535 23.6581 65.9458 24.4757 65.5669 25.2592C65.4016 25.5982 65.225 25.9373 65.0455 26.2735C64.9486 26.4529 64.8489 26.6353 64.7492 26.8176C64.0939 29.7948 62.5868 32.584 60.319 34.792C60.1395 34.9658 59.9543 35.1396 59.7635 35.3076C59.1424 35.8547 58.4757 36.3618 57.7578 36.8176C56.715 37.4814 55.6239 38.0085 54.5042 38.4045C54.1224 38.5413 53.7378 38.6609 53.3475 38.7663C50.0797 39.6467 46.6438 39.4444 43.5469 38.2706C42.5384 38.8575 41.5241 39.433 40.507 39.9971C41.47 39.4643 42.4016 38.8347 43.3133 38.1766C40.3133 36.9829 37.6495 34.8718 35.7834 31.943C33.4244 28.2393 32.7891 23.9259 33.6666 19.9544C33.0968 20.0569 32.5127 20.1196 31.9201 20.1481C31.4586 20.1709 30.9914 20.1567 30.527 19.9458C30.6295 19.9088 30.7321 19.8661 30.8375 19.8347C31.886 19.5185 32.8917 19.0854 33.8689 18.5868C33.9344 18.5527 34.0028 18.5185 34.0654 18.4843C35.037 17.9829 35.9857 17.4444 36.9088 16.8632C37.8546 16.2706 38.772 15.6324 39.6637 14.9487C39.7236 14.9031 39.7777 14.8062 39.866 14.8632C39.9572 14.9202 39.8974 15.0114 39.886 15.0883C39.8062 15.6068 39.7834 16.1282 39.9515 16.6353C40.0484 16.9202 39.9885 17.0883 39.7606 17.2564C38.6267 18.0997 37.4301 18.7692 36.1709 19.2535C35.3845 22.8803 35.9714 26.8062 38.1196 30.1794C40.0199 33.1652 42.8233 35.225 45.9486 36.2307C46.0113 36.1851 46.0711 36.1396 46.1338 36.0968C48.6096 34.3162 51.0541 32.4786 53.4045 30.5327C55.9344 28.4387 67.5099 18.7606 59.8375 19.1453C59.8147 19.1737 59.809 19.1794 59.8062 19.1851C57.5897 24.5498 49.5042 27.8376 47.6865 28.2649C49.4814 27.7635 50.8233 26.3561 52.1538 25.1282C53.6125 23.7777 54.9116 22.2621 56.0768 20.6524C57.4244 18.7891 58.6894 16.849 60.3247 15.2193C60.3418 15.2051 60.3646 15.1937 60.4073 15.1709C60.282 15.4188 60.1652 15.6381 60.0911 15.8774C60.0711 15.9487 60.0797 15.98 60.1566 15.9715C60.2421 15.9629 60.3276 15.9629 60.413 15.9515C61.0113 15.8803 61.5925 15.7236 62.1709 15.5612C62.2364 15.5441 62.2991 15.527 62.3617 15.5128C62.3646 15.5213 62.3674 15.527 62.3731 15.5356C62.0768 15.7635 61.7805 15.9914 61.4843 16.2193C62.0939 16.2279 62.6523 16.0655 63.188 15.7435C62.9999 16.3418 62.9885 16.9259 63.0284 17.5128C63.658 16.2849 64.5042 15.2735 65.772 14.6638C64.8375 14.9287 64.1082 15.5042 63.4501 16.2307C63.47 15.8945 63.5498 15.6011 63.6609 15.2991C63.6182 15.319 63.5954 15.3276 63.5754 15.339C63.3162 15.4586 63.0484 15.4814 62.772 15.4102C62.7464 15.4045 62.7122 15.4074 62.7036 15.376C62.6922 15.3361 62.7378 15.3333 62.7578 15.3105C62.8062 15.2678 62.8518 15.2279 62.9173 15.1737C62.6381 15.1339 62.4187 15.0284 62.2962 14.7891C62.2478 14.6951 62.1937 14.698 62.111 14.7321C61.7948 14.8661 61.4814 15.0114 61.1794 15.1823C61.1139 15.2193 61.0541 15.2763 60.9458 15.2849C61.5726 14.6068 62.2934 14.1054 63.1452 13.7464C63.017 13.7037 62.9201 13.6752 62.8233 13.6467C63.6552 13.2763 64.4985 13.0769 65.4159 13.3361C64.9857 13.7806 64.6096 14.2307 64.5213 14.8461C64.8689 14.6581 65.2193 14.4928 65.5811 14.3561C65.8347 14.2621 66.0882 14.188 66.356 14.1595C66.678 14.1253 66.98 14.151 67.2335 14.4245C67.1965 14.0911 67.0911 13.8148 66.886 13.584C66.5811 13.2421 66.1794 13.1196 65.7407 13.094C65.6666 13.0911 65.6125 13.0683 65.5583 13.0142C65.4216 12.8717 65.2592 12.7635 65.0683 12.6837C65.0711 12.7521 65.1253 12.7891 65.1167 12.849C65.1053 12.849 65.0939 12.8547 65.0825 12.8518C64.5384 12.7578 64.0113 12.8547 63.49 13.0114C62.7008 13.2478 61.9771 13.6267 61.282 14.0683C60.7236 14.4216 60.1965 14.8119 59.6837 15.2307C57.6694 16.8746 56.2791 19.1851 54.2449 20.7663C52.2877 22.2877 49.9771 23.1965 47.5327 23.5441C49.8888 23.2108 51.658 20.9316 53.2022 19.3304C54.2364 18.2535 55.2706 17.1595 56.3874 16.168C54.8945 16.0655 53.4615 15.3475 52.3446 14.376C50.3589 12.6438 49.2848 10.2735 48.2107 7.91449C48.1509 7.78058 48.0882 7.64383 48.0284 7.50708C47.6666 6.7179 47.2991 5.94013 46.8974 5.18799C45.9771 3.48429 44.6894 2.433 42.6239 2.58115C40.9059 2.70081 39.2392 3.07118 37.5612 3.40736C35.8347 3.75494 34.1481 3.68941 32.5526 2.87745C31.923 2.55551 31.3219 2.19084 30.923 1.55836C31.111 1.42731 31.2649 1.51278 31.4159 1.53272C32.0512 1.62104 32.6922 1.66947 33.3361 1.63528C35.3076 1.53557 37.2107 1.03414 39.131 0.632434C40.4558 0.373175 41.7748 0.0341438 43.1395 -4.42433e-05C45.3162 -0.0484773 46.9686 0.823318 48.0028 2.77773C48.0142 2.80337 48.0313 2.83471 48.0455 2.86035C48.8033 4.32189 49.1994 5.92018 49.6837 7.48429C49.7122 7.5783 49.7435 7.67517 49.772 7.76919C50.0512 8.63528 50.3617 9.48429 50.7891 10.2934C51.9145 12.433 53.5954 14.2792 55.6609 15.5441C55.9515 15.7208 56.262 15.8945 56.5726 16.0199C57.1937 15.4786 57.8432 14.9715 58.5298 14.5128C59.7321 13.7208 60.9942 13.0541 62.3845 12.6552C63.2791 12.3988 64.188 12.2763 65.1196 12.339C65.3988 12.3589 65.5925 12.5099 65.7891 12.678C65.8432 12.7236 65.8917 12.7435 65.9629 12.7435C66.4472 12.7321 66.9059 12.8233 67.2905 13.1453C67.6239 13.4245 67.7749 13.8034 67.8261 14.225C67.8746 14.6182 67.829 15.0085 67.7521 15.396L67.7492 15.3874ZM63.9572 14.0769C63.9315 14.2022 63.9002 14.3105 63.8233 14.4017C63.7891 14.4416 63.7606 14.4529 63.7321 14.4131C63.678 14.3447 63.6523 14.3789 63.6096 14.4273C63.5213 14.5242 63.3731 14.5498 63.2706 14.4928C63.2164 14.4643 63.205 14.433 63.2563 14.3903C63.3048 14.3504 63.3446 14.3019 63.3532 14.2222C63.1851 14.2649 63.037 14.3333 62.8831 14.3903C62.8119 14.4188 62.809 14.4615 62.8347 14.527C62.8974 14.6666 62.9914 14.7663 63.1367 14.8119C63.4045 14.9002 63.6438 14.8376 63.8404 14.641C63.9999 14.4843 64.0455 14.2507 63.9543 14.074L63.9572 14.0769ZM64.0313 21.151C63.9429 21.3532 63.8404 21.5555 63.7236 21.7492C61.9743 24.6096 59.3731 26.8974 56.8404 29.0484C53.6324 31.772 50.1794 34.1994 46.6011 36.4273C49.1623 37.1225 51.9059 37.1253 54.5213 36.3589C54.5783 36.3418 54.6352 36.3219 54.6922 36.3048C54.7948 36.1253 54.9002 35.9515 55.0085 35.7777C55.3247 35.2849 55.6751 34.8176 56.0427 34.3589C56.3617 33.9629 56.6951 33.5783 57.0512 33.2136C57.1139 33.151 57.1766 33.0968 57.2677 33.1054C57.7606 33.1566 58.2478 33.1196 58.7492 33.0569C58.4102 33.3817 58.0654 33.7008 57.7378 34.037C57.3988 34.3903 57.0711 34.7492 56.7635 35.1225C56.6011 35.3162 56.4444 35.5128 56.2905 35.7122C56.3617 35.6809 56.433 35.6524 56.5013 35.6182C57.1025 35.3418 57.6922 35.0227 58.2677 34.6581C58.6837 34.3931 59.0797 34.1139 59.4586 33.8119C60.2592 33.1851 60.9771 32.49 61.6125 31.7321C62.0313 31.2336 62.413 30.7094 62.7578 30.1652C62.715 30.0313 62.6865 29.8917 62.658 29.7492C62.037 30.3504 61.4643 30.9943 60.9287 31.6752C60.6125 32.0797 60.3219 32.5014 60.0797 32.9544C60.0541 32.9971 60.0256 33.0427 59.9999 33.0883C59.9572 32.8575 59.9999 32.6467 60.054 32.4359C60.4159 31.1225 61.1167 30.0227 62.1082 29.0997C62.205 29.0085 62.2848 28.9971 62.3988 29.0626C62.4586 29.0968 62.5213 29.1225 62.584 29.1453C62.5412 28.2906 62.7777 27.4843 63.1823 26.7094C63.5298 26.0512 64.0085 25.4615 64.433 24.8604C64.5954 24.6324 64.7492 24.4017 64.9088 24.1737C64.9771 24.0712 65.0484 23.9686 65.1196 23.8689C65.1395 23.8376 65.1623 23.8091 65.1823 23.7806C65.4814 23.3532 65.7777 22.8233 65.6751 22.282C65.6039 21.9088 65.3361 21.5925 65.0056 21.4045C65.0028 21.4045 64.9971 21.4017 64.9942 21.3988C64.9743 21.3874 64.9543 21.3789 64.9372 21.3675C64.658 21.225 64.3475 21.1652 64.037 21.151H64.0313Z" fill="#FAFAFA"/>
</g>
<defs>
<clipPath id="clip0_640_4267">
<rect width="189.208" height="40" fill="white"/>
</clipPath>
</defs>
</svg>
