<svg width="206.28" height="43.61" viewBox="0 0 665 141" fill="none" xmlns="http://www.w3.org/2000/svg">
<g clip-path="url(#clip0_305_3519)">
<path d="M267.41 125.56C260.34 125.56 254.44 123.72 249.71 120.03C244.98 116.35 242.61 111.74 242.61 106.23H255.66C255.66 107.67 256.83 108.88 259.17 109.86C261.51 110.84 264.46 111.33 268.02 111.33C271.09 111.33 273.65 110.97 275.71 110.25C277.76 109.53 278.79 108.58 278.79 107.42C278.79 106.09 277.5 105.07 274.94 104.38C272.37 103.69 268.53 102.97 263.42 102.24C257.9 101.45 253.23 99.5699 249.39 96.5899C245.56 93.6099 243.64 89.5699 243.64 84.4599C243.64 78.9999 245.86 74.5399 250.31 71.0799C254.76 67.6199 260.32 65.8999 267.01 65.8999C273.7 65.8999 279.54 67.6799 284.06 71.2399C288.57 74.7999 290.83 79.2099 290.83 84.4499H277.78C277.78 83.1699 276.74 82.1299 274.66 81.3099C272.58 80.4899 269.9 80.0899 266.61 80.0899C263.73 80.0899 261.35 80.4299 259.47 81.1099C257.59 81.7899 256.66 82.6599 256.66 83.7199C256.66 85.8399 261.42 87.4699 270.93 88.6099C274.76 89.0999 278.16 89.9499 281.13 91.1599C284.09 92.3699 286.62 94.2699 288.69 96.8499C290.77 99.4299 291.81 102.53 291.81 106.15C291.81 111.89 289.49 116.56 284.84 120.16C280.19 123.76 274.39 125.56 267.43 125.56H267.41ZM330.13 81.9699H341.83V124.54H330.13V117.28C326.89 122.8 322.22 125.56 316.1 125.56C310.36 125.56 305.57 123.43 301.72 119.16C297.87 114.89 295.95 109.58 295.95 103.23C295.95 96.8799 297.87 91.5799 301.72 87.3299C305.57 83.0699 310.36 80.9499 316.1 80.9499C322.22 80.9499 326.89 83.7099 330.13 89.2299V81.9699ZM311.21 108.8C313.3 110.27 315.93 111 319.1 111C322.27 111 324.9 110.27 326.99 108.8C329.08 107.33 330.13 105.48 330.13 103.25C330.13 101.02 329.08 99.1699 326.99 97.6799C324.9 96.1999 322.27 95.4599 319.1 95.4599C315.93 95.4599 313.3 96.1999 311.21 97.6799C309.12 99.1599 308.07 101.02 308.07 103.25C308.07 105.48 309.12 107.33 311.21 108.8ZM360.63 124.54L345.54 81.9699H357.81L367.23 108.27H368.49L377.91 81.9699H391.45L376.32 124.54H360.62H360.63ZM406.71 124.54L391.62 81.9699H403.89L413.31 108.27H414.57L423.99 81.9699H437.53L422.4 124.54H406.7H406.71ZM470.08 81.9699H483.62L462.82 140.41H448.95L456.04 124.55H452.78L437.69 81.9799H449.96L459.38 108.28H460.64L470.06 81.9799L470.08 81.9699ZM517.26 96.1599H505.64V106.68C505.64 109.02 507.26 110.19 510.49 110.19H516.4V124.54H509.06C498.97 124.54 493.93 119.78 493.93 110.27V96.1599H486.18V81.9699H493.93V72.7499L505.63 69.4099V81.9699H517.25V96.1599H517.26ZM566.77 103.58C566.77 105.02 566.65 106.19 566.4 107.09H532.59C534.38 110.92 538.2 112.84 544.05 112.84C546.17 112.84 548.13 112.59 549.92 112.08C551.71 111.58 552.98 111 553.71 110.35H566.15C564.65 114.92 561.86 118.59 557.77 121.38C553.68 124.17 548.95 125.56 543.6 125.56C537.02 125.56 531.52 123.43 527.1 119.16C522.68 114.89 520.47 109.58 520.47 103.23C520.47 96.8799 522.68 91.5799 527.12 87.3299C531.55 83.0699 537.04 80.9499 543.59 80.9499C550.14 80.9499 555.74 83.0899 560.15 87.3699C564.56 91.6499 566.76 97.0499 566.76 103.58H566.77ZM543.61 93.6299C541.05 93.6299 538.8 94.1299 536.86 95.1399C534.92 96.1499 533.5 97.5499 532.6 99.3399H554.82C553.98 97.5499 552.55 96.1499 550.54 95.1399C548.53 94.1399 546.22 93.6299 543.61 93.6299ZM593.28 125.56C586.7 125.56 581.2 123.43 576.78 119.16C572.36 114.89 570.15 109.58 570.15 103.23C570.15 96.8799 572.36 91.5799 576.8 87.3299C581.23 83.0699 586.72 80.9499 593.27 80.9499C599.22 80.9499 604.33 82.7299 608.6 86.2899C612.87 89.8499 615.38 94.3899 616.14 99.9099H603.46C602.62 98.5799 601.28 97.4999 599.44 96.6899C597.61 95.8699 595.55 95.4699 593.26 95.4699C590.08 95.4699 587.45 96.2099 585.37 97.6899C583.29 99.1699 582.25 101.03 582.25 103.26C582.25 105.49 583.3 107.34 585.39 108.81C587.48 110.28 590.11 111.01 593.26 111.01C595.54 111.01 597.6 110.61 599.44 109.81C601.27 109.01 602.61 107.94 603.46 106.61H616.14C615.35 112.13 612.83 116.67 608.58 120.23C604.32 123.79 599.22 125.57 593.27 125.57L593.28 125.56ZM648.41 80.9499C653.14 80.9499 656.94 82.3699 659.81 85.2099C662.68 88.0499 664.11 91.8399 664.11 96.5699V124.55H652.41V101.67C652.41 99.7699 651.59 98.2599 649.94 97.1399C648.29 96.0199 646.09 95.4699 643.31 95.4699C640.35 95.4699 637.97 96.0499 636.19 97.2199C634.41 98.3899 633.52 99.9299 633.52 101.83V124.54H621.82V64.3899H633.52V90.7299C636.97 84.2099 641.93 80.9399 648.4 80.9399L648.41 80.9499Z" fill="url(#paint0_linear_305_3519)"/>
<path d="M198.55 103.81C201.08 100.91 203.92 98.3801 207.51 96.6801C205.23 99.8501 201.84 101.77 198.55 103.81ZM210.15 101.82C201.75 104.95 193.28 114.56 193.4 121.23C197.92 113.92 206.02 108.91 210.15 101.82ZM199.57 107.92C201.81 104.76 205.59 102.75 207.64 99.6801C203.78 100.85 199.7 104.92 199.57 107.92ZM208.65 108.64C211.16 104.49 215.69 101.63 217.98 97.6101C213.27 99.4201 208.55 104.88 208.65 108.64ZM220.72 89.4901C221.14 89.4401 221.52 89.2601 221.89 89.0601C223.37 88.2101 224.49 86.9601 225.51 85.6101C226.61 84.1501 227.56 82.5901 228.05 80.7901C228.1 80.5901 228.24 80.3401 228.04 80.1701C227.86 80.0201 227.66 80.1701 227.48 80.2401C223.44 81.8201 221.45 85.0801 220.4 89.1101C220.33 89.3901 220.42 89.5401 220.73 89.5001L220.72 89.4901ZM211.28 98.1901C211.52 98.0801 211.74 97.9201 211.96 97.7901C215.24 95.6801 217.29 92.7001 218.28 88.9501C218.34 88.7001 218.52 88.4201 218.32 88.1901C218.09 87.9301 217.81 88.1501 217.59 88.2501C213.55 90.0601 210.89 92.9701 210.26 97.4901C210.22 97.8101 210.13 98.1901 210.4 98.4101C210.72 98.6701 210.99 98.3201 211.27 98.1901H211.28ZM207.33 110.3C207.02 110.06 206.74 109.79 206.52 109.48C206.3 109.18 206.08 109.17 205.61 109.68C204.87 110.48 204.11 111.27 203.34 112.06C202.98 112.43 202.88 112.72 203.02 112.98C203.18 113.27 203.3 113.58 203.39 113.78C203.91 114.773 204.84 114.63 206.18 113.35C206.38 113.16 206.58 112.98 206.77 112.79C208.41 111.15 208.41 111.15 207.33 110.3ZM174.4 106.73C168.7 107.31 165.18 112.23 159.83 113.01C160.3 113.94 161.46 113.77 162.33 114.35C161.07 115.11 159.8 114.92 158.64 115.23C157.44 115.55 156.4 114.78 155.07 114.16C155.85 116.52 157.53 117 159.27 117.14C161.16 117.29 163.08 117.01 164.96 117.23C169.81 117.81 174.04 115.7 176.36 111.2C174.88 111.88 173.54 112.49 172.21 113.1C172.14 112.97 172.07 112.84 172 112.7C172.71 111.84 173.42 110.98 174.53 109.63C171.35 111.03 168.97 112.81 166.08 113.33C169.02 111.43 171.87 109.47 174.4 106.73ZM173.09 102.61C168.45 105.18 164.07 108.08 159.39 110.49C167.93 109.12 172.13 106.64 173.09 102.61ZM176.76 71.3701C179.69 67.4101 185.7 66.6201 187.61 60.7501C183.33 64.1901 177.91 65.5801 176.76 71.3701ZM168.94 90.5901C173.22 89.5201 176.06 87.5801 177.38 84.9301C174.19 86.1901 171.5 87.8601 168.94 90.5901ZM76.7602 28.4601C78.1802 27.9001 79.7502 27.6201 81.4502 26.3601C79.7402 26.0401 78.5202 25.8401 77.3202 25.5701C74.1602 24.8701 71.1902 23.7101 68.8002 21.4501C67.8302 20.5301 66.9702 20.9501 66.0502 21.2701C58.0602 24.0301 50.0102 26.6201 41.8402 28.8301C32.7102 31.3001 23.5402 33.6101 14.1302 34.8101C9.84024 35.3601 5.54024 35.7201 1.22024 35.0901C0.820238 35.0301 0.280238 34.7201 0.0402381 35.2501C-0.169762 35.7301 0.330238 36.0101 0.640238 36.3101C4.39024 40.0201 9.11024 41.5301 14.1702 42.1701C21.9702 43.1501 29.6702 42.1801 37.3002 40.6301C50.8502 37.8701 63.9002 33.4801 76.7502 28.4701L76.7602 28.4601ZM81.9402 40.1601C82.5802 39.8501 83.1902 39.5301 83.3702 38.7801C84.3002 34.8701 85.9202 31.2401 87.7802 27.5701C84.3302 29.3101 80.9302 31.1401 77.4302 32.7701C63.3702 39.2901 48.6702 43.7601 33.4002 46.3501C30.0702 46.9201 26.7002 47.2301 23.3502 47.6801C22.9002 47.7401 22.1902 47.5001 22.1102 48.1701C22.0402 48.7901 22.7702 48.8501 23.2002 49.0201C28.7002 51.2601 34.4602 51.8201 40.3402 51.5601C50.7202 51.1101 60.6002 48.4101 70.3002 44.9101C74.2502 43.4901 78.1502 41.9501 81.9402 40.1501V40.1601ZM102.57 42.3001C102.82 38.9901 103.65 35.7801 104.91 32.3801C85.9102 44.8401 65.7802 53.4201 43.5102 56.6801C43.8202 57.4601 44.6102 57.5701 45.2802 57.8301C52.7102 60.7101 60.2902 60.2001 67.8502 58.6201C79.7602 56.1301 90.6302 51.0801 101 44.8401C101.99 44.2401 102.48 43.5201 102.57 42.3001ZM120.03 46.5001C119.13 43.8301 119.3 41.0701 119.76 38.3301C119.83 37.9301 120.16 37.4301 119.66 37.1401C119.18 36.8601 118.87 37.3601 118.54 37.6101C108.48 45.1201 97.7802 51.5701 86.5702 57.2001C81.2002 59.9001 75.6602 62.2501 69.8902 63.9901C69.3102 64.1601 68.7502 64.3801 68.1802 64.5801C70.7102 65.6601 73.2702 65.7101 75.8002 65.5601C91.7502 64.6301 106.03 59.1301 118.93 49.8201C120.19 48.9101 120.53 48.0101 120.02 46.5101L120.03 46.5001ZM156.12 54.9301C155.83 54.7201 155.66 55.0601 155.47 55.2201C149.74 60.0801 143.59 64.1901 137.11 67.7201C134.01 69.4101 130.8 70.8601 127.43 71.8801C127.09 71.9801 126.76 72.1101 126.43 72.2301C127.97 73.0501 129.48 73.1601 130.98 73.1401C140.41 72.9901 148.71 69.6401 156.07 63.6301C156.79 63.0401 156.97 62.4401 156.62 61.3801C156 59.5201 156.02 57.6201 156.21 55.7401C156.24 55.4701 156.42 55.1301 156.11 54.9201L156.12 54.9301ZM156.2 72.9901C161.16 70.4201 166.48 68.3901 172.28 67.0701C172.47 67.0301 172.8 67.0901 172.72 66.7701C172.64 66.4401 172.31 66.3801 172.08 66.2501C170.49 65.3501 168.94 64.3201 167.63 62.8601C166.89 62.0401 166.34 61.8301 165.63 62.0101C158.37 63.8401 152.97 67.7801 149.81 74.2701C149.31 75.3001 148.91 76.4201 149.09 77.9401C149.29 77.7701 149.51 77.6201 149.7 77.4401C151.62 75.6601 153.83 74.2101 156.2 72.9801V72.9901ZM145.1 85.6301C144.78 86.4501 144.55 87.3601 144.84 88.6601C144.99 88.5401 145.16 88.4301 145.3 88.2901C146.73 86.9601 148.44 85.9501 150.31 85.1301C154.21 83.4201 158.46 82.2101 163.18 81.6301C163.33 81.6101 163.61 81.7001 163.52 81.4201C163.42 81.1301 163.14 81.0501 162.94 80.9201C161.53 80.0101 160.14 79.0001 158.91 77.6501C158.21 76.8901 157.73 76.6601 157.16 76.7401C151.27 77.6101 147.13 80.4301 145.1 85.6201V85.6301ZM146.96 71.8101C146.81 71.5601 146.69 71.8301 146.58 71.9401C143.13 75.2001 139.48 77.7101 135.68 79.6301C133.86 80.5501 131.99 81.2201 130.05 81.4801C129.86 81.5101 129.67 81.5601 129.47 81.6001C130.29 82.6501 131.13 83.0501 131.97 83.3301C137.26 85.0701 142.07 83.6801 146.49 79.6901C146.92 79.3001 147.05 78.7901 146.91 77.7601C146.66 75.9501 146.76 74.2301 146.96 72.5701C146.99 72.3301 147.11 72.0601 146.95 71.8001L146.96 71.8101ZM140.72 99.0801C142.15 97.7501 143.86 96.7401 145.73 95.9201C149.63 94.2101 153.88 93.0001 158.6 92.4201C158.75 92.4001 159.03 92.4901 158.94 92.2101C158.84 91.9201 158.56 91.8401 158.36 91.7101C156.95 90.8001 155.56 89.7901 154.33 88.4401C153.63 87.6801 153.15 87.4501 152.58 87.5301C146.69 88.4001 142.55 91.2201 140.52 96.4101C140.2 97.2301 139.97 98.1401 140.26 99.4401C140.41 99.3201 140.58 99.2101 140.72 99.0701V99.0801ZM119.36 58.4401C118.87 57.0001 118.96 55.5001 119.21 54.0101C119.25 53.7901 119.42 53.5201 119.16 53.3601C118.9 53.2101 118.73 53.4801 118.55 53.6101C113.1 57.6801 107.3 61.1701 101.23 64.2201C98.3202 65.6801 95.3202 66.9501 92.2002 67.9001C91.8902 67.9901 91.5802 68.1101 91.2702 68.2201C92.6402 68.8101 94.0302 68.8301 95.4002 68.7501C104.04 68.2501 111.78 65.2701 118.77 60.2201C119.45 59.7301 119.64 59.2401 119.36 58.4301V58.4401ZM83.7902 22.4001C87.0702 22.4001 90.2702 21.8701 93.6102 21.0201C95.0302 20.9101 96.4202 20.2501 97.7802 19.4301C101.89 16.9701 106.38 15.3901 110.91 13.9201C111.41 13.7601 112.19 13.8401 112.27 13.1501C112.35 12.4801 111.56 12.3801 111.15 12.0401C110.92 11.8401 110.56 11.7601 110.37 11.5301C108.01 8.75011 105.34 9.44011 102.29 10.3501C94.2502 12.7601 86.1102 14.7801 77.6202 14.7601C74.6102 14.7601 71.6202 14.5201 68.7102 13.6701C68.2602 13.5401 67.6902 13.1001 67.3202 13.5801C66.8702 14.1701 67.5302 14.6101 67.8202 15.0301C71.6702 20.6801 77.3402 22.3801 83.8002 22.3801L83.7902 22.4001ZM143.99 13.0101C143.28 12.5401 142.66 13.1801 142.12 13.5201C137.21 16.5901 133.4 20.8101 130.02 25.4401C126.9 29.7101 124.18 34.1901 122.96 39.4201C122.66 40.7101 122.49 42.0101 122.7 43.3301C122.85 44.2901 123.37 44.4501 124.16 43.9701C135.24 37.2401 143.18 28.3501 144.29 14.7601C144.34 14.1601 144.61 13.4201 143.99 13.0101ZM132.4 15.0501C131.06 15.3501 129.73 15.7001 127.93 16.1501C118.64 19.4801 110.98 25.2201 107.19 35.2301C106.82 36.2201 106.51 37.2601 106.37 38.3001C106.26 39.1101 105.63 40.1601 106.48 40.7401C107.19 41.2201 108.01 40.4701 108.72 40.1401C111.98 38.6301 114.88 36.5601 117.57 34.2101C123.3 29.2101 128.24 23.5101 132.51 17.2201C132.76 16.8601 132.98 16.4801 133.16 16.0801C133.54 15.2701 133.33 14.8401 132.39 15.0501H132.4ZM151.78 13.5801C146.7 18.5201 144.75 24.8401 143.99 31.6401C143.89 32.5301 143.82 33.4101 143.78 34.3101C143.7 35.9601 143.72 37.6401 143.89 39.3701C143.98 40.3301 144.12 41.3101 144.3 42.3101C144.7 43.7001 145.63 42.6401 146.24 42.1501C149.3 39.6601 151.68 36.6301 153.29 33.0501C153.4 32.8101 153.5 32.5801 153.6 32.3401C154.03 31.3001 154.4 30.2601 154.7 29.2101C156.13 24.2601 156.06 19.2501 154.26 14.2001C153.55 12.1901 153.27 12.1401 151.78 13.5901V13.5801ZM116.14 15.9201C114.03 16.2101 111.94 16.5901 109.9 17.3001C101.38 20.0101 94.0202 24.3201 89.2902 32.2601C88.4902 33.6101 87.8002 35.0101 87.3702 36.5301C87.2602 36.9201 86.9302 37.4001 87.3702 37.7501C87.7702 38.0701 88.2002 37.7301 88.5902 37.5701C91.7002 36.2201 94.6302 34.5401 97.5102 32.7801C104.57 28.4601 111.39 23.8301 117.16 17.8201C117.69 17.2701 118.8 16.7101 118.38 15.9301C117.97 15.1701 116.9 15.8301 116.15 15.9301L116.14 15.9201ZM140.16 34.2301C137.54 37.3201 134.87 40.1101 131.81 42.5101C130.08 43.8601 128.34 45.1901 126.42 46.2701C125.53 46.7701 125.01 47.4401 124.69 48.3701C123.6 51.5001 122.46 54.6201 121.35 57.7501C121.19 58.2001 120.8 58.6801 121.19 59.1601C121.34 59.3401 121.49 59.4101 121.66 59.4201C121.96 59.4401 122.28 59.2501 122.57 59.1401C125.77 57.9401 128.8 56.4601 131.64 54.6801C134.6 52.8401 137.36 50.6901 139.91 48.2001C141.15 46.9901 141.59 45.6901 141.21 43.9801C141.08 43.3601 140.97 42.7401 140.9 42.1201C140.67 40.2201 140.68 38.3001 140.62 36.3901V36.3201C140.6 35.7101 140.76 35.0701 140.18 34.2501L140.16 34.2301ZM164.43 26.8401C163.99 24.8501 163.33 22.8601 162.46 20.8501C162.26 20.3901 162.13 19.6301 161.4 19.7101C160.76 19.7801 160.63 20.4801 160.38 20.9501C159.11 23.3701 158.14 25.8301 157.49 28.3301C157.23 29.3201 157.03 30.3201 156.88 31.3301C156.25 35.3901 156.48 39.5501 157.6 43.8201C157.76 44.3601 157.87 44.9201 158.09 45.4301C158.35 46.0201 158.26 46.9801 159.14 47.0201C159.87 47.0501 160.29 46.3401 160.68 45.7801C164.49 40.2601 165.66 34.5501 164.78 28.7001C164.68 28.0901 164.57 27.4701 164.43 26.8501V26.8401ZM153.72 41.0801C153.47 39.6401 152.95 39.7901 152.13 40.7401C150 43.2401 147.44 45.2401 144.7 47.0201C144.12 47.4001 143.58 47.7701 143.48 48.5701C143.06 51.6801 142.72 54.7801 142.79 57.9201C142.82 59.1401 143.28 59.5601 144.09 59.1401C148.91 57.0801 152.53 54.0601 155.66 50.3901C156.19 49.7701 156.14 49.1401 155.85 48.4701C154.82 46.1001 154.17 43.6201 153.73 41.0801H153.72ZM172.51 40.5701C172.04 38.7101 171.04 37.0001 169.85 35.3701C169.11 34.3701 168.62 34.6101 168.08 35.5401C165.55 39.8801 165.95 47.2401 168.97 51.2501C170 52.6301 170.46 52.6401 171.38 51.1301C173.38 47.8401 173.72 44.3401 172.52 40.5701H172.51ZM164.24 48.7501C163.89 47.7701 163.53 47.5101 162.71 48.3401C161.44 49.6301 160.13 50.9001 158.81 52.1301C158.19 52.7101 158.01 53.3401 158.24 54.1501C158.49 55.0501 158.68 55.9801 158.81 56.5601C159.624 59.6401 161.177 60.2168 163.47 58.2901C163.81 58.0101 164.15 57.7301 164.47 57.4401C167.29 54.9101 167.28 54.8901 165.54 51.6501C165.04 50.7201 164.59 49.7401 164.24 48.7401V48.7501ZM179.59 53.3501C179.12 51.5001 178.12 49.7801 176.93 48.1601C176.19 47.1501 175.7 47.4001 175.15 48.3301C172.62 52.6801 173.03 60.0401 176.05 64.0501C177.08 65.4301 177.54 65.4401 178.46 63.9301C180.45 60.6401 180.8 57.1401 179.6 53.3601L179.59 53.3501ZM170.01 77.4501C170.79 76.7301 171.62 76.0501 172.49 75.4601C173.35 74.8801 173.51 74.4601 172.5 73.8801C170.93 72.9801 169.38 72.0301 167.84 71.0701C167.12 70.6101 166.47 70.6001 165.74 71.0301C164.93 71.5001 164.08 71.9101 163.55 72.1901C160.777 73.7568 160.61 75.4068 163.05 77.1401C163.41 77.3901 163.76 77.6601 164.13 77.9001C167.29 79.9901 167.31 79.9701 170 77.4701L170.01 77.4501ZM167.61 86.1201C166.04 85.2201 164.49 84.2701 162.95 83.3101C162.23 82.8501 161.58 82.8401 160.85 83.2701C160.04 83.7401 159.19 84.1501 158.66 84.4301C155.887 85.9968 155.72 87.6468 158.16 89.3801C158.52 89.6301 158.87 89.9001 159.24 90.1401C162.4 92.2301 162.42 92.2101 165.11 89.7101C165.89 88.9901 166.72 88.3101 167.59 87.7201C168.45 87.1401 168.61 86.7201 167.6 86.1401L167.61 86.1201ZM237.8 54.0101C237.77 54.1501 237.78 54.3901 237.52 54.1601C235.1 52.0901 232.94 54.2801 231.36 56.1201C227.01 61.1701 227.31 67.6501 225.1 73.4001C226.43 73.1701 227.76 73.1201 229.04 73.3301C230.2 73.5301 231.34 74.0401 232.11 74.9201C233.21 76.1901 233.34 77.9101 233.14 79.5201C233.12 79.6901 233.1 79.8601 233.06 80.0301C232.55 83.0401 231.47 85.9101 230.14 88.6601C229.56 89.8501 228.94 91.0401 228.31 92.2201C227.97 92.8501 227.62 93.4901 227.27 94.1301C224.97 104.58 219.68 114.37 211.72 122.12C211.09 122.73 210.44 123.34 209.77 123.93C207.59 125.85 205.25 127.63 202.73 129.23C199.07 131.56 195.24 133.41 191.31 134.8C189.97 135.28 188.62 135.7 187.25 136.07C175.78 139.16 163.72 138.45 152.85 134.33C149.31 136.39 145.75 138.41 142.18 140.39C145.56 138.52 148.83 136.31 152.03 134C141.5 129.81 132.15 122.4 125.6 112.12C117.32 99.1201 115.09 83.9801 118.17 70.0401C116.17 70.4001 114.12 70.6201 112.04 70.7201C110.42 70.8001 108.78 70.7501 107.15 70.0101C107.51 69.8801 107.87 69.7301 108.24 69.6201C111.92 68.5101 115.45 66.9901 118.88 65.2401C119.11 65.1201 119.35 65.0001 119.57 64.8801C122.98 63.1201 126.31 61.2301 129.55 59.1901C132.87 57.1101 136.09 54.8701 139.22 52.4701C139.43 52.3101 139.62 51.9701 139.93 52.1701C140.25 52.3701 140.04 52.6901 140 52.9601C139.72 54.7801 139.64 56.6101 140.23 58.3901C140.57 59.3901 140.36 59.9801 139.56 60.5701C135.58 63.5301 131.38 65.8801 126.96 67.5801C124.2 80.3101 126.26 94.0901 133.8 105.93C140.47 116.41 150.31 123.64 161.28 127.17C161.5 127.01 161.71 126.85 161.93 126.7C170.62 120.45 179.2 114 187.45 107.17C196.33 99.8201 236.96 65.8501 210.03 67.2001C209.95 67.3001 209.93 67.3201 209.92 67.3401C202.14 86.1701 173.76 97.7101 167.38 99.2101C173.68 97.4501 178.39 92.5101 183.06 88.2001C188.18 83.4601 192.74 78.1401 196.83 72.4901C201.56 65.9501 206 59.1401 211.74 53.4201C211.8 53.3701 211.88 53.3301 212.03 53.2501C211.59 54.1201 211.18 54.8901 210.92 55.7301C210.85 55.9801 210.88 56.0901 211.15 56.0601C211.45 56.0301 211.75 56.0301 212.05 55.9901C214.15 55.7401 216.19 55.1901 218.22 54.6201C218.45 54.5601 218.67 54.5001 218.89 54.4501C218.9 54.4801 218.91 54.5001 218.93 54.5301C217.89 55.3301 216.85 56.1301 215.81 56.9301C217.95 56.9601 219.91 56.3901 221.79 55.2601C221.13 57.3601 221.09 59.4101 221.23 61.4701C223.44 57.1601 226.41 53.6101 230.86 51.4701C227.58 52.4001 225.02 54.4201 222.71 56.9701C222.78 55.7901 223.06 54.7601 223.45 53.7001C223.3 53.7701 223.22 53.8001 223.15 53.8401C222.24 54.2601 221.3 54.3401 220.33 54.0901C220.24 54.0701 220.12 54.0801 220.09 53.9701C220.05 53.8301 220.21 53.8201 220.28 53.7401C220.45 53.5901 220.61 53.4501 220.84 53.2601C219.86 53.1201 219.09 52.7501 218.66 51.9101C218.49 51.5801 218.3 51.5901 218.01 51.7101C216.9 52.1801 215.8 52.6901 214.74 53.2901C214.51 53.4201 214.3 53.6201 213.92 53.6501C216.12 51.2701 218.65 49.5101 221.64 48.2501C221.19 48.1001 220.85 48.0001 220.51 47.9001C223.43 46.6001 226.39 45.9001 229.61 46.8101C228.1 48.3701 226.78 49.9501 226.47 52.1101C227.69 51.4501 228.92 50.8701 230.19 50.3901C231.08 50.0601 231.97 49.8001 232.91 49.7001C234.04 49.5801 235.1 49.6701 235.99 50.6301C235.86 49.4601 235.49 48.4901 234.77 47.6801C233.7 46.4801 232.29 46.0501 230.75 45.9601C230.49 45.9501 230.3 45.8701 230.11 45.6801C229.63 45.1801 229.06 44.8001 228.39 44.5201C228.4 44.7601 228.59 44.8901 228.56 45.1001C228.52 45.1001 228.48 45.1201 228.44 45.1101C226.53 44.7801 224.68 45.1201 222.85 45.6701C220.08 46.5001 217.54 47.8301 215.1 49.3801C213.14 50.6201 211.29 51.9901 209.49 53.4601C202.42 59.2301 197.54 67.3401 190.4 72.8901C183.53 78.2301 175.42 81.4201 166.84 82.6401C175.11 81.4701 181.32 73.4701 186.74 67.8501C190.37 64.0701 194 60.2301 197.92 56.7501C192.68 56.3901 187.65 53.8701 183.73 50.4601C176.76 44.3801 172.99 36.0601 169.22 27.7801C169.01 27.3101 168.79 26.8301 168.58 26.3501C167.31 23.5801 166.02 20.8501 164.61 18.2101C161.38 12.2301 156.86 8.54011 149.61 9.06011C143.58 9.48011 137.73 10.7801 131.84 11.9601C125.78 13.1801 119.86 12.9501 114.26 10.1001C112.05 8.97011 109.94 7.69011 108.54 5.47011C109.2 5.01011 109.74 5.31011 110.27 5.38011C112.5 5.69011 114.75 5.86011 117.01 5.74011C123.93 5.39011 130.61 3.63011 137.35 2.22011C142 1.31011 146.63 0.120108 151.42 0.000108378C159.06 -0.169892 164.86 2.89011 168.49 9.75011C168.53 9.84011 168.59 9.95011 168.64 10.0401C171.3 15.1701 172.69 20.7801 174.39 26.2701C174.49 26.6001 174.6 26.9401 174.7 27.2701C175.68 30.3101 176.77 33.2901 178.27 36.1301C182.22 43.6401 188.12 50.1201 195.37 54.5601C196.39 55.1801 197.48 55.7901 198.57 56.2301C200.75 54.3301 203.03 52.5501 205.44 50.9401C209.66 48.1601 214.09 45.8201 218.97 44.4201C222.11 43.5201 225.3 43.0901 228.57 43.3101C229.55 43.3801 230.23 43.9101 230.92 44.5001C231.11 44.6601 231.28 44.7301 231.53 44.7301C233.23 44.6901 234.84 45.0101 236.19 46.1401C237.36 47.1201 237.89 48.4501 238.07 49.9301C238.24 51.3101 238.08 52.6801 237.81 54.0401L237.8 54.0101ZM224.49 49.4101C224.4 49.8501 224.29 50.2301 224.02 50.5501C223.9 50.6901 223.8 50.7301 223.7 50.5901C223.51 50.3501 223.42 50.4701 223.27 50.6401C222.96 50.9801 222.44 51.0701 222.08 50.8701C221.89 50.7701 221.85 50.6601 222.03 50.5101C222.2 50.3701 222.34 50.2001 222.37 49.9201C221.78 50.0701 221.26 50.3101 220.72 50.5101C220.47 50.6101 220.46 50.7601 220.55 50.9901C220.77 51.4801 221.1 51.8301 221.61 51.9901C222.55 52.3001 223.39 52.0801 224.08 51.3901C224.64 50.8401 224.8 50.0201 224.48 49.4001L224.49 49.4101ZM224.75 74.2401C224.44 74.9501 224.08 75.6601 223.67 76.3401C217.53 86.3801 208.4 94.4101 199.51 101.96C188.25 111.52 176.13 120.04 163.57 127.86C172.56 130.3 182.19 130.31 191.37 127.62C191.57 127.56 191.77 127.49 191.97 127.43C192.33 126.8 192.7 126.19 193.08 125.58C194.19 123.85 195.42 122.21 196.71 120.6C197.83 119.21 199 117.86 200.25 116.58C200.47 116.36 200.69 116.17 201.01 116.2C202.74 116.38 204.45 116.25 206.21 116.03C205.02 117.17 203.81 118.29 202.66 119.47C201.47 120.71 200.32 121.97 199.24 123.28C198.67 123.96 198.12 124.65 197.58 125.35C197.83 125.24 198.08 125.14 198.32 125.02C200.43 124.05 202.5 122.93 204.52 121.65C205.98 120.72 207.37 119.74 208.7 118.68C211.51 116.48 214.03 114.04 216.26 111.38C217.73 109.63 219.07 107.79 220.28 105.88C220.13 105.41 220.03 104.92 219.93 104.42C217.75 106.53 215.74 108.79 213.86 111.18C212.75 112.6 211.73 114.08 210.88 115.67C210.79 115.82 210.69 115.98 210.6 116.14C210.45 115.33 210.6 114.59 210.79 113.85C212.06 109.24 214.52 105.38 218 102.14C218.34 101.82 218.62 101.78 219.02 102.01C219.23 102.13 219.45 102.22 219.67 102.3C219.52 99.3001 220.35 96.4701 221.77 93.7501C222.99 91.4401 224.67 89.3701 226.16 87.2601C226.73 86.4601 227.27 85.6501 227.83 84.8501C228.07 84.4901 228.32 84.1301 228.57 83.7801C228.64 83.6701 228.72 83.5701 228.79 83.4701C229.84 81.9701 230.88 80.1101 230.52 78.2101C230.27 76.9001 229.33 75.7901 228.17 75.1301C228.16 75.1301 228.14 75.1201 228.13 75.1101C228.06 75.0701 227.99 75.0401 227.93 75.0001C226.95 74.5001 225.86 74.2901 224.77 74.2401H224.75Z" fill="url(#paint1_linear_305_3519)"/>
</g>
<defs>
<linearGradient id="paint0_linear_305_3519" x1="242.62" y1="102.39" x2="664.12" y2="102.39" gradientUnits="userSpaceOnUse">
<stop stop-color="#2E3192"/>
<stop offset="0.01" stop-color="#303090"/>
<stop offset="0.09" stop-color="#3C2E89"/>
<stop offset="0.21" stop-color="#432D85"/>
<stop offset="0.52" stop-color="#452D84"/>
<stop offset="0.55" stop-color="#5B2B77"/>
<stop offset="0.59" stop-color="#812961"/>
<stop offset="0.64" stop-color="#A2274F"/>
<stop offset="0.69" stop-color="#BD2640"/>
<stop offset="0.74" stop-color="#D22534"/>
<stop offset="0.81" stop-color="#E0242C"/>
<stop offset="0.88" stop-color="#E92427"/>
<stop offset="1" stop-color="#EC2426"/>
</linearGradient>
<linearGradient id="paint1_linear_305_3519" x1="0.000238092" y1="70.2001" x2="238.13" y2="70.2001" gradientUnits="userSpaceOnUse">
<stop stop-color="#2E3192"/>
<stop offset="0.01" stop-color="#303090"/>
<stop offset="0.09" stop-color="#3C2E89"/>
<stop offset="0.2" stop-color="#432D85"/>
<stop offset="0.5" stop-color="#452D84"/>
<stop offset="0.56" stop-color="#4A2C80"/>
<stop offset="0.64" stop-color="#592B78"/>
<stop offset="0.73" stop-color="#732A6A"/>
<stop offset="0.83" stop-color="#962856"/>
<stop offset="0.92" stop-color="#C3263C"/>
<stop offset="1" stop-color="#EC2426"/>
</linearGradient>
<clipPath id="clip0_305_3519">
<rect width="664.12" height="140.4" fill="white"/>
</clipPath>
</defs>
</svg>
